<svg width="1539" height="1551" viewBox="0 0 1539 1551" fill="none" xmlns="http://www.w3.org/2000/svg">
<path d="M348.951 1095.83C354.368 1090.12 354.05 1081.19 348.241 1075.88C342.432 1070.56 333.332 1070.87 327.916 1076.57C322.499 1082.27 322.816 1091.21 328.625 1096.52C334.434 1101.84 343.534 1101.53 348.951 1095.83Z" fill="#F8D637"/>
<path d="M298.785 620.595C310.027 620.595 319.142 611.65 319.142 600.615C319.142 589.58 310.027 580.635 298.785 580.635C287.542 580.635 278.428 589.58 278.428 600.615C278.428 611.65 287.542 620.595 298.785 620.595Z" fill="#F8D637"/>
<path d="M1137.56 53.958C1152.74 53.958 1165.05 41.8791 1165.05 26.979C1165.05 12.0789 1152.74 0 1137.56 0C1122.38 0 1110.08 12.0789 1110.08 26.979C1110.08 41.8791 1122.38 53.958 1137.56 53.958Z" fill="#F8D637"/>
<path d="M1218.73 241.374L1241.82 265.947L1266.86 243.28L1243.76 218.707L1218.73 241.374Z" fill="#F8D637"/>
<path d="M263.843 759.061L239.918 777.84L259.051 801.323L282.977 782.543L263.843 759.061Z" fill="#F8D637"/>
<path d="M1114.52 560.61L1137.67 540.928L1117.62 518.197L1094.46 537.88L1114.52 560.61Z" fill="#F8D637"/>
<path d="M141.306 1297.74L171.64 1258.48L131.647 1228.71L101.313 1267.96L141.306 1297.74Z" fill="#F8D637"/>
<path d="M1254.71 964.662C1270.6 963.57 1282.58 950.046 1281.46 934.455C1280.35 918.864 1266.57 907.11 1250.69 908.201C1234.8 909.293 1222.83 922.816 1223.94 938.407C1225.05 953.999 1238.83 965.753 1254.71 964.662Z" fill="#FFE000"/>
<path d="M1292.49 87.7797L1275.88 53.7627L1254.17 84.8472L1292.49 87.7797Z" fill="#0D9CE8"/>
<path d="M1180.99 1107.86L1136.61 1095.46L1147.88 1139.41L1180.99 1107.86Z" fill="#455660"/>
<path d="M178.196 1023.36L174.451 978.243L136.486 1004.01L178.196 1023.36Z" fill="#546066"/>
<path d="M1071.63 73.3126V1283.69C1071.63 1298.83 1065.5 1313.35 1054.6 1324.06C1043.69 1334.76 1028.9 1340.78 1013.47 1340.78H449.092C441.452 1340.78 433.886 1339.31 426.827 1336.44C419.768 1333.58 413.354 1329.37 407.953 1324.07C402.551 1318.77 398.266 1312.47 395.345 1305.54C392.424 1298.62 390.923 1291.19 390.929 1283.69V73.3126C390.929 58.1828 397.052 43.6727 407.953 32.9743C418.853 22.2759 433.636 16.2656 449.052 16.2656H1013.47C1021.11 16.2605 1028.67 17.7323 1035.72 20.5969C1042.78 23.4614 1049.19 27.6627 1054.59 32.9605C1060 38.2583 1064.28 44.5488 1067.2 51.4726C1070.13 58.3964 1071.63 65.8178 1071.63 73.3126Z" fill="#FAF7F2"/>
<path d="M1013.47 1343.71H449.091C432.883 1343.69 417.346 1337.36 405.889 1326.11C394.432 1314.85 387.991 1299.6 387.98 1283.69V73.3124C388.012 57.418 394.462 42.184 405.917 30.9486C417.371 19.7132 432.897 13.3927 449.091 13.3721H1013.47C1029.68 13.3824 1045.22 19.7037 1056.68 30.9487C1068.15 42.1937 1074.6 57.4435 1074.62 73.3515V1283.69C1074.6 1299.6 1068.15 1314.86 1056.69 1326.11C1045.22 1337.36 1029.68 1343.69 1013.47 1343.71ZM449.091 19.2371C434.472 19.2474 420.454 24.9521 410.116 35.0982C399.779 45.2444 393.967 59.0026 393.956 73.3515V1283.69C393.967 1298.04 399.778 1311.81 410.114 1321.96C420.45 1332.11 434.468 1337.82 449.091 1337.85H1013.47C1028.1 1337.82 1042.12 1332.11 1052.46 1321.96C1062.8 1311.81 1068.62 1298.05 1068.64 1283.69V73.3124C1068.61 58.9667 1062.79 45.2186 1052.44 35.082C1042.1 24.9454 1028.09 19.2474 1013.47 19.2371H449.091Z" fill="#010101"/>
<path d="M923.635 350.492H541.395V651.054H923.635V350.492Z" fill="#FAF7F2"/>
<path d="M923.636 653.948H541.196C540.403 653.948 539.643 653.639 539.083 653.089C538.523 652.539 538.208 651.793 538.208 651.015V350.493C538.208 349.715 538.523 348.969 539.083 348.419C539.643 347.869 540.403 347.56 541.196 347.56H923.636C924.428 347.56 925.188 347.869 925.749 348.419C926.309 348.969 926.624 349.715 926.624 350.493V651.054C926.613 651.825 926.294 652.561 925.735 653.103C925.175 653.644 924.421 653.948 923.636 653.948ZM544.383 648.083H920.768V353.425H544.383V648.083Z" fill="#010101"/>
<path d="M963.632 169.068H498.928V247.816H963.632V169.068Z" fill="#FAF7F2"/>
<path d="M963.633 250.748H498.928C498.136 250.748 497.376 250.439 496.816 249.889C496.255 249.339 495.94 248.593 495.94 247.816V169.068C495.94 168.29 496.255 167.545 496.816 166.995C497.376 166.445 498.136 166.136 498.928 166.136H963.633C964.425 166.136 965.185 166.445 965.745 166.995C966.306 167.545 966.621 168.29 966.621 169.068V247.816C966.621 248.201 966.543 248.582 966.393 248.938C966.243 249.294 966.023 249.617 965.745 249.889C965.468 250.161 965.139 250.378 964.776 250.525C964.414 250.672 964.025 250.748 963.633 250.748ZM501.916 244.883H960.605V172.001H501.916V244.883Z" fill="#010101"/>
<path d="M1071.63 1254.6V1283.69C1071.63 1298.83 1065.5 1313.35 1054.6 1324.06C1043.69 1334.76 1028.9 1340.78 1013.47 1340.78H449.092C441.452 1340.78 433.886 1339.31 426.827 1336.44C419.768 1333.58 413.354 1329.37 407.953 1324.07C402.551 1318.77 398.266 1312.47 395.345 1305.54C392.424 1298.62 390.923 1291.19 390.929 1283.69V1254.6H1071.63Z" fill="#010101"/>
<path d="M1013.47 1343.71H449.091C432.883 1343.69 417.346 1337.36 405.889 1326.11C394.432 1314.85 387.991 1299.6 387.98 1283.69V1254.6C387.98 1253.82 388.295 1253.08 388.856 1252.53C389.416 1251.98 390.176 1251.67 390.968 1251.67H1071.63C1072.42 1251.67 1073.18 1251.98 1073.74 1252.53C1074.3 1253.08 1074.62 1253.82 1074.62 1254.6V1283.69C1074.6 1299.6 1068.15 1314.86 1056.69 1326.11C1045.22 1337.36 1029.68 1343.69 1013.47 1343.71ZM393.956 1257.69V1283.85C393.967 1298.2 399.778 1311.96 410.114 1322.12C420.45 1332.27 434.468 1337.98 449.091 1338H1013.47C1028.1 1337.98 1042.12 1332.27 1052.46 1322.12C1062.8 1311.97 1068.62 1298.2 1068.64 1283.85V1257.53L393.956 1257.69Z" fill="#010101"/>
<path d="M588.084 531.799L548.685 637.369C532.75 635.883 510.839 640.536 491.717 649.451C486.773 651.733 481.995 654.346 477.415 657.271L441.004 620.399C444.694 616.698 448.153 612.781 451.362 608.669C463.168 593.619 470.713 575.773 473.232 556.94L588.084 531.799Z" fill="#F8D637"/>
<path d="M477.416 660.477C477.014 660.477 476.616 660.397 476.247 660.243C475.877 660.088 475.543 659.862 475.265 659.578L438.733 622.667C438.244 622.13 437.973 621.434 437.973 620.712C437.973 619.991 438.244 619.295 438.733 618.757C442.361 615.055 445.753 611.137 448.892 607.027C460.399 592.409 467.753 575.06 470.205 556.745C470.28 556.145 470.543 555.582 470.957 555.134C471.37 554.686 471.915 554.375 472.516 554.242L587.367 528.984C587.896 528.863 588.448 528.886 588.965 529.05C589.481 529.214 589.943 529.513 590.299 529.915C590.655 530.317 590.893 530.807 590.987 531.332C591.082 531.856 591.028 532.396 590.833 532.894L551.434 638.464C551.213 639.081 550.785 639.606 550.221 639.954C549.657 640.302 548.989 640.452 548.326 640.38C532.909 638.933 511.676 643.468 492.912 652.11C488.088 654.401 483.43 657.013 478.969 659.93C478.514 660.252 477.976 660.441 477.416 660.477ZM445.147 620.634L477.854 653.752C481.904 651.267 486.093 649.008 490.403 646.987C507.893 638.544 527.163 634.258 546.653 634.475L583.423 535.865L475.862 559.325C473.001 577.931 465.365 595.517 453.673 610.429C451.003 614.065 448.135 617.467 445.147 620.595V620.634Z" fill="#010101"/>
<path d="M441.404 598.666L420.902 618.186L477.267 675.213L497.769 655.693L441.404 598.666Z" fill="#5E6A71"/>
<path d="M477.296 678.228C476.894 678.228 476.496 678.148 476.127 677.994C475.757 677.839 475.423 677.613 475.144 677.329L418.814 620.321C418.255 619.771 417.94 619.026 417.94 618.249C417.94 617.472 418.255 616.727 418.814 616.177L439.33 596.627C439.891 596.078 440.65 595.769 441.442 595.769C442.234 595.769 442.993 596.078 443.553 596.627L499.923 653.634C500.483 654.184 500.797 654.93 500.797 655.707C500.797 656.484 500.483 657.229 499.923 657.779L479.407 677.329C479.133 677.609 478.806 677.832 478.443 677.986C478.081 678.141 477.691 678.223 477.296 678.228ZM425.148 618.327L477.335 671.151L493.549 655.707L441.362 602.883L425.148 618.327Z" fill="#010101"/>
<path d="M339.899 781.089L464.482 662.47L433.693 631.319L309.109 749.937L339.899 781.089Z" fill="#90A4AE"/>
<path d="M339.897 783.916C339.495 783.916 339.097 783.836 338.728 783.682C338.358 783.527 338.024 783.301 337.745 783.017L306.951 751.737C306.392 751.187 306.077 750.442 306.077 749.665C306.077 748.887 306.392 748.142 306.951 747.592L431.642 629.197C432.203 628.648 432.962 628.34 433.754 628.34C434.546 628.34 435.305 628.648 435.865 629.197L466.66 660.477C467.219 661.027 467.533 661.773 467.533 662.55C467.533 663.327 467.219 664.072 466.66 664.622L342.048 783.251C341.447 783.74 340.675 783.979 339.897 783.916ZM313.325 749.899L339.976 776.839L460.286 662.315L433.634 635.375L313.325 749.899Z" fill="#010101"/>
<path d="M511.357 603.548C510.757 603.548 510.17 603.37 509.674 603.038C509.178 602.706 508.795 602.235 508.576 601.686C508.356 601.138 508.31 600.537 508.444 599.962C508.578 599.387 508.885 598.866 509.326 598.465L586.132 529.688C586.729 529.248 587.472 529.044 588.215 529.114C588.958 529.185 589.646 529.526 590.146 530.07C590.646 530.614 590.92 531.322 590.914 532.055C590.908 532.787 590.624 533.491 590.116 534.028L513.27 602.805C512.742 603.267 512.064 603.53 511.357 603.548Z" fill="#010101"/>
<path d="M521.8 611.136C527.77 605.453 527.914 596.096 522.124 590.237C516.333 584.378 506.799 584.236 500.83 589.919C494.861 595.603 494.716 604.96 500.507 610.819C506.297 616.678 515.831 616.82 521.8 611.136Z" fill="#FAF7F2"/>
<path d="M511.357 618.327C507.179 618.319 503.134 616.886 499.915 614.273C496.696 611.66 494.503 608.029 493.711 604.003C492.919 599.977 493.579 595.807 495.576 592.205C497.573 588.604 500.784 585.796 504.658 584.263C508.533 582.73 512.83 582.567 516.813 583.801C520.797 585.036 524.22 587.592 526.494 591.031C528.769 594.47 529.755 598.578 529.283 602.652C528.81 606.726 526.909 610.512 523.906 613.362C520.542 616.559 516.039 618.34 511.357 618.327ZM511.357 588.807C508.161 588.807 505.096 590.053 502.836 592.271C500.576 594.489 499.306 597.498 499.306 600.635C499.306 603.772 500.576 606.78 502.836 608.998C505.096 611.216 508.161 612.462 511.357 612.462C514.539 612.468 517.604 611.279 519.922 609.139C521.689 607.531 522.919 605.437 523.452 603.131C523.985 600.825 523.795 598.415 522.908 596.216C522.021 594.018 520.477 592.134 518.48 590.812C516.482 589.49 514.125 588.791 511.715 588.807H511.357Z" fill="#010101"/>
<path d="M1137.56 1036.54H1117.64C1116.85 1036.54 1116.09 1036.23 1115.53 1035.68C1114.97 1035.13 1114.66 1034.39 1114.66 1033.61C1114.66 1032.83 1114.97 1032.08 1115.53 1031.53C1116.09 1030.98 1116.85 1030.68 1117.64 1030.68H1134.57V1016.29C1134.57 1015.51 1134.89 1014.76 1135.45 1014.21C1136.01 1013.66 1136.77 1013.35 1137.56 1013.35C1138.35 1013.35 1139.11 1013.66 1139.68 1014.21C1140.24 1014.76 1140.55 1015.51 1140.55 1016.29V1033.65C1140.54 1034.42 1140.22 1035.15 1139.66 1035.7C1139.1 1036.24 1138.35 1036.54 1137.56 1036.54ZM1097.73 1036.54H1077.81C1077.01 1036.54 1076.25 1036.23 1075.69 1035.68C1075.13 1035.13 1074.82 1034.39 1074.82 1033.61C1074.82 1032.83 1075.13 1032.08 1075.69 1031.53C1076.25 1030.98 1077.01 1030.68 1077.81 1030.68H1097.73C1098.52 1030.68 1099.28 1030.98 1099.84 1031.53C1100.4 1032.08 1100.71 1032.83 1100.71 1033.61C1100.71 1034.39 1100.4 1035.13 1099.84 1035.68C1099.28 1036.23 1098.52 1036.54 1097.73 1036.54ZM1057.89 1036.54H1037.97C1037.18 1036.54 1036.42 1036.23 1035.86 1035.68C1035.3 1035.13 1034.98 1034.39 1034.98 1033.61C1034.98 1032.83 1035.3 1032.08 1035.86 1031.53C1036.42 1030.98 1037.18 1030.68 1037.97 1030.68H1057.89C1058.68 1030.68 1059.44 1030.98 1060 1031.53C1060.56 1032.08 1060.88 1032.83 1060.88 1033.61C1060.88 1034.39 1060.56 1035.13 1060 1035.68C1059.44 1036.23 1058.68 1036.54 1057.89 1036.54ZM1018.05 1036.54H998.131C997.339 1036.54 996.579 1036.23 996.019 1035.68C995.458 1035.13 995.143 1034.39 995.143 1033.61C995.143 1032.83 995.458 1032.08 996.019 1031.53C996.579 1030.98 997.339 1030.68 998.131 1030.68H1018.05C1018.84 1030.68 1019.6 1030.98 1020.16 1031.53C1020.72 1032.08 1021.04 1032.83 1021.04 1033.61C1021.04 1034.39 1020.72 1035.13 1020.16 1035.68C1019.6 1036.23 1018.84 1036.54 1018.05 1036.54ZM978.213 1036.54H958.294C957.501 1036.54 956.741 1036.23 956.181 1035.68C955.621 1035.13 955.306 1034.39 955.306 1033.61C955.306 1032.83 955.621 1032.08 956.181 1031.53C956.741 1030.98 957.501 1030.68 958.294 1030.68H978.213C979.005 1030.68 979.765 1030.98 980.325 1031.53C980.885 1032.08 981.2 1032.83 981.2 1033.61C981.2 1034.39 980.885 1035.13 980.325 1035.68C979.765 1036.23 979.005 1036.54 978.213 1036.54ZM938.375 1036.54H918.456C917.664 1036.54 916.904 1036.23 916.344 1035.68C915.783 1035.13 915.468 1034.39 915.468 1033.61C915.468 1032.83 915.783 1032.08 916.344 1031.53C916.904 1030.98 917.664 1030.68 918.456 1030.68H938.375C939.167 1030.68 939.927 1030.98 940.488 1031.53C941.048 1032.08 941.363 1032.83 941.363 1033.61C941.363 1034.39 941.048 1035.13 940.488 1035.68C939.927 1036.23 939.167 1036.54 938.375 1036.54ZM898.538 1036.54H878.619C877.826 1036.54 877.066 1036.23 876.506 1035.68C875.946 1035.13 875.631 1034.39 875.631 1033.61C875.631 1032.83 875.946 1032.08 876.506 1031.53C877.066 1030.98 877.826 1030.68 878.619 1030.68H898.538C899.33 1030.68 900.09 1030.98 900.65 1031.53C901.21 1032.08 901.525 1032.83 901.525 1033.61C901.525 1034.39 901.21 1035.13 900.65 1035.68C900.09 1036.23 899.33 1036.54 898.538 1036.54ZM858.7 1036.54H838.781C837.989 1036.54 837.229 1036.23 836.669 1035.68C836.108 1035.13 835.793 1034.39 835.793 1033.61C835.793 1032.83 836.108 1032.08 836.669 1031.53C837.229 1030.98 837.989 1030.68 838.781 1030.68H858.7C859.492 1030.68 860.252 1030.98 860.813 1031.53C861.373 1032.08 861.688 1032.83 861.688 1033.61C861.688 1034.39 861.373 1035.13 860.813 1035.68C860.252 1036.23 859.492 1036.54 858.7 1036.54ZM818.863 1036.54H798.944C798.151 1036.54 797.391 1036.23 796.831 1035.68C796.271 1035.13 795.956 1034.39 795.956 1033.61C795.956 1032.83 796.271 1032.08 796.831 1031.53C797.391 1030.98 798.151 1030.68 798.944 1030.68H818.863C819.655 1030.68 820.415 1030.98 820.975 1031.53C821.535 1032.08 821.85 1032.83 821.85 1033.61C821.85 1034.39 821.535 1035.13 820.975 1035.68C820.415 1036.23 819.655 1036.54 818.863 1036.54ZM779.025 1036.54H769.384C768.592 1036.54 767.832 1036.23 767.272 1035.68C766.711 1035.13 766.396 1034.39 766.396 1033.61V1023.4C766.396 1022.63 766.711 1021.88 767.272 1021.33C767.832 1020.78 768.592 1020.47 769.384 1020.47C770.177 1020.47 770.937 1020.78 771.497 1021.33C772.057 1021.88 772.372 1022.63 772.372 1023.4V1030.68H778.906C779.698 1030.68 780.458 1030.98 781.018 1031.53C781.578 1032.08 781.893 1032.83 781.893 1033.61C781.893 1034.39 781.578 1035.13 781.018 1035.68C780.458 1036.23 779.698 1036.54 778.906 1036.54H779.025ZM769.384 1006.82C768.592 1006.82 767.832 1006.52 767.272 1005.97C766.711 1005.42 766.396 1004.67 766.396 1003.89V984.342C766.396 983.565 766.711 982.819 767.272 982.269C767.832 981.719 768.592 981.41 769.384 981.41C770.177 981.41 770.937 981.719 771.497 982.269C772.057 982.819 772.372 983.565 772.372 984.342V1003.89C772.372 1004.67 772.057 1005.42 771.497 1005.97C770.937 1006.52 770.177 1006.82 769.384 1006.82ZM1137.44 999.631C1136.65 999.631 1135.89 999.322 1135.33 998.772C1134.77 998.222 1134.46 997.476 1134.46 996.698V977.148C1134.46 976.37 1134.77 975.624 1135.33 975.074C1135.89 974.525 1136.65 974.216 1137.44 974.216C1138.24 974.216 1139 974.525 1139.56 975.074C1140.12 975.624 1140.43 976.37 1140.43 977.148V996.698C1140.43 997.456 1140.13 998.185 1139.6 998.731C1139.06 999.278 1138.33 999.6 1137.56 999.631H1137.44ZM769.384 967.725C768.592 967.725 767.832 967.416 767.272 966.866C766.711 966.316 766.396 965.57 766.396 964.792V945.242C766.396 944.465 766.711 943.719 767.272 943.169C767.832 942.619 768.592 942.31 769.384 942.31C770.177 942.31 770.937 942.619 771.497 943.169C772.057 943.719 772.372 944.465 772.372 945.242V964.792C772.372 965.57 772.057 966.316 771.497 966.866C770.937 967.416 770.177 967.725 769.384 967.725ZM1137.44 960.531C1136.65 960.531 1135.89 960.222 1135.33 959.672C1134.77 959.122 1134.46 958.376 1134.46 957.598V938.048C1134.46 937.27 1134.77 936.524 1135.33 935.974C1135.89 935.425 1136.65 935.116 1137.44 935.116C1138.24 935.116 1139 935.425 1139.56 935.974C1140.12 936.524 1140.43 937.27 1140.43 938.048V957.598C1140.43 958.356 1140.13 959.085 1139.6 959.631C1139.06 960.178 1138.33 960.5 1137.56 960.531H1137.44ZM769.384 928.625C768.592 928.625 767.832 928.316 767.272 927.766C766.711 927.216 766.396 926.47 766.396 925.692V906.142C766.396 905.365 766.711 904.619 767.272 904.069C767.832 903.519 768.592 903.21 769.384 903.21C770.177 903.21 770.937 903.519 771.497 904.069C772.057 904.619 772.372 905.365 772.372 906.142V925.692C772.372 926.47 772.057 927.216 771.497 927.766C770.937 928.316 770.177 928.625 769.384 928.625ZM1137.44 921.431C1136.65 921.431 1135.89 921.122 1135.33 920.572C1134.77 920.022 1134.46 919.276 1134.46 918.498V898.948C1134.46 898.17 1134.77 897.424 1135.33 896.874C1135.89 896.325 1136.65 896.016 1137.44 896.016C1138.24 896.016 1139 896.325 1139.56 896.874C1140.12 897.424 1140.43 898.17 1140.43 898.948V918.498C1140.43 919.256 1140.13 919.985 1139.6 920.531C1139.06 921.078 1138.33 921.4 1137.56 921.431H1137.44ZM1119.04 900.395H1099.12C1098.33 900.395 1097.57 900.086 1097.01 899.536C1096.45 898.986 1096.13 898.24 1096.13 897.462C1096.13 896.685 1096.45 895.939 1097.01 895.389C1097.57 894.839 1098.33 894.53 1099.12 894.53H1119.04C1119.83 894.53 1120.59 894.839 1121.15 895.389C1121.71 895.939 1122.03 896.685 1122.03 897.462C1122.03 898.24 1121.71 898.986 1121.15 899.536C1120.59 900.086 1119.83 900.395 1119.04 900.395ZM1079.2 900.395H1059.28C1058.49 900.395 1057.73 900.086 1057.17 899.536C1056.61 898.986 1056.29 898.24 1056.29 897.462C1056.29 896.685 1056.61 895.939 1057.17 895.389C1057.73 894.839 1058.49 894.53 1059.28 894.53H1079.2C1079.99 894.53 1080.75 894.839 1081.31 895.389C1081.87 895.939 1082.19 896.685 1082.19 897.462C1082.19 898.24 1081.87 898.986 1081.31 899.536C1080.75 900.086 1079.99 900.395 1079.2 900.395ZM1039.36 900.395H1019.44C1018.65 900.395 1017.89 900.086 1017.33 899.536C1016.77 898.986 1016.46 898.24 1016.46 897.462C1016.46 896.685 1016.77 895.939 1017.33 895.389C1017.89 894.839 1018.65 894.53 1019.44 894.53H1039.36C1040.16 894.53 1040.92 894.839 1041.48 895.389C1042.04 895.939 1042.35 896.685 1042.35 897.462C1042.35 898.24 1042.04 898.986 1041.48 899.536C1040.92 900.086 1040.16 900.395 1039.36 900.395ZM999.525 900.395H979.607C978.814 900.395 978.054 900.086 977.494 899.536C976.934 898.986 976.619 898.24 976.619 897.462C976.619 896.685 976.934 895.939 977.494 895.389C978.054 894.839 978.814 894.53 979.607 894.53H999.525C1000.32 894.53 1001.08 894.839 1001.64 895.389C1002.2 895.939 1002.51 896.685 1002.51 897.462C1002.51 898.24 1002.2 898.986 1001.64 899.536C1001.08 900.086 1000.32 900.395 999.525 900.395ZM959.688 900.395H939.769C938.977 900.395 938.217 900.086 937.657 899.536C937.096 898.986 936.781 898.24 936.781 897.462C936.781 896.685 937.096 895.939 937.657 895.389C938.217 894.839 938.977 894.53 939.769 894.53H959.688C960.48 894.53 961.24 894.839 961.801 895.389C962.361 895.939 962.676 896.685 962.676 897.462C962.676 898.24 962.361 898.986 961.801 899.536C961.24 900.086 960.48 900.395 959.688 900.395ZM919.85 900.395H899.932C899.139 900.395 898.379 900.086 897.819 899.536C897.259 898.986 896.944 898.24 896.944 897.462C896.944 896.685 897.259 895.939 897.819 895.389C898.379 894.839 899.139 894.53 899.932 894.53H919.85C920.643 894.53 921.403 894.839 921.963 895.389C922.524 895.939 922.838 896.685 922.838 897.462C922.838 898.24 922.524 898.986 921.963 899.536C921.403 900.086 920.643 900.395 919.85 900.395ZM880.013 900.395H860.094C859.302 900.395 858.542 900.086 857.982 899.536C857.421 898.986 857.106 898.24 857.106 897.462C857.106 896.685 857.421 895.939 857.982 895.389C858.542 894.839 859.302 894.53 860.094 894.53H880.013C880.805 894.53 881.565 894.839 882.126 895.389C882.686 895.939 883.001 896.685 883.001 897.462C883.001 898.24 882.686 898.986 882.126 899.536C881.565 900.086 880.805 900.395 880.013 900.395ZM840.175 900.395H820.257C819.464 900.395 818.704 900.086 818.144 899.536C817.584 898.986 817.269 898.24 817.269 897.462C817.269 896.685 817.584 895.939 818.144 895.389C818.704 894.839 819.464 894.53 820.257 894.53H840.175C840.968 894.53 841.728 894.839 842.288 895.389C842.849 895.939 843.163 896.685 843.163 897.462C843.163 898.24 842.849 898.986 842.288 899.536C841.728 900.086 840.968 900.395 840.175 900.395ZM800.338 900.395H780.419C779.627 900.395 778.867 900.086 778.307 899.536C777.746 898.986 777.431 898.24 777.431 897.462C777.431 896.685 777.746 895.939 778.307 895.389C778.867 894.839 779.627 894.53 780.419 894.53H800.338C801.13 894.53 801.89 894.839 802.451 895.389C803.011 895.939 803.326 896.685 803.326 897.462C803.326 898.24 803.011 898.986 802.451 899.536C801.89 900.086 801.13 900.395 800.338 900.395Z" fill="#010101"/>
<path d="M848.701 936.093C848.304 936.091 847.911 936.011 847.545 935.858L819.261 924.128C818.581 923.796 818.056 923.223 817.791 922.524C817.527 921.825 817.544 921.054 817.838 920.367C818.132 919.68 818.682 919.128 819.375 918.825C820.069 918.521 820.854 918.488 821.571 918.733L848.701 929.915L875.83 918.733C876.196 918.554 876.595 918.451 877.003 918.429C877.411 918.408 877.819 918.469 878.202 918.609C878.584 918.748 878.934 918.963 879.229 919.241C879.524 919.518 879.758 919.852 879.916 920.222C880.074 920.591 880.154 920.989 880.149 921.39C880.145 921.79 880.057 922.186 879.89 922.552C879.724 922.918 879.483 923.247 879.182 923.518C878.881 923.789 878.527 923.997 878.141 924.128L849.856 935.858C849.491 936.011 849.098 936.091 848.701 936.093Z" fill="#010101"/>
<path d="M876.946 1012.38C876.548 1012.38 876.155 1012.3 875.79 1012.14L848.661 1000.96L821.571 1012.38C820.854 1012.62 820.069 1012.59 819.375 1012.28C818.682 1011.98 818.132 1011.43 817.838 1010.74C817.544 1010.06 817.527 1009.28 817.791 1008.59C818.056 1007.89 818.581 1007.31 819.261 1006.98L847.545 995.251C847.911 995.101 848.304 995.023 848.701 995.023C849.097 995.023 849.49 995.101 849.856 995.251L878.141 1006.98C878.663 1007.3 879.072 1007.77 879.312 1008.33C879.551 1008.89 879.609 1009.5 879.479 1010.09C879.348 1010.68 879.034 1011.22 878.581 1011.63C878.127 1012.04 877.556 1012.3 876.946 1012.38Z" fill="#010101"/>
<path d="M848.701 1000.65C847.908 1000.65 847.148 1000.34 846.588 999.788C846.028 999.238 845.713 998.492 845.713 997.715V933.161C845.713 932.383 846.028 931.637 846.588 931.087C847.148 930.537 847.908 930.228 848.701 930.228C849.493 930.228 850.253 930.537 850.813 931.087C851.374 931.637 851.689 932.383 851.689 933.161V997.871C851.648 998.621 851.315 999.328 850.759 999.844C850.203 1000.36 849.466 1000.65 848.701 1000.65Z" fill="#010101"/>
<path d="M867.584 982.505H829.818C829.025 982.505 828.265 982.196 827.705 981.646C827.145 981.096 826.83 980.35 826.83 979.572C826.83 978.794 827.145 978.049 827.705 977.499C828.265 976.949 829.025 976.64 829.818 976.64H867.584C868.376 976.64 869.136 976.949 869.696 977.499C870.257 978.049 870.572 978.794 870.572 979.572C870.572 980.35 870.257 981.096 869.696 981.646C869.136 982.196 868.376 982.505 867.584 982.505Z" fill="#010101"/>
<path d="M919.651 1009.56C922.424 1009.56 924.671 1007.36 924.671 1004.64C924.671 1001.91 922.424 999.709 919.651 999.709C916.879 999.709 914.632 1001.91 914.632 1004.64C914.632 1007.36 916.879 1009.56 919.651 1009.56Z" fill="#010101"/>
<path d="M941.403 1009.56C944.175 1009.56 946.423 1007.36 946.423 1004.64C946.423 1001.91 944.175 999.709 941.403 999.709C938.631 999.709 936.384 1001.91 936.384 1004.64C936.384 1007.36 938.631 1009.56 941.403 1009.56Z" fill="#010101"/>
<path d="M963.114 1009.56C965.886 1009.56 968.134 1007.36 968.134 1004.64C968.134 1001.91 965.886 999.709 963.114 999.709C960.342 999.709 958.095 1001.91 958.095 1004.64C958.095 1007.36 960.342 1009.56 963.114 1009.56Z" fill="#010101"/>
<path d="M1071.63 73.3126V91.6895H390.929V73.3126C390.929 58.1828 397.052 43.6727 407.953 32.9743C418.853 22.2759 433.636 16.2656 449.052 16.2656H1013.47C1021.11 16.2605 1028.67 17.7323 1035.72 20.5969C1042.78 23.4614 1049.19 27.6627 1054.59 32.9605C1060 38.2583 1064.28 44.5488 1067.2 51.4726C1070.13 58.3964 1071.63 65.8178 1071.63 73.3126Z" fill="#010101"/>
<path d="M1071.63 94.6219H390.928C390.136 94.6219 389.376 94.3129 388.816 93.763C388.255 93.213 387.94 92.4671 387.94 91.6894V73.3124C387.972 57.4112 394.427 42.1714 405.891 30.9349C417.354 19.6983 432.89 13.3824 449.091 13.3721H1013.47C1029.68 13.3824 1045.22 19.7037 1056.68 30.9487C1068.15 42.1936 1074.6 57.4435 1074.62 73.3515V91.7285C1074.61 92.4994 1074.29 93.2353 1073.73 93.7768C1073.17 94.3184 1072.42 94.6219 1071.63 94.6219ZM393.956 88.7569H1068.64V73.3124C1068.61 58.9667 1062.79 45.2186 1052.44 35.082C1042.1 24.9454 1028.09 19.2474 1013.47 19.2371H449.091C434.472 19.2474 420.454 24.9521 410.116 35.0982C399.779 45.2444 393.966 59.0026 393.956 73.3515V88.7569Z" fill="#010101"/>
<path d="M731.3 1317.28C742.323 1317.28 751.259 1308.51 751.259 1297.69C751.259 1286.87 742.323 1278.1 731.3 1278.1C720.278 1278.1 711.342 1286.87 711.342 1297.69C711.342 1308.51 720.278 1317.28 731.3 1317.28Z" fill="#FAF7F2"/>
<path d="M825.715 47.1938H636.885C632.683 47.1938 629.276 50.5374 629.276 54.6619V56.0695C629.276 60.1941 632.683 63.5376 636.885 63.5376H825.715C829.918 63.5376 833.324 60.1941 833.324 56.0695V54.6619C833.324 50.5374 829.918 47.1938 825.715 47.1938Z" fill="#FAF7F2"/>
<path d="M859.457 1104.11H603.103C582.07 1104.11 565.019 1120.84 565.019 1141.49V1148.56C565.019 1169.21 582.07 1185.94 603.103 1185.94H859.457C880.491 1185.94 897.542 1169.21 897.542 1148.56V1141.49C897.542 1120.84 880.491 1104.11 859.457 1104.11Z" fill="#F8D637"/>
<path d="M859.457 1188.87H603.103C592.248 1188.81 581.858 1184.54 574.2 1176.99C566.543 1169.44 562.24 1159.22 562.229 1148.56V1141.41C562.24 1130.72 566.571 1120.47 574.271 1112.91C581.971 1105.36 592.412 1101.11 603.302 1101.1H859.656C870.512 1101.16 880.901 1105.43 888.559 1112.98C896.216 1120.53 900.519 1130.75 900.53 1141.41V1148.48C900.535 1153.78 899.477 1159.03 897.415 1163.93C895.354 1168.83 892.33 1173.28 888.516 1177.03C884.702 1180.78 880.173 1183.76 875.187 1185.79C870.201 1187.82 864.856 1188.87 859.457 1188.87ZM603.103 1107.04C593.798 1107.05 584.877 1110.68 578.297 1117.14C571.718 1123.6 568.017 1132.35 568.006 1141.49V1148.56C568.017 1157.7 571.718 1166.45 578.297 1172.91C584.877 1179.37 593.798 1183 603.103 1183.01H859.457C868.762 1183 877.683 1179.37 884.263 1172.91C890.842 1166.45 894.543 1157.7 894.554 1148.56V1141.41C894.543 1132.27 890.842 1123.52 884.263 1117.06C877.683 1110.6 868.762 1106.97 859.457 1106.96L603.103 1107.04Z" fill="#010101"/>
<path d="M793.008 1147.98H669.512C668.72 1147.98 667.96 1147.67 667.4 1147.12C666.839 1146.57 666.524 1145.82 666.524 1145.04C666.524 1144.27 666.839 1143.52 667.4 1142.97C667.96 1142.42 668.72 1142.11 669.512 1142.11H793.008C793.801 1142.11 794.561 1142.42 795.121 1142.97C795.682 1143.52 795.996 1144.27 795.996 1145.04C795.996 1145.82 795.682 1146.57 795.121 1147.12C794.561 1147.67 793.801 1147.98 793.008 1147.98Z" fill="#010101"/>
<path d="M1229.91 713.106H1030.48V851.559H1229.91V713.106Z" fill="#FAF7F2"/>
<path d="M1229.87 854.491H1030.48C1029.69 854.491 1028.93 854.183 1028.37 853.633C1027.81 853.083 1027.49 852.337 1027.49 851.559V713.106C1027.49 712.328 1027.81 711.582 1028.37 711.032C1028.93 710.482 1029.69 710.173 1030.48 710.173H1229.87C1230.66 710.173 1231.42 710.482 1231.98 711.032C1232.54 711.582 1232.85 712.328 1232.85 713.106V851.559C1232.85 852.337 1232.54 853.083 1231.98 853.633C1231.42 854.183 1230.66 854.491 1229.87 854.491ZM1033.47 848.626H1226.88V716.038H1033.47V848.626Z" fill="#010101"/>
<path d="M1159.79 766.516C1159.79 758.765 1156.66 751.331 1151.07 745.85C1145.49 740.368 1137.91 737.289 1130.01 737.289C1122.12 737.289 1114.54 740.368 1108.96 745.85C1103.37 751.331 1100.24 758.765 1100.24 766.516C1100.24 787.357 1112.66 809.996 1130.03 827.317C1147.4 809.996 1159.83 787.357 1159.83 766.516H1159.79Z" fill="#445259"/>
<path d="M1130.15 830.288C1129.75 830.293 1129.36 830.22 1128.99 830.072C1128.62 829.924 1128.28 829.705 1128 829.428C1108.84 810.269 1097.37 786.77 1097.37 766.555C1097.37 758.026 1100.82 749.846 1106.96 743.815C1113.11 737.784 1121.44 734.396 1130.13 734.396C1138.82 734.396 1147.16 737.784 1153.3 743.815C1159.45 749.846 1162.9 758.026 1162.9 766.555C1162.9 786.77 1151.47 810.269 1132.26 829.428C1131.71 829.978 1130.95 830.288 1130.15 830.288ZM1130.15 740.358C1123.06 740.369 1116.25 743.14 1111.24 748.065C1106.22 752.991 1103.39 759.668 1103.38 766.633C1103.38 784.58 1113.34 805.733 1130.15 823.211C1146.96 805.577 1156.96 784.58 1156.96 766.633C1156.97 763.171 1156.29 759.741 1154.95 756.539C1153.6 753.338 1151.63 750.428 1149.14 747.976C1146.65 745.524 1143.69 743.579 1140.43 742.251C1137.17 740.924 1133.68 740.241 1130.15 740.241V740.358Z" fill="#010101"/>
<path d="M1130.15 780.318C1137.9 780.318 1144.18 774.156 1144.18 766.555C1144.18 758.954 1137.9 752.792 1130.15 752.792C1122.41 752.792 1116.13 758.954 1116.13 766.555C1116.13 774.156 1122.41 780.318 1130.15 780.318Z" fill="#FAF7F2"/>
<path d="M1130.15 783.251C1126.79 783.251 1123.5 782.272 1120.7 780.438C1117.91 778.603 1115.72 775.996 1114.44 772.945C1113.15 769.894 1112.81 766.537 1113.47 763.298C1114.13 760.06 1115.75 757.085 1118.12 754.75C1120.5 752.415 1123.53 750.825 1126.83 750.181C1130.13 749.536 1133.55 749.867 1136.66 751.131C1139.77 752.394 1142.43 754.534 1144.3 757.28C1146.17 760.026 1147.16 763.253 1147.16 766.556C1147.15 770.98 1145.36 775.221 1142.17 778.35C1138.98 781.479 1134.66 783.241 1130.15 783.251ZM1130.15 755.881C1127.97 755.881 1125.84 756.516 1124.02 757.707C1122.21 758.897 1120.79 760.588 1119.96 762.567C1119.12 764.546 1118.9 766.724 1119.33 768.825C1119.76 770.926 1120.81 772.856 1122.35 774.37C1123.89 775.885 1125.86 776.917 1128 777.335C1130.14 777.752 1132.36 777.538 1134.38 776.718C1136.39 775.899 1138.12 774.51 1139.33 772.729C1140.54 770.948 1141.19 768.854 1141.19 766.712C1141.21 765.273 1140.95 763.844 1140.41 762.507C1139.86 761.17 1139.05 759.953 1138.03 758.927C1137 757.9 1135.77 757.085 1134.42 756.528C1133.07 755.972 1131.62 755.686 1130.15 755.686V755.881Z" fill="#010101"/>
<path d="M588.164 839.477H298.784V979.572H588.164V839.477Z" fill="#FAF7F2"/>
<path d="M588.204 982.505H298.785C297.992 982.505 297.232 982.196 296.672 981.646C296.112 981.096 295.797 980.35 295.797 979.572V839.477C295.797 838.699 296.112 837.953 296.672 837.403C297.232 836.853 297.992 836.544 298.785 836.544H588.164C588.957 836.544 589.717 836.853 590.277 837.403C590.837 837.953 591.152 838.699 591.152 839.477V979.572C591.152 980.343 590.843 981.083 590.291 981.632C589.739 982.181 588.99 982.494 588.204 982.505ZM301.812 976.64H585.216V842.409H301.773L301.812 976.64Z" fill="#010101"/>
<path d="M440.805 861.295H446.143C453.655 861.295 460.86 864.224 466.172 869.437C471.484 874.651 474.468 881.722 474.468 889.095V929.016H412.521V889.095C412.521 881.722 415.505 874.651 420.817 869.437C426.128 864.224 433.333 861.295 440.845 861.295H440.805Z" fill="#FAF7F2"/>
<path d="M474.587 931.949H412.52C411.728 931.949 410.968 931.64 410.407 931.09C409.847 930.54 409.532 929.794 409.532 929.016V889.095C409.543 880.947 412.845 873.136 418.715 867.375C424.585 861.614 432.543 858.373 440.844 858.362H446.183C454.487 858.362 462.452 861.6 468.324 867.364C474.196 873.127 477.495 880.944 477.495 889.095V929.016C477.495 929.78 477.191 930.515 476.648 931.062C476.105 931.61 475.365 931.928 474.587 931.949ZM415.627 926.084H471.599V889.095C471.599 885.829 470.944 882.596 469.67 879.579C468.397 876.561 466.531 873.82 464.178 871.511C461.825 869.202 459.032 867.37 455.958 866.12C452.884 864.871 449.59 864.227 446.262 864.227H440.924C434.204 864.227 427.76 866.847 423.008 871.511C418.257 876.175 415.587 882.5 415.587 889.095L415.627 926.084Z" fill="#010101"/>
<path d="M405.629 900.277H481.32V943.952C481.32 947.613 479.839 951.123 477.201 953.712C474.564 956.3 470.987 957.754 467.258 957.754H419.692C415.962 957.754 412.385 956.3 409.748 953.712C407.11 951.123 405.629 947.613 405.629 943.952V900.277Z" fill="#F8D637"/>
<path d="M467.297 960.687H419.691C415.172 960.676 410.842 958.91 407.646 955.774C404.451 952.638 402.651 948.387 402.641 943.952V900.277C402.641 899.499 402.955 898.754 403.516 898.204C404.076 897.654 404.836 897.345 405.628 897.345H481.32C482.112 897.345 482.872 897.654 483.432 898.204C483.993 898.754 484.308 899.499 484.308 900.277V943.952C484.297 948.38 482.503 952.625 479.316 955.76C476.129 958.895 471.809 960.666 467.297 960.687ZM408.616 903.21V943.952C408.627 946.832 409.797 949.591 411.872 951.627C413.946 953.663 416.757 954.811 419.691 954.822H467.297C468.767 954.842 470.226 954.577 471.59 954.04C472.954 953.504 474.197 952.707 475.245 951.696C476.294 950.685 477.127 949.48 477.698 948.151C478.269 946.822 478.566 945.395 478.571 943.952V903.21H408.616Z" fill="#010101"/>
<path d="M453.632 924.598C453.639 922.836 453.17 921.103 452.272 919.577C451.374 918.051 450.081 916.786 448.523 915.91C446.965 915.034 445.198 914.579 443.403 914.592C441.607 914.604 439.847 915.083 438.302 915.98C436.757 916.877 435.481 918.16 434.606 919.699C433.73 921.237 433.285 922.976 433.317 924.738C433.349 926.5 433.856 928.222 434.786 929.729C435.716 931.236 437.037 932.474 438.614 933.317V937.462C438.614 938.727 439.126 939.94 440.037 940.835C440.949 941.729 442.185 942.232 443.474 942.232C444.763 942.232 445.999 941.729 446.911 940.835C447.822 939.94 448.334 938.727 448.334 937.462V933.317C449.935 932.466 451.272 931.207 452.204 929.672C453.137 928.138 453.63 926.385 453.632 924.598Z" fill="#010101"/>
<path d="M707.875 785.245H556.174C555.382 785.245 554.622 784.936 554.062 784.386C553.501 783.837 553.187 783.091 553.187 782.313C553.187 781.535 553.501 780.789 554.062 780.239C554.622 779.689 555.382 779.38 556.174 779.38H707.875C708.668 779.38 709.428 779.689 709.988 780.239C710.549 780.789 710.863 781.535 710.863 782.313C710.863 783.091 710.549 783.837 709.988 784.386C709.428 784.936 708.668 785.245 707.875 785.245Z" fill="#010101"/>
<path d="M900.848 734.493H556.174C555.382 734.493 554.622 734.184 554.062 733.635C553.501 733.085 553.187 732.339 553.187 731.561C553.187 730.783 553.501 730.037 554.062 729.487C554.622 728.937 555.382 728.628 556.174 728.628H900.848C901.641 728.628 902.401 728.937 902.961 729.487C903.521 730.037 903.836 730.783 903.836 731.561C903.836 732.339 903.521 733.085 902.961 733.635C902.401 734.184 901.641 734.493 900.848 734.493Z" fill="#010101"/>
<path d="M933.994 340.366H912.083V361.871H933.994V340.366Z" fill="#010101"/>
<path d="M933.993 364.803H912.083C911.29 364.803 910.53 364.494 909.97 363.944C909.409 363.394 909.095 362.648 909.095 361.871V340.366C909.095 339.588 909.409 338.842 909.97 338.292C910.53 337.742 911.29 337.433 912.083 337.433H933.993C934.786 337.433 935.546 337.742 936.106 338.292C936.666 338.842 936.981 339.588 936.981 340.366V361.871C936.981 362.648 936.666 363.394 936.106 363.944C935.546 364.494 934.786 364.803 933.993 364.803ZM915.07 358.938H931.005V343.298H915.07V358.938Z" fill="#010101"/>
<path d="M552.948 340.366H531.037V361.871H552.948V340.366Z" fill="#010101"/>
<path d="M552.947 364.803H531.037C530.244 364.803 529.484 364.494 528.924 363.944C528.364 363.394 528.049 362.648 528.049 361.871V340.366C528.049 339.588 528.364 338.842 528.924 338.292C529.484 337.742 530.244 337.433 531.037 337.433H552.947C553.74 337.433 554.5 337.742 555.06 338.292C555.62 338.842 555.935 339.588 555.935 340.366V361.871C555.935 362.648 555.62 363.394 555.06 363.944C554.5 364.494 553.74 364.803 552.947 364.803ZM534.024 358.938H549.959V343.298H534.024V358.938Z" fill="#010101"/>
<path d="M933.994 639.637H912.083V661.142H933.994V639.637Z" fill="#010101"/>
<path d="M933.993 664.075H912.083C911.29 664.075 910.53 663.766 909.97 663.216C909.409 662.666 909.095 661.92 909.095 661.142V639.637C909.095 638.859 909.409 638.113 909.97 637.563C910.53 637.014 911.29 636.705 912.083 636.705H933.993C934.786 636.705 935.546 637.014 936.106 637.563C936.666 638.113 936.981 638.859 936.981 639.637V661.142C936.981 661.92 936.666 662.666 936.106 663.216C935.546 663.766 934.786 664.075 933.993 664.075ZM915.07 658.21H931.005V642.57H915.07V658.21Z" fill="#010101"/>
<path d="M552.948 639.637H531.037V661.142H552.948V639.637Z" fill="#010101"/>
<path d="M552.947 664.075H531.037C530.244 664.075 529.484 663.766 528.924 663.216C528.364 662.666 528.049 661.92 528.049 661.142V639.637C528.049 638.859 528.364 638.113 528.924 637.563C529.484 637.014 530.244 636.705 531.037 636.705H552.947C553.74 636.705 554.5 637.014 555.06 637.563C555.62 638.113 555.935 638.859 555.935 639.637V661.142C555.935 661.92 555.62 662.666 555.06 663.216C554.5 663.766 553.74 664.075 552.947 664.075ZM534.024 658.21H549.959V642.57H534.024V658.21Z" fill="#010101"/>
<path d="M822.01 384.47H754.047V451.175H822.01V384.47Z" fill="#F8D637"/>
<path d="M822.01 454.107H754.047C753.255 454.107 752.495 453.798 751.935 453.248C751.374 452.698 751.06 451.952 751.06 451.175V384.47C751.06 383.692 751.374 382.946 751.935 382.396C752.495 381.847 753.255 381.538 754.047 381.538H822.01C822.803 381.538 823.563 381.847 824.123 382.396C824.683 382.946 824.998 383.692 824.998 384.47V451.175C824.998 451.952 824.683 452.698 824.123 453.248C823.563 453.798 822.803 454.107 822.01 454.107ZM757.035 448.242H819.022V387.403H757.035V448.242Z" fill="#010101"/>
<path d="M762.095 524.644H612.106L687.121 371.606L762.095 524.644Z" fill="#74848C"/>
<path d="M762.095 527.537H612.106C611.597 527.541 611.095 527.418 610.648 527.178C610.201 526.938 609.824 526.59 609.552 526.167C609.281 525.744 609.124 525.26 609.097 524.76C609.07 524.261 609.173 523.763 609.398 523.314L684.412 370.277C684.685 369.814 685.077 369.43 685.549 369.163C686.021 368.896 686.556 368.755 687.101 368.755C687.645 368.755 688.181 368.896 688.652 369.163C689.124 369.43 689.517 369.814 689.79 370.277L764.804 523.314C765.028 523.763 765.131 524.261 765.104 524.76C765.077 525.26 764.92 525.744 764.649 526.167C764.378 526.59 764 526.938 763.553 527.178C763.106 527.418 762.604 527.541 762.095 527.537ZM616.847 521.672H757.434L687.2 378.331L616.847 521.672Z" fill="#010101"/>
<path d="M1190.55 120.78L1175.53 159.802L1182.38 198.862L1115.29 152.646L1190.55 120.78Z" fill="#FAF7F2"/>
<path d="M1182.38 201.795C1181.77 201.79 1181.17 201.599 1180.67 201.248L1113.58 155.032C1113.15 154.733 1112.8 154.326 1112.58 153.853C1112.36 153.381 1112.27 152.859 1112.33 152.342C1112.38 151.825 1112.57 151.331 1112.88 150.91C1113.19 150.49 1113.61 150.158 1114.1 149.949L1189.35 118.082C1189.91 117.821 1190.54 117.736 1191.14 117.838C1191.75 117.941 1192.32 118.226 1192.75 118.655C1193.19 119.084 1193.48 119.635 1193.58 120.233C1193.69 120.83 1193.6 121.445 1193.34 121.992L1178.6 159.997L1185.29 198.237C1185.36 198.659 1185.34 199.093 1185.23 199.506C1185.12 199.92 1184.91 200.305 1184.63 200.633C1184.35 200.961 1184 201.224 1183.6 201.405C1183.21 201.586 1182.78 201.679 1182.34 201.678L1182.38 201.795ZM1121.39 153.272L1178.2 192.372L1172.58 160.31C1172.44 159.811 1172.44 159.285 1172.58 158.785L1185.09 126.215L1121.39 153.272Z" fill="#010101"/>
<path d="M1202.9 159.997C1202.1 159.997 1201.34 159.688 1200.78 159.138C1200.22 158.588 1199.91 157.843 1199.91 157.065C1199.91 156.287 1200.22 155.541 1200.78 154.991C1201.34 154.441 1202.1 154.132 1202.9 154.132C1213.61 153.819 1224.37 153.78 1234.77 154.132C1235.56 154.132 1236.32 154.441 1236.88 154.991C1237.44 155.541 1237.75 156.287 1237.75 157.065C1237.75 157.843 1237.44 158.588 1236.88 159.138C1236.32 159.688 1235.56 159.997 1234.77 159.997C1224.33 159.997 1213.65 159.997 1202.9 159.997Z" fill="#010101"/>
<path d="M1088.48 664.074C1087.8 664.071 1087.13 663.835 1086.6 663.406C1086.07 662.977 1085.71 662.382 1085.57 661.721C1085.43 661.06 1085.53 660.373 1085.85 659.776C1086.18 659.179 1086.7 658.708 1087.33 658.444C1388.3 534.145 1517.05 439.484 1531.79 332.115C1535.78 302.517 1527.33 275.029 1506.5 250.436C1463.43 199.606 1370.09 165.94 1256.84 160.506C1256.44 160.486 1256.06 160.39 1255.7 160.224C1255.35 160.057 1255.03 159.824 1254.77 159.537C1254.51 159.25 1254.3 158.915 1254.17 158.551C1254.04 158.187 1253.99 157.802 1254.01 157.417C1254.02 157.03 1254.12 156.65 1254.28 156.299C1254.45 155.948 1254.69 155.634 1254.98 155.375C1255.28 155.116 1255.62 154.918 1255.99 154.792C1256.37 154.665 1256.76 154.614 1257.15 154.641C1372.05 160.232 1467.02 194.679 1511.12 246.76C1533.07 272.683 1542.03 301.5 1537.73 332.78C1522.67 442.651 1392.84 538.524 1089.64 663.722C1089.28 663.916 1088.89 664.036 1088.48 664.074Z" fill="#010101"/>
<path d="M1175.37 162.734L1115.13 155.579C1114.35 155.486 1113.63 155.089 1113.14 154.477C1112.65 153.865 1112.43 153.087 1112.52 152.314C1112.62 151.542 1113.02 150.838 1113.65 150.357C1114.27 149.877 1115.06 149.66 1115.85 149.753L1175.73 156.908C1176.46 157.024 1177.12 157.402 1177.59 157.97C1178.05 158.538 1178.28 159.254 1178.24 159.981C1178.19 160.707 1177.87 161.391 1177.34 161.9C1176.81 162.409 1176.11 162.706 1175.37 162.734Z" fill="#010101"/>
<path d="M503.19 1550.67C491.399 1550.67 479.155 1550.37 466.46 1549.77C350.931 1544.25 237.634 1512.19 147.083 1459.49C59.7194 1408.66 6.33715 1345.08 0.600548 1285.06C-4.89703 1227.47 27.3714 1174.52 96.5293 1127.68C165.687 1080.84 254.525 1051.48 316.99 1035.05C317.369 1034.95 317.765 1034.93 318.154 1034.98C318.544 1035.03 318.919 1035.15 319.26 1035.35C319.6 1035.54 319.899 1035.79 320.138 1036.1C320.377 1036.41 320.553 1036.75 320.655 1037.13C320.757 1037.5 320.783 1037.89 320.732 1038.27C320.682 1038.65 320.554 1039.02 320.358 1039.35C320.162 1039.69 319.901 1039.98 319.59 1040.22C319.278 1040.45 318.923 1040.62 318.544 1040.72C256.517 1057.03 168.237 1086.16 99.9154 1132.45C32.6697 1178 1.27775 1229.15 6.5363 1284.47C12.0737 1342.62 64.4202 1404.55 149.951 1454.4C239.665 1506.64 352.127 1538.39 466.58 1543.86C576.332 1549.1 652.302 1531.55 692.419 1491.63C719.667 1464.53 731.34 1426.84 728.272 1376.36C728.245 1375.97 728.296 1375.59 728.422 1375.22C728.547 1374.85 728.745 1374.52 729.005 1374.23C729.264 1373.94 729.579 1373.7 729.932 1373.53C730.284 1373.36 730.668 1373.26 731.061 1373.23C731.845 1373.2 732.611 1373.47 733.198 1373.98C733.785 1374.49 734.147 1375.2 734.208 1375.97C737.515 1428.21 725.285 1467.38 696.801 1495.73C660.19 1532.41 595.135 1550.67 503.19 1550.67Z" fill="#010101"/>
<path d="M338.423 1035.64C337.687 1035.65 336.974 1035.39 336.421 1034.92C335.868 1034.44 335.513 1033.78 335.424 1033.06C335.335 1032.35 335.519 1031.62 335.94 1031.03C336.361 1030.44 336.99 1030.02 337.706 1029.85C345.673 1027.9 353.919 1025.94 361.967 1024.3C362.709 1024.21 363.461 1024.39 364.074 1024.81C364.687 1025.23 365.116 1025.86 365.276 1026.58C365.437 1027.3 365.316 1028.05 364.94 1028.69C364.563 1029.32 363.957 1029.79 363.241 1030.01C355.274 1031.77 347.306 1033.61 339.1 1035.56L338.423 1035.64Z" fill="#010101"/>
<path d="M754.048 612.15C794.905 612.15 828.026 579.642 828.026 539.541C828.026 499.44 794.905 466.932 754.048 466.932C713.191 466.932 680.069 499.44 680.069 539.541C680.069 579.642 713.191 612.15 754.048 612.15Z" fill="#FFBD00"/>
<path d="M754.047 615.082C738.825 615.082 723.944 610.652 711.287 602.351C698.63 594.05 688.765 582.252 682.94 568.449C677.114 554.646 675.59 539.457 678.56 524.803C681.53 510.15 688.86 496.69 699.624 486.125C710.388 475.56 724.102 468.366 739.032 465.451C753.962 462.536 769.437 464.032 783.501 469.75C797.565 475.467 809.585 485.15 818.042 497.572C826.499 509.995 831.013 524.6 831.013 539.541C830.992 559.569 822.876 578.771 808.447 592.934C794.018 607.096 774.453 615.061 754.047 615.082ZM754.047 469.865C740.012 469.888 726.298 473.994 714.64 481.664C702.981 489.334 693.901 500.224 688.546 512.958C683.191 525.692 681.802 539.698 684.555 553.206C687.308 566.714 694.078 579.118 704.011 588.851C713.944 598.583 726.593 605.208 740.361 607.887C754.128 610.566 768.396 609.179 781.361 603.902C794.326 598.625 805.406 589.694 813.201 578.239C820.997 566.783 825.157 553.316 825.157 539.541C825.125 521.054 817.618 503.336 804.285 490.279C790.951 477.222 772.882 469.893 754.047 469.904V469.865Z" fill="#010101"/>
</svg>
