<svg width="3391" height="3389" viewBox="0 0 3391 3389" fill="none" xmlns="http://www.w3.org/2000/svg">
<path d="M2694.61 1471.07H2462.53C2432.61 1471.04 2403.93 1458.57 2382.78 1436.42C2361.63 1414.26 2349.73 1384.21 2349.7 1352.88V913.934C2349.73 882.599 2361.63 852.556 2382.78 830.397C2403.93 808.238 2432.61 795.773 2462.53 795.737H2694.61C2724.52 795.773 2753.2 808.238 2774.35 830.397C2795.5 852.556 2807.4 882.599 2807.43 913.934V1352.88C2807.4 1384.21 2795.5 1414.26 2774.35 1436.42C2753.2 1458.57 2724.52 1471.04 2694.61 1471.07ZM2462.53 802.515C2434.33 802.551 2407.3 814.302 2387.36 835.19C2367.42 856.077 2356.2 884.396 2356.17 913.934V1352.88C2356.2 1382.42 2367.42 1410.73 2387.36 1431.62C2407.3 1452.51 2434.33 1464.26 2462.53 1464.3H2694.61C2722.81 1464.26 2749.84 1452.51 2769.78 1431.62C2789.72 1410.73 2800.93 1382.42 2800.96 1352.88V913.934C2800.93 884.396 2789.72 856.077 2769.78 835.19C2749.84 814.302 2722.81 802.551 2694.61 802.515H2462.53Z" fill="#060B9A"/>
<path d="M2732.5 1029.54H2273.46C2258.37 1029.54 2246.13 1042.36 2246.13 1058.17V1229.43C2246.13 1245.24 2258.37 1258.05 2273.46 1258.05H2732.5C2747.6 1258.05 2759.83 1245.24 2759.83 1229.43V1058.17C2759.83 1042.36 2747.6 1029.54 2732.5 1029.54Z" fill="#AC830E"/>
<path d="M2345.11 1057.03H2300.58C2296.23 1057.03 2292.71 1060.72 2292.71 1065.28C2292.71 1069.83 2296.23 1073.52 2300.58 1073.52H2345.11C2349.46 1073.52 2352.98 1069.83 2352.98 1065.28C2352.98 1060.72 2349.46 1057.03 2345.11 1057.03Z" fill="#FF8327"/>
<path d="M2424.58 1057.03H2380.05C2375.7 1057.03 2372.18 1060.72 2372.18 1065.28C2372.18 1069.83 2375.7 1073.52 2380.05 1073.52H2424.58C2428.92 1073.52 2432.45 1069.83 2432.45 1065.28C2432.45 1060.72 2428.92 1057.03 2424.58 1057.03Z" fill="white"/>
<path d="M2286.23 1185.57C2286.23 1185.57 2346.62 1112.65 2425.97 1145.36C2505.32 1178.06 2549.9 1165.85 2597.95 1136.78C2597.95 1136.78 2681.95 1083.31 2718.88 1087.6V1216.59H2286.23V1185.57Z" fill="#FFE046"/>
<path d="M2327.14 529.464C2348.75 529.464 2366.26 511.119 2366.26 488.491C2366.26 465.862 2348.75 447.518 2327.14 447.518C2305.54 447.518 2288.03 465.862 2288.03 488.491C2288.03 511.119 2305.54 529.464 2327.14 529.464Z" fill="#FFE046"/>
<path d="M3055.62 2700.12C3074.81 2700.12 3090.36 2683.82 3090.36 2663.72C3090.36 2643.62 3074.81 2627.32 3055.62 2627.32C3036.43 2627.32 3020.87 2643.62 3020.87 2663.72C3020.87 2683.82 3036.43 2700.12 3055.62 2700.12Z" fill="#FFE046"/>
<path d="M199.308 1971.56C220.773 1971.56 238.174 1953.33 238.174 1930.85C238.174 1908.36 220.773 1890.14 199.308 1890.14C177.843 1890.14 160.442 1908.36 160.442 1930.85C160.442 1953.33 177.843 1971.56 199.308 1971.56Z" fill="#FFE046"/>
<path d="M1205.26 222.298C1208.86 218.522 1197.47 200.465 1179.81 181.967C1162.15 163.469 1144.91 151.535 1141.31 155.311C1137.7 159.088 1149.1 177.144 1166.75 195.642C1184.41 214.14 1201.65 226.074 1205.26 222.298Z" fill="#7877FF"/>
<path d="M1179.81 195.642C1197.47 177.144 1208.86 159.087 1205.26 155.311C1201.65 151.534 1184.41 163.469 1166.75 181.967C1149.1 200.464 1137.7 218.521 1141.31 222.298C1144.91 226.074 1162.15 214.14 1179.81 195.642Z" fill="#7877FF"/>
<path d="M70.4747 1923.16C74.0797 1919.38 62.6871 1901.32 45.0286 1882.83C27.37 1864.33 10.1324 1852.39 6.52736 1856.17C2.92237 1859.95 14.3152 1878 31.9738 1896.5C49.6323 1915 66.8697 1926.93 70.4747 1923.16Z" fill="#7877FF"/>
<path d="M45.0285 1896.5C62.687 1878 74.0797 1859.95 70.4747 1856.17C66.8697 1852.39 49.6321 1864.33 31.9736 1882.82C14.315 1901.32 2.92247 1919.38 6.52745 1923.16C10.1324 1926.93 27.3699 1915 45.0285 1896.5Z" fill="#7877FF"/>
<path d="M2555.48 1188.84C2599.31 1188.84 2634.84 1151.62 2634.84 1105.71C2634.84 1059.79 2599.31 1022.57 2555.48 1022.57C2511.66 1022.57 2476.12 1059.79 2476.12 1105.71C2476.12 1151.62 2511.66 1188.84 2555.48 1188.84Z" fill="#FF8327"/>
<path d="M2545.89 1127.46C2547.63 1132.22 2551.85 1132.22 2554.17 1132.22C2559.56 1132.22 2562.6 1129 2562.6 1125.53C2562.6 1119.48 2557.21 1117.16 2550.53 1115.11C2535.27 1110.46 2524.23 1100.94 2524.23 1087.03C2524.23 1072.1 2531.78 1062.18 2546.47 1059.22V1047.51H2567.26V1059.86C2575.54 1062.7 2581.65 1067.85 2584.7 1076.47L2562.89 1085.75C2560.87 1081.11 2558.09 1079.95 2555.19 1079.95C2553.57 1079.96 2552.02 1080.62 2550.86 1081.79C2549.69 1082.97 2549 1084.57 2548.94 1086.26C2548.94 1091.02 2555.62 1093.04 2560.28 1094.88C2564.06 1096.31 2566.82 1097.46 2569.15 1098.62C2581.8 1104.67 2587.32 1112.01 2587.32 1125.53C2587.32 1137.63 2578.59 1148.06 2567.26 1152.18V1163.9H2546.47V1153.08C2533.68 1151.66 2525.54 1144.45 2523.65 1130.68L2545.89 1127.46Z" fill="white"/>
<path d="M2793.23 1555.91C2857.65 1555.91 2909.87 1501.21 2909.87 1433.73C2909.87 1366.25 2857.65 1311.54 2793.23 1311.54C2728.81 1311.54 2676.59 1366.25 2676.59 1433.73C2676.59 1501.21 2728.81 1555.91 2793.23 1555.91Z" fill="#FFE046"/>
<path d="M2813.31 1423.32C2809.06 1421.26 2804.71 1419.43 2800.28 1417.84C2793.45 1415.19 2783.62 1412.2 2783.62 1405.16C2783.72 1402.67 2784.73 1400.32 2786.44 1398.59C2788.14 1396.87 2790.42 1395.9 2792.8 1395.88C2797.11 1395.88 2801.15 1397.59 2804.12 1404.4L2836.18 1390.77C2831.7 1378.09 2822.72 1370.52 2810.54 1366.37V1348.19H2779.98V1365.42C2758.41 1369.77 2747.29 1384.34 2747.29 1406.3C2747.29 1426.74 2763.53 1440.73 2785.97 1447.55C2795.8 1450.57 2803.69 1453.98 2803.69 1462.87C2803.69 1467.98 2799.2 1472.71 2791.31 1472.71C2787.89 1472.71 2781.7 1472.71 2779.13 1465.72L2746.44 1470.44C2749.21 1490.69 2761.18 1501.28 2779.98 1503.37V1519.27H2810.54V1502.05C2827.21 1495.99 2840.02 1480.65 2840.02 1462.87C2840.02 1443 2831.9 1432.21 2813.31 1423.32ZM2806.47 1499.59V1515.87H2784.04V1500.14C2765.88 1499.19 2753.48 1489.54 2751.14 1473.46L2777.2 1469.48C2781.52 1475.73 2787.46 1476.11 2791.31 1476.11C2801.55 1476.11 2807.77 1469.87 2807.77 1462.86C2807.77 1451.7 2799.42 1447.72 2787.03 1444.13C2766.73 1438.07 2751.34 1425.4 2751.34 1406.29C2751.34 1385.84 2763.31 1371.83 2784.04 1368.24V1351.78H2806.47V1368.81C2817.59 1371.83 2827.63 1378.45 2831.48 1388.87L2805.84 1399.84C2802.6 1393.79 2796.86 1392.46 2792.8 1392.46C2784.26 1392.46 2779.56 1398.71 2779.56 1405.15C2779.56 1415.18 2792.8 1419.14 2800.5 1421.8C2804.16 1423.02 2807.73 1424.53 2811.17 1426.32C2828.7 1434.45 2835.98 1444.67 2835.98 1462.84C2835.97 1480.28 2823.56 1494.85 2806.47 1499.59Z" fill="black"/>
<path d="M2835.97 1462.86C2835.97 1480.27 2823.57 1494.84 2806.47 1499.58V1515.85H2784.04V1500.14C2765.88 1499.19 2753.48 1489.55 2751.14 1473.46L2777.21 1469.48C2781.52 1475.73 2787.46 1476.11 2791.31 1476.11C2801.56 1476.11 2807.77 1469.87 2807.77 1462.86C2807.77 1451.7 2799.42 1447.72 2787.03 1444.13C2766.74 1438.07 2751.35 1425.4 2751.35 1406.29C2751.35 1385.84 2763.32 1371.83 2784.04 1368.24V1351.78H2806.47V1368.81C2817.59 1371.83 2827.63 1378.45 2831.48 1388.87L2805.84 1399.84C2802.6 1393.79 2796.87 1392.46 2792.8 1392.46C2784.26 1392.46 2779.56 1398.71 2779.56 1405.15C2779.56 1415.18 2792.8 1419.14 2800.5 1421.8C2804.16 1423.02 2807.73 1424.54 2811.18 1426.32C2828.67 1434.49 2835.97 1444.71 2835.97 1462.86Z" fill="white"/>
<path d="M1586.34 320.769C1586.34 320.769 1558.18 419.885 1588.6 424.607C1619.02 429.33 1638.2 390.39 1638.2 390.39L1639.28 326.665L1586.34 320.769Z" fill="black"/>
<path d="M1143.72 1724.3C1235.14 1724.3 1309.25 1646.67 1309.25 1550.91C1309.25 1455.15 1235.14 1377.52 1143.72 1377.52C1052.31 1377.52 978.198 1455.15 978.198 1550.91C978.198 1646.67 1052.31 1724.3 1143.72 1724.3Z" fill="#FFE046"/>
<path d="M1019.24 2027.23C1070.06 2027.23 1111.25 1984.08 1111.25 1930.85C1111.25 1877.62 1070.06 1834.47 1019.24 1834.47C968.426 1834.47 927.232 1877.62 927.232 1930.85C927.232 1984.08 968.426 2027.23 1019.24 2027.23Z" fill="#FFE046"/>
<path d="M1088.55 965.605L1070.65 919.402C1070.65 919.402 1008.32 826.588 996.456 816.692C984.593 806.796 953.136 791.218 953.136 791.218L884.118 898.74C884.118 898.74 950.019 953.269 980.97 963.492C1011.92 973.716 1026.05 989.78 1026.05 989.78L1088.55 965.605Z" fill="#FFBA9F"/>
<path d="M1613.94 1159.37C1613.94 1159.37 1571.69 1193.9 1511.23 1229.98C1489.11 1243.19 1464.57 1256.58 1438.77 1268.59C1424.82 1275.1 1410.5 1281.17 1395.97 1286.59C1281.28 1329.44 968.416 1003.67 968.416 1003.67L1016.24 928.213L1325.09 1096.1L1342.11 1083.96L1369.23 1064.6L1449.26 1007.49L1613.94 1159.37Z" fill="#FFBA9F"/>
<path d="M1017.55 788.202L1014.53 850.244C1014.53 850.244 1007.14 871.56 1010.54 890.912C1013.94 910.263 1055.72 897.023 1055.72 897.023C1055.72 897.023 1039.89 842.505 1041.3 823.911C1042.7 805.317 1028.81 768.535 1017.55 788.202Z" fill="#FFBA9F"/>
<path d="M950.495 799.284C950.495 799.284 961.786 828.655 960.071 847.34C958.357 866.025 958.206 890.855 938.503 910.364C918.801 929.873 896.553 921.367 895.442 918.927C894.332 916.487 884.475 869.639 884.475 869.639C884.475 869.639 881.984 845.521 890.115 837.082C898.246 828.644 903.455 829.48 903.455 829.48C903.455 829.48 900.414 815.235 909.472 810.061C918.531 804.887 925.821 807.564 925.821 807.564C925.821 807.564 917.97 799.973 931.105 791.444C944.24 782.915 950.495 799.284 950.495 799.284Z" fill="#FFBA9F"/>
<path d="M973.81 1888.75H331.177C268.36 1888.75 212.078 1835.55 205.478 1769.94L50.9642 234.756C46.9849 195.15 62.0071 160.063 88.3633 138.475C95.2651 132.826 135.177 101.828 143.502 98.1906C156.033 92.7005 137.787 115.949 152.755 115.949H795.398C858.215 115.949 914.498 169.145 921.097 234.756L1075.61 1769.88C1078.96 1803.29 1113.25 1803.9 1094.17 1825.48C1091.45 1828.57 1044.1 1861.06 1041.03 1863.77C1023.34 1879.39 1000.09 1888.75 973.81 1888.75Z" fill="black"/>
<path d="M1022.76 1851.12H380.114C317.297 1851.12 261.015 1797.92 254.415 1732.31L99.901 197.183C93.3012 131.572 138.864 78.376 201.681 78.376H844.335C907.152 78.376 963.423 131.572 970.034 197.183L1124.54 1732.31C1131.15 1797.92 1085.57 1851.12 1022.76 1851.12Z" fill="#83BDF2"/>
<path d="M1073.43 1791.78C1060.98 1806.27 1042.98 1814.26 1022.75 1814.26H380.115C358.45 1814.26 336.979 1805.28 319.724 1788.95C302.47 1772.63 291.686 1751.12 289.389 1728.45L242.155 1259.21L183.522 676.693L160.422 447.224L142.488 268.804H941.867L1033.53 1179.93L1056.51 1408.24L1079.61 1637.73L1089.51 1736.13C1091.69 1757.44 1085.96 1777.18 1073.43 1791.78Z" fill="white"/>
<path d="M903.271 626.389H349.962C319.141 626.389 291.491 600.497 288.191 568.55L274.517 435.995C271.217 404.048 293.529 378.156 324.339 378.156H877.658C908.468 378.156 936.13 404.048 939.419 435.995L953.104 568.538C956.404 600.497 934.091 626.389 903.271 626.389Z" fill="#4F50FF"/>
<path d="M1073.43 1791.78C1060.98 1806.27 1042.98 1814.26 1022.75 1814.26H380.115C358.449 1814.26 336.978 1805.28 319.724 1788.95C302.469 1772.63 291.685 1751.12 289.388 1728.45L242.154 1259.21C309.986 1283.83 421.989 1327.41 494.792 1371.04C605.178 1437.12 555.614 1434.76 632.214 1500.85C708.813 1566.95 783.19 1555.08 877.788 1569.29C972.386 1583.5 1064.78 1583.45 1078.31 1633.01C1078.74 1634.6 1079.18 1636.21 1079.63 1637.82L1089.53 1736.22C1091.69 1757.45 1085.96 1777.18 1073.43 1791.78Z" fill="white"/>
<path d="M941.867 268.805H142.488L134.939 193.275C132.782 172.003 138.519 152.268 151.04 137.673C163.56 123.077 181.515 115.181 201.725 115.181H844.368C866.033 115.181 887.504 124.218 904.759 140.486C922.013 156.753 932.797 178.318 935.105 201.002L941.867 268.805Z" fill="#CAE2F5"/>
<path d="M885.832 695.276L788.323 662.652C788.323 662.652 696.907 619.431 692.043 608.428C687.179 597.425 698.513 569.443 698.513 569.443L801.264 516.891L871.651 555.039L940.421 622.819L885.832 695.276Z" fill="#FFBA9F"/>
<path d="M920.967 599.378H367.68C336.87 599.378 309.209 573.475 305.92 541.539L292.257 408.984C289.022 377.048 311.269 351.145 342.09 351.145H895.398C926.219 351.145 953.869 377.048 957.169 408.984L970.843 541.539C974.122 573.475 951.81 599.378 920.967 599.378Z" fill="#AC830E"/>
<path d="M886.857 962.725H333.548C302.727 962.725 275.077 936.833 271.777 904.886L258.103 772.342C254.803 740.395 277.115 714.503 307.925 714.503H861.244C892.055 714.503 919.715 740.395 923.004 772.342L936.69 904.886C939.979 936.833 917.731 962.725 886.857 962.725Z" fill="#7A94A8"/>
<path d="M920.685 1290.47H367.366C336.556 1290.47 308.895 1264.58 305.606 1232.64L291.921 1100.09C288.686 1068.14 310.933 1042.25 341.754 1042.25H895.084C925.905 1042.25 953.555 1068.14 956.855 1100.09L970.529 1232.64C973.807 1264.58 951.495 1290.47 920.685 1290.47Z" fill="#7A94A8"/>
<path d="M954.507 1618.23H401.177C370.356 1618.23 342.706 1592.33 339.406 1560.39L325.753 1427.84C322.453 1395.9 344.766 1370 375.576 1370H928.895C959.705 1370 987.366 1395.9 990.655 1427.84L1004.34 1560.39C1007.63 1592.33 985.328 1618.23 954.507 1618.23Z" fill="#7A94A8"/>
<path d="M476.438 532.977H407.258C395.191 532.977 384.224 522.867 382.768 510.384L373.062 427.997C371.606 415.571 380.19 405.404 392.258 405.404H461.438C473.505 405.404 484.472 415.514 485.928 427.997L495.634 510.384C497.154 522.867 488.527 532.977 476.438 532.977Z" fill="white"/>
<path d="M476.436 536.366H407.257C393.636 536.366 381.202 524.9 379.552 510.802L369.847 428.415C369.399 425.104 369.637 421.73 370.545 418.523C371.453 415.317 373.01 412.352 375.109 409.832C377.266 407.324 379.913 405.329 382.869 403.984C385.825 402.64 389.023 401.976 392.245 402.038H461.425C475.045 402.038 487.479 413.504 489.129 427.591L498.835 509.977C499.299 513.307 499.061 516.704 498.139 519.928C497.217 523.151 495.633 526.125 493.498 528.639C491.363 531.154 488.728 533.149 485.779 534.483C482.829 535.818 479.637 536.461 476.426 536.366H476.436ZM392.321 408.816C390.016 408.758 387.726 409.221 385.607 410.172C383.487 411.123 381.588 412.541 380.038 414.328C378.549 416.132 377.448 418.249 376.81 420.538C376.172 422.826 376.011 425.232 376.339 427.591L386.044 509.977C387.306 520.788 396.828 529.588 407.321 529.588H476.501C478.806 529.644 481.095 529.181 483.214 528.23C485.334 527.279 487.233 525.862 488.784 524.076C490.274 522.271 491.375 520.151 492.013 517.861C492.651 515.57 492.812 513.163 492.483 510.802L482.777 428.415C481.505 417.604 471.993 408.816 461.49 408.816H392.321Z" fill="#060B9A"/>
<path d="M432.752 894.029H363.572C351.505 894.029 340.537 883.862 339.071 871.436L329.365 789.049C327.899 776.623 336.493 766.456 348.561 766.456H417.74C429.797 766.456 440.764 776.623 442.231 789.049L451.937 871.436C453.403 883.919 444.808 894.029 432.752 894.029Z" fill="white"/>
<path d="M432.751 897.419H363.571C349.94 897.419 337.517 885.952 335.867 871.866L326.161 789.468C325.697 786.138 325.935 782.742 326.857 779.519C327.779 776.296 329.363 773.323 331.499 770.809C333.634 768.295 336.269 766.302 339.218 764.968C342.168 763.635 345.36 762.994 348.571 763.09H417.751C431.371 763.09 443.794 774.556 445.455 788.643L455.16 871.03C455.624 874.359 455.387 877.754 454.466 880.977C453.544 884.2 451.961 887.173 449.827 889.687C447.693 892.202 445.059 894.197 442.112 895.532C439.164 896.868 435.973 897.511 432.762 897.419H432.751ZM348.636 769.868C346.33 769.81 344.04 770.272 341.921 771.223C339.802 772.174 337.902 773.593 336.353 775.381C334.864 777.184 333.763 779.302 333.125 781.59C332.487 783.878 332.326 786.284 332.654 788.643L342.359 871.03C343.632 881.84 353.143 890.641 363.647 890.641H432.827C435.132 890.698 437.421 890.235 439.541 889.284C441.66 888.333 443.559 886.915 445.11 885.128C446.597 883.322 447.697 881.202 448.336 878.912C448.974 876.622 449.135 874.215 448.809 871.854L439.103 789.468C437.841 778.657 428.319 769.868 417.826 769.868H348.636Z" fill="#060B9A"/>
<path d="M363.756 868.658C363.496 868.518 363.268 868.322 363.087 868.081L354.147 791.863H417.59C417.852 792.004 418.081 792.204 418.259 792.45L427.199 868.658H363.756Z" fill="#A5A7FF"/>
<path d="M463.497 1222.88H394.317C382.25 1222.88 371.283 1212.71 369.816 1200.28L360.11 1117.9C358.644 1105.47 367.238 1095.3 379.306 1095.3H448.486C460.542 1095.3 471.509 1105.41 472.976 1117.9L482.682 1200.28C484.148 1212.76 475.586 1222.88 463.497 1222.88Z" fill="white"/>
<path d="M463.496 1226.26H394.317C380.686 1226.26 368.262 1214.8 366.612 1200.71L356.907 1118.31C356.443 1114.98 356.68 1111.59 357.602 1108.36C358.524 1105.14 360.108 1102.17 362.244 1099.65C364.379 1097.14 367.014 1095.15 369.964 1093.81C372.913 1092.48 376.105 1091.84 379.316 1091.94H448.496C462.116 1091.94 474.539 1103.4 476.2 1117.49L485.906 1199.88C486.369 1203.2 486.132 1206.6 485.211 1209.82C484.289 1213.05 482.706 1216.02 480.572 1218.53C478.438 1221.05 475.805 1223.04 472.857 1224.38C469.909 1225.71 466.718 1226.36 463.507 1226.26H463.496ZM379.381 1098.71C377.076 1098.66 374.786 1099.12 372.666 1100.07C370.547 1101.02 368.648 1102.44 367.098 1104.23C365.609 1106.03 364.508 1108.15 363.87 1110.44C363.232 1112.72 363.071 1115.13 363.399 1117.49L373.104 1199.88C374.377 1210.69 383.888 1219.49 394.392 1219.49H463.572C465.877 1219.54 468.167 1219.08 470.286 1218.13C472.405 1217.18 474.304 1215.76 475.855 1213.97C477.342 1212.17 478.441 1210.05 479.079 1207.76C479.718 1205.48 479.879 1203.07 479.554 1200.71L469.848 1118.31C468.586 1107.5 459.064 1098.71 448.571 1098.71H379.381Z" fill="#060B9A"/>
<path d="M502.33 1555.11H433.15C421.083 1555.11 410.115 1544.94 408.66 1532.52L398.954 1450.13C397.487 1437.7 406.082 1427.54 418.15 1427.54H487.329C499.397 1427.54 510.364 1437.7 511.82 1450.13L521.526 1532.52C523.035 1545 514.408 1555.11 502.33 1555.11Z" fill="white"/>
<path d="M502.33 1558.5H433.15C419.53 1558.5 407.096 1547.03 405.446 1532.95L395.74 1450.56C395.277 1447.23 395.514 1443.83 396.436 1440.61C397.358 1437.39 398.942 1434.41 401.078 1431.9C403.213 1429.38 405.848 1427.39 408.797 1426.05C411.746 1424.72 414.938 1424.08 418.15 1424.17H487.329C500.95 1424.17 513.384 1435.64 515.034 1449.72L524.739 1532.12C525.186 1535.43 524.947 1538.81 524.037 1542.01C523.127 1545.22 521.568 1548.18 519.466 1550.69C517.313 1553.21 514.668 1555.21 511.71 1556.55C508.753 1557.9 505.554 1558.56 502.33 1558.5ZM418.215 1430.95C415.909 1430.89 413.619 1431.35 411.5 1432.3C409.38 1433.26 407.481 1434.67 405.931 1436.46C404.443 1438.27 403.342 1440.38 402.704 1442.67C402.066 1444.96 401.905 1447.37 402.232 1449.72L411.938 1532.12C413.211 1542.93 422.722 1551.72 433.226 1551.72H502.406C504.711 1551.78 507.001 1551.32 509.12 1550.37C511.239 1549.42 513.139 1548 514.689 1546.21C516.177 1544.41 517.278 1542.29 517.916 1540C518.555 1537.71 518.715 1535.31 518.387 1532.95L508.682 1450.56C507.42 1439.75 497.898 1430.95 487.405 1430.95H418.215Z" fill="#060B9A"/>
<path d="M433.333 1529.73C433.072 1529.59 432.846 1529.4 432.675 1529.15L423.725 1452.94H487.167C487.431 1453.08 487.66 1453.27 487.836 1453.52L496.787 1529.73H433.333Z" fill="#A5A7FF"/>
<path d="M1525.14 1205.66L1511.23 1229.98C1489.12 1243.19 1464.57 1256.58 1438.77 1268.59C1425.66 1249.94 1410.2 1217.86 1402.36 1196.9C1392.72 1171.03 1352.51 1101.81 1342.05 1083.94L1369.17 1064.58L1381.57 1075.08L1525.14 1205.66Z" fill="#E07E5F"/>
<path d="M1825.21 1036.76C1825.21 1036.76 1770.57 1074.43 1624.36 1183.62C1601.44 1200.75 1576.22 1219.66 1548.69 1240.37L1530.57 1254.02C1443.61 1285.5 1348.94 1057.04 1348.94 1057.04L1439.99 992.062L1559.89 906.513L1712.85 797.375L1825.21 1036.76Z" fill="#FFBD00"/>
<path d="M1345.6 1058.83C1345.6 1058.83 1398.54 1194.1 1437.99 1232.79C1477.44 1271.49 1516.18 1273.46 1527.06 1268.72L1537.93 1263.93C1537.93 1263.93 1447.11 1160.36 1420.82 1114.68C1394.53 1068.99 1392.4 1042.38 1379.15 1041.9C1365.9 1041.43 1340.47 1053.83 1345.6 1058.83Z" fill="#FFBB33"/>
<path d="M1637.88 1157.57C1616.51 1173.54 1592.98 1191.19 1567.3 1210.51C1568.96 1192.01 1570.74 1172.43 1571.13 1168.39C1571.92 1160.35 1581.25 1003.21 1573.78 1006.45C1566.31 1009.7 1467.28 979.342 1465.94 978.924L1577.72 899.159L1598.68 903.677C1688.05 923.074 1664.46 945.882 1664.46 945.882L1637.88 1157.57Z" fill="#840D43"/>
<path d="M1599.68 928.597C1599.68 928.597 1654.35 1374.69 1676.71 1408.29C1699.08 1441.88 1860.4 1408.29 1860.4 1408.29L1653.41 906.806L1599.68 928.597Z" fill="#AC830E"/>
<path d="M2824.59 2940.38C2816.13 2899.98 2793.32 2864.46 2760.79 2841.02C2728.26 2817.57 2688.44 2807.96 2649.4 2814.12C2630.9 2733.5 2586.37 2666.28 2525.29 2630.62C2440.36 2581.03 2326.7 2594.3 2231.82 2654.8C2200.65 2569.36 2127.87 2508.97 2043.88 2499.36C1946.95 2488.28 1851.41 2546.72 1809.77 2644.44C1785.58 2613.84 1637.93 2502.43 1447.14 2510.98C1325.71 2516.43 1258.82 2570.15 1181.96 2662.14C1181.96 2662.14 848.206 2461.14 650.793 2735.74C453.38 3010.34 850.233 3124.6 850.233 3124.6L2569.6 3097.49C2594.2 3120.24 2625.05 3134.27 2657.72 3137.56C2690.39 3140.84 2723.21 3133.22 2751.5 3115.79C2779.79 3098.36 2802.09 3072 2815.22 3040.49C2828.35 3008.98 2831.63 2973.92 2824.59 2940.34V2940.38Z" fill="#4C4A3D"/>
<path d="M731.61 2644.02C731.61 2644.02 676.698 2736.27 559.13 2711.53C576.719 2599.88 666.604 2573.67 731.61 2644.02Z" fill="#3A78DD"/>
<path d="M855.702 2708.78C854.878 2708.79 854.083 2708.46 853.481 2707.87C853.222 2707.61 826.467 2681.49 784.032 2662.79C745.037 2645.61 684.376 2631.34 616.814 2660.94C616.422 2661.11 616.001 2661.2 615.576 2661.2C615.151 2661.2 614.73 2661.12 614.337 2660.95C613.944 2660.78 613.587 2660.53 613.285 2660.22C612.984 2659.9 612.745 2659.53 612.581 2659.12C612.418 2658.71 612.333 2658.27 612.332 2657.82C612.331 2657.38 612.414 2656.93 612.576 2656.52C612.737 2656.11 612.975 2655.74 613.275 2655.42C613.574 2655.11 613.931 2654.85 614.323 2654.68C644.314 2641.34 676.829 2635.39 709.363 2637.29C736.025 2639.06 762.199 2645.6 786.749 2656.64C830.209 2675.84 856.846 2701.82 857.924 2702.95C858.547 2703.57 858.911 2704.42 858.935 2705.32C858.96 2706.22 858.642 2707.09 858.053 2707.74C857.749 2708.08 857.384 2708.34 856.98 2708.52C856.576 2708.7 856.141 2708.79 855.702 2708.78Z" fill="#060B9A"/>
<path d="M732.807 2532.66C732.807 2532.66 723.393 2465.11 682.36 2423.41C656.413 2397.04 613.978 2369.25 562.096 2368.66C538.986 2455.49 625.97 2553.5 732.807 2532.66Z" fill="#3A78DD"/>
<path d="M804.747 2510.98C804.747 2510.98 977.67 2403.5 914.561 2252.65C802.483 2274.89 762.269 2393.58 804.747 2510.98Z" fill="#3A78DD"/>
<path d="M952.37 2671.81C952.37 2671.81 1149.19 2619.35 1086.09 2468.47C974.014 2490.73 909.892 2554.41 952.37 2671.81Z" fill="#3A78DD"/>
<path d="M1251.73 2354.3C1251.73 2354.3 1439.63 2292.5 1376.52 2141.63C1264.45 2163.89 1209.25 2236.91 1251.73 2354.3Z" fill="#3A78DD"/>
<path d="M1179.44 2398.23C1179.44 2398.23 1205.47 2250.43 1090.33 2229.63C1057.22 2311.75 1092.57 2377.69 1179.44 2398.23Z" fill="#3A78DD"/>
<path d="M1447.14 2402.17C1447.14 2402.17 1312.34 2346.22 1258.82 2454.99C1323.66 2512.77 1402.36 2482.79 1447.14 2402.17Z" fill="#3A78DD"/>
<path d="M1032.19 3056.09C1031.55 3056.09 1030.92 3055.89 1030.38 3055.51C1029.84 3055.13 1029.43 3054.59 1029.19 3053.96C1028.82 3053.01 991.819 2957.35 929.196 2839.2C871.448 2730.27 779.503 2579.38 669.376 2479.22L577.507 2397.62C576.852 2397.03 576.444 2396.2 576.373 2395.31C576.303 2394.41 576.574 2393.52 577.129 2392.84C577.684 2392.15 578.476 2391.72 579.332 2391.65C580.187 2391.58 581.036 2391.86 581.691 2392.44L673.582 2474.08C722.596 2518.65 772.083 2576.71 820.676 2646.75C859.499 2702.72 897.955 2766.38 934.847 2835.99C997.654 2954.5 1034.78 3050.47 1035.14 3051.43C1035.34 3051.95 1035.41 3052.5 1035.35 3053.06C1035.3 3053.61 1035.12 3054.13 1034.82 3054.59C1034.52 3055.05 1034.12 3055.43 1033.66 3055.69C1033.19 3055.95 1032.67 3056.09 1032.14 3056.09H1032.19Z" fill="#060B9A"/>
<path d="M828.224 2665.53C827.585 2665.53 826.96 2665.33 826.428 2664.96C825.897 2664.59 825.482 2664.06 825.237 2663.44C825.043 2662.95 805.718 2613.57 802.591 2547.61C800.79 2508.82 804.844 2471.93 814.669 2437.93C826.92 2395.47 848.717 2356.7 878.23 2324.88C878.521 2324.54 878.873 2324.27 879.266 2324.08C879.659 2323.89 880.084 2323.78 880.517 2323.77C880.95 2323.75 881.381 2323.83 881.785 2323.99C882.189 2324.15 882.558 2324.4 882.87 2324.71C883.182 2325.03 883.43 2325.4 883.601 2325.82C883.771 2326.24 883.86 2326.69 883.861 2327.14C883.863 2327.59 883.778 2328.04 883.611 2328.46C883.444 2328.88 883.198 2329.26 882.889 2329.58C816.879 2401.32 806.322 2487.44 809.05 2547.05C812.037 2611.89 830.974 2660.37 831.168 2660.84C831.497 2661.67 831.497 2662.6 831.17 2663.43C830.842 2664.26 830.213 2664.92 829.421 2665.27C829.042 2665.43 828.635 2665.52 828.224 2665.53Z" fill="#060B9A"/>
<path d="M938.221 2852.74C937.434 2852.74 936.672 2852.45 936.076 2851.91C935.481 2851.37 935.093 2850.63 934.985 2849.81C934.91 2849.26 928.008 2794.22 937.929 2728.05C943.764 2689.13 954.192 2653.97 968.923 2623.57C987.396 2585.46 1012.72 2554.76 1044.17 2532.34C1044.53 2532.09 1044.93 2531.91 1045.34 2531.82C1045.76 2531.73 1046.19 2531.73 1046.61 2531.82C1047.03 2531.9 1047.43 2532.07 1047.79 2532.32C1048.15 2532.57 1048.45 2532.88 1048.69 2533.25C1048.93 2533.63 1049.1 2534.04 1049.18 2534.48C1049.27 2534.92 1049.27 2535.37 1049.19 2535.81C1049.11 2536.25 1048.95 2536.67 1048.71 2537.04C1048.48 2537.42 1048.17 2537.74 1047.82 2537.99C978.607 2587.32 953.351 2669.03 944.346 2728.97C934.543 2794.18 941.326 2848.4 941.391 2848.94C941.449 2849.38 941.423 2849.83 941.315 2850.26C941.207 2850.69 941.018 2851.1 940.761 2851.45C940.504 2851.81 940.182 2852.1 939.815 2852.33C939.447 2852.55 939.041 2852.7 938.62 2852.76L938.221 2852.74Z" fill="#060B9A"/>
<path d="M1173.46 3023.72C1172.77 3023.72 1172.1 3023.49 1171.54 3023.06C1170.98 3022.63 1170.57 3022.02 1170.37 3021.33C1148.1 2945.46 1141.57 2856.06 1150.96 2755.61C1158.45 2675.4 1176.05 2587.93 1203.28 2495.72C1249.65 2338.78 1308.62 2220.74 1309.21 2219.57C1309.61 2218.77 1310.3 2218.18 1311.12 2217.91C1311.94 2217.65 1312.83 2217.73 1313.59 2218.15C1314.35 2218.57 1314.92 2219.29 1315.17 2220.15C1315.42 2221.01 1315.34 2221.94 1314.94 2222.73C1314.36 2223.86 1255.63 2341.47 1209.43 2497.84C1166.9 2641.92 1126.67 2849.35 1176.58 3019.34C1176.83 3020.2 1176.74 3021.13 1176.34 3021.92C1175.93 3022.71 1175.24 3023.3 1174.42 3023.56C1174.12 3023.67 1173.79 3023.73 1173.46 3023.72Z" fill="#060B9A"/>
<path d="M1204.21 2507.42C1203.54 2507.43 1202.88 2507.21 1202.33 2506.8C1201.63 2506.28 1201.16 2505.49 1201.02 2504.6C1200.87 2503.72 1201.07 2502.81 1201.57 2502.08C1227.17 2464.37 1271.37 2443.49 1303.95 2432.62C1325.12 2425.55 1346.9 2420.63 1368.97 2417.94C1369.83 2417.86 1370.68 2418.13 1371.34 2418.71C1372.01 2419.29 1372.42 2420.12 1372.5 2421.02C1372.58 2421.92 1372.31 2422.81 1371.76 2423.5C1371.21 2424.2 1370.42 2424.63 1369.56 2424.72C1368.41 2424.82 1253.96 2436.62 1206.84 2506.05C1206.54 2506.48 1206.14 2506.83 1205.68 2507.07C1205.23 2507.3 1204.72 2507.42 1204.21 2507.42Z" fill="#060B9A"/>
<path d="M1204.21 2498.08C1203.35 2498.08 1202.53 2497.72 1201.92 2497.08C1201.32 2496.45 1200.98 2495.59 1200.98 2494.69C1200.98 2415.39 1132.05 2330.29 1131.36 2329.43C1131.06 2329.1 1130.83 2328.7 1130.68 2328.27C1130.53 2327.84 1130.46 2327.38 1130.48 2326.92C1130.51 2326.46 1130.62 2326.02 1130.81 2325.6C1131 2325.19 1131.28 2324.83 1131.61 2324.53C1131.94 2324.23 1132.33 2324 1132.75 2323.87C1133.16 2323.73 1133.61 2323.68 1134.04 2323.73C1134.48 2323.77 1134.9 2323.91 1135.28 2324.14C1135.67 2324.36 1136 2324.66 1136.27 2325.02C1149.49 2341.87 1161.38 2359.81 1171.8 2378.68C1188.07 2407.94 1207.45 2451.82 1207.45 2494.69C1207.45 2495.59 1207.1 2496.45 1206.5 2497.08C1205.89 2497.72 1205.07 2498.08 1204.21 2498.08Z" fill="#060B9A"/>
<path d="M2611.41 2183.77C2611.41 2183.77 2654.36 1978.17 2460.36 2000.99C2460.46 2150.11 2611.41 2183.77 2611.41 2183.77Z" fill="#3A78DD"/>
<path d="M2671.05 2220.74C2671.05 2220.74 2950.64 2240.85 2929.03 1997.76C2739.52 2007.18 2673.25 2139.53 2671.05 2220.74Z" fill="#3A78DD"/>
<path d="M2590.34 2460.86C2590.34 2460.86 2708.07 2683.77 2945.35 2545.48C2891.21 2408.47 2780.05 2279.84 2590.34 2460.86Z" fill="#3A78DD"/>
<path d="M2348.36 3200.29H2348.05C2347.2 3200.21 2346.41 3199.77 2345.87 3199.08C2345.32 3198.39 2345.05 3197.5 2345.13 3196.61C2345.33 3194.35 2366.98 2965.27 2441.99 2708.59C2485.35 2560.25 2537.84 2431.96 2598.03 2327.27C2673.26 2196.4 2760.87 2102.14 2858.34 2047.11C2859.1 2046.69 2859.99 2046.59 2860.81 2046.85C2861.63 2047.11 2862.32 2047.7 2862.73 2048.49C2863.14 2049.28 2863.23 2050.21 2862.98 2051.07C2862.74 2051.93 2862.17 2052.65 2861.42 2053.08C2642.6 2176.54 2515.92 2478.76 2448.18 2710.54C2373.35 2966.62 2351.77 3195 2351.57 3197.24C2351.49 3198.07 2351.12 3198.85 2350.52 3199.41C2349.93 3199.97 2349.16 3200.29 2348.36 3200.29Z" fill="#060B9A"/>
<path d="M2516.68 2510.89C2516.04 2510.89 2515.41 2510.68 2514.88 2510.31C2514.34 2509.93 2513.93 2509.39 2513.69 2508.77C2513.44 2508.14 2513.39 2507.45 2513.52 2506.79C2513.66 2506.13 2513.98 2505.53 2514.44 2505.06C2515.65 2503.84 2544.64 2475.04 2596.79 2457.28C2627.66 2446.83 2660.1 2442.43 2692.5 2444.29C2733.57 2446.55 2775.86 2458.46 2818.18 2479.71C2818.57 2479.9 2818.91 2480.17 2819.19 2480.5C2819.48 2480.83 2819.7 2481.22 2819.84 2481.64C2819.98 2482.06 2820.04 2482.51 2820.01 2482.95C2819.99 2483.4 2819.88 2483.83 2819.7 2484.23C2819.52 2484.63 2819.26 2484.99 2818.94 2485.29C2818.62 2485.59 2818.26 2485.82 2817.85 2485.96C2817.45 2486.11 2817.03 2486.17 2816.6 2486.15C2816.18 2486.12 2815.76 2486.01 2815.38 2485.82C2721.56 2438.69 2645.96 2447.74 2599.1 2463.63C2548.26 2480.87 2519.22 2509.66 2518.93 2509.95C2518.32 2510.55 2517.52 2510.89 2516.68 2510.89Z" fill="#060B9A"/>
<path d="M2610.05 2315.33C2609.76 2315.33 2609.46 2315.29 2609.18 2315.21C2608.77 2315.09 2608.39 2314.88 2608.05 2314.61C2607.72 2314.33 2607.44 2313.99 2607.23 2313.6C2607.02 2313.22 2606.89 2312.79 2606.84 2312.35C2606.79 2311.9 2606.82 2311.46 2606.94 2311.03C2607.02 2310.69 2616.06 2276.21 2613.89 2231.52C2611.91 2190.5 2599.8 2132.18 2553.39 2087.24C2552.76 2086.63 2552.39 2085.78 2552.36 2084.88C2552.32 2083.98 2552.63 2083.11 2553.22 2082.44C2553.8 2081.78 2554.61 2081.39 2555.47 2081.36C2556.33 2081.32 2557.16 2081.65 2557.79 2082.26C2605.86 2128.81 2618.35 2189.06 2620.34 2231.37C2622.5 2277.13 2613.52 2311.4 2613.15 2312.83C2612.96 2313.55 2612.56 2314.18 2612 2314.63C2611.44 2315.08 2610.76 2315.32 2610.05 2315.33Z" fill="#060B9A"/>
<path d="M2330.12 2509.54C2384.87 2509.54 2429.25 2463.05 2429.25 2405.7C2429.25 2348.36 2384.87 2301.87 2330.12 2301.87C2275.37 2301.87 2230.99 2348.36 2230.99 2405.7C2230.99 2463.05 2275.37 2509.54 2330.12 2509.54Z" fill="#FFE046"/>
<path d="M1643.15 3389C2288.78 3389 2812.16 3297.32 2812.16 3184.24C2812.16 3071.15 2288.78 2979.47 1643.15 2979.47C997.531 2979.47 474.151 3071.15 474.151 3184.24C474.151 3297.32 997.531 3389 1643.15 3389Z" fill="#B2AF9C"/>
<path d="M2406.57 2947.73L2284.89 2999.01L2263.51 2918.51L2385.17 2867.23L2406.57 2947.73Z" fill="#FFE046"/>
<path d="M1851.04 3027.72L1725.67 3060.36L1711.32 2981.69L1836.68 2949.05L1851.04 3027.72Z" fill="#FFE046"/>
<path d="M1787.15 1431.8C1787.15 1431.8 1468.78 2022.61 1522.89 2327.51C1578.82 2642.69 1688.52 2992.05 1688.52 2992.05C1747.36 2992.43 1804.16 2980.09 1859.44 2958.29C1862.78 2657.73 1854.31 2422.94 1805.07 2252.95C1805.07 2252.95 1939.24 2056.22 2003.99 1871.64C2035.54 1781.69 2028.22 1667.9 2023.97 1632.65C2011.03 1525.11 1988.61 1438.16 1988.61 1438.16L1787.15 1431.8Z" fill="#B2AF9C"/>
<path d="M1944.09 1859.61C1944.09 1859.61 1853.59 2057.89 1801.99 2117.23C1750.39 2176.57 1745.32 2262.86 1745.32 2262.86C1745.32 2262.86 1810.55 2476.17 1818.01 2558.63C1823.83 2623.1 1829.01 2856.57 1832.23 2968.18C1841.34 2965.13 1850.41 2961.83 1859.44 2958.29C1862.78 2657.73 1854.31 2422.94 1805.07 2252.95C1805.07 2252.95 1939.24 2056.22 2003.99 1871.64L1996.37 1848.47L1944.09 1859.61Z" fill="#4C4A3D"/>
<path d="M1900.06 1978.28C1900.06 1978.28 1880.75 1809.45 1919.4 1741.89C1958.05 1674.32 1966.14 1934.35 1966.14 1934.35L1900.06 1978.28Z" fill="#080999"/>
<path d="M1911.35 1821.34C1928.1 2021.29 1903.67 2169.39 1948.43 2329.53C2014.76 2566.85 2246.14 2933.5 2246.14 2933.5C2303.3 2933.67 2355.85 2916.71 2402.98 2879.36L2218.36 2189.97C2218.36 2189.97 2349.37 1700.19 2305.24 1543C2261.11 1385.81 2188.92 1319.12 2188.92 1319.12L1914.59 1431.8L1911.35 1821.34Z" fill="#B2AF9C"/>
<path d="M2305.24 1543C2261.12 1385.8 2188.92 1319.12 2188.92 1319.12L2192.86 1456.25C2192.86 1456.25 2249.85 1804.89 2225.68 1930.94C2201.5 2056.99 2152.7 2199.27 2152.7 2199.27C2152.7 2199.27 2343.29 2710.66 2386.97 2891.1C2392.37 2887.44 2397.71 2883.53 2402.98 2879.36L2218.37 2189.97C2218.37 2189.97 2349.37 1700.19 2305.24 1543Z" fill="#4C4A3D"/>
<path d="M1905.15 650.394L1719.54 702.822L1695.31 603.411C1695.31 603.411 1608.78 610.54 1597.17 528.435C1569.51 335.432 1595.66 238.608 1754.52 240.653C1833.96 241.658 1867.97 342.323 1866.58 460.045C1865.19 577.768 1905.15 650.394 1905.15 650.394Z" fill="#FFBA9F"/>
<path d="M1684.1 658.539L1704.59 678.794L1929.42 639.538L1890.68 567.307C1890.68 567.307 1738.48 602.767 1684.1 658.539Z" fill="black"/>
<path d="M1611.36 880.293C1611.36 880.293 1738.12 1420 1761.67 1438.16C1938.85 1572.91 2242.77 1405.78 2242.77 1405.78C2242.77 1405.78 2116.79 730.036 1921.01 629.857C1725.22 529.678 1607.5 822.589 1611.36 880.293Z" fill="#4C4A3D"/>
<path d="M1696.85 966.317L1705.02 1021.67C1705.02 1021.67 1728.18 1334.59 1852.76 1438.64C1977.35 1542.7 2271.58 1416.95 2271.58 1416.95C2271.58 1416.95 2147.36 920.068 2089.01 818.771C2089.01 818.771 1980.99 616.651 1885.86 615.183C1885.86 615.183 1820.64 575.565 1707.24 658.652L1696.85 966.317Z" fill="#FFBD00"/>
<path d="M1748.77 400.06C1774.73 374.27 1803.03 417.242 1802.27 456.08C1801.52 494.918 1849.83 521.601 1849.83 521.601C1870.07 525.284 1870.61 527.328 1888.19 509.886C1888.19 509.886 1905.29 317.199 1850.83 263.529C1838.97 251.825 1785.75 203.509 1714.76 209.146C1665.15 213.066 1572.84 274.667 1515.39 266.443C1528.92 362.036 1624.67 350.389 1624.67 350.389C1634.82 360.094 1646.83 367.412 1659.9 371.852C1705.65 387.317 1706.74 425.432 1706.27 428.833C1706.27 428.833 1717.69 481.193 1723.2 482.243C1728.71 483.294 1738.72 475.465 1738.72 475.465C1738.72 475.465 1722.82 425.828 1748.77 400.06Z" fill="black"/>
<path d="M2105.31 3289.76C2118.61 3321.05 2196.17 3283.34 2217.47 3271.56C2238.77 3259.78 2403.84 3148.79 2475.46 3087.59C2475.87 3081.53 2472.11 3069.34 2466.1 3054.16C2445.85 3003.04 2399.87 2917.96 2399.87 2917.96C2399.87 2917.96 2380.76 2933.1 2358.33 2953.84C2335.9 2974.58 2277.45 2991.44 2277.45 2991.44C2277.45 2991.44 2214.9 3093.41 2190.75 3140.63C2169.18 3182.8 2107.41 3243.59 2103.89 3278.45C2103.4 3282.29 2103.89 3286.19 2105.31 3289.76Z" fill="black"/>
<path d="M2105.31 3289.76C2118.61 3321.05 2196.17 3283.34 2217.47 3271.56C2238.77 3259.78 2403.84 3148.79 2475.46 3087.59C2475.87 3081.53 2472.11 3069.34 2466.1 3054.16C2414.16 3092.97 2248.9 3216 2206.25 3242.05C2172.47 3262.68 2129.17 3273.48 2103.95 3278.42C2103.43 3282.26 2103.9 3286.17 2105.31 3289.76Z" fill="white"/>
<path d="M2257.94 3055.1L2261.18 3048.18C2263.71 3042.79 2262.26 3035.82 2258.02 3032.61L2252.53 3028.51C2248.21 3025.3 2242.71 3027.09 2240.17 3032.48L2236.93 3039.39C2234.39 3044.79 2235.8 3051.76 2240.08 3054.96L2245.57 3059.07C2249.86 3062.27 2255.4 3060.49 2257.94 3055.1Z" fill="#AA1D57"/>
<path d="M2230.87 3099.75L2234.11 3092.82C2236.65 3087.44 2235.19 3080.47 2230.96 3077.26L2225.47 3073.16C2221.16 3069.95 2215.65 3071.72 2213.11 3077.12L2209.88 3084.04C2207.33 3089.43 2208.75 3096.4 2213.03 3099.6L2218.53 3103.71C2222.8 3106.91 2228.33 3105.14 2230.87 3099.75Z" fill="#AA1D57"/>
<path d="M2209.88 3140.63L2213.11 3133.72C2215.66 3128.32 2214.24 3121.29 2209.96 3118.15L2204.47 3114.04C2200.16 3110.84 2194.66 3112.62 2192.12 3118L2188.88 3124.93C2186.34 3130.32 2187.75 3137.29 2192.03 3140.5L2197.52 3144.6C2201.8 3147.81 2207.33 3146.07 2209.88 3140.63Z" fill="#AA1D57"/>
<path d="M1474.5 3206.36C1476.96 3239.9 1560.04 3243.41 1583.27 3243.12C1606.5 3242.82 1792.94 3223.52 1877.9 3203.75C1880.17 3198.65 1880.52 3186.26 1879.72 3170.2C1877.05 3116.11 1861.32 3020.33 1861.32 3020.33C1861.32 3020.33 1839.02 3024.56 1811.92 3032.12C1784.82 3039.67 1725.86 3026.96 1725.86 3026.96C1725.86 3026.96 1636.58 3086.58 1599.59 3116.4C1566.57 3143.04 1490.83 3167.08 1476.73 3195.79C1475.06 3199.02 1474.28 3202.69 1474.5 3206.36Z" fill="black"/>
<path d="M1474.5 3206.36C1476.96 3239.9 1560.04 3243.41 1583.27 3243.12C1606.5 3242.82 1792.94 3223.52 1877.9 3203.75C1880.17 3198.65 1880.52 3186.26 1879.72 3170.2C1819.85 3179.67 1629.53 3209.41 1582.16 3212.11C1544.65 3214.24 1501.47 3203.34 1476.73 3195.79C1475.06 3199.02 1474.28 3202.69 1474.5 3206.36Z" fill="white"/>
<path d="M1688.06 3073.34L1693.21 3068.82C1695.18 3066.96 1696.46 3064.42 1696.82 3061.67C1697.18 3058.92 1696.59 3056.12 1695.18 3053.77L1691.4 3047.6C1688.47 3042.8 1682.77 3041.75 1678.81 3045.26L1673.64 3049.78C1671.67 3051.65 1670.4 3054.18 1670.04 3056.93C1669.68 3059.69 1670.27 3062.48 1671.69 3064.83L1675.45 3071C1678.4 3075.8 1684.04 3076.85 1688.06 3073.34Z" fill="#AA1D57"/>
<path d="M1649.24 3099.57L1654.39 3095.05C1656.36 3093.18 1657.64 3090.65 1658 3087.9C1658.36 3085.14 1657.77 3082.34 1656.35 3079.99L1652.58 3073.83C1649.64 3069.03 1643.95 3067.98 1639.97 3071.5L1634.82 3076.01C1632.85 3077.88 1631.57 3080.41 1631.22 3083.17C1630.86 3085.93 1631.44 3088.72 1632.87 3091.07L1636.63 3097.23C1639.57 3102.01 1645.21 3103.07 1649.24 3099.57Z" fill="#AA1D57"/>
<path d="M1617.18 3125.37L1622.33 3120.85C1624.3 3118.99 1625.58 3116.45 1625.94 3113.7C1626.3 3110.94 1625.71 3108.14 1624.29 3105.79L1620.52 3099.64C1617.59 3094.82 1611.89 3093.78 1607.92 3097.29L1602.76 3101.8C1600.79 3103.67 1599.51 3106.2 1599.15 3108.96C1598.8 3111.72 1599.38 3114.52 1600.81 3116.86L1604.57 3123.02C1607.51 3127.83 1613.15 3128.88 1617.18 3125.37Z" fill="#AA1D57"/>
<path d="M1702.81 634.139L1695.54 604.282C1703.02 601.717 1728.09 594.962 1760.5 572.143C1752.09 610.37 1721.08 627.327 1702.81 634.139Z" fill="#E07E5F"/>
<path d="M865.968 670.276C865.968 670.276 1109.03 1002.78 1304.49 1047.44C1456.6 1082.19 1734.12 920.305 1734.12 920.305L1685.59 729.606C1685.59 729.606 1333.64 855.892 1298.85 849.961C1285.68 847.702 940.421 622.819 940.421 622.819L865.968 670.276Z" fill="#FFBA9F"/>
<path d="M1815.31 978.438C1810.86 981.18 1806.26 983.632 1801.52 985.781C1765.79 1002.73 1656.63 1042.97 1427.45 1042.26C1422.93 1040.55 1415.73 1030.88 1407.08 1016.49C1371.72 957.585 1342.05 824.442 1342.05 824.442C1342.05 824.442 1574.49 754.403 1713.94 652.733L1815.31 978.438Z" fill="#FFBD00"/>
<path d="M1801.52 985.781C1765.79 1002.73 1656.63 1042.96 1427.45 1042.26C1422.93 1040.55 1415.73 1030.88 1407.08 1016.49L1415.19 994.547C1415.19 994.547 1544.84 999.315 1658.96 998.863C1730.48 998.569 1776.87 991.215 1801.52 985.781Z" fill="#AC830E"/>
<path d="M2903.83 2868.54C2946.62 2868.54 2981.31 2832.2 2981.31 2787.37C2981.31 2742.55 2946.62 2706.21 2903.83 2706.21C2861.04 2706.21 2826.35 2742.55 2826.35 2787.37C2826.35 2832.2 2861.04 2868.54 2903.83 2868.54Z" fill="#7877FF"/>
<path d="M1296.32 821.211C1296.32 821.211 1385.33 1052.94 1403.08 1062.08C1420.83 1071.22 1473.81 1053.21 1473.81 1053.21C1473.81 1053.21 1364.69 801.577 1339.15 800.561C1313.61 799.544 1296.32 821.211 1296.32 821.211Z" fill="#FFE046"/>
<path d="M847.13 607.557C829.875 596.26 822.327 559.535 821.787 547.685C821.248 535.834 810.184 482.164 810.184 482.164C804.285 466.032 838.222 480.018 844.164 496.149C844.164 496.149 851.983 516.63 874.64 543.753C874.64 543.753 887.451 565.646 908.89 571.159C930.329 576.672 952.986 628.365 952.986 630.907C952.986 633.449 951.368 636.002 942.472 635.155C933.575 634.308 847.13 607.557 847.13 607.557Z" fill="#FFBA9F"/>
<path d="M110.839 606.471L110.828 606.473C102.367 607.376 96.207 615.294 97.0694 624.157L108.3 739.576C109.162 748.439 116.721 754.892 125.182 753.988L125.193 753.987C133.654 753.084 139.814 745.166 138.951 736.303L127.721 620.884C126.858 612.021 119.3 605.568 110.839 606.471Z" fill="#A5A7FF"/>
<path d="M127.484 777.44L127.474 777.441C119.012 778.344 112.852 786.262 113.715 795.125L124.946 910.544C125.808 919.407 133.366 925.86 141.827 924.957L141.838 924.955C150.299 924.052 156.459 916.134 155.597 907.271L144.366 791.852C143.504 782.989 135.945 776.536 127.484 777.44Z" fill="#A5A7FF"/>
<path d="M158.026 1066.11C156.066 1066.32 154.084 1066.13 152.196 1065.54C150.307 1064.94 148.548 1063.97 147.02 1062.66C145.492 1061.36 144.224 1059.75 143.288 1057.94C142.353 1056.12 141.769 1054.12 141.57 1052.07L136.178 995.587C135.777 991.439 136.965 987.294 139.481 984.064C141.997 980.833 145.634 978.782 149.593 978.359C151.553 978.15 153.534 978.347 155.421 978.939C157.308 979.532 159.066 980.508 160.593 981.812C162.12 983.116 163.387 984.722 164.321 986.539C165.256 988.356 165.839 990.348 166.039 992.401L171.431 1048.88C171.832 1053.03 170.645 1057.17 168.132 1060.4C165.618 1063.63 161.984 1065.69 158.026 1066.11Z" fill="#4F50FF"/>
<path d="M361.954 441.44L429.915 509.243L536.71 388.041L509.2 363.471L430.724 453.313L396.743 415.164L361.954 441.44Z" fill="#00C49C"/>
<path d="M662.937 428.731H566.646C559.945 428.731 554.514 434.421 554.514 441.44V441.451C554.514 448.47 559.945 454.16 566.646 454.16H662.937C669.637 454.16 675.069 448.47 675.069 441.451V441.44C675.069 434.421 669.637 428.731 662.937 428.731Z" fill="#3537EC"/>
<path d="M878.002 428.731H726.444C719.743 428.731 714.312 434.421 714.312 441.44V441.451C714.312 448.47 719.743 454.16 726.444 454.16H878.002C884.703 454.16 890.135 448.47 890.135 441.451V441.44C890.135 434.421 884.703 428.731 878.002 428.731Z" fill="#E03875"/>
<path d="M762.452 493.992H566.646C559.945 493.992 554.514 499.682 554.514 506.701V506.712C554.514 513.731 559.945 519.421 566.646 519.421H762.452C769.152 519.421 774.584 513.731 774.584 506.712V506.701C774.584 499.682 769.152 493.992 762.452 493.992Z" fill="#3537EC"/>
<path d="M789.142 792.325H502.319C495.618 792.325 490.187 798.015 490.187 805.034V805.045C490.187 812.064 495.618 817.754 502.319 817.754H789.142C795.842 817.754 801.274 812.064 801.274 805.045V805.034C801.274 798.015 795.842 792.325 789.142 792.325Z" fill="white"/>
<path d="M698.125 857.586H502.319C495.618 857.586 490.187 863.276 490.187 870.295V870.306C490.187 877.325 495.618 883.015 502.319 883.015H698.125C704.825 883.015 710.257 877.325 710.257 870.306V870.295C710.257 863.276 704.825 857.586 698.125 857.586Z" fill="#FFE046"/>
<path d="M669.677 1126.68H529.021C522.32 1126.68 516.889 1132.37 516.889 1139.39V1139.4C516.889 1146.42 522.32 1152.11 529.021 1152.11H669.677C676.377 1152.11 681.809 1146.42 681.809 1139.4V1139.39C681.809 1132.37 676.377 1126.68 669.677 1126.68Z" fill="white"/>
<path d="M864.395 1126.68H723.739C717.038 1126.68 711.606 1132.37 711.606 1139.39V1139.4C711.606 1146.42 717.038 1152.11 723.739 1152.11H864.395C871.095 1152.11 876.527 1146.42 876.527 1139.4V1139.39C876.527 1132.37 871.095 1126.68 864.395 1126.68Z" fill="#FFE046"/>
<path d="M806.947 1191.95H529.021C522.32 1191.95 516.889 1197.64 516.889 1204.65V1204.67C516.889 1211.68 522.32 1217.37 529.021 1217.37H806.947C813.648 1217.37 819.079 1211.68 819.079 1204.67V1204.65C819.079 1197.64 813.648 1191.95 806.947 1191.95Z" fill="white"/>
<path d="M669.009 1455.95H572.718C566.018 1455.95 560.586 1461.64 560.586 1468.66V1468.67C560.586 1475.69 566.018 1481.38 572.718 1481.38H669.009C675.709 1481.38 681.141 1475.69 681.141 1468.67V1468.66C681.141 1461.64 675.709 1455.95 669.009 1455.95Z" fill="white"/>
<path d="M776.752 1455.95H717.138C710.438 1455.95 705.006 1461.64 705.006 1468.66V1468.67C705.006 1475.69 710.438 1481.38 717.138 1481.38H776.752C783.453 1481.38 788.884 1475.69 788.884 1468.67V1468.66C788.884 1461.64 783.453 1455.95 776.752 1455.95Z" fill="#FFE046"/>
<path d="M940.983 1455.95H828.785C822.085 1455.95 816.653 1461.64 816.653 1468.66V1468.67C816.653 1475.69 822.085 1481.38 828.785 1481.38H940.983C947.683 1481.38 953.115 1475.69 953.115 1468.67V1468.66C953.115 1461.64 947.683 1455.95 940.983 1455.95Z" fill="white"/>
<path d="M707.982 1521.21H572.718C566.018 1521.21 560.586 1526.9 560.586 1533.92V1533.93C560.586 1540.95 566.018 1546.64 572.718 1546.64H707.982C714.683 1546.64 720.115 1540.95 720.115 1533.93V1533.92C720.115 1526.9 714.683 1521.21 707.982 1521.21Z" fill="white"/>
<path d="M814.226 1521.21H755.022C748.321 1521.21 742.89 1526.9 742.89 1533.92V1533.93C742.89 1540.95 748.321 1546.64 755.022 1546.64H814.226C820.926 1546.64 826.358 1540.95 826.358 1533.93V1533.92C826.358 1526.9 820.926 1521.21 814.226 1521.21Z" fill="#FFE046"/>
<path d="M407.334 1976.13C374.742 1983.38 344.617 1999.7 320.126 2023.37C295.636 2047.04 277.683 2077.18 268.155 2110.62L439.622 2167.72L407.334 1976.13Z" fill="#7A94A8"/>
<path d="M519.206 1987.46L439.631 2167.77L590.467 2044.01C571.444 2019.4 546.986 2000.01 519.206 1987.52V1987.46Z" fill="#4C4A3D"/>
<path d="M306.213 2294.23C315.445 2305.3 325.847 2315.24 337.217 2323.85C420.168 2386.73 536.485 2367.19 596.509 2280.31C610.849 2259.58 621.13 2236.09 626.757 2211.18C632.383 2186.27 633.245 2160.43 629.292 2135.17L439.633 2167.77L306.213 2294.23Z" fill="#FFBD00"/>
<path d="M519.209 1987.46C483.924 1971.69 444.845 1967.74 407.335 1976.16L439.687 2167.75L519.209 1987.46Z" fill="#FFE046"/>
<path d="M268.156 2110.62C259.247 2142.11 258.064 2175.44 264.716 2207.54C271.368 2239.63 285.64 2269.45 306.212 2294.23L439.633 2167.71L268.156 2110.62Z" fill="#6799FC"/>
<path d="M629.29 2135.17C624.144 2101.74 610.763 2070.3 590.467 2043.95L439.631 2167.77L629.29 2135.17Z" fill="#3A78DD"/>
<path d="M622.776 175.629H467.486C460.762 175.631 454.265 173.08 449.198 168.448C444.132 163.816 440.84 157.417 439.933 150.438L435.371 115.226H646.739L650.276 142.598C650.809 146.711 650.497 150.896 649.36 154.872C648.223 158.848 646.287 162.524 643.683 165.652C641.079 168.78 637.866 171.289 634.26 173.01C630.654 174.73 626.739 175.624 622.776 175.629Z" fill="black"/>
<path d="M673.042 1694.38L681.054 1757.21L733.562 1727.33L673.042 1694.38Z" fill="white"/>
<path d="M503.933 1750.34C513.989 1737.59 510.881 1717.51 496.991 1705.49C483.101 1693.47 463.689 1694.06 453.633 1706.81C443.578 1719.56 446.686 1739.64 460.576 1751.66C474.466 1763.68 493.878 1763.09 503.933 1750.34Z" fill="white"/>
<path d="M960.036 1751.75H895.828L890.576 1698.26H954.784L960.036 1751.75Z" fill="white"/>
<path opacity="0.2" d="M1056.56 1408.29L183.542 676.693L160.442 447.224L1033.57 1179.97L1056.56 1408.29Z" fill="white"/>
<path d="M2795.41 1011.85C2965.95 1011.85 3104.21 867.027 3104.21 688.374C3104.21 509.721 2965.95 364.894 2795.41 364.894C2624.86 364.894 2486.61 509.721 2486.61 688.374C2486.61 867.027 2624.86 1011.85 2795.41 1011.85Z" fill="#7A94A8"/>
<path d="M2795.41 945.814C2931.14 945.814 3041.17 830.554 3041.17 688.374C3041.17 546.194 2931.14 430.934 2795.41 430.934C2659.68 430.934 2549.65 546.194 2549.65 688.374C2549.65 830.554 2659.68 945.814 2795.41 945.814Z" fill="#4C4A3D"/>
<path d="M2795.41 869.448C2890.88 869.448 2968.27 788.378 2968.27 688.374C2968.27 588.369 2890.88 507.299 2795.41 507.299C2699.94 507.299 2622.55 588.369 2622.55 688.374C2622.55 788.378 2699.94 869.448 2795.41 869.448Z" fill="#FECD3B"/>
<path d="M2795.41 796.483C2852.41 796.483 2898.61 748.081 2898.61 688.374C2898.61 628.667 2852.41 580.265 2795.41 580.265C2738.41 580.265 2692.21 628.667 2692.21 688.374C2692.21 748.081 2738.41 796.483 2795.41 796.483Z" fill="#E03875"/>
<path d="M2795.41 738.78C2821.98 738.78 2843.53 716.212 2843.53 688.374C2843.53 660.536 2821.98 637.968 2795.41 637.968C2768.83 637.968 2747.29 660.536 2747.29 688.374C2747.29 716.212 2768.83 738.78 2795.41 738.78Z" fill="#FFE046"/>
<path d="M3278.24 819.596L2811.72 683.144C2800.24 677.156 2790.95 696.7 2802.44 702.653L3274.78 840.755L3278.24 819.596Z" fill="#222ABC"/>
<path d="M3229.63 810.118L3266.09 776.623L3391 796.234L3330.5 834.914L3229.63 810.118Z" fill="#AA1D57"/>
<path d="M3225.95 820.364L3244.37 867.358L3364.58 908.003L3326.83 845.171L3225.95 820.364Z" fill="#AA1D57"/>
<path d="M235.339 235.027C245.5 235.027 253.737 226.399 253.737 215.755C253.737 205.111 245.5 196.483 235.339 196.483C225.178 196.483 216.941 205.111 216.941 215.755C216.941 226.399 225.178 235.027 235.339 235.027Z" fill="white"/>
<path d="M330.714 233.457C340.875 233.457 349.112 224.828 349.112 214.185C349.112 203.541 340.875 194.913 330.714 194.913C320.553 194.913 312.316 203.541 312.316 214.185C312.316 224.828 320.553 233.457 330.714 233.457Z" fill="#E03875"/>
<path d="M410.319 235.807C420.48 235.807 428.717 227.179 428.717 216.535C428.717 205.891 420.48 197.263 410.319 197.263C400.159 197.263 391.922 205.891 391.922 216.535C391.922 227.179 400.159 235.807 410.319 235.807Z" fill="#FFE046"/>
<path d="M2375.29 9.36781e-07H2012.58C2004.04 -0.001483 1995.58 1.76006 1987.69 5.18396C1979.8 8.60787 1972.62 13.6271 1966.58 19.9549C1960.54 26.2827 1955.75 33.7951 1952.48 42.0631C1949.21 50.3311 1947.53 59.1926 1947.53 68.1415V210.48C1947.54 228.372 1954.26 245.546 1966.24 258.292C1978.23 271.037 1994.52 278.331 2011.6 278.598C2005.83 320.464 1991.94 386.911 1960.57 406.996C2060.25 390.39 2110.71 301.632 2122.24 278.621H2375.29C2383.84 278.621 2392.29 276.858 2400.19 273.434C2408.08 270.009 2415.25 264.99 2421.29 258.662C2427.33 252.335 2432.12 244.823 2435.39 236.555C2438.65 228.288 2440.33 219.427 2440.33 210.48V68.1415C2440.33 59.1936 2438.65 50.333 2435.39 42.0657C2432.12 33.7985 2427.33 26.2865 2421.29 19.9588C2415.25 13.6312 2408.08 8.61177 2400.19 5.1872C2392.29 1.76263 2383.84 8.13779e-07 2375.29 9.36781e-07Z" fill="#AC830E"/>
<path d="M2272 61.1152H2051.2C2044.53 61.1152 2039.12 66.7798 2039.12 73.7674C2039.12 80.7551 2044.53 86.4197 2051.2 86.4197H2272C2278.68 86.4197 2284.08 80.7551 2284.08 73.7674C2284.08 66.7798 2278.68 61.1152 2272 61.1152Z" fill="white"/>
<path d="M2171.09 123.755H2051.2C2044.53 123.755 2039.12 129.42 2039.12 136.407C2039.12 143.395 2044.53 149.059 2051.2 149.059H2171.09C2177.76 149.059 2183.17 143.395 2183.17 136.407C2183.17 129.42 2177.76 123.755 2171.09 123.755Z" fill="#FFE046"/>
<path d="M2260.79 182.792H2051.2C2044.53 182.792 2039.12 188.456 2039.12 195.444C2039.12 202.431 2044.53 208.096 2051.2 208.096H2260.79C2267.46 208.096 2272.87 202.431 2272.87 195.444C2272.87 188.456 2267.46 182.792 2260.79 182.792Z" fill="white"/>
<path d="M2347.04 123.755H2227.15C2220.48 123.755 2215.08 129.42 2215.08 136.407C2215.08 143.395 2220.48 149.059 2227.15 149.059H2347.04C2353.71 149.059 2359.12 143.395 2359.12 136.407C2359.12 129.42 2353.71 123.755 2347.04 123.755Z" fill="white"/>
<path d="M1604.01 410.453C1604.01 410.453 1571.34 463.547 1570.22 482.435C1569.1 501.323 1621.98 503.673 1621.98 503.673L1604.01 410.453Z" fill="#FFBA9F"/>
<path d="M1342.05 1489.31C1372.51 1489.28 1401.88 1501.13 1424.45 1522.55L1445.66 1499.62C1425.27 1480.1 1400.23 1466.69 1373.18 1460.82C1346.12 1454.95 1318.06 1456.83 1291.94 1466.25L1301.48 1496.54C1314.52 1491.75 1328.24 1489.3 1342.05 1489.31Z" fill="#080999"/>
<path d="M1342.05 1747.14C1323.54 1747.14 1305.27 1742.77 1288.6 1734.34C1271.93 1725.92 1257.28 1713.67 1245.76 1698.5C1234.23 1683.33 1226.12 1665.63 1222.03 1646.72C1217.94 1627.81 1217.97 1608.18 1222.12 1589.28L1192.35 1582.67C1184.97 1616.7 1188.36 1652.32 1202.01 1684.15C1215.66 1715.99 1238.82 1742.3 1268 1759.13C1297.18 1775.96 1330.8 1782.39 1363.77 1777.44C1396.75 1772.5 1427.3 1756.45 1450.8 1731.72L1429.23 1709.23C1417.81 1721.27 1404.22 1730.81 1389.26 1737.32C1374.3 1743.83 1358.25 1747.17 1342.05 1747.14Z" fill="#4F50FF"/>
<path d="M1465.12 1618.23C1465.11 1629.6 1463.66 1640.93 1460.81 1651.9L1490.06 1660.71C1496.59 1635.59 1497.24 1609.19 1491.94 1583.75L1462.08 1589.87C1464.09 1599.18 1465.11 1608.69 1465.12 1618.23Z" fill="#FF8327"/>
<path d="M1462.12 1589.87L1491.98 1583.75C1485.2 1551.37 1469.02 1521.99 1445.66 1499.62L1424.45 1522.55C1443.34 1540.38 1456.5 1563.9 1462.12 1589.87Z" fill="#7877FF"/>
<path d="M1301.44 1496.54L1291.94 1466.25C1267.28 1475.21 1245.2 1490.6 1227.78 1510.97C1210.37 1531.34 1198.19 1556.01 1192.39 1582.67L1222.17 1589.28C1226.87 1568.09 1236.6 1548.48 1250.45 1532.27C1264.31 1516.05 1281.85 1503.77 1301.44 1496.54Z" fill="#AA1D57"/>
<path d="M1460.85 1651.9C1455.23 1673.56 1444.32 1693.3 1429.19 1709.19L1450.76 1731.68C1469.5 1711.99 1483.05 1687.53 1490.06 1660.71L1460.85 1651.9Z" fill="#FFE046"/>
</svg>
