<svg width="1659" height="1253" viewBox="0 0 1659 1253" fill="none" xmlns="http://www.w3.org/2000/svg">
<path d="M1571.01 707.444C1455.08 667.385 1686.59 658.099 1613.03 397.086C1609.33 383.97 1593.2 344.983 1589.63 338.15C1497.74 162.272 1102.58 133.174 1054.85 277.382C1029.55 353.823 1019.97 349.578 683.53 272.013C566.095 244.939 478.597 317.519 436.086 417.235C432.796 424.944 429.781 432.803 427.041 440.813C400.342 518.696 399.796 608.781 431.819 680.151C509.672 853.667 330.831 697.227 289.019 815.637C212.469 1032.39 414.704 1156.49 414.704 1156.49L1545.28 1158.28C1723.33 1073.2 1736.59 764.662 1571.01 707.444Z" fill="#FFD7BE"/>
<path d="M380.928 527.317L455.34 771.919L598.678 774.179L514.031 499.915C361.661 492.015 380.928 527.317 380.928 527.317Z" fill="#383783"/>
<path d="M403.495 1144.56H425.315L484.006 779.701H455.415L403.495 1144.56Z" fill="#3B55AA"/>
<path d="M620.952 779.701L679.639 1144.56H701.463L649.544 779.701H620.952Z" fill="#3B55AA"/>
<path d="M678.139 763.814H460.24V786.386H678.139V763.814Z" fill="#3B55AA"/>
<path d="M380.871 516.156C378.392 517.12 376.349 518.954 375.126 521.317C373.902 523.679 373.582 526.406 374.226 528.987L433.202 764.898C434.716 770.955 438.186 776.343 443.074 780.227C447.962 784.111 453.994 786.274 460.237 786.381V763.809L395.381 523.492C394.981 522.011 394.274 520.632 393.306 519.443C392.338 518.253 391.13 517.281 389.761 516.589C388.393 515.897 386.894 515.501 385.362 515.427C383.831 515.352 382.301 515.6 380.871 516.156Z" fill="#3B55AA"/>
<path d="M947.945 1203.33C1274.7 1203.33 1539.58 1182.85 1539.58 1157.58C1539.58 1132.32 1274.7 1111.83 947.945 1111.83C621.194 1111.83 356.31 1132.32 356.31 1157.58C356.31 1182.85 621.194 1203.33 947.945 1203.33Z" fill="#FF9C00"/>
<path d="M1391.17 515.675L1385.05 511.622L1388.54 508.51L1383.59 507.565L1388.25 503.517L1380.96 499.784L1388.54 495.412L1383 491.989L1389.42 488.561L1383.88 484.513L1390.58 480.141L1385.04 477.339L1387.08 472.045H1360.56L1364.05 469.859L1360.27 466.436L1363.76 464.569L1359.97 462.383L1363.47 459.27L1359.1 456.778L1364.64 454.907L1360.85 451.484L1364.05 449.298L1359.1 447.431L1362.3 444.314L1358.51 440.891L1363.47 437.778L1357.64 434.351L1364.63 431.859L1358.51 429.367H1379.8L1373.09 424.388L1377.75 422.202L1371.93 420.016L1376.3 418.149L1371.93 415.036L1378.92 413.165L1372.21 408.793L1377.75 406.301L1371.93 403.189L1375.13 401.003L1371.93 399.446L1377.75 394.463L1370.47 391.713L1376.3 387.184H1268.73L1254.15 388.932C1254.15 388.932 1250.07 396.718 1249.49 397.964C1248.91 399.21 1229.67 437.512 1229.67 437.512C1229.67 437.512 1229.37 518.792 1231.12 520.348C1232.87 521.905 1267.74 559.826 1267.74 559.826H1370.48L1366.11 557.093L1369.9 555.227L1364.94 551.489L1369.6 550.553L1363.78 547.44L1371.06 546.195L1363.78 539.969H1368.15L1363.48 534.985L1369.6 528.428H1362.61L1366.98 522.045H1360.13L1366.11 515.662L1391.17 515.675Z" fill="#F2EBDF"/>
<path d="M1273.66 481.776L1279.59 475.092H1269.39L1278.27 470.523H1244.04L1251.78 462.261L1246.51 456.638H1250.95L1244.62 449.871L1248.65 445.56L1245.52 442.22H1249.64L1245.44 437.739L1250.13 432.729L1247.83 430.268H1270.05L1265.77 421.655L1269.06 417.437L1264.45 415.679L1268.73 410.407L1263.13 408.649L1270.05 404.426L1263.79 400.561L1267.74 393.177L1264.12 388.959L1268.73 387.201H1162.75L1164.07 387.905L1166.7 392.828L1163.41 397.746L1169 400.911L1163.41 406.188L1168.68 409.703L1164.73 416.029L1169 418.844L1166.37 424.466L1171.64 427.986H1147.61L1152.22 431.501L1145.97 435.365L1152.22 438.53L1145.31 443.099L1150.58 447.672L1145.31 451.541L1151.57 453.298L1145.97 460.328L1150.25 459.624L1145.97 466.304L1151.89 465.601L1147.95 471.227H1174.6L1169 476.854L1172.63 481.422L1167.03 487.398L1174.93 488.806L1169.66 494.078L1175.26 498.651L1170.65 503.22L1175.26 503.924L1171.31 509.196L1174.27 510.25L1172.63 513.765H1153.87V523.61L1156.5 526.425L1152.22 531.698L1156.83 533.455L1151.89 538.728H1156.17L1152.88 542.946L1155.51 544.704L1152.88 548.573V559.822H1267.74L1262.8 551.384L1267.08 547.165L1260.5 543.3L1263.79 537.674L1259.18 535.213L1263.46 529.586L1259.51 526.425L1263.46 520.799L1267.41 515.526H1275.64L1279.92 508.142L1274.32 506.735L1278.93 499.351L1273.01 498.297L1279.59 492.671L1273.66 489.156L1281.56 484.937L1273.66 481.776Z" fill="white"/>
<path d="M1253.28 393.331C1246.07 392.99 1238.91 392.775 1231.7 392.771C1224.73 392.771 1217.77 392.771 1210.81 392.736C1203.85 392.701 1196.88 392.714 1189.92 392.714C1186.42 392.714 1182.96 392.714 1179.48 392.714C1176.2 392.74 1172.11 392.198 1169.02 393.545C1169.01 393.548 1169 393.555 1168.99 393.564C1168.98 393.573 1168.98 393.584 1168.98 393.595C1168.98 393.606 1168.98 393.617 1168.99 393.626C1169 393.635 1169.01 393.642 1169.02 393.645C1172.11 394.992 1176.2 394.454 1179.48 394.476C1182.97 394.476 1186.44 394.476 1189.92 394.476C1196.88 394.476 1203.84 394.476 1210.81 394.454C1217.77 394.432 1224.73 394.419 1231.7 394.419C1238.91 394.419 1246.07 394.201 1253.28 393.864C1253.34 393.853 1253.4 393.82 1253.44 393.771C1253.48 393.722 1253.5 393.661 1253.5 393.597C1253.5 393.534 1253.48 393.472 1253.44 393.424C1253.4 393.375 1253.34 393.342 1253.28 393.331Z" fill="#C4B199"/>
<path d="M1256.55 397.689C1253.87 396.815 1250.95 397.13 1248.16 397.121C1245.16 397.121 1242.16 397.121 1239.15 397.121C1233.14 397.121 1227.13 397.121 1221.12 397.121C1209.1 397.173 1197.08 397.06 1185.06 397.536C1184.95 397.536 1184.84 397.582 1184.75 397.664C1184.67 397.746 1184.62 397.857 1184.62 397.973C1184.62 398.089 1184.67 398.201 1184.75 398.283C1184.84 398.365 1184.95 398.411 1185.06 398.411C1197.08 398.887 1209.11 398.769 1221.12 398.822C1227.13 398.848 1233.14 398.848 1239.15 398.822C1242.15 398.822 1245.16 398.822 1248.16 398.822C1250.95 398.822 1253.87 399.145 1256.55 398.253C1256.62 398.239 1256.68 398.204 1256.72 398.152C1256.76 398.101 1256.78 398.037 1256.78 397.971C1256.78 397.905 1256.76 397.841 1256.72 397.79C1256.68 397.739 1256.62 397.703 1256.55 397.689Z" fill="#C4B199"/>
<path d="M1252.69 404.583C1239.74 403.871 1226.7 404.186 1213.72 404.146L1194.23 404.085C1190.99 404.085 1187.74 404.085 1184.49 404.116C1181.55 404.116 1178.29 403.928 1175.42 404.71C1175.4 404.717 1175.38 404.73 1175.36 404.748C1175.35 404.766 1175.34 404.788 1175.34 404.811C1175.34 404.833 1175.35 404.855 1175.36 404.873C1175.38 404.892 1175.4 404.905 1175.42 404.911C1178.3 405.698 1181.54 405.488 1184.49 405.506C1187.74 405.506 1190.99 405.55 1194.23 405.536L1213.72 405.475C1226.7 405.436 1239.74 405.751 1252.69 405.038C1252.75 405.038 1252.81 405.014 1252.86 404.971C1252.9 404.929 1252.92 404.871 1252.92 404.811C1252.92 404.75 1252.9 404.693 1252.86 404.65C1252.81 404.607 1252.75 404.583 1252.69 404.583Z" fill="#C4B199"/>
<path d="M1259.69 413.572C1248.47 412.632 1237.07 413.183 1225.82 413.183H1209.06C1206.26 413.183 1203.47 413.183 1200.67 413.231C1198.05 413.283 1195.17 413.052 1192.62 413.716C1192.6 413.723 1192.59 413.736 1192.57 413.753C1192.56 413.77 1192.56 413.79 1192.56 413.81C1192.56 413.831 1192.56 413.851 1192.57 413.867C1192.59 413.884 1192.6 413.897 1192.62 413.904C1195.07 414.542 1197.82 414.341 1200.32 414.385C1203.12 414.442 1205.91 414.438 1208.71 414.442H1225.82C1237.07 414.442 1248.47 414.997 1259.69 414.057C1259.75 414.041 1259.79 414.009 1259.82 413.966C1259.86 413.922 1259.87 413.869 1259.87 413.815C1259.87 413.76 1259.86 413.707 1259.82 413.664C1259.79 413.62 1259.75 413.588 1259.69 413.572Z" fill="#C4B199"/>
<path d="M1230.54 420.567C1225.8 420.414 1221.09 420.055 1216.35 420.055C1211.88 420.055 1207.23 419.745 1202.79 420.563C1202.77 420.572 1202.75 420.59 1202.73 420.612C1202.72 420.635 1202.71 420.662 1202.71 420.689C1202.71 420.717 1202.72 420.744 1202.73 420.766C1202.75 420.789 1202.77 420.806 1202.79 420.816C1207.21 421.634 1211.87 421.319 1216.35 421.319C1221.09 421.319 1225.8 420.96 1230.54 420.812C1230.57 420.812 1230.61 420.799 1230.63 420.776C1230.65 420.753 1230.66 420.722 1230.66 420.689C1230.66 420.657 1230.65 420.626 1230.63 420.603C1230.61 420.58 1230.57 420.567 1230.54 420.567Z" fill="#C4B199"/>
<path d="M1236.37 433.31C1225.97 433.004 1215.58 432.913 1205.18 432.873C1200.1 432.853 1195.01 432.837 1189.93 432.825C1187.39 432.825 1184.84 432.825 1182.3 432.825C1180.92 432.825 1179.53 432.825 1178.15 432.873C1176.76 432.921 1175.38 433.31 1173.98 433.367C1173.96 433.367 1173.94 433.377 1173.92 433.393C1173.91 433.409 1173.9 433.432 1173.9 433.455C1173.9 433.478 1173.91 433.5 1173.92 433.517C1173.94 433.533 1173.96 433.542 1173.98 433.542C1175.37 433.612 1176.73 433.979 1178.15 434.041C1179.41 434.076 1180.69 434.067 1181.96 434.08C1184.5 434.111 1187.04 434.102 1189.58 434.08C1194.78 434.08 1199.98 434.062 1205.18 434.027C1215.58 433.984 1225.97 433.896 1236.37 433.59C1236.4 433.58 1236.42 433.561 1236.44 433.536C1236.46 433.511 1236.47 433.481 1236.47 433.45C1236.47 433.42 1236.46 433.39 1236.44 433.365C1236.42 433.34 1236.4 433.321 1236.37 433.31Z" fill="#C4B199"/>
<path d="M1239.29 427.654C1229.9 427.173 1220.49 427.216 1211.1 427.142C1206.46 427.098 1201.82 427.098 1197.18 427.094C1192.66 427.094 1188.04 426.893 1183.58 427.745C1183.55 427.754 1183.54 427.769 1183.52 427.789C1183.51 427.808 1183.5 427.831 1183.5 427.855C1183.5 427.878 1183.51 427.901 1183.52 427.92C1183.54 427.94 1183.55 427.955 1183.58 427.964C1187.95 428.799 1192.42 428.611 1196.83 428.615C1201.59 428.615 1206.34 428.599 1211.1 428.567C1220.5 428.48 1229.9 428.537 1239.29 428.056C1239.34 428.056 1239.39 428.035 1239.43 427.997C1239.47 427.959 1239.49 427.908 1239.49 427.855C1239.49 427.801 1239.47 427.75 1239.43 427.712C1239.39 427.675 1239.34 427.654 1239.29 427.654Z" fill="#C4B199"/>
<path d="M1229.08 444.506C1218.84 444.205 1208.6 444.096 1198.36 443.973C1193.24 443.912 1188.12 443.878 1182.99 443.873C1180.55 443.873 1178.11 443.873 1175.66 443.908C1173.54 443.938 1170.97 443.663 1168.98 444.581C1168.97 444.59 1168.95 444.603 1168.95 444.619C1168.94 444.635 1168.93 444.652 1168.93 444.67C1168.93 444.688 1168.94 444.706 1168.95 444.722C1168.95 444.738 1168.97 444.751 1168.98 444.76C1170.88 445.634 1173.28 445.398 1175.31 445.429C1177.88 445.464 1180.44 445.473 1182.99 445.473C1188.12 445.473 1193.24 445.438 1198.36 445.368C1208.6 445.25 1218.84 445.136 1229.08 444.839C1229.13 444.839 1229.17 444.821 1229.2 444.79C1229.23 444.759 1229.25 444.717 1229.25 444.673C1229.25 444.629 1229.23 444.586 1229.2 444.555C1229.17 444.524 1229.13 444.506 1229.08 444.506Z" fill="#C4B199"/>
<path d="M1237.83 456.476C1224.37 455.3 1210.72 455.838 1197.25 455.794C1190.49 455.768 1183.72 455.733 1176.96 455.794C1170.47 455.829 1163.72 455.423 1157.29 456.551C1157.02 456.599 1157.02 457.08 1157.29 457.123C1163.71 458.251 1170.46 457.845 1176.96 457.884C1183.72 457.919 1190.49 457.884 1197.25 457.884C1210.75 457.836 1224.36 458.374 1237.83 457.202C1237.93 457.202 1238.02 457.164 1238.09 457.096C1238.15 457.028 1238.19 456.935 1238.19 456.839C1238.19 456.743 1238.15 456.651 1238.09 456.583C1238.02 456.515 1237.93 456.476 1237.83 456.476Z" fill="#C4B199"/>
<path d="M1232.58 463.467C1221.58 463.03 1210.59 462.824 1199.59 462.68C1194.14 462.61 1188.7 462.61 1183.26 462.632C1180.48 462.632 1177.7 462.671 1174.92 462.733C1172.4 462.789 1169.63 462.545 1167.18 463.27C1167.1 463.305 1167.04 463.361 1166.99 463.432C1166.95 463.502 1166.92 463.584 1166.92 463.668C1166.92 463.752 1166.95 463.834 1166.99 463.905C1167.04 463.975 1167.1 464.031 1167.18 464.066C1169.63 464.792 1172.4 464.542 1174.92 464.599C1177.7 464.665 1180.48 464.691 1183.26 464.7C1188.7 464.726 1194.14 464.726 1199.59 464.656C1210.59 464.512 1221.58 464.289 1232.58 463.869C1232.63 463.869 1232.68 463.848 1232.72 463.81C1232.76 463.773 1232.78 463.721 1232.78 463.668C1232.78 463.615 1232.76 463.564 1232.72 463.526C1232.68 463.488 1232.63 463.467 1232.58 463.467Z" fill="#C4B199"/>
<path d="M1263.19 481.077C1250.44 480.202 1237.63 480.487 1224.85 480.469C1218.58 480.469 1212.31 480.43 1206.06 480.469C1199.55 480.5 1193.01 480.334 1186.54 481.072C1186.45 481.072 1186.35 481.11 1186.29 481.177C1186.22 481.245 1186.18 481.336 1186.18 481.431C1186.18 481.526 1186.22 481.617 1186.29 481.684C1186.35 481.752 1186.45 481.789 1186.54 481.789C1193.01 482.528 1199.55 482.362 1206.06 482.393C1212.33 482.419 1218.6 482.393 1224.85 482.393C1237.63 482.393 1250.44 482.659 1263.19 481.785C1263.28 481.785 1263.37 481.748 1263.44 481.681C1263.51 481.615 1263.54 481.525 1263.54 481.431C1263.54 481.337 1263.51 481.247 1263.44 481.18C1263.37 481.114 1263.28 481.077 1263.19 481.077Z" fill="#C4B199"/>
<path d="M1261.15 488.942C1250.66 488.067 1240.12 488.378 1229.61 488.334C1224.41 488.334 1219.21 488.255 1214.02 488.229C1211.47 488.229 1208.93 488.229 1206.39 488.255C1203.96 488.281 1201.02 488.128 1198.72 489.025C1198.68 489.038 1198.65 489.062 1198.63 489.093C1198.61 489.125 1198.59 489.163 1198.59 489.202C1198.59 489.241 1198.61 489.278 1198.63 489.31C1198.65 489.342 1198.68 489.366 1198.72 489.379C1200.91 490.253 1203.72 490.109 1206.04 490.153C1208.7 490.201 1211.36 490.192 1214.02 490.179C1219.21 490.148 1224.41 490.096 1229.61 490.074C1240.1 490.03 1250.67 490.349 1261.15 489.466C1261.22 489.466 1261.29 489.439 1261.33 489.389C1261.38 489.34 1261.41 489.273 1261.41 489.204C1261.41 489.134 1261.38 489.068 1261.33 489.018C1261.29 488.969 1261.22 488.942 1261.15 488.942Z" fill="#C4B199"/>
<path d="M1266.4 496.138C1252.62 495.556 1238.79 495.373 1225 495.508C1223.97 495.508 1223.97 497.213 1225 497.226C1238.79 497.358 1252.62 497.178 1266.4 496.592C1266.46 496.592 1266.51 496.568 1266.56 496.526C1266.6 496.483 1266.62 496.425 1266.62 496.365C1266.62 496.305 1266.6 496.247 1266.56 496.204C1266.51 496.162 1266.46 496.138 1266.4 496.138Z" fill="#C4B199"/>
<path d="M1250.94 504.252C1240.6 503.889 1230.25 503.749 1219.91 503.705C1214.79 503.705 1209.67 503.591 1204.56 503.57C1199.34 503.543 1194.04 503.277 1188.86 503.911C1188.72 503.928 1188.6 503.993 1188.51 504.094C1188.42 504.196 1188.37 504.326 1188.37 504.461C1188.37 504.597 1188.42 504.727 1188.51 504.829C1188.6 504.93 1188.72 504.995 1188.86 505.012C1193.93 505.633 1199.11 505.379 1204.21 505.358C1209.45 505.331 1214.67 505.24 1219.91 505.218C1230.26 505.178 1240.6 505.038 1250.94 504.671C1251 504.671 1251.05 504.649 1251.09 504.61C1251.13 504.57 1251.15 504.517 1251.15 504.461C1251.15 504.406 1251.13 504.352 1251.09 504.313C1251.05 504.274 1251 504.252 1250.94 504.252Z" fill="#C4B199"/>
<path d="M1257.07 512.624C1244.12 512.086 1231.2 512.003 1218.24 511.951C1211.83 511.924 1205.42 511.879 1199 511.815C1195.74 511.78 1192.47 511.736 1189.21 511.745C1186.22 511.745 1182.86 511.352 1180 512.414C1179.9 512.45 1179.82 512.512 1179.77 512.594C1179.71 512.675 1179.68 512.772 1179.68 512.871C1179.68 512.97 1179.71 513.066 1179.77 513.148C1179.82 513.229 1179.9 513.292 1180 513.328C1182.87 514.39 1186.21 513.988 1189.21 513.997C1192.47 513.997 1195.74 513.962 1199 513.927C1205.42 513.865 1211.83 513.82 1218.24 513.791C1231.2 513.739 1244.12 513.656 1257.07 513.118C1257.13 513.11 1257.18 513.08 1257.22 513.035C1257.26 512.99 1257.29 512.931 1257.29 512.871C1257.29 512.81 1257.26 512.752 1257.22 512.707C1257.18 512.661 1257.13 512.632 1257.07 512.624Z" fill="#C4B199"/>
<path d="M1251.24 521.966C1227.82 521.092 1204.4 521.529 1180.97 521.529C1177.71 521.529 1174.44 521.459 1171.18 521.359C1168.12 521.262 1164.55 520.637 1161.59 521.638C1161.48 521.683 1161.38 521.761 1161.31 521.862C1161.24 521.963 1161.21 522.082 1161.21 522.205C1161.21 522.327 1161.24 522.446 1161.31 522.547C1161.38 522.648 1161.48 522.726 1161.59 522.771C1164.15 523.645 1167.15 523.173 1169.78 523.094C1172.69 523.002 1175.61 522.893 1178.53 522.88C1184.35 522.854 1190.18 522.906 1196.01 522.95C1207.78 523.046 1219.56 523.024 1231.33 523.042C1237.97 523.042 1244.61 522.701 1251.25 522.452C1251.31 522.437 1251.35 522.405 1251.39 522.36C1251.42 522.315 1251.44 522.26 1251.44 522.204C1251.44 522.147 1251.42 522.093 1251.38 522.05C1251.34 522.007 1251.29 521.977 1251.24 521.966Z" fill="#C4B199"/>
<path d="M1231.71 526.014C1221.36 525.656 1211.04 525.385 1200.69 525.503C1195.58 525.56 1190.47 525.608 1185.36 525.568C1182.8 525.568 1180.25 525.525 1177.69 525.529C1175.75 525.529 1172.66 524.878 1171.03 526.185C1171.02 526.194 1171.01 526.205 1171 526.219C1170.99 526.232 1170.99 526.246 1170.99 526.261C1170.99 526.276 1170.99 526.291 1171 526.304C1171.01 526.317 1171.02 526.329 1171.03 526.338C1172.6 527.592 1175.48 526.985 1177.34 526.989C1179.9 526.989 1182.46 526.989 1185.01 526.954C1190.26 526.915 1195.46 526.954 1200.69 527.02C1211.04 527.138 1221.36 526.867 1231.71 526.508C1231.77 526.5 1231.82 526.471 1231.86 526.425C1231.9 526.38 1231.92 526.322 1231.92 526.261C1231.92 526.201 1231.9 526.143 1231.86 526.097C1231.82 526.052 1231.77 526.022 1231.71 526.014Z" fill="#C4B199"/>
<path d="M1248.03 537.434C1234.31 536.48 1220.49 536.9 1206.72 536.961C1199.9 536.992 1193.08 536.961 1186.25 536.883C1182.78 536.848 1179.3 536.819 1175.83 536.795C1174.22 536.795 1172.59 536.795 1170.98 536.795C1169.36 536.795 1167.57 536.66 1165.98 537.232C1165.86 537.275 1165.77 537.351 1165.7 537.449C1165.63 537.547 1165.6 537.664 1165.6 537.783C1165.6 537.903 1165.63 538.019 1165.7 538.117C1165.77 538.216 1165.86 538.291 1165.98 538.334C1167.57 538.889 1169.31 538.728 1170.98 538.771C1172.64 538.815 1174.22 538.793 1175.83 538.771C1179.3 538.754 1182.78 538.725 1186.25 538.684C1193.08 538.614 1199.9 538.575 1206.72 538.605C1220.48 538.666 1234.31 539.086 1248.03 538.133C1248.12 538.133 1248.21 538.096 1248.28 538.031C1248.34 537.965 1248.38 537.876 1248.38 537.783C1248.38 537.691 1248.34 537.602 1248.28 537.536C1248.21 537.47 1248.12 537.434 1248.03 537.434Z" fill="#C4B199"/>
<path d="M1233.17 547.484C1224.62 546.947 1216.12 546.794 1207.55 546.767L1195.08 546.732C1192.9 546.732 1190.71 546.732 1188.52 546.732C1186.75 546.732 1184.78 546.522 1183.16 547.432C1183.12 547.465 1183.07 547.511 1183.05 547.564C1183.02 547.617 1183 547.676 1183 547.736C1183 547.796 1183.02 547.855 1183.05 547.908C1183.07 547.961 1183.12 548.006 1183.16 548.04C1184.7 548.914 1186.49 548.722 1188.18 548.735C1190.37 548.752 1192.56 548.752 1194.74 548.735L1207.55 548.7C1216.11 548.673 1224.62 548.52 1233.17 547.983C1233.22 547.963 1233.26 547.929 1233.29 547.885C1233.32 547.84 1233.34 547.788 1233.34 547.734C1233.34 547.679 1233.32 547.627 1233.29 547.582C1233.26 547.538 1233.22 547.504 1233.17 547.484Z" fill="#C4B199"/>
<g style="mix-blend-mode:multiply">
<path d="M1171.64 429.31C1171.64 429.31 1343.75 428.681 1358.65 429.31C1365.01 420.523 1231.84 413.262 1171.64 429.31Z" fill="#F2EBDF"/>
</g>
<g style="mix-blend-mode:multiply">
<path d="M1176.11 514.788C1176.11 514.788 1348.23 514.158 1363.13 514.788C1369.48 506.022 1236.32 498.761 1176.11 514.788Z" fill="#F2EBDF"/>
</g>
<g style="mix-blend-mode:multiply">
<path d="M1175.62 471.24C1175.62 471.24 1347.73 470.611 1362.63 471.24C1368.98 462.475 1235.82 455.213 1175.62 471.24Z" fill="#F2EBDF"/>
</g>
<path d="M1378.07 486.738L1380.66 481.492H1356.52L1378.07 486.738Z" fill="#C4B199"/>
<path d="M1349.59 395.158L1370.13 402.472L1369.85 395.158H1349.59Z" fill="#C4B199"/>
<path d="M1150.75 544.376L1177.31 533.547L1156.83 533.455L1150.75 544.376Z" fill="#F2EBDF"/>
<path d="M1343.02 528.441L1367.94 534.719L1362.6 528.441H1343.02Z" fill="#C4B199"/>
<path d="M1380.57 480.797C1377.51 480.198 1374.49 480.36 1371.39 480.36H1361.98C1355.6 480.36 1349.21 480.36 1342.83 480.36C1330.05 480.36 1317.28 480.281 1304.51 480.386C1301.01 480.412 1297.54 480.417 1294.06 480.517C1292.2 480.57 1290.35 480.615 1288.49 480.653C1286.83 480.688 1285.16 480.6 1283.56 481.09C1283.53 481.103 1283.5 481.127 1283.47 481.159C1283.45 481.19 1283.44 481.228 1283.44 481.267C1283.44 481.306 1283.45 481.344 1283.47 481.375C1283.5 481.407 1283.53 481.431 1283.56 481.444C1286.41 482.318 1289.72 481.881 1292.67 481.973C1295.8 482.06 1298.93 482.096 1302.07 482.122C1308.46 482.174 1314.84 482.157 1321.23 482.161C1334 482.161 1346.77 482.161 1359.55 482.161H1370C1373.53 482.161 1377.08 482.388 1380.56 481.724C1380.68 481.726 1380.8 481.678 1380.89 481.593C1380.97 481.507 1381.02 481.39 1381.03 481.267C1381.03 481.144 1380.98 481.026 1380.89 480.937C1380.81 480.849 1380.69 480.799 1380.57 480.797Z" fill="#C4B199"/>
<path d="M1337.77 495.7C1336.24 495.136 1334.44 495.412 1332.84 495.407H1327.27C1323.67 495.407 1320.06 495.407 1316.46 495.438C1309.18 495.517 1301.77 495.193 1294.51 495.783C1294.48 495.783 1294.45 495.794 1294.43 495.814C1294.41 495.834 1294.4 495.86 1294.4 495.888C1294.4 495.916 1294.41 495.943 1294.43 495.962C1294.45 495.982 1294.48 495.993 1294.51 495.993C1301.77 496.583 1309.18 496.26 1316.46 496.338C1320.06 496.373 1323.67 496.373 1327.27 496.369H1332.84C1334.44 496.369 1336.24 496.64 1337.77 496.076C1337.81 496.067 1337.85 496.043 1337.88 496.009C1337.91 495.975 1337.92 495.932 1337.92 495.888C1337.92 495.844 1337.91 495.802 1337.88 495.767C1337.85 495.733 1337.81 495.709 1337.77 495.7Z" fill="#C4B199"/>
<path d="M1362.31 528.611C1356.72 527.619 1350.85 528.082 1345.19 528.056C1339.28 528.056 1333.38 528.056 1327.46 528.056C1315.64 528.056 1303.83 528.056 1292.01 528.056C1288.77 528.056 1285.52 528.056 1282.28 528.056C1279.03 528.056 1275.63 527.794 1272.52 528.883C1272.5 528.889 1272.48 528.902 1272.47 528.92C1272.45 528.938 1272.45 528.96 1272.45 528.983C1272.45 529.006 1272.45 529.028 1272.47 529.046C1272.48 529.064 1272.5 529.077 1272.52 529.084C1275.23 530.028 1278.07 529.862 1280.89 529.892C1283.78 529.927 1286.68 529.919 1289.57 529.919H1307.3C1319.12 529.919 1330.94 529.919 1342.76 529.919C1346 529.919 1349.25 529.919 1352.49 529.884C1355.73 529.849 1359.05 529.936 1362.31 529.359C1362.4 529.349 1362.49 529.305 1362.55 529.236C1362.61 529.167 1362.65 529.078 1362.65 528.985C1362.65 528.893 1362.61 528.803 1362.55 528.734C1362.49 528.665 1362.4 528.621 1362.31 528.611Z" fill="#C4B199"/>
<path d="M1328.37 446.207C1325.35 445.87 1322.31 445.695 1319.28 445.683H1310.19H1301.1C1298.43 445.683 1295.19 445.206 1292.66 446.255C1292.62 446.271 1292.59 446.299 1292.56 446.336C1292.54 446.372 1292.52 446.415 1292.52 446.459C1292.52 446.502 1292.54 446.545 1292.56 446.582C1292.59 446.618 1292.62 446.646 1292.66 446.662C1295.2 447.716 1298.42 447.239 1301.1 447.239H1310.19H1319.28C1322.31 447.23 1325.35 447.056 1328.37 446.719C1328.43 446.719 1328.5 446.692 1328.55 446.644C1328.59 446.596 1328.62 446.531 1328.62 446.463C1328.62 446.395 1328.59 446.33 1328.55 446.282C1328.5 446.234 1328.43 446.207 1328.37 446.207Z" fill="#C4B199"/>
<path d="M1369.25 395.21C1361.81 394.48 1354.35 394.598 1346.89 394.607H1324.53C1317.1 394.607 1309.62 394.542 1302.17 394.647C1294.72 394.751 1287.23 394.708 1279.82 395.289C1279.78 395.289 1279.75 395.303 1279.72 395.328C1279.7 395.352 1279.69 395.386 1279.69 395.42C1279.69 395.455 1279.7 395.488 1279.72 395.513C1279.75 395.538 1279.78 395.551 1279.82 395.551C1287.25 396.133 1294.74 396.085 1302.17 396.19C1309.61 396.295 1317.08 396.225 1324.53 396.229H1346.89C1354.35 396.229 1361.81 396.356 1369.25 395.626C1369.29 395.608 1369.32 395.579 1369.34 395.542C1369.37 395.505 1369.38 395.462 1369.38 395.418C1369.38 395.374 1369.37 395.331 1369.34 395.294C1369.32 395.257 1369.29 395.228 1369.25 395.21Z" fill="#C4B199"/>
<path d="M1326.92 412.26C1322.39 411.788 1317.74 412.05 1313.2 412.055C1308.66 412.059 1304.06 412.133 1299.48 412.426C1299.45 412.426 1299.43 412.435 1299.42 412.452C1299.4 412.468 1299.39 412.49 1299.39 412.514C1299.39 412.537 1299.4 412.559 1299.42 412.575C1299.43 412.592 1299.45 412.601 1299.48 412.601C1304.06 412.894 1308.61 412.968 1313.2 412.973C1317.79 412.977 1322.38 413.239 1326.92 412.767C1326.99 412.767 1327.05 412.74 1327.1 412.693C1327.15 412.645 1327.18 412.581 1327.18 412.514C1327.18 412.446 1327.15 412.382 1327.1 412.334C1327.05 412.287 1326.99 412.26 1326.92 412.26Z" fill="#C4B199"/>
<path d="M563.065 255.807L612.362 252.414L568.11 236.956L563.065 255.807Z" fill="#FEC53A"/>
<path d="M623.095 193.408L643.139 222.406L635.755 185.985L623.095 193.408Z" fill="#FEC53A"/>
<path d="M561.994 189.675L620.76 239.854L578.467 179.217L561.994 189.675Z" fill="#FEC53A"/>
<path d="M570.152 847.162C555.039 833.644 536.433 841.767 521.87 851.779C489.292 874.171 454.405 909.849 441.967 958.175C428.292 1011.33 427.042 1071.8 425.721 1129.35C425.542 1137.29 423.536 1153.83 425.875 1164.83C431.484 1163.37 437.149 1162.04 442.925 1161.34C445.25 1154.04 447.008 1145.78 448.341 1141.4C463.931 1090.21 486.083 1043.08 515.842 1006.09C542.23 973.301 575.788 954.704 584.606 901.823C587.342 885.424 584.321 865.287 575.058 852.583C573.617 850.609 571.973 848.792 570.152 847.162Z" fill="#498981"/>
<path d="M416.719 1156.91C415.137 1151.55 413.545 1146.28 411.591 1141.04C407.329 1129.61 402.459 1118.55 397.79 1107.38C390.327 1089.51 382.322 1071.85 372.324 1056.09C362.142 1040.04 349.621 1025.98 335.299 1018.68C300.906 1001.16 249.122 1024.71 243.325 1074.53C241.41 1090.96 246.101 1110.47 256.83 1121.09C261.98 1126.18 268.105 1128.95 274.151 1130.23C282.183 1132 290.568 1131.16 298.095 1127.85C316.352 1119.78 336.908 1107.74 357.954 1111.24C360.115 1111.61 362.235 1112.18 364.284 1112.96C375.581 1117.22 385.623 1127.19 394.546 1137.85C401.829 1146.55 409.003 1155.33 413.235 1166.83L419.592 1165.64C419.557 1165.52 419.535 1165.39 419.5 1165.26C418.7 1162.52 417.607 1159.92 416.719 1156.91Z" fill="#4D7772"/>
<path d="M400.82 923.026C387.77 887.96 367.157 855.7 340.852 839.398C314.547 823.095 282.444 825.622 264.406 851.127C260.979 855.971 258.045 861.672 256.856 868.392C253.914 885.004 262.137 903.366 271.633 916.919C279.76 928.53 289.12 938.563 299.267 946.502C309.86 954.809 321.253 960.803 331.618 969.739C343.859 980.296 353.993 994.312 362.711 1009.89C371.428 1025.47 378.733 1042.65 385.278 1059.48C391.866 1076.44 397.488 1093.97 402.831 1111.56C405.484 1120.28 417.485 1150.86 419.937 1166.38L420.611 1166.26L425.896 1164.83C428.891 1149.7 424.55 1133.99 423.824 1117.65C420.969 1054.24 423.387 983.676 400.82 923.026Z" fill="#63A5A2"/>
<path d="M501.514 935.219C483.323 959.242 469.058 990.894 457.901 1031.99C448.047 1068.27 441.726 1107.35 435.605 1145.13C434.807 1150.08 434.007 1155.01 433.205 1159.91L434.993 1160.2C435.798 1155.3 436.599 1150.37 437.398 1145.41C443.518 1107.68 449.809 1068.66 459.637 1032.47C470.733 991.597 484.902 960.147 502.944 936.316C514.84 920.604 528.086 906.723 540.9 893.298L539.588 892.043C526.753 905.508 513.467 919.428 501.514 935.219Z" fill="#1C1C1B"/>
<path d="M343.186 1076.2C321.559 1067.63 300.937 1074.4 284.363 1079.84L284.932 1081.56C301.221 1076.21 321.497 1069.56 342.504 1077.87C374.234 1091.02 393.588 1123.83 415.591 1165.36L417.196 1164.48C394.996 1122.68 375.467 1089.57 343.186 1076.2Z" fill="#1C1C1B"/>
<path d="M389.418 998.636C375.607 957.751 356.721 928.25 331.679 908.472L330.556 909.893C355.313 929.457 374.003 958.674 387.695 999.213C399.836 1035.16 406.708 1075.43 413.353 1114.38C416.208 1131.09 418.901 1146.87 421.992 1162.39L423.771 1162.04C420.685 1146.55 417.992 1130.77 415.141 1114.08C408.487 1075.06 401.602 1034.71 389.418 998.636Z" fill="#1C1C1B"/>
<path d="M1542.07 817.819C1539.74 818.084 1537.45 818.592 1535.23 819.336C1520.92 824.075 1507.33 838.086 1500.31 852.4C1477.68 898.548 1493.48 931.765 1495.75 972.06C1498.31 1017.5 1489.29 1066.61 1472.88 1115.22C1471.48 1119.38 1468.24 1126.8 1465.99 1133.79C1470.09 1137.53 1473.77 1141.73 1477.32 1146C1485.28 1138.73 1492.95 1124.71 1497.24 1118.42C1528.32 1072.82 1561.07 1024.97 1580.07 975.898C1597.34 931.28 1590.04 883.999 1577.14 848.36C1571.37 832.429 1561.4 815.711 1542.07 817.819Z" fill="#4D7772"/>
<path d="M1629.48 1082.59C1614.25 1080.29 1596.64 1084.26 1579.74 1091.1C1563.15 1097.81 1547.06 1107.11 1531.27 1116.89C1521.4 1123.01 1511.43 1128.9 1501.73 1135.43C1497.29 1138.43 1493.1 1141.65 1488.88 1144.95C1486.51 1146.8 1484.21 1148.21 1482.04 1149.92C1481.95 1149.99 1481.86 1150.08 1481.76 1150.16L1486.06 1154.63C1495.76 1148.05 1506.26 1145.19 1516.79 1142.47C1529.7 1139.14 1543.09 1136.96 1554.27 1139.95C1556.31 1140.49 1558.28 1141.22 1560.18 1142.14C1578.54 1151.13 1587.84 1172.01 1597.58 1188.48C1601.6 1195.26 1607.67 1200.59 1614.92 1203.69C1620.74 1206.32 1627.21 1207.2 1633.53 1206.23C1647.82 1203.94 1662.36 1191.36 1670.03 1177.46C1693.31 1135.36 1666.09 1088.14 1629.48 1082.59Z" fill="#498981"/>
<path d="M1725.18 939.7C1695.58 937.741 1661.51 951.386 1631.77 971.448C1580.33 1006.14 1542.85 1062.51 1505.26 1110.37C1495.58 1122.7 1483.42 1132.54 1477.32 1146L1480.65 1150.06L1481.09 1150.53C1491.66 1139.8 1518.08 1122.66 1525.01 1117.33C1539 1106.6 1553.15 1096.07 1567.75 1086.52C1582.24 1077.05 1597.51 1067.72 1613.01 1060.45C1628.51 1053.18 1644.23 1047.9 1659.66 1046.49C1672.71 1045.3 1684.94 1046.97 1697.83 1046.41C1710.16 1045.88 1723.07 1043.29 1735.86 1038.76C1750.85 1033.48 1767.48 1023.77 1774.46 1009.17C1777.29 1003.27 1778.18 997.189 1778.21 991.497C1778.41 961.546 1754.79 941.658 1725.18 939.7Z" fill="#63A5A2"/>
<path d="M1540.85 869.86L1539.13 870.105C1541.63 887.719 1544.21 905.932 1544.72 924.818C1545.49 953.471 1538.99 985.897 1524.84 1023.95C1512.31 1057.66 1495.46 1091.6 1479.16 1124.43C1477.02 1128.73 1474.9 1133.02 1472.78 1137.3L1474.34 1138.07C1476.45 1133.8 1478.58 1129.51 1480.72 1125.2C1497.03 1092.33 1513.9 1058.35 1526.47 1024.56C1540.7 986.29 1547.23 953.65 1546.46 924.775C1545.95 905.788 1543.36 887.522 1540.85 869.86Z" fill="#1C1C1B"/>
<path d="M1591.25 1123.04C1558.61 1115.45 1524.93 1130.34 1484.29 1150.58L1485.06 1152.13C1525.39 1132.02 1558.78 1117.25 1590.86 1124.71C1611.89 1129.95 1623.99 1146.44 1633.7 1159.68L1635.11 1158.65C1625.21 1145.21 1612.9 1128.43 1591.25 1123.04Z" fill="#1C1C1B"/>
<path d="M1598.48 1036.76C1568.84 1058.09 1540.97 1085.72 1514.01 1112.41C1502.47 1123.84 1491.57 1134.64 1480.52 1144.99L1481.71 1146.27C1492.78 1135.89 1503.68 1125.09 1515.23 1113.65C1542.14 1086.98 1569.97 1059.44 1599.49 1038.17C1632.79 1014.2 1663.66 1001.85 1693.88 1000.41L1693.8 998.662C1663.23 1000.13 1632.05 1012.59 1598.48 1036.76Z" fill="#1C1C1B"/>
<path d="M1407.37 328.463C1441.79 294.04 1441.79 238.23 1407.37 203.808C1372.94 169.386 1317.13 169.386 1282.71 203.808C1248.29 238.23 1248.29 294.04 1282.71 328.463C1317.13 362.885 1372.94 362.885 1407.37 328.463Z" fill="#FFA500"/>
<path d="M1353.27 284.656L1355.62 217.798H1334.6L1336.81 284.656H1353.27Z" fill="white"/>
<path d="M1345.04 294.357C1339.16 294.357 1334.02 299.057 1334.02 306.262C1334.02 313.021 1338.87 318.013 1345.18 318.013C1351.8 318.013 1356.06 313.021 1356.06 306.262C1356.06 299.057 1351.36 294.357 1345.04 294.357Z" fill="white"/>
<path d="M809.044 205.134L812.104 229.869L798.311 231.981L795.369 208.203L781.707 211.267L789.69 275.677L803.68 275.314L800.615 250.578L814.504 249.219L817.691 274.955L834.19 274.527L825.145 201.522L809.044 205.134Z" fill="#992E2E"/>
<path d="M858.821 253.931L857.549 243.649L883.775 240.995L881.266 220.754L855.193 224.649L854.06 215.486L883.928 210.318L881.279 188.932L833.456 199.66L842.702 274.308L892.965 273.006L890.307 251.558L858.821 253.931Z" fill="#992E2E"/>
<path d="M924.433 248.327L916.11 181.119L891.356 186.671L902.024 272.769L966.223 271.113L963.032 245.363L924.433 248.327Z" fill="#992E2E"/>
<path d="M1012.33 159.54L962.6 170.692L975.011 270.885L1009.67 269.985L1006.42 243.723L1022.59 242.53C1056.69 240.016 1078.45 220.575 1074.97 192.503C1071.5 164.432 1045.83 152.025 1012.33 159.54ZM1016.62 214.218L1002.97 215.923L999.874 190.881L1013.43 188.551C1024.14 186.711 1030.01 190.798 1031.03 199.008C1032.05 207.219 1027.37 212.906 1016.62 214.218Z" fill="#992E2E"/>
<path d="M644.984 598.014H636.009V1135.96H644.984V598.014Z" fill="#663D40"/>
<path d="M1161.54 1117.95L1161.58 1117.9L1161.54 1117.6V1117.95Z" fill="#E3C2AC"/>
<path d="M986.657 1020.7L931.88 1040.92L957.749 1111L1012.53 1090.78L986.657 1020.7Z" fill="#F19A6D"/>
<path d="M1063.12 1100.74C1063.12 1100.74 1023.45 1094.92 1012.4 1084.86C1012.4 1084.86 1009.27 1074.81 995.956 1090.46C988.231 1099.52 977.734 1099.64 970.962 1099.17C948.832 1097.2 945.015 1074.41 944.377 1074.19C939.582 1082.55 935.83 1091.47 933.203 1100.74C930.973 1108.57 929.609 1117.41 928.792 1124.28C927.974 1131.15 927.703 1135.96 927.703 1135.96H1091.21V1131.67C1091.22 1129.18 1090.9 1126.69 1090.26 1124.28C1087.15 1112.03 1076.57 1102.49 1063.12 1100.74Z" fill="#F48400"/>
<path d="M928.792 1124.28C927.974 1131.11 927.703 1135.96 927.703 1135.96H1091.21V1131.67C1091.22 1129.18 1090.9 1126.69 1090.26 1124.28H928.792Z" fill="#381B18"/>
<path d="M855.928 697.03C855.928 697.03 742.729 646.317 713.945 635.825C626.509 603.942 631.318 580.618 631.318 580.618L521.957 575.079L515.085 592.378L539.48 660.237C524.821 704.685 553.78 751.608 600.081 758.437L869.183 797.73L907.261 749.719C900.529 721.91 884.126 708.231 855.928 697.03Z" fill="#381B18"/>
<path d="M1012.4 1031.62L905.447 744.91C905.447 744.91 791.531 750.314 794.329 785.131C800.633 863.687 862.529 927.481 887.278 1002.7C899.724 1040.52 912.276 1074.72 912.276 1074.72L912.411 1074.67C912.411 1074.67 912.411 1074.7 912.411 1074.71C915.109 1080.89 939.652 1076.23 967.225 1064.3C994.632 1052.44 1014.69 1037.89 1012.29 1031.64L1012.4 1031.62Z" fill="#381B18"/>
<path d="M792.375 697.03C792.375 697.03 679.429 647.629 650.392 635.825C648.643 635.113 642.549 633.604 640.966 632.826C634.719 629.766 635.003 624.38 634.409 617.442L631.305 580.618L497.672 575.079C497.672 575.079 477.085 627.68 471.096 660.5C462.698 706.543 490.196 751.612 536.498 758.428L805.599 797.721L822.881 756.557C832.42 730.527 820.586 708.231 792.375 697.03Z" fill="#48231F"/>
<path d="M607.64 396.924C606.784 397.988 605.965 399.066 605.184 400.159C585.681 427.566 594.967 470.388 609.953 467.546C664.998 457.106 711.112 541.897 711.112 541.897C724.433 558.947 744.416 563.625 766.791 563.839L822.173 563.183L712.376 402.642C687.911 366.645 634.955 363.029 607.64 396.924Z" fill="#B91F1F"/>
<path d="M774.336 493.248C774.336 493.248 763.254 506.586 761.96 512.921C753.653 553.578 798.941 563.406 798.941 563.406H830.059C838.392 544.725 789.485 514.739 774.336 493.248Z" fill="#3F1F1E"/>
<path d="M633.036 582.874C633.037 582.731 633.01 582.588 632.956 582.455C632.902 582.322 632.823 582.201 632.722 582.099C632.622 581.996 632.502 581.915 632.37 581.859C632.237 581.803 632.095 581.774 631.952 581.772C631.664 581.772 631.387 581.886 631.182 582.089C630.977 582.293 630.861 582.568 630.859 582.857C630.859 584.024 630.684 611.627 636.363 628.441C636.436 628.658 636.575 628.847 636.761 628.981C636.947 629.114 637.17 629.185 637.399 629.185C637.573 629.185 637.745 629.144 637.9 629.065C638.055 628.985 638.188 628.87 638.289 628.728C638.391 628.586 638.456 628.422 638.481 628.25C638.505 628.078 638.488 627.902 638.431 627.738C632.857 611.278 633.036 583.158 633.036 582.874Z" fill="#964141"/>
<path d="M787.439 384.342L757.663 385.881L770.254 498.804C778.394 546.745 803.794 565.172 815.358 561.802C828.075 559.987 839.28 535.077 822.615 492.784C822.615 492.784 793.044 427.854 787.439 384.342Z" fill="#EF7C59"/>
<path d="M643.319 481.571C643.035 476.605 642.742 472.937 642.554 471.673C641.815 466.772 576.505 378.117 576.505 378.117C503.229 402.223 466.598 575.022 466.598 575.022C466.598 575.022 469.824 590.363 507.902 598.7C517.385 600.777 529.036 602.425 543.314 603.286C615.011 607.618 630.024 585.742 630.024 585.742C637.246 580.273 638.864 572.88 639.476 563.446C639.952 555.97 639.856 547.178 641.452 537.027C645.246 538.12 649.168 538.708 653.116 538.776C661.89 538.919 670.51 536.459 677.886 531.707L738.523 492.798L705.691 441.551L643.319 481.571Z" fill="#E84B4B"/>
<path d="M603.365 485.89C603.365 485.89 613.905 554.619 594.123 570.585C581.007 581.178 536.389 592.361 507.902 598.682C517.385 600.759 529.036 602.407 543.314 603.268C615.011 607.601 630.024 585.724 630.024 585.724C637.246 580.255 638.864 572.863 639.476 563.428C639.952 555.953 639.856 547.161 641.452 537.01C645.246 538.103 649.168 538.691 653.116 538.758C647.962 528.327 632.254 501.1 603.365 485.89Z" fill="#B91F1F"/>
<path d="M690.551 347.217L660.18 321.681L620.742 368.591C619.68 369.286 614.762 375.708 614.762 375.708C614.762 375.708 631.877 386.926 644.8 400.815C657.103 414.044 668.434 425.087 674.258 423.592C683.569 421.196 680.378 405.641 672.045 385.995C670.622 382.664 670.149 379.004 670.677 375.421C671.206 371.837 672.716 368.47 675.04 365.692L690.551 347.217Z" fill="#F19A6D"/>
<path d="M551.2 396.924C550.343 397.988 549.524 399.066 548.743 400.159C529.24 427.566 538.526 470.388 553.513 467.546C608.558 457.106 654.667 541.897 654.667 541.897C665.042 562.007 687.972 564.998 709.568 563.839H774.336L655.931 402.642C631.466 366.645 578.515 363.029 551.2 396.924Z" fill="#E84B4B"/>
<path d="M691.045 450.295C690.416 449.98 688.859 448.494 687.054 446.798C677.349 437.551 654.655 415.911 622.198 419.229C621.91 419.26 621.645 419.404 621.463 419.629C621.28 419.854 621.194 420.143 621.223 420.431C621.236 420.575 621.278 420.715 621.346 420.842C621.414 420.969 621.507 421.082 621.619 421.172C621.731 421.263 621.86 421.331 621.999 421.371C622.137 421.411 622.282 421.423 622.426 421.406C653.793 418.193 676.054 439.33 685.546 448.38C687.793 450.514 689.144 451.803 690.057 452.267C690.211 452.344 690.38 452.384 690.551 452.385C690.797 452.383 691.034 452.298 691.226 452.146C691.417 451.993 691.552 451.78 691.609 451.542C691.666 451.303 691.641 451.053 691.539 450.83C691.437 450.607 691.263 450.425 691.045 450.312V450.295Z" fill="#48231F"/>
<path d="M752.334 528.34L699.925 519.929C719.244 556.652 743.206 563.839 743.206 563.839H774.324C782.67 545.136 749.824 538.605 752.334 528.34Z" fill="#3F1F1E"/>
<path d="M599.668 1020.43L572.592 1090.06L627.011 1111.22L654.087 1041.6L599.668 1020.43Z" fill="#F19A6D"/>
<path d="M678.939 752.106C639.069 829.784 585.597 1031.61 585.597 1031.61L585.737 1031.66C585.737 1031.66 585.737 1031.69 585.711 1031.7C583.389 1038.1 604.737 1051.72 633.39 1062.12C661.868 1072.46 686.826 1075.72 689.414 1069.48L689.519 1069.52C689.519 1069.52 698.21 1019.86 727.305 957.965C747.542 914.92 810.88 785.148 810.88 785.148C810.88 785.148 695.084 720.681 678.939 752.106Z" fill="#48231F"/>
<path d="M693.131 1100.74C693.131 1100.74 654.939 1094.92 644.306 1084.86C644.306 1084.86 641.286 1074.81 628.467 1090.46C621.035 1099.52 610.923 1099.64 604.423 1099.17C583.119 1097.2 579.442 1074.41 578.83 1074.19C574.198 1082.58 570.585 1091.5 568.067 1100.74C565.925 1108.57 564.613 1117.41 563.826 1124.28C563.039 1131.15 562.772 1135.96 562.772 1135.96H720.166V1131.67C720.173 1129.18 719.865 1126.7 719.248 1124.28C717.768 1118.19 714.484 1112.68 709.824 1108.48C705.165 1104.28 699.347 1101.58 693.131 1100.74Z" fill="#F48400"/>
<path d="M563.809 1124.28C563.017 1131.11 562.755 1135.96 562.755 1135.96H720.166V1131.67C720.173 1129.18 719.865 1126.7 719.248 1124.28H563.809Z" fill="#381B18"/>
<path d="M621.074 495.438C603.347 481.077 584.277 475.459 576.74 473.684C576.618 473.607 576.481 473.558 576.338 473.54C575.42 473.413 574.895 473.714 574.773 474.392C574.589 475.428 575.573 475.655 576.084 475.782C583.367 477.483 602.197 482.969 619.688 497.138C642.675 515.762 653.544 542.046 653.648 542.308C653.73 542.51 653.871 542.682 654.051 542.804C654.232 542.925 654.445 542.99 654.663 542.99C654.804 542.99 654.944 542.961 655.074 542.907C655.342 542.798 655.556 542.587 655.669 542.321C655.782 542.055 655.785 541.754 655.677 541.486C655.576 541.228 644.49 514.411 621.074 495.438Z" fill="#48231F"/>
<path d="M603.487 483.7C597.113 483.328 575.7 482.983 568.027 493.847C567.943 493.964 567.883 494.096 567.85 494.237C567.817 494.377 567.812 494.523 567.836 494.665C567.86 494.807 567.912 494.944 567.988 495.066C568.065 495.188 568.165 495.294 568.282 495.377C568.4 495.461 568.533 495.52 568.674 495.552C568.815 495.583 568.96 495.587 569.102 495.562C569.244 495.537 569.38 495.484 569.502 495.407C569.623 495.329 569.729 495.229 569.811 495.11C577.016 484.902 599.023 485.632 603.364 485.89C603.652 485.898 603.932 485.795 604.147 485.603C604.361 485.412 604.494 485.145 604.519 484.858C604.534 484.568 604.434 484.284 604.241 484.067C604.048 483.85 603.777 483.718 603.487 483.7Z" fill="#48231F"/>
<path d="M701.363 734.024C700.235 734.361 673.436 743.424 643.043 838.073C642.955 838.349 642.98 838.65 643.113 838.908C643.245 839.166 643.475 839.361 643.751 839.45C643.86 839.484 643.974 839.502 644.088 839.502C644.319 839.502 644.545 839.428 644.732 839.291C644.918 839.154 645.057 838.962 645.128 838.742C675.027 745.623 701.734 736.223 702.001 736.136C702.276 736.049 702.506 735.857 702.641 735.602C702.775 735.346 702.803 735.048 702.718 734.772C702.68 734.633 702.614 734.503 702.525 734.389C702.436 734.276 702.324 734.182 702.198 734.112C702.072 734.042 701.933 733.998 701.789 733.983C701.646 733.968 701.501 733.982 701.363 734.024Z" fill="#964141"/>
<path d="M665.422 640.905C665.038 640.783 626.693 628.695 614.084 615.112C613.886 614.899 613.612 614.775 613.322 614.765C613.031 614.755 612.749 614.861 612.537 615.059C612.325 615.257 612.2 615.532 612.19 615.822C612.18 616.112 612.286 616.395 612.484 616.607C625.482 630.596 663.197 642.483 664.771 642.982C664.877 643.015 664.988 643.031 665.099 643.03C665.358 643.027 665.609 642.932 665.805 642.762C666.001 642.592 666.13 642.358 666.169 642.101C666.208 641.844 666.154 641.582 666.017 641.361C665.88 641.141 665.67 640.976 665.422 640.896V640.905Z" fill="#964141"/>
<path d="M784.663 347.462C784.572 347.454 784.484 347.425 784.405 347.379L782.98 346.989C780.176 346.299 777.336 345.765 774.472 345.389C773.738 345.306 773.047 345.219 772.313 345.131C768.168 344.655 764.369 344.484 762.078 344.441C760.653 344.353 761.431 341.21 761.431 341.21L754.437 365.902V365.989C754.433 366.023 754.418 366.054 754.393 366.077L752.579 373.417C752.579 373.504 752.535 373.548 752.535 373.592L751.844 376.442C751.455 378.026 751.412 379.675 751.717 381.277C751.969 382.793 752.538 384.238 753.386 385.518C754.235 386.799 755.343 387.886 756.64 388.71C757.636 389.401 758.746 389.913 759.919 390.222L789.892 397.689C789.892 397.689 786.954 392.006 791.273 367.633V367.55C791.877 364.136 792.655 360.337 793.56 356.148C794.465 351.96 790.364 349.193 784.663 347.462Z" fill="#EF7C59"/>
<path d="M769.606 336.335L765.72 329.83C763.437 325.629 761.572 321.214 760.15 316.649L760.045 316.308C759.801 315.51 759.274 314.827 758.564 314.389C757.853 313.95 757.007 313.786 756.184 313.925C755.361 314.065 754.617 314.5 754.091 315.148C753.565 315.797 753.293 316.615 753.326 317.449C753.599 323.095 754.841 328.653 756.998 333.878L760.426 341.109L763.888 348.043C764.585 349.475 764.878 351.069 764.736 352.655C764.685 353.45 764.523 354.235 764.255 354.985L762.913 358.483C761.048 363.321 759.376 368.242 757.899 373.246C757.593 374.277 757.68 375.384 758.144 376.354C758.607 377.324 759.414 378.087 760.408 378.496C761.402 378.905 762.513 378.931 763.525 378.569C764.537 378.206 765.378 377.481 765.886 376.534C768.352 371.941 770.629 367.277 772.719 362.544C773.283 361.302 773.725 360.31 774.324 358.841C775.325 356.32 775.766 353.611 775.615 350.902C775.464 348.193 774.725 345.549 773.449 343.155L769.606 336.335Z" fill="#EF7C59"/>
<path d="M783.662 343.68C783.328 342.794 782.918 341.938 782.438 341.122C782.206 340.707 781.939 340.322 781.677 339.929L781.074 339.055C777.943 334.683 774.993 330.289 772.234 325.878L764.063 312.006L764.032 311.958C763.6 311.221 762.911 310.671 762.096 310.414C761.282 310.156 760.401 310.21 759.624 310.565C758.847 310.92 758.23 311.55 757.891 312.334C757.552 313.118 757.516 314 757.789 314.809C759.554 320.081 761.631 325.243 764.011 330.267C766.323 335.513 769.34 340.261 772.212 344.956L772.732 345.8C772.833 345.984 772.946 346.159 773.03 346.351C773.218 346.727 773.379 347.107 773.537 347.492C773.819 348.275 773.989 349.093 774.044 349.923C774.166 351.702 773.834 352.795 772.868 355.829C771.338 361.075 769.808 366.291 768.662 371.651C768.434 372.698 768.6 373.793 769.131 374.724C769.661 375.655 770.517 376.358 771.534 376.696C772.551 377.034 773.657 376.984 774.64 376.555C775.622 376.127 776.411 375.35 776.855 374.374C779.15 369.399 781.056 364.293 782.975 359.191C783.793 357.11 785.31 352.918 784.89 349.188C784.748 347.303 784.335 345.447 783.662 343.68Z" fill="#EF7C59"/>
<path d="M773.655 345.573C771.39 341.826 764.474 330.42 761.978 318.774C761.907 318.507 761.737 318.278 761.502 318.132C761.267 317.987 760.986 317.938 760.715 317.994C760.445 318.05 760.206 318.207 760.049 318.433C759.891 318.66 759.826 318.938 759.866 319.211C762.459 331.212 769.484 342.849 771.81 346.67C772.204 347.326 772.47 347.755 772.553 347.929C772.64 348.118 772.78 348.278 772.955 348.389C773.13 348.501 773.334 348.56 773.541 348.559C773.692 348.559 773.841 348.526 773.979 348.463C774.108 348.406 774.224 348.325 774.321 348.223C774.419 348.122 774.495 348.002 774.546 347.871C774.597 347.739 774.621 347.599 774.617 347.459C774.614 347.318 774.582 347.179 774.525 347.051C774.438 346.876 774.132 346.36 773.655 345.573Z" fill="#964141"/>
<path d="M784.811 346.78C784.666 346.512 784.595 346.21 784.606 345.905C784.606 345.905 784.606 345.857 784.606 345.822L784.531 346.259V346.356C784.815 346.802 785.1 347.212 784.811 346.78Z" fill="#EF7C59"/>
<path d="M792.882 339.571L791.714 338.054L781.926 326.202C779.021 322.412 776.64 318.247 774.848 313.821L774.747 313.554C774.061 311.805 771.11 308.273 769.344 308.959C767.691 309.602 767.787 314.035 768.242 315.705C769.761 321.071 772.018 326.2 774.948 330.945L783.137 344.292L784.217 345.927C784.295 346.045 784.409 346.22 784.527 346.391V346.294L784.601 345.857C784.601 345.809 784.601 345.77 784.601 345.831V345.809C784.601 345.844 784.601 345.879 784.601 345.892C784.591 346.197 784.662 346.499 784.807 346.767C785.095 347.204 784.807 346.767 784.523 346.36L784.383 347.234C783.946 349.779 783.587 352.332 783.233 354.885C782.586 360.009 781.956 365.133 781.668 370.313C781.611 371.381 781.949 372.432 782.618 373.266C783.287 374.1 784.24 374.658 785.295 374.833C786.349 375.008 787.431 374.789 788.334 374.216C789.237 373.644 789.897 372.758 790.188 371.73C791.587 366.733 792.645 361.674 793.686 356.621C794.176 354.089 794.648 351.554 795.067 349.009L795.234 348.056L795.317 347.575C795.376 347.221 795.417 346.863 795.439 346.504C795.524 344.907 795.183 343.315 794.451 341.892C794 341.072 793.474 340.295 792.882 339.571Z" fill="#EF7C59"/>
<path d="M768.509 313.751C768.488 313.614 768.415 313.49 768.307 313.404C768.198 313.319 768.061 313.277 767.923 313.287C767.854 313.295 767.787 313.317 767.726 313.351C767.666 313.385 767.612 313.431 767.569 313.486C767.526 313.541 767.494 313.604 767.475 313.671C767.457 313.738 767.451 313.808 767.46 313.877C767.46 314.035 769.484 329.848 781.397 343.833C784.366 347.33 780.619 356.481 777.603 363.843C775.478 369.036 773.799 373.141 774.389 375.056C774.422 375.164 774.488 375.259 774.579 375.326C774.669 375.393 774.779 375.429 774.892 375.428C774.943 375.434 774.994 375.434 775.045 375.428C775.112 375.408 775.174 375.375 775.228 375.331C775.282 375.287 775.326 375.233 775.359 375.171C775.392 375.11 775.413 375.043 775.419 374.974C775.426 374.904 775.419 374.834 775.399 374.768C774.927 373.216 776.711 368.866 778.586 364.275C781.87 356.249 785.581 347.151 782.197 343.177C770.494 329.406 768.531 313.895 768.509 313.751Z" fill="#964141"/>
<path d="M762.004 321.694C770.546 307.079 767.044 288.372 753.444 278.287C732.341 262.64 704.917 252.978 695.766 261.901C682.398 274.951 662.952 319.491 662.952 319.491L639.882 337.94L661.304 381.033L664.189 379.127L675.005 372L687.893 363.489C687.893 363.489 705.73 387.503 715.527 383.992C725.324 380.482 750.291 350.404 750.291 350.404C750.291 350.404 761.846 349.092 762.471 345.787C763.096 342.482 755.476 338.792 758.646 328.763C759.509 326.294 760.634 323.924 762.004 321.694Z" fill="#F19A6D"/>
<path d="M668.447 333.664C668.447 333.664 662.082 345.966 675.005 372L687.893 363.488C687.893 363.488 674 350.836 668.447 333.664Z" fill="#EF7C59"/>
<path d="M776.566 279.843C776.566 279.843 783.736 274.802 762.93 260.638C742.125 246.473 730.916 236.755 706.595 240.965C683.814 244.899 671.879 266.867 665.911 276.311C651.235 299.525 662.93 319.491 662.93 319.491C672.111 335.741 690.638 333.961 690.638 333.961C690.638 333.961 682.052 327.181 686.227 314.022C690.402 300.863 700.392 294.969 705.607 300.6C710.823 306.231 708.523 318.236 708.523 318.236C713.231 316.73 717.557 314.221 721.202 310.883C727.261 305.326 726.522 289.102 726.522 289.102C726.522 289.102 728.957 291.725 741.102 295.052C753.247 298.379 762.397 295.398 762.397 295.398C767.954 303.21 764.662 315.945 764.662 315.945C766.699 315.583 768.64 314.808 770.367 313.668C773.37 311.731 774.105 307.403 774.105 307.403C774.105 307.403 782.818 307.774 785.611 298.156C788.405 288.538 776.566 279.843 776.566 279.843Z" fill="#523300"/>
<path d="M701.052 303.005C701.017 302.845 700.948 302.695 700.85 302.564C700.752 302.433 700.628 302.324 700.485 302.244C700.342 302.165 700.184 302.116 700.021 302.101C699.858 302.087 699.694 302.107 699.54 302.16C699.385 302.213 699.243 302.298 699.124 302.41C699.004 302.522 698.91 302.657 698.846 302.808C698.783 302.959 698.752 303.121 698.755 303.285C698.759 303.448 698.797 303.609 698.867 303.757C698.915 303.892 703.387 317.379 695.452 326.018C695.349 326.131 695.269 326.263 695.217 326.406C695.165 326.55 695.142 326.703 695.149 326.855C695.156 327.008 695.192 327.158 695.257 327.296C695.322 327.435 695.414 327.559 695.526 327.662C695.639 327.765 695.771 327.845 695.914 327.898C696.058 327.95 696.21 327.974 696.363 327.967C696.516 327.961 696.665 327.924 696.804 327.86C696.943 327.796 697.067 327.704 697.17 327.592C700.86 323.574 702.701 318.035 702.495 311.578C702.407 308.668 701.921 305.784 701.052 303.005Z" fill="#523300"/>
<path d="M701.428 314.739C696.462 313.427 691.889 318.551 691.696 318.774C691.549 318.942 691.454 319.149 691.422 319.37C691.389 319.591 691.421 319.816 691.513 320.019C691.605 320.223 691.754 320.395 691.941 320.516C692.129 320.637 692.347 320.702 692.571 320.702C692.736 320.701 692.899 320.666 693.05 320.598C693.2 320.53 693.335 320.432 693.445 320.309C693.48 320.265 697.257 316.033 700.82 316.986C701.118 317.066 701.436 317.024 701.703 316.87C701.97 316.716 702.165 316.462 702.245 316.164C702.325 315.866 702.284 315.549 702.13 315.281C701.976 315.014 701.722 314.819 701.424 314.739H701.428Z" fill="#523300"/>
<path d="M767.687 291.092C767.547 291.214 753.339 302.961 727.773 288.031C726.898 285.736 723.624 277.653 721.044 274.999C720.901 274.853 720.73 274.736 720.541 274.656C720.353 274.576 720.15 274.534 719.946 274.532C719.741 274.53 719.538 274.569 719.348 274.646C719.158 274.722 718.985 274.836 718.839 274.979C718.693 275.123 718.576 275.294 718.496 275.482C718.416 275.671 718.374 275.873 718.372 276.078C718.37 276.283 718.409 276.486 718.486 276.676C718.562 276.866 718.676 277.039 718.819 277.185C720.852 279.275 724.022 286.903 725.071 289.666C725.194 289.994 725.425 290.27 725.727 290.449C736.63 296.915 745.644 298.729 752.325 298.729C754.239 298.734 756.151 298.576 758.038 298.257C765.527 296.985 769.541 293.605 769.707 293.448C769.865 293.316 769.996 293.155 770.092 292.972C770.187 292.79 770.245 292.59 770.263 292.385C770.28 292.18 770.257 291.973 770.193 291.777C770.13 291.581 770.029 291.4 769.895 291.243C769.76 291.087 769.597 290.959 769.413 290.866C769.229 290.774 769.028 290.719 768.823 290.705C768.617 290.691 768.411 290.718 768.216 290.784C768.021 290.85 767.841 290.955 767.687 291.092Z" fill="#704500"/>
<path d="M726.364 287.559C725.955 287.601 725.579 287.804 725.32 288.123C725.06 288.441 724.937 288.851 724.979 289.26C727.392 312.745 709.035 316.557 708.235 316.71C707.871 316.797 707.55 317.011 707.332 317.315C707.114 317.619 707.013 317.991 707.048 318.364C707.082 318.736 707.25 319.084 707.52 319.342C707.791 319.6 708.145 319.753 708.519 319.771C708.616 319.77 708.712 319.762 708.807 319.744C712.755 318.823 716.424 316.967 719.505 314.332C727.991 307.075 728.843 296.521 728.065 288.945C728.045 288.742 727.985 288.545 727.888 288.366C727.792 288.186 727.661 288.027 727.503 287.899C727.345 287.77 727.163 287.674 726.968 287.615C726.772 287.557 726.567 287.538 726.364 287.559Z" fill="#704500"/>
<path d="M716.397 321.978C712.699 324.938 713.167 331.658 717.438 336.991C721.709 342.325 728.162 344.24 731.865 341.28C735.568 338.32 735.091 331.601 730.82 326.272C726.549 320.942 720.092 319.019 716.397 321.978Z" fill="#EF7C59"/>
<path d="M706.757 216.155C689.143 206.76 665.173 216.19 661.601 233.55C658.029 250.91 652.525 265.215 622.307 265.197C592.09 265.18 573.133 293.391 582.699 306.729C592.264 320.068 599.723 339.549 578.874 342.198C565.854 343.855 561.247 335.946 561.247 335.946C561.247 335.946 547.2 336.265 563.87 357.67C580.539 379.074 632.07 389.182 657.75 359.672C666.93 349.105 676.872 284.333 676.872 284.333L718.885 242.993C718.885 242.993 724.376 225.554 706.757 216.155Z" fill="#523300"/>
<path d="M718.041 237.389C716.14 239.391 699.4 259.733 706.675 257.328C706.675 257.328 724.949 244.213 723.996 240.099C723.043 235.985 719.943 235.365 718.041 237.389Z" fill="#E5166B"/>
<path d="M669.02 283.599C672.176 291.765 660.565 291.905 653.325 308.142C646.085 324.379 669.295 327.378 669.295 327.378C653.224 305.877 674.839 302.393 677.046 289.006C679.254 275.62 676.085 271.13 683.407 262.675C690.73 254.22 704.392 256.598 704.392 256.598C672.299 242.705 665.863 275.423 669.02 283.599Z" fill="#3E2800"/>
<path d="M754.064 322.765C753.767 322.656 753.164 322.367 752.622 322.105C751.909 321.768 751.026 321.34 749.946 320.876C747.357 319.754 744.689 318.822 741.963 318.087L741.447 317.952C739.463 317.453 737.583 316.977 735.493 314.017C735.278 313.713 734.952 313.506 734.585 313.442C734.218 313.379 733.841 313.464 733.537 313.678C733.232 313.893 733.026 314.219 732.962 314.586C732.898 314.953 732.983 315.33 733.198 315.635C733.627 316.251 734.101 316.835 734.614 317.383C736.826 319.709 738.986 320.251 740.761 320.702L741.246 320.824C743.839 321.521 746.377 322.408 748.84 323.478C749.876 323.915 750.72 324.33 751.402 324.658C753.151 325.493 754.091 325.97 755.035 325.366C755.349 325.168 755.571 324.853 755.653 324.49C755.735 324.128 755.67 323.748 755.472 323.434C755.332 323.194 755.123 323.001 754.872 322.882C754.62 322.763 754.339 322.722 754.064 322.765Z" fill="#412C25"/>
<path d="M745.199 321.475C742.352 323.823 741.238 327.216 742.702 328.942C744.167 330.669 747.677 330.145 750.475 327.775C751.735 326.779 752.708 325.467 753.295 323.972C750.767 322.873 748.162 321.963 745.5 321.248L745.199 321.475Z" fill="#412C25"/>
<path d="M729.443 354.478C723.965 350.417 718.037 352.729 715.68 354.57C715.422 354.793 715.258 355.107 715.224 355.448C715.189 355.788 715.286 356.128 715.495 356.399C715.704 356.67 716.008 356.85 716.346 356.904C716.684 356.957 717.029 356.879 717.311 356.686C717.521 356.524 722.645 352.751 727.851 356.625C731.567 359.388 728.997 366.278 728.971 366.343C728.841 366.672 728.847 367.04 728.988 367.364C729.129 367.689 729.393 367.944 729.723 368.074C730.052 368.204 730.419 368.198 730.744 368.057C731.069 367.916 731.324 367.652 731.454 367.322C731.598 366.964 734.846 358.487 729.443 354.478Z" fill="#DE4949"/>
<path d="M759.328 314C757.684 313.099 754.467 312.964 752.416 311.985C749.491 310.594 747.782 308.168 746.51 309.222C745.636 309.93 745.373 311.547 745.902 312.719C746.777 314.686 749.448 314.14 755.227 316.321C757.933 317.344 758.816 317.738 759.293 317.716C760.325 317.664 762.441 315.701 759.328 314Z" fill="#412C25"/>
<path d="M655.114 307.774C651.677 311.211 653.216 318.324 658.559 323.666C663.901 329.008 671.01 330.547 674.446 327.111C677.882 323.675 676.339 316.562 671.001 311.219C665.663 305.877 658.55 304.356 655.114 307.774Z" fill="#F19A6D"/>
<path d="M678.35 358.819L647.074 368.608L694.04 506.026C706.719 547.121 735.026 569.649 746.38 564.958C759.058 561.719 767.696 535.23 746.148 494.183C746.148 494.183 688.816 402.327 678.35 358.819Z" fill="#F19A6D"/>
<path d="M671.888 316.4C671.888 316.4 642.907 313.453 639.895 322.494C634.649 338.193 648.276 372.617 648.276 372.617L674.507 363.724C677.428 362.738 679.847 360.649 681.248 357.902C682.648 355.155 682.918 351.97 682 349.026L671.888 316.4Z" fill="#F19A6D"/>
<path d="M685.279 291.721C684.909 291.472 684.478 291.331 684.033 291.315C683.588 291.299 683.147 291.408 682.76 291.629C679.652 293.413 677.182 295.616 674.769 298.082C672.415 300.617 670.388 303.437 668.736 306.476C666.992 309.579 665.728 312.928 664.985 316.409C664.177 319.943 663.985 323.59 664.416 327.189C664.53 328.298 665.054 329.324 665.886 330.064C666.718 330.805 667.798 331.207 668.912 331.191C670.026 331.175 671.093 330.743 671.904 329.978C672.715 329.214 673.21 328.174 673.291 327.063L673.322 326.595C673.519 323.854 673.632 321.152 674.301 318.472C674.937 315.749 675.815 313.087 676.924 310.52C678.103 307.863 679.444 305.28 680.937 302.786C682.38 300.22 684.155 297.662 685.79 295.232L685.926 295.031C686.101 294.771 686.223 294.479 686.285 294.172C686.347 293.865 686.348 293.549 686.288 293.242C686.228 292.934 686.108 292.642 685.935 292.381C685.762 292.12 685.539 291.896 685.279 291.721Z" fill="#F19A6D"/>
<path d="M678.109 285.041C674.389 286.978 671.351 289.452 668.391 292.246C665.488 295.115 662.967 298.348 660.893 301.864C658.728 305.457 657.147 309.37 656.207 313.458C655.101 317.558 655.048 321.908 655.429 326.105C655.531 327.223 656.053 328.261 656.889 329.011C657.724 329.76 658.812 330.166 659.935 330.148C661.057 330.129 662.131 329.687 662.941 328.909C663.752 328.132 664.238 327.077 664.303 325.957L664.33 325.48C664.517 322.153 664.618 318.87 665.492 315.657C666.295 312.393 667.447 309.226 668.929 306.209C670.488 303.105 672.277 300.121 674.28 297.282C676.321 294.35 678.52 291.532 680.868 288.84L681.012 288.67C681.367 288.25 681.565 287.721 681.573 287.171C681.581 286.622 681.399 286.087 681.056 285.657C680.714 285.227 680.233 284.93 679.695 284.815C679.158 284.7 678.597 284.776 678.109 285.028V285.041Z" fill="#F19A6D"/>
<path d="M670.664 281.299C670.253 281.042 669.774 280.917 669.29 280.94C668.806 280.964 668.341 281.135 667.958 281.43C664.395 284.171 661.588 287.345 658.917 290.812C656.316 294.346 654.144 298.176 652.446 302.222C650.662 306.343 649.484 310.7 648.949 315.158C648.276 319.644 648.639 324.273 649.456 328.711C649.653 329.829 650.269 330.83 651.179 331.508C652.089 332.187 653.224 332.492 654.352 332.362C655.48 332.231 656.515 331.674 657.246 330.805C657.976 329.936 658.347 328.821 658.283 327.688V327.251C658.099 323.583 657.889 319.954 658.44 316.321C658.93 312.63 659.781 308.996 660.98 305.47C662.243 301.851 663.753 298.324 665.501 294.912C667.258 291.418 669.198 288.018 671.311 284.726L671.42 284.556C671.75 284.023 671.856 283.381 671.714 282.771C671.573 282.161 671.195 281.631 670.664 281.299Z" fill="#F19A6D"/>
<path d="M647.025 329.052C647.344 329.367 647.637 329.707 647.9 330.07C647.662 329.688 647.368 329.344 647.025 329.052Z" fill="#F19A6D"/>
<path d="M648.381 331.168L648.447 331.426V331.465C648.396 331.222 648.324 330.983 648.232 330.752C648.261 330.897 648.311 331.037 648.381 331.168Z" fill="#F19A6D"/>
<path d="M654.75 286.234C654.326 286.009 653.844 285.915 653.366 285.967C652.888 286.018 652.437 286.212 652.071 286.523C648.809 289.303 646.413 292.928 644.525 296.674C642.744 300.437 641.423 304.4 640.59 308.478C639.723 312.467 639.216 316.526 639.073 320.605C639.003 322.63 638.938 324.658 639.029 326.691L639.231 329.751L639.384 331.312L639.497 332.129L639.572 332.593L639.624 332.93L639.677 333.187L639.703 333.314L639.773 333.59C639.983 333.913 639.672 334.241 641.185 335.797C643.808 338.517 648.783 335.01 648.009 334.525C648.208 334.164 648.356 333.777 648.446 333.375C648.58 332.753 648.58 332.109 648.446 331.487V331.447L648.381 331.19C648.318 331.062 648.274 330.927 648.25 330.787C648.153 330.539 648.036 330.299 647.9 330.07C647.646 329.716 647.364 329.383 647.056 329.074C646.491 328.577 645.81 328.231 645.076 328.068C644.91 328.033 644.742 328.007 644.573 327.989C643.43 328.004 642.313 328.331 641.342 328.934C640.537 329.569 639.976 330.463 639.755 331.465C639.842 331.055 639.99 330.66 640.192 330.293C639.895 330.11 640.428 329.485 641.351 328.934C642.263 328.209 643.423 327.87 644.582 327.989C645.032 327.989 645.478 328.078 645.893 328.252C646.308 328.426 646.684 328.682 646.999 329.004L647.065 329.074C647.391 329.362 647.673 329.698 647.9 330.07C648.061 330.287 648.184 330.529 648.263 330.787C648.354 331.018 648.426 331.257 648.477 331.5V331.566C648.477 331.657 648.477 331.566 648.477 331.539V330.665V329.327V326.582C648.521 324.746 648.516 322.896 648.617 321.056C648.822 317.375 649.111 313.715 649.592 310.126C650.637 302.917 652.267 295.94 655.677 289.605L655.721 289.522C655.878 289.243 655.977 288.936 656.013 288.619C656.048 288.301 656.02 287.98 655.93 287.673C655.839 287.367 655.688 287.082 655.486 286.834C655.283 286.587 655.033 286.383 654.75 286.234Z" fill="#F19A6D"/>
<path d="M641.342 328.912C642.313 328.309 643.43 327.983 644.573 327.967C643.414 327.848 642.254 328.187 641.342 328.912Z" fill="#F19A6D"/>
<path d="M657.518 357.718L651.59 344.576L645.762 331.225C643.768 326.752 642.033 322.158 639.974 317.593C638.959 315.307 637.967 312.99 636.835 310.664C636.244 309.497 635.654 308.33 634.964 307.123C634.202 305.704 633.272 304.383 632.192 303.188C631.656 302.561 630.915 302.143 630.101 302.008C629.287 301.874 628.451 302.032 627.742 302.454C627.033 302.876 626.496 303.536 626.226 304.316C625.956 305.096 625.971 305.946 626.268 306.716L626.705 307.901C627.094 309.016 627.964 311.578 628.485 313.816L630.338 320.929C631.514 325.764 633.009 330.547 634.461 335.413C635.912 340.279 637.718 345.031 639.707 349.744C641.7 354.474 643.998 359.07 646.588 363.502C647.398 364.865 648.699 365.866 650.224 366.299C651.749 366.732 653.382 366.564 654.788 365.83C656.193 365.096 657.264 363.852 657.78 362.353C658.295 360.853 658.217 359.214 657.561 357.77L657.518 357.718Z" fill="#F19A6D"/>
<path d="M685.743 291.428C685.708 291.36 685.659 291.301 685.6 291.252C685.541 291.204 685.473 291.169 685.399 291.149C685.326 291.128 685.249 291.124 685.173 291.135C685.098 291.146 685.026 291.172 684.961 291.213C684.896 291.253 684.841 291.306 684.798 291.369C684.755 291.432 684.725 291.503 684.711 291.578C684.697 291.653 684.699 291.73 684.716 291.804C684.733 291.879 684.766 291.949 684.812 292.01C687.037 295.568 683.88 300.076 678.547 307.136C673.423 313.921 674.673 325.624 674.73 326.118C674.516 330.425 676.916 336.567 679.058 341.984C680.921 346.714 682.678 351.164 682.031 352.913C681.651 353.945 681.275 354.854 680.925 355.689C679.439 359.261 678.455 361.626 680.116 366.732C680.153 366.842 680.222 366.938 680.315 367.006C680.409 367.074 680.521 367.111 680.636 367.113C680.695 367.113 680.753 367.103 680.807 367.082C680.945 367.038 681.06 366.941 681.126 366.812C681.192 366.683 681.205 366.534 681.161 366.396C679.622 361.67 680.492 359.576 681.935 356.109C682.289 355.261 682.669 354.338 683.054 353.289C683.845 351.151 682.101 346.705 680.077 341.56C677.991 336.248 675.618 330.224 675.819 326.062C675.819 325.86 674.56 314.205 679.421 307.774C684.479 301.099 688.475 295.809 685.743 291.428Z" fill="#964141"/>
<path d="M685.021 291.236C684.793 291.354 662.585 303.363 664.233 322.538C664.246 322.674 664.309 322.801 664.41 322.894C664.511 322.987 664.642 323.039 664.779 323.041H664.827C664.972 323.028 665.105 322.959 665.199 322.849C665.292 322.738 665.338 322.595 665.326 322.451C663.735 303.988 685.314 292.32 685.532 292.206C685.66 292.139 685.756 292.023 685.799 291.884C685.842 291.746 685.827 291.596 685.76 291.468C685.692 291.34 685.576 291.244 685.437 291.201C685.299 291.158 685.149 291.172 685.021 291.24V291.236Z" fill="#964141"/>
<path d="M676.229 285.478C673.882 286.597 653.789 296.797 655.459 318.358C655.47 318.496 655.532 318.624 655.634 318.717C655.735 318.81 655.868 318.861 656.005 318.861H656.049C656.193 318.85 656.327 318.782 656.422 318.672C656.516 318.562 656.563 318.42 656.552 318.275C654.939 297.439 674.424 287.55 676.662 286.492L676.492 285.968L676.229 285.478Z" fill="#964141"/>
<path d="M640.52 317.598C640.621 291.892 654.781 286.803 654.947 286.755C655.015 286.732 655.078 286.695 655.132 286.648C655.186 286.6 655.23 286.543 655.262 286.478C655.293 286.414 655.312 286.343 655.317 286.272C655.321 286.2 655.312 286.128 655.288 286.06C655.265 285.992 655.229 285.929 655.181 285.875C655.134 285.821 655.076 285.777 655.011 285.745C654.947 285.714 654.877 285.695 654.805 285.691C654.733 285.686 654.661 285.696 654.593 285.719C653.981 285.929 639.554 291.114 639.445 317.594C639.336 344.074 654.09 390.799 654.239 391.276C654.275 391.386 654.344 391.482 654.438 391.55C654.531 391.618 654.644 391.655 654.759 391.656C654.817 391.656 654.875 391.647 654.93 391.63C655.067 391.585 655.181 391.488 655.247 391.359C655.314 391.231 655.327 391.082 655.284 390.944C655.135 390.471 640.415 343.89 640.52 317.598Z" fill="#964141"/>
<path d="M935.932 544.546H741.457C738.906 544.546 736.46 545.56 734.656 547.363C732.852 549.167 731.839 551.613 731.839 554.164C731.839 556.715 732.852 559.162 734.656 560.965C736.46 562.769 738.906 563.782 741.457 563.782H935.949C938.5 563.782 940.946 562.769 942.75 560.965C944.554 559.162 945.567 556.715 945.567 554.164C945.567 551.613 944.554 549.167 942.75 547.363C940.946 545.56 938.5 544.546 935.949 544.546H935.932Z" fill="#F48400"/>
<path d="M1179.83 285.95H886.77L853.374 519.644H1149.56C1152.19 519.639 1154.72 518.69 1156.7 516.971C1158.68 515.251 1159.98 512.877 1160.36 510.28L1190.63 298.392C1190.85 296.846 1190.73 295.271 1190.29 293.772C1189.85 292.274 1189.09 290.888 1188.07 289.708C1187.05 288.529 1185.78 287.583 1184.36 286.934C1182.94 286.286 1181.4 285.95 1179.83 285.95Z" fill="#FFB500"/>
<g style="mix-blend-mode:multiply" opacity="0.5">
<path d="M936.578 367.519H943.271L950.266 318.538H943.577L936.578 367.519Z" fill="#5F97D7"/>
</g>
<g style="mix-blend-mode:multiply" opacity="0.5">
<path d="M954.651 367.519H961.345L968.339 318.538H961.651L954.651 367.519Z" fill="#5F97D7"/>
</g>
<g style="mix-blend-mode:multiply" opacity="0.5">
<path d="M972.729 367.519H979.417L986.417 318.538H979.723L972.729 367.519Z" fill="#5F97D7"/>
</g>
<g style="mix-blend-mode:multiply" opacity="0.5">
<path d="M990.802 367.519H997.495L1004.49 318.538H997.801L990.802 367.519Z" fill="#5F97D7"/>
</g>
<g style="mix-blend-mode:multiply" opacity="0.5">
<path d="M1008.88 367.519H1015.57L1022.56 318.538H1015.87L1008.88 367.519Z" fill="#5F97D7"/>
</g>
<g style="mix-blend-mode:multiply" opacity="0.5">
<path d="M1026.95 367.519H1033.64L1040.64 318.538H1033.95L1026.95 367.519Z" fill="#5F97D7"/>
</g>
<g style="mix-blend-mode:multiply" opacity="0.5">
<path d="M1045.03 367.519H1051.72L1058.72 318.538H1052.02L1045.03 367.519Z" fill="#5F97D7"/>
</g>
<g style="mix-blend-mode:multiply" opacity="0.5">
<path d="M1063.1 367.519H1069.79L1076.79 318.538H1070.1L1063.1 367.519Z" fill="#5F97D7"/>
</g>
<g style="mix-blend-mode:multiply" opacity="0.5">
<path d="M1081.18 367.519H1087.87L1094.86 318.538H1088.18L1081.18 367.519Z" fill="#5F97D7"/>
</g>
<g style="mix-blend-mode:multiply" opacity="0.5">
<path d="M1099.25 367.519H1105.94L1112.94 318.538H1106.25L1099.25 367.519Z" fill="#5F97D7"/>
</g>
<g style="mix-blend-mode:multiply" opacity="0.5">
<path d="M1117.33 367.519H1124.02L1131.01 318.538H1124.32L1117.33 367.519Z" fill="#5F97D7"/>
</g>
<g style="mix-blend-mode:multiply" opacity="0.5">
<path d="M1135.4 367.519H1142.09L1149.09 318.538H1142.4L1135.4 367.519Z" fill="#5F97D7"/>
</g>
<g style="mix-blend-mode:multiply" opacity="0.5">
<path d="M855.329 506.053L853.388 519.645C867.307 520.816 882.932 517.301 901.298 519.645H1149.56C1152.19 519.639 1154.72 518.69 1156.7 516.971C1158.68 515.252 1159.98 512.877 1160.36 510.28L1190.63 298.393C1190.63 298.393 1127.31 503.098 855.329 506.053Z" fill="#C4B199"/>
</g>
<path d="M1058.5 400.386C1058.18 399.178 1057.47 398.111 1056.47 397.349C1055.48 396.588 1054.26 396.176 1053.01 396.176H994.098C994.098 396.176 1008.36 513.288 1011.27 532.165C1014.18 551.043 1000.62 565.57 970.123 565.57H1050.38C1080.88 565.57 1094.44 551.047 1091.53 532.165C1088.96 515.434 1064.09 421.489 1058.5 400.386Z" fill="#FFCE40"/>
<path d="M1001.37 401.991C1001.13 400.273 1000.22 398.72 998.845 397.665C997.468 396.61 995.733 396.137 994.011 396.348C992.289 396.559 990.719 397.436 989.638 398.792C988.556 400.148 988.05 401.874 988.227 403.6C988.76 407.932 1001.27 509.904 1004.04 527.912C1004.96 533.91 1003.72 538.95 1000.34 542.889C995.095 548.97 984.743 552.324 971.116 552.324H911.659C909.903 552.324 908.218 553.021 906.976 554.264C905.734 555.506 905.036 557.19 905.036 558.947C905.036 560.703 905.734 562.388 906.976 563.63C908.218 564.872 909.903 565.57 911.659 565.57H971.116C993.609 565.57 1004.89 557.924 1010.39 551.51C1016.32 544.603 1018.65 535.772 1017.13 525.9C1014.39 508.09 1001.5 403.049 1001.37 401.991Z" fill="#FF9C00"/>
<path d="M887.505 286.068C884.383 285.627 881.213 286.442 878.691 288.335C876.169 290.227 874.499 293.042 874.049 296.163L844.063 506.061C843.617 509.185 844.43 512.357 846.323 514.882C848.216 517.406 851.034 519.075 854.157 519.522C854.719 519.602 855.286 519.643 855.853 519.644C858.715 519.641 861.479 518.605 863.639 516.729C865.799 514.852 867.21 512.26 867.614 509.428L897.6 299.525C897.821 297.978 897.735 296.403 897.348 294.89C896.96 293.377 896.278 291.955 895.341 290.705C894.403 289.455 893.229 288.403 891.884 287.607C890.54 286.811 889.052 286.289 887.505 286.068Z" fill="#E09100"/>
<path d="M1456.72 1135.96H1465.99V594.512H1431.23L1456.72 1135.96Z" fill="#A6665A"/>
<path d="M637.727 1135.96H646.99L672.478 594.512H637.727V1135.96Z" fill="#A6665A"/>
<path d="M1465.98 564.058H637.727V604.667H1465.98V564.058Z" fill="#A6665A"/>
<path d="M1433.95 641.133H1465.98V604.667H1431.82L1433.95 641.133Z" fill="#7C4B42"/>
<path d="M637.727 641.133H669.759L671.888 604.667H637.727V641.133Z" fill="#7C4B42"/>
<path d="M1219.59 719.652L1201.08 725.255L1204.1 735.234L1222.61 729.631L1219.59 719.652Z" fill="#732E2E"/>
<path d="M1219.59 719.661L1201.08 725.264L1202.59 730.251L1221.1 724.648L1219.59 719.661Z" fill="#732E2E"/>
<path d="M1215.3 679.307L1182.2 689.327C1172.5 692.261 1164.03 698.298 1158.09 706.512C1152.15 714.725 1149.07 724.661 1149.32 734.794L1149.48 740.98L1271.16 704.157L1267.86 698.91C1262.45 690.343 1254.38 683.786 1244.88 680.245C1235.39 676.704 1225 676.375 1215.3 679.307Z" fill="#F48400"/>
<path d="M1210.99 680.618L1208.31 681.431C1219.79 677.934 1233.89 688.216 1242.76 706.504L1245.38 711.938L1255.24 708.952L1252.35 703.596C1242.62 685.567 1225.69 676.163 1210.99 680.618Z" fill="#FFAF00"/>
<path d="M1206.35 682L1205.18 682.354C1212.91 680.011 1223.73 691.264 1231.6 709.857L1233.94 715.379L1238.27 714.067L1235.82 708.581C1227.57 690.123 1215.51 679.246 1206.35 682Z" fill="#FFAF00"/>
<path d="M1168.26 704.401C1166.62 707.78 1169.86 711.483 1173.45 710.395L1177.56 709.153C1179.18 708.664 1180.63 707.709 1181.72 706.407C1182.81 705.105 1183.49 703.512 1183.68 701.826C1184.63 693.428 1187.55 687.71 1192.15 686.319L1186.31 688.068C1178.41 690.468 1172.16 696.374 1168.26 704.401Z" fill="#FFB500"/>
<path d="M1183.96 717.919C1183.88 717.29 1183.67 716.685 1183.34 716.147C1183 715.609 1182.55 715.15 1182.02 714.804C1181.49 714.458 1180.89 714.232 1180.27 714.142C1179.64 714.053 1179 714.102 1178.4 714.286L1166.96 717.744C1166.13 717.997 1165.38 718.498 1164.84 719.182C1164.29 719.866 1163.97 720.7 1163.9 721.573C1163.87 722.063 1163.85 722.557 1163.82 723.055C1163.8 723.747 1163.94 724.434 1164.24 725.06C1164.53 725.686 1164.97 726.233 1165.52 726.657C1166.06 727.081 1166.7 727.369 1167.38 727.497C1168.06 727.626 1168.76 727.591 1169.42 727.397L1181.09 723.864C1182.08 723.557 1182.93 722.91 1183.48 722.037C1184.04 721.165 1184.27 720.124 1184.13 719.099C1184.06 718.723 1184 718.308 1183.96 717.919Z" fill="#FFB500"/>
<path d="M1149.71 1071.93L1127.49 1124.8C1126.72 1126.62 1126.39 1128.59 1126.52 1130.56C1126.66 1132.53 1127.25 1134.44 1128.26 1136.14C1129.26 1137.84 1130.65 1139.28 1132.31 1140.35C1133.98 1141.42 1135.87 1142.08 1137.83 1142.28L1160.83 1144.69C1162.75 1144.89 1164.7 1144.65 1166.51 1143.98C1168.32 1143.32 1169.96 1142.25 1171.29 1140.85L1194.11 1116.98C1196.65 1114.35 1198.46 1111.1 1199.35 1107.56C1200.24 1104.01 1200.18 1100.3 1199.18 1096.78C1189.72 1064.58 1154.68 1060.66 1149.71 1071.93Z" fill="#545454"/>
<path d="M1162.9 1066.22C1167.58 1070.94 1171.54 1077.21 1173.9 1085.25C1174.67 1087.88 1174.9 1090.63 1174.57 1093.36L1147.14 1078.05L1140.28 1094.37C1146.79 1101.29 1154.23 1107.28 1162.39 1112.17L1146 1129.31C1144.67 1130.7 1143.03 1131.78 1141.22 1132.44C1139.41 1133.11 1137.47 1133.35 1135.55 1133.15L1126.76 1132.23C1127.29 1134.87 1128.65 1137.26 1130.64 1139.07C1132.64 1140.88 1135.15 1142.01 1137.83 1142.28L1160.83 1144.69C1162.75 1144.89 1164.7 1144.65 1166.51 1143.98C1168.32 1143.32 1169.96 1142.25 1171.29 1140.85L1194.11 1116.98C1196.65 1114.35 1198.46 1111.1 1199.35 1107.56C1200.24 1104.01 1200.18 1100.3 1199.18 1096.78C1192.91 1075.46 1175.43 1066.54 1162.9 1066.22Z" fill="#161310"/>
<path d="M1343.96 727.851L1283.2 721.495L1283.06 722.806C1189.5 724.59 1108.75 803.212 1097.82 907.781C1086.88 1012.35 1149.65 1105.98 1240.78 1127.07L1240.64 1128.39L1301.41 1134.74C1403.61 1145.43 1495.98 1063.01 1507.73 950.655C1519.48 838.3 1446.16 738.536 1343.96 727.851Z" fill="#6381CC"/>
<path d="M1446.96 944.292C1458.71 831.937 1385.39 732.19 1283.19 721.503C1180.99 710.816 1088.62 793.234 1076.87 905.59C1065.12 1017.95 1138.44 1117.69 1240.64 1128.38C1342.84 1139.07 1435.21 1056.65 1446.96 944.292Z" fill="#B0CDF8"/>
<path d="M1098.1 907.803C1087.72 1007.1 1152.75 1095.57 1243.08 1105.01C1245.82 1105.3 1248.56 1105.5 1251.29 1105.64C1165.24 1091.89 1104.39 1005.79 1114.48 909.517C1124.56 813.241 1201.88 741.592 1288.91 745.933C1286.21 745.502 1283.49 745.142 1280.74 744.853C1190.41 735.406 1108.49 808.506 1098.1 907.803Z" fill="#6381CC"/>
<path d="M1425.71 942.061C1436.09 842.73 1374.84 754.921 1288.9 745.933C1202.96 736.946 1124.87 810.183 1114.48 909.514C1104.09 1008.84 1165.34 1096.65 1251.28 1105.64C1337.23 1114.63 1415.32 1041.39 1425.71 942.061Z" fill="white"/>
<path d="M1281.29 763.946L1278.17 793.813L1289.53 795.002L1292.65 765.135L1281.29 763.946Z" fill="#5360A6"/>
<path d="M1211.43 781.878L1221.32 809.062L1231.86 803.352L1221.97 776.168L1211.43 781.878Z" fill="#5360A6"/>
<path d="M1157.3 838.383L1177.56 855.595L1184.46 844.521L1164.2 827.305L1157.3 838.383Z" fill="#5360A6"/>
<path d="M1134.81 904.834L1133.4 918.309L1158.59 920.943L1160 907.468L1134.81 904.834Z" fill="#5360A6"/>
<path d="M1141.66 987.969L1146.12 1000.24L1169.49 987.58L1165.04 975.317L1141.66 987.969Z" fill="#5360A6"/>
<path d="M1182.92 1054.45L1192.06 1062.21L1207.36 1037.67L1198.23 1029.9L1182.92 1054.45Z" fill="#5360A6"/>
<path d="M1250.67 1056.59L1247.55 1086.46L1258.91 1087.65L1262.04 1057.78L1250.67 1056.59Z" fill="#5360A6"/>
<path d="M1308.32 1048.23L1318.21 1075.41L1328.75 1069.7L1318.87 1042.52L1308.32 1048.23Z" fill="#5360A6"/>
<path d="M1355.73 1007.06L1375.98 1024.27L1382.88 1013.19L1362.63 995.978L1355.73 1007.06Z" fill="#5360A6"/>
<path d="M1381.61 930.65L1380.2 944.125L1405.39 946.759L1406.79 933.284L1381.61 930.65Z" fill="#5360A6"/>
<path d="M1370.69 863.998L1375.15 876.261L1398.52 863.604L1394.06 851.341L1370.69 863.998Z" fill="#5360A6"/>
<path d="M1332.82 813.91L1341.96 821.679L1357.26 797.127L1348.12 789.362L1332.82 813.91Z" fill="#5360A6"/>
<path d="M1258.66 934.899L1217.36 995.283L1220.26 1004.59L1231.36 1001.92L1272.67 941.536L1265.67 938.218L1258.66 934.899Z" fill="#992E2E"/>
<path d="M1287.74 927.629C1288.95 916.069 1282.03 905.871 1272.28 904.851C1262.53 903.832 1253.64 912.377 1252.44 923.937C1251.23 935.497 1258.15 945.695 1267.9 946.715C1277.65 947.734 1286.53 939.189 1287.74 927.629Z" fill="#992E2E"/>
<path d="M1276.74 806.273L1262.84 909.097L1270.48 910.085L1278.12 911.073L1292.03 808.249L1285.36 800.122L1276.74 806.273Z" fill="#992E2E"/>
<path d="M1270.15 915.384L1265.77 914.925L1265.63 916.328C1262.88 917.854 1260.8 920.975 1260.39 924.757C1259.98 928.539 1261.38 932.023 1263.76 934.082L1263.61 935.503L1267.99 935.94C1272.77 936.438 1277.17 932.228 1277.74 926.549C1278.32 920.87 1274.94 915.891 1270.15 915.384Z" fill="#FF9168"/>
<path d="M1265.77 914.925C1260.96 914.426 1256.58 918.636 1256 924.315C1255.42 929.994 1258.82 935.022 1263.61 935.52C1268.4 936.019 1272.79 931.809 1273.37 926.13C1273.95 920.451 1270.55 915.428 1265.77 914.925Z" fill="#FFBF67"/>
<path d="M1417.48 1099.94C1414.94 1087.88 1379.86 1084.48 1363.94 1114.01C1362.24 1117.24 1361.41 1120.87 1361.55 1124.52C1361.69 1128.17 1362.79 1131.72 1364.73 1134.82L1382.11 1162.9C1383.13 1164.54 1384.51 1165.93 1386.14 1166.95C1387.78 1167.98 1389.63 1168.62 1391.55 1168.82L1414.55 1171.22C1416.51 1171.43 1418.5 1171.17 1420.35 1170.47C1422.19 1169.77 1423.85 1168.65 1425.18 1167.2C1426.52 1165.74 1427.5 1164 1428.03 1162.1C1428.57 1160.2 1428.66 1158.2 1428.29 1156.26L1417.48 1099.94Z" fill="#545454"/>
<path d="M1423.42 1163.03L1400.41 1160.62C1398.49 1160.42 1396.64 1159.78 1395.01 1158.76C1393.37 1157.73 1391.99 1156.34 1390.97 1154.7L1373.59 1126.61C1371.65 1123.52 1370.55 1119.97 1370.41 1116.31C1370.27 1112.66 1371.1 1109.04 1372.8 1105.81C1374.25 1103.11 1375.95 1100.55 1377.88 1098.18C1372.04 1102.26 1367.26 1107.68 1363.94 1113.99C1362.24 1117.22 1361.41 1120.85 1361.55 1124.5C1361.69 1128.15 1362.79 1131.7 1364.73 1134.8L1382.11 1162.88C1383.13 1164.52 1384.51 1165.9 1386.14 1166.93C1387.78 1167.96 1389.63 1168.59 1391.55 1168.79L1414.55 1171.2C1417.4 1171.5 1420.26 1170.82 1422.68 1169.27C1425.09 1167.73 1426.91 1165.41 1427.83 1162.7C1426.39 1163.07 1424.9 1163.18 1423.42 1163.03Z" fill="#161310"/>
<path d="M1419.14 750.622L1412.64 762.454L1434.59 774.512L1441.09 762.68L1419.14 750.622Z" fill="#992E2E"/>
<path d="M1419.14 750.62L1415.89 756.536L1437.84 768.594L1441.09 762.678L1419.14 750.62Z" fill="#732E2E"/>
<path d="M1474.57 721.998L1435.32 700.44C1423.82 694.123 1410.56 691.754 1397.59 693.695C1384.61 695.636 1372.63 701.781 1363.48 711.186L1357.88 716.926L1502.18 796.178L1504.03 788.383C1507.06 775.619 1505.82 762.213 1500.5 750.222C1495.18 738.231 1486.07 728.316 1474.57 721.998Z" fill="#F48400"/>
<path d="M1381.88 721.285L1376.78 727.296L1388.48 733.723L1393.29 727.545C1409.42 706.753 1430.03 697.529 1443.65 705.009L1440.47 703.26C1423.02 693.677 1399.03 701.052 1381.88 721.285Z" fill="#FFAF00"/>
<path d="M1401.47 732.048L1396.9 738.344L1402.03 741.163L1406.47 734.794C1421.43 713.372 1438.15 702.005 1447.32 707.033L1445.93 706.263C1435.07 700.3 1416.87 710.854 1401.47 732.048Z" fill="#FFAF00"/>
<path d="M1469.71 719.331L1462.79 715.527C1468.24 718.518 1470.41 726.549 1469.35 737.443C1469.13 739.63 1469.57 741.831 1470.6 743.774C1471.62 745.717 1473.2 747.316 1475.12 748.373L1479.99 751.048C1484.25 753.391 1489.35 749.566 1488.18 744.849C1485.4 733.618 1479.06 724.463 1469.71 719.331Z" fill="#FFB500"/>
<path d="M1486.26 762.082L1472.71 754.65C1471.99 754.256 1471.19 754.023 1470.38 753.969C1469.56 753.915 1468.74 754.04 1467.97 754.337C1467.21 754.634 1466.52 755.094 1465.95 755.686C1465.39 756.278 1464.96 756.987 1464.69 757.763C1464.53 758.25 1464.35 758.735 1464.18 759.219C1463.72 760.481 1463.73 761.863 1464.2 763.12C1464.67 764.376 1465.58 765.423 1466.75 766.074L1480.59 773.672C1481.38 774.103 1482.25 774.339 1483.15 774.361C1484.05 774.383 1484.94 774.19 1485.75 773.799C1486.55 773.407 1487.26 772.829 1487.8 772.111C1488.34 771.393 1488.7 770.557 1488.85 769.672C1488.95 769.034 1489.05 768.404 1489.14 767.77C1489.3 766.641 1489.11 765.492 1488.59 764.476C1488.08 763.459 1487.26 762.624 1486.26 762.082Z" fill="#FFB500"/>
<path d="M1516.84 711.549C1505.88 701.424 1494.36 698.206 1493.87 698.075C1492.82 697.822 1491.72 697.987 1490.79 698.535C1489.86 699.083 1489.19 699.971 1488.9 701.01C1488.62 702.049 1488.75 703.159 1489.27 704.103C1489.79 705.047 1490.66 705.751 1491.69 706.067C1491.79 706.093 1502 709 1511.48 717.87C1524.03 729.63 1529.52 745.924 1527.8 766.305C1527.75 766.847 1527.81 767.393 1527.98 767.912C1528.14 768.43 1528.41 768.911 1528.76 769.327C1529.11 769.742 1529.54 770.085 1530.02 770.335C1530.51 770.584 1531.03 770.736 1531.57 770.782H1531.93C1532.97 770.781 1533.97 770.392 1534.73 769.69C1535.49 768.988 1535.96 768.025 1536.05 766.992C1538.5 738.103 1526.96 720.909 1516.84 711.549Z" fill="black"/>
<path d="M1531.82 688.291C1530.77 688.047 1529.66 688.222 1528.74 688.777C1527.82 689.333 1527.15 690.226 1526.87 691.267C1526.6 692.309 1526.74 693.416 1527.26 694.356C1527.79 695.295 1528.66 695.993 1529.7 696.3C1530.75 696.589 1555.52 703.807 1552.26 740.761C1552.21 741.303 1552.27 741.85 1552.43 742.369C1552.59 742.888 1552.86 743.37 1553.21 743.788C1553.56 744.205 1553.98 744.55 1554.47 744.802C1554.95 745.053 1555.48 745.208 1556.02 745.256H1556.38C1557.42 745.255 1558.42 744.867 1559.18 744.168C1559.94 743.469 1560.42 742.509 1560.51 741.478C1562.53 718.653 1554.77 705.442 1547.91 698.377C1540.34 690.591 1532.16 688.383 1531.82 688.291Z" fill="black"/>
<path d="M1187.64 665.706C1158.65 665.142 1142.22 677.781 1133.55 688.483C1124.15 700.082 1121.7 711.789 1121.6 712.284C1121.38 713.358 1121.6 714.474 1122.2 715.388C1122.81 716.302 1123.75 716.939 1124.82 717.158C1125.1 717.215 1125.38 717.244 1125.66 717.245C1126.61 717.243 1127.53 716.913 1128.27 716.311C1129.01 715.71 1129.52 714.873 1129.72 713.94C1129.74 713.84 1131.97 703.448 1140.21 693.424C1151.14 680.129 1167.02 673.593 1187.48 673.987H1187.55C1188.66 673.997 1189.72 673.569 1190.5 672.798C1191.29 672.026 1191.74 670.974 1191.75 669.873C1191.76 668.771 1191.33 667.711 1190.56 666.924C1189.79 666.138 1188.73 665.691 1187.63 665.68L1187.64 665.706Z" fill="black"/>
<path d="M1160.58 642.96C1137.69 642.435 1125 651.035 1118.4 658.34C1111.1 666.406 1109.43 674.708 1109.36 675.058C1109.16 676.138 1109.38 677.256 1110 678.169C1110.61 679.081 1111.56 679.712 1112.64 679.923C1112.91 679.972 1113.17 679.997 1113.44 679.998C1114.4 679.998 1115.33 679.664 1116.07 679.054C1116.81 678.444 1117.31 677.595 1117.49 676.653C1117.71 675.578 1123.32 650.396 1160.39 651.244H1160.49C1161.59 651.257 1162.66 650.831 1163.44 650.06C1164.23 649.29 1164.68 648.239 1164.69 647.137C1164.7 646.036 1164.28 644.974 1163.51 644.187C1162.74 643.399 1161.69 642.95 1160.58 642.938V642.96Z" fill="black"/>
<path d="M670.197 815.248C670.197 815.248 643.577 878.163 568.565 901.552C596.798 984.638 666.97 1041.89 666.97 1041.89L699.234 1040.28C699.234 1040.28 735.52 986.229 759.735 941.06C698.425 899.134 670.197 815.248 670.197 815.248Z" fill="#FFBC40"/>
<path d="M666.966 1041.9L699.23 1040.29L681.62 1026.26L666.966 1041.9Z" fill="#1985E7"/>
<path d="M667.81 861.746C664.749 862.091 662.187 864.885 659.94 866.822L651.306 874.315L634.037 889.306C628.284 894.298 622.548 899.314 616.83 904.354L608.594 911.571C605.813 914.007 602.709 916.455 600.519 919.441C599.644 920.621 601.284 921.911 602.394 921.316C605.516 919.642 608.309 916.944 610.976 914.623C613.862 912.131 616.744 909.636 619.624 907.138C625.269 902.254 630.906 897.362 636.534 892.462L653.387 877.734L661.995 870.21C664.295 868.199 667.809 865.899 668.588 862.778C668.617 862.658 668.619 862.533 668.594 862.411C668.569 862.29 668.517 862.176 668.443 862.078C668.369 861.979 668.273 861.898 668.163 861.841C668.054 861.783 667.933 861.751 667.81 861.746Z" fill="white"/>
<path d="M678.913 886.023C675.853 887.111 673.632 888.965 671.215 891.098L663.669 897.761C658.519 902.308 653.389 906.873 648.28 911.458C638.033 920.608 627.654 929.575 618.176 939.529C617.586 940.15 618.381 941.322 619.133 940.771C630.037 932.731 640.118 923.721 650.313 914.846C655.376 910.439 660.451 906.046 665.492 901.613L673.409 894.648C675.971 892.397 678.332 890.386 679.888 887.291C680.203 886.674 679.674 885.752 678.913 886.023Z" fill="white"/>
<path d="M690.691 910.396C681.646 918.789 673.204 927.988 664.561 936.784C660.329 941.081 656.219 945.501 652.075 949.899C647.826 954.398 643.685 958.708 640.302 963.889C640.25 963.986 640.231 964.097 640.247 964.206C640.263 964.315 640.314 964.415 640.392 964.493C640.47 964.571 640.571 964.621 640.68 964.637C640.789 964.652 640.9 964.632 640.997 964.58C646.024 961.244 650.178 957.209 654.549 953.034C659.013 948.749 663.516 944.491 667.888 940.115C676.631 931.371 685.746 922.89 694.066 913.775C696.129 911.519 692.929 908.302 690.691 910.396Z" fill="white"/>
<path d="M701.442 932.464C694.246 941.422 686.989 950.336 679.884 959.368C676.02 964.286 672.159 969.2 668.387 974.189C664.365 979.505 660.19 984.681 656.976 990.552C656.897 990.694 656.872 990.86 656.905 991.019C656.937 991.178 657.026 991.32 657.155 991.419C657.284 991.518 657.444 991.568 657.606 991.559C657.768 991.55 657.922 991.482 658.039 991.37C662.375 987.584 666.017 983.221 669.746 978.849C673.475 974.477 677.178 970.105 680.798 965.668C688.09 956.793 695.26 947.818 702.465 938.869C704.266 936.631 706.072 934.401 707.864 932.154C709.001 930.737 711.562 928.42 710.426 926.366C708.109 922.177 702.648 930.96 701.442 932.464Z" fill="white"/>
<path d="M725.42 948.824L702.853 980.13C699.142 985.28 695.539 990.509 691.863 995.681C688.09 1000.98 684.111 1006.14 681.257 1012C680.732 1013.09 682.044 1014.22 682.97 1013.32C687.552 1008.89 691.133 1003.66 694.918 998.557C698.805 993.311 702.748 988.122 706.604 982.862C714.307 972.353 721.994 961.831 729.666 951.298C731.532 948.749 727.257 946.271 725.42 948.824Z" fill="white"/>
<path d="M1621.2 807.47C1665.08 869.515 1648.56 933.487 1648.56 933.487C1648.56 933.487 1719.54 885.629 1791.28 889.424C1799.23 840.508 1803.08 777.659 1803.08 777.659L1779.24 757.466C1779.24 757.466 1691.7 760.22 1621.2 807.47Z" fill="#FF6576"/>
<path d="M1672.39 875.605C1670.95 868.532 1669.52 861.458 1668.09 854.385C1666.66 847.311 1665.19 840.246 1663.72 833.177L1661.48 822.348C1660.78 819.008 1660.23 815.283 1658.82 812.162C1658.31 811.051 1656.31 811.091 1656.28 812.503C1656.2 816.088 1657.15 819.795 1657.85 823.297L1659.93 833.68C1661.38 840.906 1662.83 848.133 1664.3 855.355L1668.76 877.013L1670.99 887.846C1671.56 890.64 1671.9 894.295 1674.05 896.354C1674.15 896.428 1674.26 896.478 1674.38 896.502C1674.51 896.525 1674.63 896.52 1674.75 896.487C1674.87 896.455 1674.98 896.395 1675.07 896.314C1675.16 896.232 1675.23 896.131 1675.28 896.017C1676.51 893.171 1675.16 889.337 1674.58 886.443L1672.39 875.605Z" fill="white"/>
<path d="M402.153 306.179C395.748 363.681 348.406 413.795 348.406 413.795C348.406 413.795 401.406 409.073 444.94 452.087C491.718 402.271 505.428 333.061 505.428 333.061L492.514 311.464C492.514 311.464 442.068 306.288 402.153 306.179Z" fill="#F48400"/>
<path d="M489.305 328.711L505.432 333.061L492.514 311.464L489.305 328.711Z" fill="#D06600"/>
<path d="M446.146 421.577C443.851 420.042 440.966 419.115 438.404 418.127L430.097 414.918C424.672 412.829 419.251 410.73 413.817 408.662L397.519 402.463L389.212 399.298C386.987 398.454 384.119 396.88 381.693 397.484C381.596 397.505 381.505 397.549 381.428 397.611C381.351 397.673 381.288 397.752 381.246 397.842C381.204 397.932 381.183 398.03 381.185 398.13C381.186 398.229 381.211 398.326 381.256 398.415C382.611 400.386 385.474 401.13 387.617 401.956L395.923 405.147L412.536 411.535C418.073 413.662 423.621 415.772 429.179 417.865L437.162 420.886C439.851 421.904 442.671 423.142 445.53 423.553C446.671 423.714 446.964 422.119 446.146 421.577Z" fill="#2D2D44"/>
<path d="M453.399 402.961C443.881 398.406 434.005 394.782 424.16 391.013C419.277 389.142 414.398 387.262 409.506 385.417L401.82 382.532C399.333 381.592 397.09 380.709 394.388 380.783C393.85 380.783 393.409 381.491 393.872 381.915C395.752 383.634 397.833 384.473 400.185 385.352L407.525 388.102C412.536 389.977 417.581 391.822 422.578 393.671C432.633 397.37 442.583 401.221 452.896 404.094C453.539 404.251 454.05 403.276 453.399 402.961Z" fill="#2D2D44"/>
<path d="M461.762 379.218C457.626 376.984 453.324 375.59 448.865 374.13C444.283 372.63 439.71 371.091 435.098 369.683C425.917 366.881 416.737 363.712 407.407 361.329C405.095 360.734 404.059 364.092 406.323 364.879C415.403 368.027 424.816 370.453 434.032 373.185C438.534 374.523 443.077 375.73 447.606 376.976C452.253 378.252 456.734 379.52 461.539 379.948C461.625 379.949 461.709 379.922 461.778 379.872C461.847 379.821 461.898 379.749 461.924 379.667C461.949 379.585 461.946 379.497 461.917 379.416C461.888 379.335 461.834 379.266 461.762 379.218Z" fill="#2D2D44"/>
<path d="M473.951 357.692C469.758 356.1 465.426 355.191 461.054 354.225C456.682 353.259 452.311 352.332 447.939 351.449C439.169 349.7 430.373 348.039 421.586 346.36C419.4 345.923 417.192 345.516 414.993 345.105C413.598 344.843 411.058 343.929 410.07 345.464C408.042 348.589 416.077 349.127 417.555 349.398C426.347 351.068 435.134 352.795 443.943 354.373C448.752 355.248 453.53 356.087 458.339 356.857C463.467 357.678 468.561 358.649 473.767 358.715C473.891 358.713 474.009 358.669 474.103 358.59C474.198 358.51 474.261 358.4 474.283 358.279C474.304 358.158 474.283 358.033 474.223 357.926C474.162 357.818 474.066 357.736 473.951 357.692Z" fill="#2D2D44"/>
<path d="M479.922 332.515C475.201 330.984 470.304 330.438 465.399 329.699C460.376 328.947 455.344 328.134 450.334 327.408C440.287 325.951 430.232 324.517 420.168 323.106C417.729 322.757 417.589 326.604 420.015 326.936L449.8 330.993C454.701 331.658 459.615 332.226 464.516 332.86C469.544 333.511 474.545 334.359 479.62 334.171C479.811 334.154 479.99 334.074 480.13 333.946C480.271 333.817 480.366 333.645 480.4 333.457C480.434 333.27 480.406 333.076 480.32 332.906C480.233 332.735 480.094 332.598 479.922 332.515Z" fill="#2D2D44"/>
<path d="M1506.93 334.661C1506.93 334.661 1517.65 423.662 1479.87 488.714C1521.67 519.474 1578.4 553.08 1578.4 553.08L1608.61 540.498C1608.61 540.498 1647.83 457.57 1637.46 369.308C1558.67 380.591 1506.93 334.661 1506.93 334.661Z" fill="#FEC53A"/>
<path d="M1578.41 553.08L1608.61 540.498L1588.39 532.572L1578.41 553.08Z" fill="#FE9D1F"/>
<path d="M1616.01 399.582C1612.7 397.794 1608.79 396.911 1605.2 395.892L1594.52 392.88C1587.09 390.782 1579.66 388.679 1572.22 386.62L1549.91 380.433L1538.74 377.343C1535.86 376.543 1532.3 375.109 1529.36 376.123C1529.24 376.179 1529.14 376.261 1529.06 376.363C1528.98 376.465 1528.92 376.584 1528.9 376.711C1528.87 376.837 1528.87 376.969 1528.91 377.094C1528.94 377.22 1529 377.336 1529.08 377.434C1531.16 379.944 1535.37 380.495 1538.35 381.369L1549.5 384.499L1571.32 390.62C1578.61 392.66 1585.89 394.677 1593.18 396.67L1604.34 399.731C1607.78 400.675 1611.52 401.943 1615.1 402.113C1616.38 402.205 1617.31 400.299 1616.01 399.582Z" fill="white"/>
<path d="M1608.62 425.642C1595.62 420.667 1582.23 416.991 1568.87 413.087C1562.2 411.137 1555.52 409.178 1548.83 407.268L1539.03 404.461C1535.89 403.587 1533.07 402.83 1529.78 403.171C1528.97 403.259 1528.91 404.33 1529.44 404.758C1532.22 406.909 1535.25 407.718 1538.57 408.662L1548.85 411.583C1555.38 413.441 1561.94 415.246 1568.49 417.069C1581.7 420.746 1594.82 424.593 1608.29 427.19C1609.21 427.369 1609.43 425.953 1608.62 425.642Z" fill="white"/>
<path d="M1599 457.543C1593.65 454.273 1587.98 452.131 1582.14 449.875C1576.46 447.689 1570.77 445.42 1565.01 443.317C1553.27 439.046 1541.56 434.303 1529.63 430.569C1526.66 429.638 1525.14 433.949 1528.02 435.12C1539.59 439.829 1551.62 443.623 1563.43 447.798C1569.33 449.897 1575.31 451.825 1581.25 453.801C1587.04 455.724 1592.62 457.596 1598.67 458.457C1598.77 458.457 1598.88 458.424 1598.97 458.363C1599.05 458.302 1599.12 458.215 1599.15 458.115C1599.19 458.015 1599.19 457.907 1599.17 457.804C1599.14 457.702 1599.08 457.611 1599 457.543Z" fill="white"/>
<path d="M1595.37 489.204C1589.88 485.243 1583.8 482.318 1577.81 479.21C1572.19 476.294 1566.52 473.478 1560.84 470.667C1550.41 465.504 1539.89 460.516 1529.42 455.458C1527.67 454.61 1518.84 448.957 1518.54 453.792C1518.4 456.166 1521.75 457.171 1523.4 457.972C1526.03 459.244 1528.65 460.498 1531.27 461.762C1541.77 466.807 1552.22 471.887 1562.75 476.827C1568 479.293 1573.28 481.705 1578.6 484.062C1583.91 486.436 1589.14 488.836 1594.77 490.415C1594.93 490.459 1595.09 490.448 1595.24 490.383C1595.39 490.318 1595.51 490.204 1595.58 490.059C1595.65 489.915 1595.67 489.75 1595.63 489.594C1595.59 489.438 1595.5 489.299 1595.37 489.204Z" fill="white"/>
<path d="M1582.52 519.369C1577.35 515.251 1571.47 512.269 1565.71 509.06C1560.09 505.935 1554.52 502.726 1548.88 499.635L1514.62 480.836C1511.82 479.302 1509 483.433 1511.82 484.959C1523.43 491.228 1535.04 497.494 1546.65 503.757C1552.46 506.888 1558.34 509.922 1564.17 513.017C1569.85 516.033 1575.41 519.255 1581.52 521.323C1582.76 521.752 1583.46 520.147 1582.52 519.369Z" fill="white"/>
</svg>
