<svg width="61" height="79" viewBox="0 0 61 79" fill="none" xmlns="http://www.w3.org/2000/svg">
<path d="M58.94 23.3233C58.94 19.1881 55.509 15.8359 51.2765 15.8359H10.1635C5.93101 15.8359 2.5 19.1881 2.5 23.3233" stroke="url(#paint0_angular_635_3133)" stroke-width="3.5" stroke-miterlimit="10"/>
<path d="M4.5 61.1953C4.5 65.1965 7.75233 68.4407 11.7634 68.4407H50.7295C54.7406 68.4407 57.9929 65.1965 57.9929 61.1953" stroke="url(#paint1_angular_635_3133)" stroke-width="3.5" stroke-miterlimit="10"/>
<path d="M19.0782 26.5H15.5V57.2272H19.0782V26.5Z" fill="url(#paint2_angular_635_3133)"/>
<path d="M25.7315 26.5H22.1533V57.2272H25.7315V26.5Z" fill="url(#paint3_angular_635_3133)"/>
<path d="M32.5099 26.5H28.9316V57.2272H32.5099V26.5Z" fill="url(#paint4_angular_635_3133)"/>
<path d="M39.1007 26.5H35.5225V57.2272H39.1007V26.5Z" fill="url(#paint5_angular_635_3133)"/>
<path d="M45.8487 26.5H42.2705V57.2272H45.8487V26.5Z" fill="url(#paint6_angular_635_3133)"/>
<path d="M19.0782 73.0918H15.5V78.5H19.0782V73.0918Z" fill="url(#paint7_angular_635_3133)"/>
<path d="M25.7315 73.0918H22.1533V78.5H25.7315V73.0918Z" fill="url(#paint8_angular_635_3133)"/>
<path d="M32.5108 73.0918H28.9326V78.5H32.5108V73.0918Z" fill="url(#paint9_angular_635_3133)"/>
<path d="M39.1017 73.0918H35.5234V78.5H39.1017V73.0918Z" fill="url(#paint10_angular_635_3133)"/>
<path d="M45.8487 73.0918H42.2705V78.5H45.8487V73.0918Z" fill="url(#paint11_angular_635_3133)"/>
<path d="M25.7296 0.5H22.1514V5.90822H25.7296V0.5Z" fill="url(#paint12_angular_635_3133)"/>
<path d="M32.5099 0.5H28.9316V5.90822H32.5099V0.5Z" fill="url(#paint13_angular_635_3133)"/>
<path d="M39.0997 0.5H35.5215V5.90822H39.0997V0.5Z" fill="url(#paint14_angular_635_3133)"/>
<path d="M48.9863 24.0694V20.5L13.4999 20.5V24.0694L48.9863 24.0694Z" fill="url(#paint15_angular_635_3133)"/>
<path d="M48.5 63.8702V60.3008L13.0136 60.3008V63.8702L48.5 63.8702Z" fill="url(#paint16_angular_635_3133)"/>
<path d="M48.5 11.3428V7.77344L13.0136 7.77344V11.3428L48.5 11.3428Z" fill="url(#paint17_angular_635_3133)"/>
<defs>
<radialGradient id="paint0_angular_635_3133" cx="0" cy="0" r="1" gradientUnits="userSpaceOnUse" gradientTransform="translate(30.72 19.5796) rotate(90) scale(3.7437 28.22)">
<stop stop-color="#DBBC80"/>
<stop offset="1" stop-color="#AB8219"/>
</radialGradient>
<radialGradient id="paint1_angular_635_3133" cx="0" cy="0" r="1" gradientUnits="userSpaceOnUse" gradientTransform="translate(31.2464 64.818) rotate(90) scale(3.62271 26.7464)">
<stop stop-color="#DBBC80"/>
<stop offset="1" stop-color="#AB8219"/>
</radialGradient>
<radialGradient id="paint2_angular_635_3133" cx="0" cy="0" r="1" gradientUnits="userSpaceOnUse" gradientTransform="translate(17.2891 41.8636) rotate(90) scale(15.3636 1.78911)">
<stop stop-color="#DBBC80"/>
<stop offset="1" stop-color="#AB8219"/>
</radialGradient>
<radialGradient id="paint3_angular_635_3133" cx="0" cy="0" r="1" gradientUnits="userSpaceOnUse" gradientTransform="translate(23.9424 41.8636) rotate(90) scale(15.3636 1.78911)">
<stop stop-color="#DBBC80"/>
<stop offset="1" stop-color="#AB8219"/>
</radialGradient>
<radialGradient id="paint4_angular_635_3133" cx="0" cy="0" r="1" gradientUnits="userSpaceOnUse" gradientTransform="translate(30.7208 41.8636) rotate(90) scale(15.3636 1.78911)">
<stop stop-color="#DBBC80"/>
<stop offset="1" stop-color="#AB8219"/>
</radialGradient>
<radialGradient id="paint5_angular_635_3133" cx="0" cy="0" r="1" gradientUnits="userSpaceOnUse" gradientTransform="translate(37.3116 41.8636) rotate(90) scale(15.3636 1.78911)">
<stop stop-color="#DBBC80"/>
<stop offset="1" stop-color="#AB8219"/>
</radialGradient>
<radialGradient id="paint6_angular_635_3133" cx="0" cy="0" r="1" gradientUnits="userSpaceOnUse" gradientTransform="translate(44.0596 41.8636) rotate(90) scale(15.3636 1.78911)">
<stop stop-color="#DBBC80"/>
<stop offset="1" stop-color="#AB8219"/>
</radialGradient>
<radialGradient id="paint7_angular_635_3133" cx="0" cy="0" r="1" gradientUnits="userSpaceOnUse" gradientTransform="translate(17.2891 75.7959) rotate(90) scale(2.70411 1.78911)">
<stop stop-color="#DBBC80"/>
<stop offset="1" stop-color="#AB8219"/>
</radialGradient>
<radialGradient id="paint8_angular_635_3133" cx="0" cy="0" r="1" gradientUnits="userSpaceOnUse" gradientTransform="translate(23.9424 75.7959) rotate(90) scale(2.70411 1.78911)">
<stop stop-color="#DBBC80"/>
<stop offset="1" stop-color="#AB8219"/>
</radialGradient>
<radialGradient id="paint9_angular_635_3133" cx="0" cy="0" r="1" gradientUnits="userSpaceOnUse" gradientTransform="translate(30.7217 75.7959) rotate(90) scale(2.70411 1.78911)">
<stop stop-color="#DBBC80"/>
<stop offset="1" stop-color="#AB8219"/>
</radialGradient>
<radialGradient id="paint10_angular_635_3133" cx="0" cy="0" r="1" gradientUnits="userSpaceOnUse" gradientTransform="translate(37.3125 75.7959) rotate(90) scale(2.70411 1.78911)">
<stop stop-color="#DBBC80"/>
<stop offset="1" stop-color="#AB8219"/>
</radialGradient>
<radialGradient id="paint11_angular_635_3133" cx="0" cy="0" r="1" gradientUnits="userSpaceOnUse" gradientTransform="translate(44.0596 75.7959) rotate(90) scale(2.70411 1.78911)">
<stop stop-color="#DBBC80"/>
<stop offset="1" stop-color="#AB8219"/>
</radialGradient>
<radialGradient id="paint12_angular_635_3133" cx="0" cy="0" r="1" gradientUnits="userSpaceOnUse" gradientTransform="translate(23.9405 3.20411) rotate(90) scale(2.70411 1.78911)">
<stop stop-color="#DBBC80"/>
<stop offset="1" stop-color="#AB8219"/>
</radialGradient>
<radialGradient id="paint13_angular_635_3133" cx="0" cy="0" r="1" gradientUnits="userSpaceOnUse" gradientTransform="translate(30.7208 3.20411) rotate(90) scale(2.70411 1.78911)">
<stop stop-color="#DBBC80"/>
<stop offset="1" stop-color="#AB8219"/>
</radialGradient>
<radialGradient id="paint14_angular_635_3133" cx="0" cy="0" r="1" gradientUnits="userSpaceOnUse" gradientTransform="translate(37.3106 3.20411) rotate(90) scale(2.70411 1.78911)">
<stop stop-color="#DBBC80"/>
<stop offset="1" stop-color="#AB8219"/>
</radialGradient>
<radialGradient id="paint15_angular_635_3133" cx="0" cy="0" r="1" gradientUnits="userSpaceOnUse" gradientTransform="translate(31.2431 22.2847) rotate(-180) scale(17.7432 1.78468)">
<stop stop-color="#DBBC80"/>
<stop offset="1" stop-color="#AB8219"/>
</radialGradient>
<radialGradient id="paint16_angular_635_3133" cx="0" cy="0" r="1" gradientUnits="userSpaceOnUse" gradientTransform="translate(30.7568 62.0855) rotate(-180) scale(17.7432 1.78469)">
<stop stop-color="#DBBC80"/>
<stop offset="1" stop-color="#AB8219"/>
</radialGradient>
<radialGradient id="paint17_angular_635_3133" cx="0" cy="0" r="1" gradientUnits="userSpaceOnUse" gradientTransform="translate(30.7568 9.55812) rotate(-180) scale(17.7432 1.78468)">
<stop stop-color="#DBBC80"/>
<stop offset="1" stop-color="#AB8219"/>
</radialGradient>
</defs>
</svg>
