<svg width="3734" height="2457" viewBox="0 0 3734 2457" fill="none" xmlns="http://www.w3.org/2000/svg">
<path d="M728.46 1318.16L725.724 1423.23L701.104 2442.93H652.361V1318.16H728.46Z" fill="#D6E3F8"/>
<path d="M728.46 1318.16L725.724 1423.23L652.361 1414.12V1318.16H728.46Z" fill="#96B1CC"/>
<path d="M1310.64 1319.56V2444.33H1261.89L1238.77 1485.81L1234.54 1319.56H1310.64Z" fill="#D6E3F8"/>
<path d="M1310.64 1319.56V1499.82L1238.77 1485.81L1234.54 1319.56H1310.64Z" fill="#96B1CC"/>
<path d="M2209.15 1318.16L2206.66 1423.23L2181.79 2442.93H2133.05V1318.16H2209.15Z" fill="#D6E3F8"/>
<path d="M2791.32 1319.56V2444.33H2742.83L2719.45 1485.81L2715.47 1319.56H2791.32Z" fill="#D6E3F8"/>
<path d="M2209.15 1318.16L2206.66 1423.23L2133.05 1414.12V1318.16H2209.15Z" fill="#96B1CC"/>
<path d="M2791.32 1319.56V1499.82L2719.45 1485.81L2715.47 1319.56H2791.32Z" fill="#96B1CC"/>
<path d="M2862.95 1295.27H582.48V1369.53H2862.95V1295.27Z" fill="#D6E3F8"/>
<path d="M2959.93 1118.98C2959.93 1118.98 3000.72 1254.18 3086.02 1302.75C3086.02 1302.75 3062.14 1192.77 2959.93 1118.98Z" fill="#6799FC"/>
<path d="M3079.05 1322.36L3043.24 1019.04H3055.18L3101.93 1322.36H3079.05Z" fill="#6799FC"/>
<path d="M3120.83 996.86C3119.34 993.358 3078.06 1130.19 3108.9 1247.87C3108.9 1247.64 3164.6 1101.23 3120.83 996.86Z" fill="#6799FC"/>
<path d="M3060.33 1028.01L3052.94 1029.01L3096.18 1309.79L3103.56 1308.79L3060.33 1028.01Z" fill="black"/>
<path d="M3117.85 1309.28C3117.85 1309.28 3174.55 1171.28 3309.59 1073.21C3309.59 1073.21 3268.8 1204.68 3151.67 1309.28H3117.85Z" fill="#6799FC"/>
<path d="M3151.92 1309.98L3147.19 1304.61C3148.44 1303.68 3267.31 1208.41 3304.86 1073.92L3312.07 1075.78C3273.78 1212.38 3153.16 1309.05 3151.92 1309.98Z" fill="black"/>
<path d="M3204.14 942.688L3117.85 1336.37H3142.72L3222.05 946.424L3204.14 942.688Z" fill="#6799FC"/>
<path d="M3218.37 941.652L3157.8 1242.9L3165.13 1244.2L3225.7 942.951L3218.37 941.652Z" fill="black"/>
<path d="M3193.95 1292.47L3189.72 1330.53L3174.05 1470.63H3063.88L3043.99 1292.47H3193.95Z" fill="#FECD3B"/>
<path d="M3105.91 985.885C3104.92 973.043 3092.98 963.469 3079.3 964.403L3070.1 965.104L3069.36 956.464C3068.36 943.622 3056.42 934.048 3042.75 934.982C3029.07 935.916 3018.87 947.124 3019.87 959.967L3020.61 968.606L3011.41 969.307C2997.73 970.241 2987.54 981.449 2988.53 994.291C2989.53 1007.13 3001.46 1016.71 3015.14 1015.77L3024.34 1015.07L3025.09 1023.71C3026.08 1036.55 3038.02 1046.13 3051.7 1045.19C3065.38 1044.26 3075.57 1033.05 3074.58 1020.21L3073.83 1011.57L3083.03 1010.87C3096.71 1009.94 3106.91 998.728 3105.91 985.885Z" fill="#FFAA3F"/>
<path d="M3258.36 926.343L3251.15 920.973L3256.86 914.201C3265.32 904.161 3263.58 889.45 3252.89 881.511C3242.19 873.572 3226.52 875.207 3218.07 885.247L3212.35 892.019L3205.14 886.648C3194.44 878.709 3178.78 880.344 3170.32 890.384C3161.87 900.425 3163.61 915.135 3174.3 923.074L3181.51 928.445L3175.79 935.216C3167.34 945.257 3169.08 959.967 3179.77 967.906C3190.47 975.845 3206.13 974.211 3214.59 964.17L3220.31 957.399L3227.52 962.769C3238.21 970.708 3253.88 969.073 3262.34 959.033C3270.79 949.226 3269.05 934.515 3258.36 926.343Z" fill="#FFAA3F"/>
<path d="M3124.32 960.434C3134.48 960.434 3142.72 952.698 3142.72 943.155C3142.72 933.612 3134.48 925.876 3124.32 925.876C3114.15 925.876 3105.91 933.612 3105.91 943.155C3105.91 952.698 3114.15 960.434 3124.32 960.434Z" fill="#FFAA3F"/>
<path d="M3235.98 1101.24C3246.96 1101.24 3255.87 1092.87 3255.87 1082.56C3255.87 1072.24 3246.96 1063.88 3235.98 1063.88C3224.99 1063.88 3216.08 1072.24 3216.08 1082.56C3216.08 1092.87 3224.99 1101.24 3235.98 1101.24Z" fill="#FFAA3F"/>
<path d="M3016.38 1140.46C3027.92 1140.46 3037.27 1131.68 3037.27 1120.85C3037.27 1110.02 3027.92 1101.23 3016.38 1101.23C3004.85 1101.23 2995.49 1110.02 2995.49 1120.85C2995.49 1131.68 3004.85 1140.46 3016.38 1140.46Z" fill="#FFAA3F"/>
<path d="M3068.36 1262.35C3030.31 1177.12 2958.19 1121.78 2957.45 1121.32L2962.17 1115.95C2962.92 1116.41 3036.53 1172.92 3075.32 1259.78L3068.36 1262.35Z" fill="black"/>
<path d="M3189.72 1330.53L3174.05 1470.63H3108.4L3189.72 1330.53Z" fill="#40330F"/>
<path d="M3115.36 1249.27L3108.4 1246.94C3108.9 1245.54 3164.85 1094.23 3118.1 999.895L3124.81 996.86C3172.81 1093.76 3117.85 1242.97 3115.36 1249.27Z" fill="black"/>
<path d="M3193.95 1287.8H3042.75V1294.81H3193.95V1287.8Z" fill="black"/>
<path d="M505.388 1466.66C493.948 1565.43 469.079 1685.92 422.326 1831.16L386.764 1826.95C386.764 1826.95 388.007 1780.49 391.489 1710.67C400.193 1525.97 422.823 1177.59 471.317 1095.63C471.317 1095.63 535.976 1203.04 505.388 1466.66Z" fill="#6799FC"/>
<path d="M408.15 1875.05H400.689C405.166 1430.7 466.84 1096.33 467.586 1093.06L475.047 1094.23C474.301 1097.5 412.626 1431.17 408.15 1875.05Z" fill="black"/>
<path d="M505.388 1466.66C493.948 1565.43 469.079 1685.92 422.326 1831.16L386.764 1826.95C386.764 1826.95 388.007 1780.49 391.489 1710.67C428.543 1607.7 474.302 1520.6 505.388 1466.66Z" fill="black"/>
<path d="M393.477 1816.45C393.477 1816.45 518.069 1496.78 595.908 1417.39C595.908 1417.39 647.138 1613.77 420.086 1826.95L393.477 1816.45Z" fill="#6799FC"/>
<path d="M186.569 1212.61C186.569 1212.61 377.81 1473.67 395.716 1826.95H389.001C389.001 1826.95 146.531 1446.58 186.569 1212.61Z" fill="#6799FC"/>
<path d="M385.271 1827.42C328.073 1474.84 184.58 1216.82 183.088 1214.25L189.802 1210.98C191.295 1213.55 335.285 1472.5 392.731 1826.25L385.271 1827.42Z" fill="black"/>
<path d="M391.489 1864.55L384.525 1862.21C483.503 1597.66 591.682 1417.39 592.926 1415.53L599.391 1419.03C598.148 1420.9 490.218 1600.69 391.489 1864.55Z" fill="black"/>
<path d="M529.26 1803.84L514.588 1972.19L473.554 2443.16H315.638L259.932 1803.84H529.26Z" fill="#FECD3B"/>
<path d="M514.588 1972.19L473.555 2443.16H363.635L514.588 1972.19Z" fill="#40330F"/>
<path d="M3247.17 2363.77H3212.35V2443.16H3247.17V2363.77Z" fill="#B2AF9C"/>
<path d="M3483.42 2363.77H3448.6V2443.16H3483.42V2363.77Z" fill="#B2AF9C"/>
<path d="M2916.41 2363.77H2881.6V2443.16H2916.41V2363.77Z" fill="#B2AF9C"/>
<path d="M3152.66 2363.77H3117.85V2443.16H3152.66V2363.77Z" fill="#B2AF9C"/>
<path d="M3520.72 1467.13H3261.09V2379.88H3520.72V1467.13Z" fill="#B2AF9C"/>
<path d="M3270.79 2379.88H2853V1468.06H3271.04L3270.79 2379.88Z" fill="#D6E3F8"/>
<path d="M2874.13 1534.84V2354.9H3241.2V1534.84H2874.13ZM2986.29 1546.75V1571.97H3118.59V1546.75H3228.27V1694.56H2887.07V1546.75H2986.29ZM2887.07 2180.47V2020.99H2986.29V2047.38H3118.59V2020.99H3228.27V2180.47H2887.07ZM2887.07 2008.85V1863.38H2986.29V1889.06H3118.59V1863.38H3228.27V2008.85H2887.07ZM2887.07 1851.24V1706.47H2986.29V1732.85H3118.59V1706.7H3228.27V1851.47H2887.07V1851.24ZM2887.07 2342.75V2192.38H2986.29V2218.77H3118.59V2192.38H3228.27V2342.75H2887.07Z" fill="#4C4A3D"/>
<path d="M1915.69 67.9971H1589.17V446.267H1915.69V67.9971Z" fill="#AC830E"/>
<path d="M1737.88 115.397H1630.7V130.341H1737.88V115.397Z" fill="white"/>
<path d="M1878.64 168.168H1630.7V183.112H1878.64V168.168Z" fill="white"/>
<path d="M1878.64 220.939H1630.7V235.883H1878.64V220.939Z" fill="white"/>
<path d="M1878.64 273.477H1630.7V288.421H1878.64V273.477Z" fill="white"/>
<path d="M1878.64 326.248H1630.7V341.192H1878.64V326.248Z" fill="white"/>
<path d="M1714.5 379.019H1630.7V393.963H1714.5V379.019Z" fill="white"/>
<path d="M1915.2 519.82C1959.28 519.82 1995.02 486.262 1995.02 444.866C1995.02 403.47 1959.28 369.913 1915.2 369.913C1871.11 369.913 1835.37 403.47 1835.37 444.866C1835.37 486.262 1871.11 519.82 1915.2 519.82Z" fill="#AC830E"/>
<path d="M1905.5 475.221L1872.42 444.165C1869.69 441.597 1869.69 437.394 1872.42 434.825C1875.16 432.257 1879.63 432.257 1882.37 434.825L1905.74 456.774L1949.02 417.78C1951.75 415.211 1956.23 415.445 1958.96 418.013C1961.7 420.582 1961.45 424.785 1958.72 427.353L1905.5 475.221Z" fill="white"/>
<path d="M1598.37 673.229C1638.89 673.229 1671.73 642.389 1671.73 604.346C1671.73 566.304 1638.89 535.464 1598.37 535.464C1557.85 535.464 1525.01 566.304 1525.01 604.346C1525.01 642.389 1557.85 673.229 1598.37 673.229Z" fill="#FFAA3F"/>
<path d="M1592.4 646.61V636.803C1584.94 636.569 1577.98 634.701 1573.75 632.366L1576.98 620.224C1581.71 622.559 1588.17 624.661 1595.14 624.661C1601.35 624.661 1605.58 622.326 1605.58 618.356C1605.58 614.387 1602.1 612.052 1593.89 609.483C1582.2 605.747 1574 600.61 1574 590.57C1574 581.463 1580.71 574.458 1592.65 572.123V562.316H1603.34V571.423C1610.8 571.656 1615.78 573.291 1619.26 574.925L1616.02 586.6C1613.04 585.433 1608.07 583.098 1600.11 583.098C1592.9 583.098 1590.66 585.9 1590.66 588.935C1590.66 592.438 1594.39 594.539 1603.84 597.808C1617.02 602.245 1622.24 607.849 1622.24 617.189C1622.24 626.295 1615.28 634.234 1602.6 636.336V646.843H1592.4V646.61Z" fill="white"/>
<path d="M2912.18 21.7642H2548.35C2537.66 21.7642 2528.96 29.9366 2528.96 39.9771V188.95C2528.96 198.991 2537.66 207.163 2548.35 207.163H2572.73V266.939L2631.17 207.163H2911.94C2922.63 207.163 2931.33 198.991 2931.33 188.95V40.2107C2931.58 29.9367 2922.88 21.7642 2912.18 21.7642Z" fill="#AC830E"/>
<path d="M2710.25 63.0938H2568.75V78.2712H2710.25V63.0938Z" fill="white"/>
<path d="M2891.54 105.824H2568.75V121.002H2891.54V105.824Z" fill="white"/>
<path d="M2891.54 148.788H2568.75V163.966H2891.54V148.788Z" fill="white"/>
<path d="M586.956 0.749023H950.786C961.48 0.749023 970.184 8.92151 970.184 18.962V167.702C970.184 177.742 961.48 185.915 950.786 185.915H926.415V245.691L867.724 186.148H586.956C576.263 186.148 567.559 177.976 567.559 167.935V18.962C567.559 8.92151 576.263 0.749023 586.956 0.749023Z" fill="#AC830E"/>
<path d="M684.193 111.195C694.632 111.195 703.093 103.249 703.093 93.4487C703.093 83.6478 694.632 75.7026 684.193 75.7026C673.755 75.7026 665.293 83.6478 665.293 93.4487C665.293 103.249 673.755 111.195 684.193 111.195Z" fill="white"/>
<path d="M765.764 111.195C776.202 111.195 784.664 103.249 784.664 93.4487C784.664 83.6478 776.202 75.7026 765.764 75.7026C755.325 75.7026 746.863 83.6478 746.863 93.4487C746.863 103.249 755.325 111.195 765.764 111.195Z" fill="white"/>
<path d="M849.57 111.195C860.009 111.195 868.47 103.249 868.47 93.4487C868.47 83.6478 860.009 75.7026 849.57 75.7026C839.132 75.7026 830.67 83.6478 830.67 93.4487C830.67 103.249 839.132 111.195 849.57 111.195Z" fill="white"/>
<path d="M1126.36 455.374L1137.8 499.972C1137.8 499.972 1146.25 511.414 1155.46 513.515L1150.23 465.414L1126.36 455.374Z" fill="black"/>
<path d="M1263.64 544.57L1270.1 576.56L1281.29 632.834L1139.29 636.336L1147 509.078L1147.5 478.256C1140.04 473.82 1134.07 469.617 1129.1 465.647C1112.18 452.104 1108.21 440.663 1109.45 431.79C1109.45 431.79 1109.45 431.556 1109.45 431.323C1111.44 418.013 1125.86 410.541 1125.86 410.541L1134.81 329.75L1305.91 343.06C1306.66 346.329 1307.65 349.598 1308.4 352.633V353.1C1312.38 369.679 1315.36 384.623 1317.35 398.633V399.1C1340.48 554.844 1263.64 544.57 1263.64 544.57Z" fill="#A55C5C"/>
<path d="M1161.67 350.532L1171.12 437.861L1152.97 433.424C1152.97 433.424 1143.52 411.942 1126.11 413.577C1118.65 414.277 1107.96 426.653 1108.95 436.927C1108.95 436.927 1042.55 328.816 1102.24 322.979C1102.24 322.979 1196.49 181.011 1241.75 273.01C1241.75 273.01 1312.38 239.619 1297.46 297.527C1297.46 297.527 1351.92 279.081 1332.02 354.034L1318.35 402.369L1308.4 352.867C1308.4 352.867 1266.62 370.379 1200.72 350.065C1200.72 350.065 1216.88 368.511 1245.98 375.516C1245.73 375.516 1188.53 371.08 1161.67 350.532Z" fill="black"/>
<path d="M1270.1 576.56C1206.69 568.621 1189.53 509.312 1189.03 507.444C1201.96 524.723 1239.76 537.565 1263.64 544.804L1270.1 576.56Z" fill="black"/>
<path d="M2465.04 475.688C2478.22 466.348 2492.65 447.668 2487.92 429.455C2485.44 419.881 2480.21 415.912 2474.25 415.211C2474.99 375.983 2462.81 335.821 2414.06 326.481C2312.1 306.867 2268.33 377.618 2278.03 452.338C2287.73 527.058 2281.26 558.814 2348.41 571.89L2345.18 670.193L2483.2 662.955L2457.83 499.271C2457.58 499.738 2461.07 490.165 2465.04 475.688Z" fill="#FFAD94"/>
<path d="M2447.88 481.058C2440.42 476.388 2443.91 450.703 2447.88 432.023C2449.63 424.084 2468.03 410.308 2479.72 417.313C2489.42 378.552 2490.16 333.72 2447.88 323.679C2435.45 291.69 2403.87 298.928 2385.96 302.197C2330.26 312.705 2312.85 313.172 2289.97 300.329C2273.31 290.989 2257.39 294.492 2254.65 304.999C2249.68 323.913 2260.62 334.187 2260.62 334.187C2239.73 339.557 2238.99 352.867 2239.73 361.039C2241.97 382.521 2255.15 391.628 2272.81 393.496C2274.55 406.572 2278.53 419.181 2278.03 423.15C2278.03 423.15 2279.52 408.907 2285.24 393.729C2328.27 391.861 2386.21 360.806 2386.21 360.806C2379.5 378.318 2416.3 386.724 2430.48 389.293C2433.71 411.709 2437.94 467.282 2408.34 507.677C2408.34 507.677 2328.76 476.622 2282.01 496.703C2282.01 496.703 2276.54 577.027 2358.85 573.291C2358.85 573.291 2387.95 570.489 2405.36 554.144C2405.36 554.144 2433.71 530.794 2456.59 479.891C2452.86 481.992 2449.63 482.226 2447.88 481.058Z" fill="black"/>
<path d="M1020.17 2251.46L1001.77 2322.67L996.544 2342.99L984.607 2388.75H897.566L905.524 2330.85L908.26 2310.3L916.715 2250.29L1020.17 2251.46Z" fill="#A55C5C"/>
<path d="M1020.17 2251.46L1001.77 2322.67L996.545 2342.99L905.525 2330.85L908.261 2310.3L916.716 2250.29L1020.17 2251.46Z" fill="black"/>
<path d="M901.298 2360.97C909.008 2368.44 939.845 2392.96 991.323 2359.57C991.821 2359.33 992.318 2359.33 992.815 2359.57L1134.57 2430.78C1141.28 2434.05 1138.8 2443.63 1131.09 2443.63H899.806C889.113 2443.63 881.155 2434.29 883.642 2424.48L898.812 2361.9C899.06 2360.5 900.552 2360.03 901.298 2360.97Z" fill="black"/>
<path d="M1360.13 2250.52L1349.18 2342.29L1343.46 2388.75H1256.42L1256.67 2329.21L1256.92 2249.12L1360.13 2250.52Z" fill="#A55C5C"/>
<path d="M1360.13 2250.52L1349.18 2342.29L1256.67 2329.21L1256.92 2249.12L1360.13 2250.52Z" fill="black"/>
<path d="M1255.18 2360.97C1262.89 2368.44 1293.73 2392.96 1345.2 2359.57C1345.7 2359.33 1346.2 2359.33 1346.7 2359.57L1488.45 2430.78C1495.16 2434.05 1492.68 2443.63 1484.97 2443.63H1253.69C1242.99 2443.63 1235.04 2434.29 1237.52 2424.48L1252.69 2361.9C1252.94 2360.5 1254.43 2360.03 1255.18 2360.97Z" fill="black"/>
<path d="M2316.83 2250.52L2328.02 2342.29L2333.49 2388.75H2420.78L2420.53 2329.21L2420.28 2249.12L2316.83 2250.52Z" fill="#FFAD94"/>
<path d="M2316.83 2250.52L2328.02 2342.29L2420.53 2329.21L2420.28 2249.12L2316.83 2250.52Z" fill="black"/>
<path d="M2421.77 2360.97C2414.06 2368.44 2383.23 2392.96 2331.75 2359.57C2331.25 2359.33 2330.75 2359.33 2330.26 2359.57L2188.5 2430.78C2181.79 2434.05 2184.28 2443.63 2191.99 2443.63H2423.27C2433.96 2443.63 2441.92 2434.29 2439.43 2424.48L2424.26 2361.9C2424.01 2360.5 2422.77 2360.03 2421.77 2360.97Z" fill="black"/>
<path d="M2771.43 2388.75H2684.14L2672.2 2343.45L2647.58 2250.52L2751.04 2249.12L2762.72 2330.38L2771.43 2388.75Z" fill="#FFAD94"/>
<path d="M2762.72 2330.38L2672.2 2343.45L2647.58 2250.52L2751.04 2249.12L2762.72 2330.38Z" fill="black"/>
<path d="M2767.45 2360.97C2759.74 2368.44 2728.9 2392.96 2677.42 2359.57C2676.93 2359.33 2676.43 2359.33 2675.93 2359.57L2534.18 2430.78C2527.46 2434.05 2529.95 2443.63 2537.66 2443.63H2768.94C2779.63 2443.63 2787.59 2434.29 2785.1 2424.48L2769.93 2361.9C2769.69 2360.5 2768.44 2360.03 2767.45 2360.97Z" fill="black"/>
<path d="M2269.82 1430.94C2262.36 1437.94 2254.9 1430.94 2254.9 1430.94C2249.93 1437.94 2239.98 1430.94 2239.98 1430.94C2230.03 1437.94 2225.06 1428.6 2225.06 1428.6C2207.65 1440.28 2210.14 1395.91 2210.14 1395.91C2207.65 1370.23 2220.09 1353.88 2220.09 1353.88V1314.19L2262.36 1325.86L2263.61 1344.77L2269.82 1430.94Z" fill="#FFAD94"/>
<path d="M2306.63 1401.98C2314.34 1401.98 2320.31 1407.82 2320.31 1414.82V1422.3V1474.83H2306.63V1433.97C2306.63 1427.43 2301.16 1422.3 2294.2 1422.3H2168.61C2161.65 1422.3 2156.17 1427.43 2156.17 1433.97V1474.83H2142.5V1422.3V1414.82C2142.5 1407.59 2148.71 1401.98 2156.17 1401.98H2306.63Z" fill="#E54E13"/>
<path d="M2024.87 1486.51V1741.73C2024.87 1751.53 2033.32 1759.47 2043.77 1759.47H2430.97C2441.42 1759.47 2449.87 1751.53 2449.87 1741.73V1486.51C2449.87 1476.7 2441.42 1468.76 2430.97 1468.76H2043.77C2033.32 1468.53 2024.87 1476.7 2024.87 1486.51Z" fill="#FFBD00"/>
<path d="M2067.89 1570.57L2262.61 1636.18L2450.12 1573.14V1557.49L2262.61 1620.54L2073.11 1556.79L2067.89 1570.57Z" fill="#E54E13"/>
<path d="M2024.87 1486.51V1741.73C2024.87 1751.53 2033.32 1759.47 2043.77 1759.47H2056.45C2066.9 1759.47 2075.35 1751.53 2075.35 1741.73V1486.51C2075.35 1476.7 2066.9 1468.76 2056.45 1468.76H2043.77C2033.32 1468.53 2024.87 1476.7 2024.87 1486.51Z" fill="#E54E13"/>
<path d="M1406.88 1255.81L1446.67 1711.14L1396.93 2321.74H1245.23L1247.72 1734.49L1178.09 1255.81H1406.88Z" fill="black"/>
<path d="M1313.62 1254.64L1216.63 1707.63L1056.23 2321.74H894.582L996.544 1736.82L989.083 1244.14L1313.62 1254.64Z" fill="#273237"/>
<path d="M2053.47 938.252L2046.01 998.962L2016.16 996.627C2015.42 997.094 2014.67 997.561 2013.92 998.028C1988.31 1013.44 1901.77 1057.34 1901.77 1057.34C1847.06 1066.68 1817.21 1043.33 1817.21 1043.33L1866.95 970.942C1866.95 970.942 1839.59 956.932 1854.52 942.922C1869.44 928.912 1973.89 931.247 1973.89 931.247C1996.02 931.247 2013.43 932.414 2026.61 933.815C2044.26 935.917 2053.47 938.252 2053.47 938.252Z" fill="#FFAD94"/>
<path d="M1949.02 959.266C1949.02 959.266 1939.07 977.946 1896.79 977.946L1819.7 1045.66H1762.5V968.606L1789.61 966.505L1852.03 961.601L1899.28 947.591L1949.02 959.266Z" fill="#A55C5C"/>
<path d="M1803.54 1045.66H1762.5V968.606L1789.61 966.505L1803.54 1045.66Z" fill="black"/>
<path d="M1774.94 956.932V1069.01L1568.78 1061.31C1538.44 1060.14 1509.84 1047.76 1489.2 1026.51L1395.69 906.496L1419.07 1317.92L1419.31 1320.96C1188.03 1402.68 971.677 1318.62 971.677 1318.62L993.81 905.795L994.059 900.658L931.887 966.038L930.892 1017.88L926.913 1262.58H807.543V959.5C807.543 940.82 812.019 922.607 820.475 905.795L929.151 693.544C949.792 653.148 987.841 622.793 1033.85 610.418L1137.05 582.164C1248.96 673.229 1273.83 579.829 1273.83 579.829L1323.57 587.768C1360.62 593.839 1393.45 614.621 1413.1 644.742L1613.29 949.927L1774.94 956.932Z" fill="#FFBD00"/>
<path d="M2263.61 1344.77L2220.09 1335.67V1314.19L2262.36 1325.86L2263.61 1344.77Z" fill="black"/>
<path d="M2461.31 1339.87L2436.44 1685.45L2446.39 2310.06H2274.8L2235.01 1673.78L2249.93 1148.4L2506.08 1122.72L2461.31 1339.87Z" fill="black"/>
<path d="M2053.47 938.251L2046.01 998.961L2016.16 996.626C2015.42 997.093 2014.67 997.56 2013.93 998.027L2026.36 934.048C2044.27 935.916 2053.47 938.251 2053.47 938.251Z" fill="black"/>
<path d="M2661.26 1133.69L2681.4 1618.9L2770.93 2310.06H2614.26L2455.1 1681.95L2359.35 1171.75L2661.26 1133.69Z" fill="#273237"/>
<path d="M2681.4 1268.65C2487.43 1385.4 2228.79 1273.32 2228.79 1273.32V1270.76L2237.5 1076.02L2026.11 1048L2041.03 919.572L2242.47 938.252V715.726C2242.47 695.178 2250.92 675.564 2266.34 660.854L2344.43 618.356C2392.93 701.249 2476.24 588.001 2476.24 588.001L2594.11 622.326C2625.7 635.635 2646.59 664.356 2648.58 696.812L2657.03 842.05L2681.4 1268.65Z" fill="#FECD3B"/>
<path d="M1896.79 1069.01C1896.79 1069.01 1914.2 1083.02 1924.15 1062.01C1924.15 1062.01 1944.04 1066.68 1949.02 1048C1949.02 1048 1966.43 1050.33 1968.91 1033.99C1968.91 1033.99 1986.32 1036.32 1988.81 1019.98L1978.86 980.281C1978.86 980.281 1958.96 977.946 1956.48 996.626C1956.48 996.626 1934.1 989.621 1931.61 1010.64C1931.61 1010.64 1911.71 1010.64 1911.71 1026.98C1911.71 1026.98 1891.82 1022.31 1889.33 1043.33C1889.33 1043.33 1889.33 1057.34 1896.79 1069.01Z" fill="#A55C5C"/>
<path d="M812.517 1348.51C804.061 1348.04 796.601 1354.11 796.103 1362.05L795.606 1370.46L791.627 1429.54L807.046 1430.47L810.279 1383.07C810.776 1376.53 816.496 1371.86 823.459 1372.09L967.2 1380.5C974.164 1380.97 979.137 1386.34 978.889 1392.88L975.656 1440.28L991.074 1441.21L995.053 1382.13L995.551 1373.96C996.048 1366.02 989.582 1359.02 981.127 1358.55L812.517 1348.51Z" fill="#E54E13"/>
<path d="M1122.38 1461.76L1103.23 1748.03C1102.49 1759 1092.29 1767.41 1080.6 1766.71L646.642 1741.02C634.953 1740.32 626.001 1730.75 626.747 1719.78L645.895 1433.5C646.642 1422.53 656.838 1414.12 668.526 1414.82L1102.49 1440.51C1114.17 1441.21 1123.13 1450.78 1122.38 1461.76Z" fill="#FFBD00"/>
<path d="M1067.67 1553.29L844.349 1613.77L639.182 1530.64L640.425 1513.13L845.592 1596.25L1062.95 1537.41L1067.67 1553.29Z" fill="#E54E13"/>
<path d="M1007.74 1378.4C978.143 1392.18 957.502 1367.19 957.502 1367.19C956.01 1387.97 946.808 1402.68 946.808 1402.68C931.638 1415.29 916.22 1395.68 916.22 1395.68C898.065 1403.85 885.134 1381.43 885.134 1381.43C861.26 1391.47 857.778 1359.95 857.778 1359.95C858.027 1306.95 858.027 1289.44 858.027 1289.44V1284.3L857.529 1262.82L924.178 1261.18L925.421 1273.56L925.67 1274.02L941.586 1297.37C957.253 1312.79 986.598 1352.01 986.598 1352.01L1007.74 1378.4Z" fill="#A55C5C"/>
<path d="M1122.38 1461.76L1103.23 1748.03C1102.49 1759 1092.29 1767.41 1080.6 1766.71L1066.43 1765.78C1054.74 1765.07 1045.79 1755.5 1046.53 1744.53L1065.68 1458.26C1066.43 1447.28 1076.62 1438.88 1088.31 1439.58L1102.49 1440.51C1114.17 1441.21 1123.13 1450.78 1122.38 1461.76Z" fill="#E54E13"/>
<path d="M1024.56 850.809L930.074 965.207L935.97 969.499L1030.45 855.102L1024.56 850.809Z" fill="black"/>
<g opacity="0.15">
<path d="M1419.31 1321.19C1188.03 1402.92 971.676 1318.86 971.676 1318.86L993.809 906.029L994.058 905.562C992.814 1411.09 1346.2 1330.76 1419.06 1318.16L1419.31 1321.19Z" fill="black"/>
</g>
<path d="M1385.46 814.093L1378.04 814.769L1396.85 996.973L1404.27 996.297L1385.46 814.093Z" fill="black"/>
<path d="M925.918 1274.02L858.027 1284.3L857.529 1263.05L924.426 1261.42L925.421 1273.56L925.918 1274.02Z" fill="black"/>
<path d="M2438.68 1113.61C2433.96 1113.61 2429.23 1113.14 2424.26 1112.44L2159.66 1070.18L2160.9 1063.17L2425.5 1105.44C2457.58 1110.57 2490.16 1096.33 2506.82 1069.95L2578.45 955.998L2584.91 959.5L2513.29 1073.45C2497.62 1098.67 2468.77 1113.61 2438.68 1113.61Z" fill="black"/>
<g opacity="0.15">
<path d="M2681.4 1268.65C2487.43 1385.4 2228.79 1273.32 2228.79 1273.32V1270.76C2681.4 1383.07 2637.38 987.053 2656.78 842.049L2681.4 1268.65Z" fill="black"/>
</g>
<g opacity="0.15">
<path d="M2242.47 938.251L2391.68 954.596L2488.67 821.501L2381.73 935.916L2242.47 938.251Z" fill="black"/>
</g>
<path d="M2397.64 1356.31L2390.29 1357.53L2441.16 1628.64L2448.51 1627.43L2397.64 1356.31Z" fill="white"/>
<path d="M1283.13 1387.71L1225.43 1648.08L1232.73 1649.51L1290.43 1389.14L1283.13 1387.71Z" fill="white"/>
<path d="M1256.42 484.094L1306.16 488.764C1306.16 488.764 1288.75 523.789 1256.42 484.094Z" fill="white"/>
<path d="M2340.7 512.114H2293.45C2293.45 512.114 2300.91 544.804 2340.7 512.114Z" fill="white"/>
<path d="M3733.35 2441.99H0.550781V2456H3733.35V2441.99Z" fill="black"/>
</svg>
