<?xml version="1.0" encoding="utf-8"?>
<!-- Generator: Adobe Illustrator 27.7.0, SVG Export Plug-In . SVG Version: 6.00 Build 0)  -->
<svg version="1.1" id="Layer_1" xmlns="http://www.w3.org/2000/svg" xmlns:xlink="http://www.w3.org/1999/xlink" x="0px" y="0px"
	 viewBox="0 0 54 43" style="enable-background:new 0 0 54 43;" xml:space="preserve">
<style type="text/css">
	.st0{fill:#D2AE74;}
</style>
<g>
	<path class="st0" d="M6,29.7H4.6v-5.5H6c1.8,0,3.2,1.2,3.2,2.8C9.2,28.5,7.8,29.7,6,29.7z"/>
	<path class="st0" d="M10.9,18.8v4.1c-1.2-1.1-3-1.8-4.9-1.8H2.6v-2.3H10.9z"/>
	<path class="st0" d="M10.9,30.9v4H2.6v-2.2H6C7.9,32.8,9.7,32.1,10.9,30.9z"/>
	<path class="st0" d="M16.1,18.8V35h8.3V18.8H16.1z M22,32.8h-3.5V21.1H22V32.8z"/>
	<rect x="29.6" y="18.8" class="st0" width="8.3" height="2.3"/>
	<polygon class="st0" points="33.1,23.6 37.9,23.6 37.9,35 29.6,35 29.6,32.8 33.1,32.8 33.1,28.1 37.5,28.1 37.5,25.5 33.1,25.5 	
		"/>
	<polygon class="st0" points="51.4,18.8 51.4,22.2 47.3,25.4 43.1,22.1 43.1,18.8 	"/>
	<polygon class="st0" points="51.4,32.8 51.4,35 43.1,35 43.1,32.8 44.7,32.8 44.7,27.5 47.3,29.6 49.8,27.5 49.8,32.8 	"/>
	<rect x="1.6" y="35.7" class="st0" width="10.4" height="1.3"/>
	<rect x="15.1" y="35.7" class="st0" width="10.4" height="1.3"/>
	<rect x="28.6" y="35.7" class="st0" width="10.4" height="1.3"/>
	<rect x="42.1" y="35.7" class="st0" width="10.4" height="1.3"/>
	<rect x="0.5" y="37.8" class="st0" width="12.5" height="1.3"/>
	<rect x="14" y="37.8" class="st0" width="12.5" height="1.3"/>
	<rect x="27.5" y="37.8" class="st0" width="12.5" height="1.3"/>
	<rect x="41" y="37.8" class="st0" width="12.5" height="1.3"/>
	<polygon class="st0" points="27,3.8 0,13.3 0,15.1 54,15.1 54,13.3 	"/>
	<rect y="16" class="st0" width="54" height="1.8"/>
</g>
</svg>
