<?xml version="1.0" encoding="utf-8"?>
<!-- Generator: Adobe Illustrator 27.7.0, SVG Export Plug-In . SVG Version: 6.00 Build 0)  -->
<svg version="1.1" id="Layer_1" xmlns="http://www.w3.org/2000/svg" xmlns:xlink="http://www.w3.org/1999/xlink" x="0px" y="0px"
	 viewBox="0 0 54 43" style="enable-background:new 0 0 54 43;" xml:space="preserve">
<style type="text/css">
	.st0{fill:#D2AE74;}
	.st1{fill:#FFFFFF;}
</style>
<g>
	<path class="st0" d="M6,31H4.6v-6.4H6c1.8,0,3.2,1.4,3.2,3.2C9.2,29.6,7.8,31,6,31z"/>
	<path class="st0" d="M10.9,18.4v4.8C9.7,21.8,7.9,21,6,21H2.6v-2.7H10.9z"/>
	<path class="st0" d="M10.9,32.4v4.6H2.6v-2.5H6C7.9,34.5,9.7,33.7,10.9,32.4z"/>
	<path class="st0" d="M16.1,18.4v18.7h8.3V18.4H16.1z M22,34.5h-3.5V21H22V34.5z"/>
	<rect x="29.6" y="18.4" class="st0" width="8.3" height="2.7"/>
	<polygon class="st0" points="33.1,23.9 37.9,23.9 37.9,37.1 29.6,37.1 29.6,34.5 33.1,34.5 33.1,29.1 37.5,29.1 37.5,26.1 
		33.1,26.1 	"/>
	<polygon class="st0" points="51.4,18.4 51.4,22.3 47.3,26 43.1,22.2 43.1,18.4 	"/>
	<polygon class="st0" points="51.4,34.5 51.4,37.1 43.1,37.1 43.1,34.5 44.7,34.5 44.7,28.4 47.3,30.8 49.8,28.4 49.8,34.5 	"/>
	<rect x="1.6" y="37.9" class="st0" width="10.4" height="1.6"/>
	<rect x="15.1" y="37.9" class="st0" width="10.4" height="1.6"/>
	<rect x="28.6" y="37.9" class="st0" width="10.4" height="1.6"/>
	<rect x="42.1" y="37.9" class="st0" width="10.4" height="1.6"/>
	<rect x="0.5" y="40.4" class="st0" width="12.5" height="1.6"/>
	<rect x="14" y="40.4" class="st0" width="12.5" height="1.6"/>
	<rect x="27.5" y="40.4" class="st0" width="12.5" height="1.6"/>
	<rect x="41" y="40.4" class="st0" width="12.5" height="1.6"/>
	<polygon class="st0" points="27,1.1 0,12 0,14.1 54,14.1 54,12 	"/>
	<rect y="15.1" class="st0" width="54" height="2.1"/>
	<g>
		<g>
			<g>
				<path class="st1" d="M6,21H2.6v13.5H6c1.9,0,3.7-0.8,4.9-2.1v-9.3C9.7,21.8,7.9,21,6,21z M6,31H4.6v-6.4H6
					c1.8,0,3.2,1.4,3.2,3.2C9.2,29.6,7.8,31,6,31z"/>
			</g>
		</g>
		<g>
			<g>
				<path class="st1" d="M18.5,21H22v13.5h-3.5V21z"/>
			</g>
		</g>
		<g>
			<g>
				<path class="st1" d="M37.9,23.9V21h-8.3v13.5h3.5v-5.4h4.3v-3h-4.3v-2.2L37.9,23.9L37.9,23.9z"/>
			</g>
		</g>
		<g>
			<g>
				<path class="st1" d="M47.3,26l-4.2-3.8v12.3h0.6v-6.9l3.5,3.2l3.5-3.2v6.9h0.6V22.3L47.3,26z"/>
			</g>
		</g>
		<g>
			<rect x="43.1" y="27.1" class="st1" width="1.6" height="7.4"/>
		</g>
		<g>
			<rect x="49.8" y="27.1" class="st1" width="1.6" height="7.4"/>
		</g>
	</g>
</g>
</svg>
