<svg width="659" height="488" viewBox="0 0 659 488" fill="none" xmlns="http://www.w3.org/2000/svg">
<mask id="mask0_631_2561" style="mask-type:luminance" maskUnits="userSpaceOnUse" x="37" y="32" width="599" height="425">
<path d="M139.449 49.5458C75.8969 92.1056 106.352 131.419 90.7965 186.19C76.8854 235.173 50.4188 243.177 39.2417 312.574C28.9154 376.686 61.7791 391.615 64.8562 456.917L594.15 456.974C585.746 385.116 659.352 365.908 627.362 290.743C580.069 179.622 670.671 114.931 604.523 62.8643C562.52 29.8018 521.427 32.2053 462.122 64.6402C402.817 97.0745 321.7 108.46 291.121 79.734C269.63 59.5449 233.905 32.414 193.15 32.4153C175.917 32.416 157.783 37.267 139.449 49.5458Z" fill="white"/>
</mask>
<g mask="url(#mask0_631_2561)">
<path d="M808.889 456.043H-136.181V0.260254H808.889V456.043Z" fill="#D9ECFF" fill-opacity="0.37"/>
<mask id="mask1_631_2561" style="mask-type:luminance" maskUnits="userSpaceOnUse" x="-137" y="210" width="466" height="247">
<path d="M-136.181 210.672H328.209V456.043H-136.181V210.672Z" fill="white"/>
</mask>
<g mask="url(#mask1_631_2561)">
<g opacity="0.800003">
<path d="M54.4705 218.541V456.043H0.6875V218.541C5.64259 218.541 9.65276 215.014 9.65276 210.672H45.4987C45.4987 215.014 49.5161 218.541 54.4705 218.541Z" fill="url(#paint0_linear_631_2561)" fill-opacity="0.37"/>
<path d="M122.905 218.541V456.043H69.1223V218.541C74.0767 218.541 78.0869 215.014 78.0869 210.672H113.933C113.933 215.014 117.95 218.541 122.905 218.541Z" fill="url(#paint1_linear_631_2561)" fill-opacity="0.37"/>
<path d="M191.34 218.541V456.043H137.557V218.541C142.512 218.541 146.522 215.014 146.522 210.672H182.368C182.368 215.014 186.385 218.541 191.34 218.541Z" fill="url(#paint2_linear_631_2561)" fill-opacity="0.37"/>
<path d="M259.774 218.541V456.043H205.992V218.541C210.946 218.541 214.956 215.014 214.956 210.672H250.802C250.802 215.014 254.82 218.541 259.774 218.541Z" fill="url(#paint3_linear_631_2561)" fill-opacity="0.37"/>
<path d="M328.209 218.541V456.043H274.426V218.541C279.38 218.541 283.391 215.014 283.391 210.672H319.237C319.237 215.014 323.254 218.541 328.209 218.541Z" fill="url(#paint4_linear_631_2561)" fill-opacity="0.37"/>
</g>
</g>
</g>
<mask id="mask2_631_2561" style="mask-type:luminance" maskUnits="userSpaceOnUse" x="37" y="32" width="599" height="425">
<path d="M139.449 49.5458C75.8969 92.1056 106.352 131.419 90.7965 186.19C76.8854 235.173 50.4188 243.177 39.2417 312.574C28.9154 376.686 61.7791 391.615 64.8562 456.917L594.15 456.974C585.746 385.116 659.352 365.908 627.362 290.743C580.069 179.622 670.671 114.931 604.523 62.8643C562.52 29.8018 521.427 32.2053 462.122 64.6402C402.817 97.0745 321.7 108.46 291.121 79.734C269.63 59.5449 233.905 32.414 193.15 32.4153C175.917 32.416 157.783 37.267 139.449 49.5458Z" fill="white"/>
</mask>
<g mask="url(#mask2_631_2561)">
<path d="M54.4706 193.361V0.259521H0.6875V193.361C5.64259 193.361 9.65276 194.522 9.65276 195.951H45.4987C45.4987 194.522 49.5161 193.361 54.4706 193.361Z" fill="url(#paint5_linear_631_2561)"/>
</g>
<path d="M90.7964 186.19C89.8185 189.634 88.7775 192.878 87.6851 195.952H113.933C113.933 194.522 117.95 193.361 122.905 193.361V62.3799C81.5855 100.217 104.779 136.958 90.7964 186.19Z" fill="#D9B97C"/>
<path d="M139.449 49.5461C138.808 49.9748 138.178 50.4028 137.557 50.8307V193.361C142.512 193.361 146.521 194.522 146.521 195.952H182.369C182.369 194.522 186.385 193.361 191.34 193.361V32.4333C174.65 32.7645 157.141 37.6973 139.449 49.5461Z" fill="#D9B97C"/>
<path d="M205.992 193.361C210.946 193.361 214.957 194.522 214.957 195.952H250.802C250.802 194.522 254.82 193.361 259.774 193.361V54.8022C244.126 44.5944 225.809 35.9992 205.992 33.2974V193.361Z" fill="#D9B97C"/>
<path d="M274.426 193.361C279.38 193.361 283.391 194.522 283.391 195.952H319.237C319.237 194.522 323.254 193.361 328.209 193.361V95.0039C312.823 92.9158 299.895 87.9765 291.121 79.7343C286.252 75.1605 280.649 70.2277 274.426 65.3372V193.361Z" fill="#D9B97C"/>
<mask id="mask3_631_2561" style="mask-type:luminance" maskUnits="userSpaceOnUse" x="37" y="32" width="599" height="425">
<path d="M139.449 49.5458C75.8969 92.1056 106.352 131.419 90.7965 186.19C76.8854 235.173 50.4188 243.177 39.2417 312.574C28.9154 376.686 61.7791 391.615 64.8562 456.917L594.15 456.974C585.746 385.116 659.352 365.908 627.362 290.743C580.069 179.622 670.671 114.931 604.523 62.8643C562.52 29.8018 521.427 32.2053 462.122 64.6402C402.817 97.0745 321.7 108.46 291.121 79.734C269.63 59.5449 233.905 32.414 193.15 32.4153C175.917 32.416 157.783 37.267 139.449 49.5458Z" fill="white"/>
</mask>
<g mask="url(#mask3_631_2561)">
<mask id="mask4_631_2561" style="mask-type:luminance" maskUnits="userSpaceOnUse" x="344" y="210" width="465" height="247">
<path d="M344.5 210.672H808.889V456.043H344.5V210.672Z" fill="white"/>
</mask>
<g mask="url(#mask4_631_2561)">
<g opacity="0.800003">
<path d="M535.152 218.541V456.043H481.369V218.541C486.324 218.541 490.334 215.014 490.334 210.672H526.18C526.18 215.014 530.197 218.541 535.152 218.541Z" fill="url(#paint6_linear_631_2561)"/>
<path d="M603.586 218.541V456.043H549.803V218.541C554.759 218.541 558.768 215.014 558.768 210.672H594.615C594.615 215.014 598.631 218.541 603.586 218.541Z" fill="url(#paint7_linear_631_2561)"/>
<path d="M672.021 218.541V456.043H618.238V218.541C623.192 218.541 627.202 215.014 627.202 210.672H663.049C663.049 215.014 667.066 218.541 672.021 218.541Z" fill="url(#paint8_linear_631_2561)"/>
<path d="M466.717 218.541V456.043H412.934V218.541C417.889 218.541 421.899 215.014 421.899 210.672H457.745C457.745 215.014 461.762 218.541 466.717 218.541Z" fill="url(#paint9_linear_631_2561)"/>
<path d="M398.282 218.541V456.043H344.5V218.541C349.454 218.541 353.465 215.014 353.465 210.672H389.311C389.311 215.014 393.328 218.541 398.282 218.541Z" fill="url(#paint10_linear_631_2561)"/>
</g>
</g>
</g>
<path d="M481.369 54.8898V193.361C486.324 193.361 490.333 194.522 490.333 195.952H526.18C526.18 194.522 530.197 193.361 535.152 193.361V39.4075C518.673 40.5552 501.035 45.7961 481.369 54.8898Z" fill="#D9B97C"/>
<path d="M549.803 193.361C554.758 193.361 558.769 194.522 558.769 195.952H594.615C594.615 194.522 598.631 193.361 603.586 193.361V62.1324C585.994 48.5025 568.532 41.0892 549.803 39.4944V193.361Z" fill="#D9B97C"/>
<path d="M618.238 176.061C626.429 135.909 639.332 104.211 618.238 76.5188V176.061Z" fill="url(#paint11_linear_631_2561)"/>
<path d="M462.122 64.6406C446.77 73.0363 429.953 80.0228 412.933 85.267V193.361C417.889 193.361 421.899 194.522 421.899 195.952H457.745C457.745 194.522 461.762 193.361 466.716 193.361V62.1687C465.195 62.9727 463.667 63.7951 462.122 64.6406Z" fill="#D9B97C"/>
<path d="M344.5 96.1603V193.361C349.454 193.361 353.464 194.522 353.464 195.952H389.311C389.311 194.522 393.328 193.361 398.282 193.361V89.3384C379.625 93.959 361.141 96.3789 344.5 96.1603Z" fill="#D9B97C"/>
<mask id="mask5_631_2561" style="mask-type:luminance" maskUnits="userSpaceOnUse" x="0" y="0" width="659" height="488">
<path d="M0 0.669434H658.484V487.948H0V0.669434Z" fill="white"/>
</mask>
<g mask="url(#mask5_631_2561)">
<path d="M83.5221 449.909C83.5221 449.909 72.4023 451.357 63.5996 430.971C54.7964 410.585 54.7964 391.126 54.7964 391.126" stroke="#8AB1DB" stroke-opacity="0.1" stroke-width="4" stroke-miterlimit="10" stroke-linecap="round" stroke-linejoin="round"/>
</g>
<path d="M56.1503 405.025C56.1503 405.025 64.9891 401.319 58.5024 386.029L52.0163 370.74C52.0163 370.74 39.4346 395.759 56.1503 405.025Z" fill="url(#paint12_linear_631_2561)"/>
<path d="M38.3488 405.025C47.0355 421.357 59.2517 418.808 59.2517 418.808C53.7468 394.715 29.6614 388.694 29.6614 388.694L38.3488 405.025Z" fill="url(#paint13_linear_631_2561)"/>
<path d="M59.2517 418.808C59.2517 418.808 65.8004 415.617 71.3599 400.07L76.9202 384.524C76.9202 384.524 50.2713 403.402 59.2517 418.808Z" fill="url(#paint14_linear_631_2561)"/>
<path d="M51.2064 430.971C64.4103 438.152 63.5991 430.971 63.5991 430.971C61.7461 411.396 32.0945 409.543 32.0945 409.543C32.0945 409.543 38.0011 423.79 51.2064 430.971Z" fill="url(#paint15_linear_631_2561)"/>
<path d="M80.7419 397.728C80.7419 397.728 51.7699 417.02 65.0845 434.163C65.0845 434.163 73.733 424.366 78.9752 409.543C82.7035 399 82.022 397.478 81.3174 397.477C81.0316 397.477 80.7419 397.728 80.7419 397.728Z" fill="url(#paint16_linear_631_2561)"/>
<path d="M41.3132 431.133L50.0006 441.558C58.6873 451.983 73.4927 445.568 73.4927 445.568C63.3876 432.549 50.129 430.971 44.2915 430.971C42.4221 430.971 41.3132 431.133 41.3132 431.133Z" fill="url(#paint17_linear_631_2561)"/>
<path d="M71.051 430.971C67.2674 443.574 73.4927 445.568 73.4927 445.568C91.6102 433.986 83.522 412.215 83.522 412.215C83.522 412.215 74.8347 418.369 71.051 430.971Z" fill="url(#paint18_linear_631_2561)"/>
<path d="M34.5184 307.368C29.6423 312.935 29.1116 328.754 59.3676 353.751C89.6257 378.749 111.763 370.973 111.763 370.973C121.723 330.723 54.188 306.586 37.8135 306.587C36.1231 306.587 34.9774 306.845 34.5184 307.368Z" fill="url(#paint19_linear_631_2561)"/>
<mask id="mask6_631_2561" style="mask-type:luminance" maskUnits="userSpaceOnUse" x="0" y="0" width="659" height="488">
<path d="M0 0.669434H658.484V487.948H0V0.669434Z" fill="white"/>
</mask>
<g mask="url(#mask6_631_2561)">
<path d="M111.762 371.664C111.664 371.664 111.564 371.643 111.47 371.599C68.4716 351.538 48.3187 319.658 48.1205 319.339C47.919 319.016 48.0191 318.59 48.3424 318.388C48.6663 318.188 49.0917 318.285 49.2939 318.611C49.4901 318.927 69.4468 350.469 112.054 370.348C112.4 370.509 112.549 370.919 112.388 371.266C112.27 371.516 112.022 371.664 111.762 371.664Z" fill="#E7E6F1"/>
</g>
<path d="M84.2234 324.318C109.034 363.115 137.509 363.58 137.509 363.58C147.447 310.61 98.0878 266.887 78.7382 260.326C77.0183 259.742 75.4524 259.462 74.0426 259.462C59.5888 259.462 61.6183 288.968 84.2234 324.318Z" fill="url(#paint20_linear_631_2561)"/>
<mask id="mask7_631_2561" style="mask-type:luminance" maskUnits="userSpaceOnUse" x="0" y="0" width="659" height="488">
<path d="M0 0.669434H658.484V487.948H0V0.669434Z" fill="white"/>
</mask>
<g mask="url(#mask7_631_2561)">
<path d="M137.509 364.27C137.258 364.27 137.017 364.135 136.895 363.896C136.532 363.192 100.516 293.394 91.8136 283.521C91.5614 283.235 91.589 282.799 91.8748 282.547C92.1613 282.294 92.5978 282.321 92.8494 282.608C101.665 292.609 136.638 360.383 138.122 363.264C138.297 363.603 138.164 364.019 137.825 364.194C137.724 364.247 137.616 364.27 137.509 364.27Z" fill="#E7E6F1"/>
</g>
<path d="M125.276 270.469C118.376 327.594 140.379 357.595 140.379 357.595C200.811 344.515 163.057 189.209 156.046 186.375C155.74 186.251 155.417 186.189 155.074 186.19C147.583 186.193 131.875 215.836 125.276 270.469Z" fill="url(#paint21_linear_631_2561)"/>
<mask id="mask8_631_2561" style="mask-type:luminance" maskUnits="userSpaceOnUse" x="0" y="0" width="659" height="488">
<path d="M0 0.669434H658.484V487.948H0V0.669434Z" fill="white"/>
</mask>
<g mask="url(#mask8_631_2561)">
<path d="M140.378 358.286C140.011 358.286 139.706 357.997 139.689 357.626C137.503 309.215 150.913 215.908 151.776 214.124C151.942 213.78 152.355 213.638 152.698 213.803C153.03 213.964 153.176 214.355 153.035 214.692C152.282 217.079 138.883 309.17 141.069 357.564C141.086 357.945 140.791 358.268 140.41 358.285C140.399 358.286 140.389 358.286 140.378 358.286Z" fill="#E7E6F1"/>
</g>
<path d="M315.931 368.347C315.931 368.347 334.314 367.735 349.314 340.872C364.313 314.009 359.428 302.603 354.283 299.922C354.124 299.839 353.917 299.798 353.669 299.798C345.865 299.794 295.917 339.934 315.931 368.347Z" fill="url(#paint22_linear_631_2561)"/>
<mask id="mask9_631_2561" style="mask-type:luminance" maskUnits="userSpaceOnUse" x="0" y="0" width="659" height="488">
<path d="M0 0.669434H658.484V487.948H0V0.669434Z" fill="white"/>
</mask>
<g mask="url(#mask9_631_2561)">
<path d="M315.932 369.038C315.76 369.038 315.588 368.974 315.454 368.846C315.178 368.583 315.168 368.146 315.432 367.87C340.876 341.272 346.485 312.595 346.538 312.309C346.609 311.934 346.973 311.687 347.344 311.757C347.719 311.827 347.966 312.187 347.896 312.562C347.842 312.853 342.172 341.915 316.431 368.825C316.295 368.967 316.113 369.038 315.932 369.038Z" fill="#E7E6F1"/>
</g>
<path d="M308.606 278.123C296.334 288.418 272.702 334.391 295.02 370.265C295.02 370.265 315.691 361.832 322.788 326.434C328.736 296.771 323.372 275.668 314.258 275.667C312.496 275.667 310.593 276.456 308.606 278.123Z" fill="url(#paint23_linear_631_2561)"/>
<mask id="mask10_631_2561" style="mask-type:luminance" maskUnits="userSpaceOnUse" x="0" y="0" width="659" height="488">
<path d="M0 0.669434H658.484V487.948H0V0.669434Z" fill="white"/>
</mask>
<g mask="url(#mask10_631_2561)">
<path d="M295.021 370.955C294.997 370.955 294.973 370.954 294.949 370.951C294.569 370.911 294.294 370.572 294.333 370.192C294.6 367.666 300.887 308.191 304.49 298.364C304.622 298.005 305.017 297.821 305.376 297.953C305.734 298.084 305.918 298.48 305.787 298.838C302.242 308.508 295.772 369.72 295.707 370.337C295.67 370.692 295.37 370.955 295.021 370.955Z" fill="#E7E6F1"/>
</g>
<path d="M231.106 246.072C226.789 250.136 243.353 374.331 291.222 366.708C291.222 366.708 298.768 338.536 277.489 298.763C258.258 262.815 239.426 245.487 232.793 245.485C232.088 245.485 231.52 245.681 231.106 246.072Z" fill="url(#paint24_linear_631_2561)"/>
<mask id="mask11_631_2561" style="mask-type:luminance" maskUnits="userSpaceOnUse" x="0" y="0" width="659" height="488">
<path d="M0 0.669434H658.484V487.948H0V0.669434Z" fill="white"/>
</mask>
<g mask="url(#mask11_631_2561)">
<path d="M291.222 367.399C290.934 367.399 290.665 367.218 290.568 366.93C278.305 330.647 242.391 267.424 241.235 265.992C240.955 265.733 240.959 265.316 241.219 265.037C241.479 264.758 241.936 264.763 242.214 265.022C243.353 266.082 279.707 330.482 291.877 366.487C291.998 366.849 291.804 367.241 291.443 367.363C291.37 367.388 291.295 367.399 291.222 367.399Z" fill="#E7E6F1"/>
</g>
<path d="M576.491 264.814C568.151 281.319 552.487 316.016 562.129 328.289C562.129 328.289 579.951 324.64 596.059 269.852C602.701 247.26 601.956 239.637 598.202 239.637C592.853 239.635 581.392 255.115 576.491 264.814Z" fill="url(#paint25_linear_631_2561)"/>
<mask id="mask12_631_2561" style="mask-type:luminance" maskUnits="userSpaceOnUse" x="0" y="0" width="659" height="488">
<path d="M0 0.669434H658.484V487.948H0V0.669434Z" fill="white"/>
</mask>
<g mask="url(#mask12_631_2561)">
<path d="M562.129 328.979C562.046 328.979 561.963 328.965 561.881 328.933C561.525 328.796 561.347 328.397 561.484 328.041L585.871 264.567C586.008 264.21 586.406 264.033 586.763 264.17C587.119 264.306 587.297 264.706 587.16 265.062L562.773 328.536C562.667 328.81 562.406 328.979 562.129 328.979Z" fill="#E7E6F1"/>
</g>
<path d="M566.306 345.229C566.306 345.229 582.515 334.468 590.855 308.589C593.627 299.983 591.842 295.77 588.223 295.769C580.961 295.766 566.311 312.738 566.306 345.229Z" fill="url(#paint26_linear_631_2561)"/>
<path d="M284.339 132.468L245.459 210.977C245.314 211.271 245.33 211.618 245.503 211.896C245.675 212.174 245.98 212.344 246.307 212.344H324.067C324.394 212.344 324.698 212.174 324.87 211.896C325.044 211.618 325.06 211.271 324.915 210.977L286.034 132.468C285.875 132.146 285.531 131.984 285.187 131.984C284.843 131.984 284.499 132.146 284.339 132.468ZM285.187 135.02L322.543 210.451H247.831L285.187 135.02Z" fill="url(#paint27_linear_631_2561)"/>
<path d="M244.415 209.506V224.347C244.415 240.022 257.122 252.729 272.797 252.729H297.577C313.252 252.729 325.958 240.022 325.958 224.347V209.506H244.415Z" fill="url(#paint28_linear_631_2561)"/>
<path d="M244.415 209.506V211.957C244.415 214.443 244.649 216.872 245.075 219.235H325.298C325.725 216.872 325.958 214.443 325.958 211.957V209.506H244.415Z" fill="url(#paint29_linear_631_2561)"/>
<path d="M91.2691 131.942C90.9129 131.942 90.5869 132.142 90.4256 132.46L50.5998 210.969C50.451 211.262 50.4655 211.612 50.6373 211.893C50.8092 212.172 51.1141 212.344 51.4433 212.344H130.149C130.477 212.344 130.781 212.174 130.953 211.896C131.126 211.618 131.142 211.271 130.997 210.977L92.1166 132.468C91.9579 132.147 91.6319 131.944 91.2744 131.942H91.2691ZM91.2592 134.999L128.625 210.451H52.9842L91.2592 134.999Z" fill="url(#paint30_linear_631_2561)"/>
<path d="M50.4973 209.506V224.347C50.4973 240.022 63.2047 252.729 78.8793 252.729H103.659C119.334 252.729 132.041 240.022 132.041 224.347V209.506H50.4973Z" fill="url(#paint31_linear_631_2561)"/>
<path d="M50.4973 209.506V211.957C50.4973 214.443 50.7323 216.872 51.1584 219.235H131.38C131.806 216.872 132.041 214.443 132.041 211.957V209.506H50.4973Z" fill="url(#paint32_linear_631_2561)"/>
<path d="M177.956 119.39L163.778 456.917H212.21L198.032 119.39H177.956Z" fill="#AE851F"/>
<path d="M173.274 104.67C173.274 112.8 179.864 119.39 187.994 119.39C196.124 119.39 202.714 112.8 202.714 104.67C202.714 96.5415 196.124 89.9507 187.994 89.9507C179.864 89.9507 173.274 96.5415 173.274 104.67Z" fill="url(#paint33_linear_631_2561)"/>
<path d="M96.8176 132.888C94.536 132.888 92.6863 134.737 92.6863 137.019V140.626C92.6863 142.907 94.536 144.757 96.8176 144.757H280.021C282.303 144.757 284.152 142.907 284.152 140.626V137.019C284.152 134.737 282.303 132.888 280.021 132.888H96.8176Z" fill="#AE851F"/>
<path d="M85.335 138.823C85.335 142.101 87.992 144.757 91.2693 144.757C94.5465 144.757 97.2035 142.101 97.2035 138.823C97.2035 135.545 94.5465 132.888 91.2693 132.888C87.992 132.888 85.335 135.545 85.335 138.823Z" fill="url(#paint34_linear_631_2561)"/>
<path d="M175.25 119.39C174.159 119.39 173.274 120.275 173.274 121.366V154.943C173.274 156.035 174.159 156.919 175.25 156.919H200.738C201.829 156.919 202.714 156.035 202.714 154.943V121.366C202.714 120.275 201.829 119.39 200.738 119.39H175.25Z" fill="url(#paint35_linear_631_2561)"/>
<path d="M279.253 138.823C279.253 142.101 281.909 144.757 285.186 144.757C288.464 144.757 291.121 142.101 291.121 138.823C291.121 135.545 288.464 132.888 285.186 132.888C281.909 132.888 279.253 135.545 279.253 138.823Z" fill="url(#paint36_linear_631_2561)"/>
<path d="M346.562 456.917H573.767V114.931H346.562V456.917Z" fill="url(#paint37_linear_631_2561)"/>
<mask id="mask13_631_2561" style="mask-type:luminance" maskUnits="userSpaceOnUse" x="0" y="0" width="659" height="488">
<path d="M0 0.669434H658.484V487.948H0V0.669434Z" fill="white"/>
</mask>
<g mask="url(#mask13_631_2561)">
<path d="M513.136 149.274H402.397C400.928 149.274 399.736 148.083 399.736 146.613V144.29C399.736 142.821 400.928 141.629 402.397 141.629H513.136C514.605 141.629 515.797 142.821 515.797 144.29V146.613C515.797 148.083 514.605 149.274 513.136 149.274Z" fill="#80A8D0"/>
<path d="M378.927 436.823H541.531C541.713 427.359 549.377 419.641 558.839 419.395V150.664C549.308 150.481 541.59 142.763 541.408 133.234H378.927C378.745 142.763 371.026 150.481 361.496 150.664V419.393C371.026 419.576 378.745 427.293 378.927 436.823ZM541.873 437.514H378.584C378.394 437.514 378.239 437.359 378.239 437.168C378.239 427.746 370.573 420.08 361.151 420.08C360.96 420.08 360.805 419.926 360.805 419.735V150.321C360.805 150.131 360.96 149.976 361.151 149.976C370.573 149.976 378.239 142.31 378.239 132.888C378.239 132.698 378.394 132.543 378.584 132.543H541.75C541.941 132.543 542.095 132.698 542.095 132.888C542.095 142.31 549.761 149.976 559.184 149.976C559.375 149.976 559.529 150.131 559.529 150.321V419.735C559.529 419.925 559.376 420.079 559.186 420.08C549.83 420.145 542.218 427.811 542.218 437.168C542.218 437.359 542.064 437.514 541.873 437.514Z" fill="#7F8DC6"/>
<path d="M515.797 157.609H399.736C399.354 157.609 399.045 157.3 399.045 156.919C399.045 156.537 399.354 156.228 399.736 156.228H515.797C516.179 156.228 516.488 156.537 516.488 156.919C516.488 157.3 516.179 157.609 515.797 157.609Z" fill="#7F8DC6"/>
<path d="M540.121 184.019H376.802C376.42 184.019 376.111 183.709 376.111 183.328C376.111 182.947 376.42 182.638 376.802 182.638H540.121C540.503 182.638 540.812 182.947 540.812 183.328C540.812 183.709 540.503 184.019 540.121 184.019Z" fill="#7F8DC6"/>
<path d="M540.121 202.938H376.802C376.42 202.938 376.111 202.628 376.111 202.247C376.111 201.865 376.42 201.556 376.802 201.556H540.121C540.503 201.556 540.812 201.865 540.812 202.247C540.812 202.628 540.503 202.938 540.121 202.938Z" fill="#7F8DC6"/>
<path d="M540.121 297.531H526.453C526.072 297.531 525.762 297.222 525.762 296.841C525.762 296.459 526.072 296.15 526.453 296.15H540.121C540.503 296.15 540.812 296.459 540.812 296.841C540.812 297.222 540.503 297.531 540.121 297.531Z" fill="#7F8DC6"/>
<path d="M412.477 297.531H376.801C376.42 297.531 376.111 297.222 376.111 296.841C376.111 296.459 376.42 296.15 376.801 296.15H412.477C412.859 296.15 413.168 296.459 413.168 296.841C413.168 297.222 412.859 297.531 412.477 297.531Z" fill="#7F8DC6"/>
<path d="M540.121 278.612H526.453C526.072 278.612 525.762 278.303 525.762 277.921C525.762 277.54 526.072 277.231 526.453 277.231H540.121C540.503 277.231 540.812 277.54 540.812 277.921C540.812 278.303 540.503 278.612 540.121 278.612Z" fill="#7F8DC6"/>
<path d="M412.477 278.612H376.801C376.42 278.612 376.111 278.303 376.111 277.921C376.111 277.54 376.42 277.231 376.801 277.231H412.477C412.859 277.231 413.168 277.54 413.168 277.921C413.168 278.303 412.859 278.612 412.477 278.612Z" fill="#7F8DC6"/>
<path d="M540.121 259.694H526.453C526.072 259.694 525.762 259.385 525.762 259.003C525.762 258.622 526.072 258.312 526.453 258.312H540.121C540.503 258.312 540.812 258.622 540.812 259.003C540.812 259.385 540.503 259.694 540.121 259.694Z" fill="#7F8DC6"/>
<path d="M412.477 259.694H376.801C376.42 259.694 376.111 259.385 376.111 259.003C376.111 258.622 376.42 258.312 376.801 258.312H412.477C412.859 258.312 413.168 258.622 413.168 259.003C413.168 259.385 412.859 259.694 412.477 259.694Z" fill="#7F8DC6"/>
<path d="M540.121 240.775H510.237C509.856 240.775 509.546 240.466 509.546 240.085C509.546 239.703 509.856 239.394 510.237 239.394H540.121C540.503 239.394 540.812 239.703 540.812 240.085C540.812 240.466 540.503 240.775 540.121 240.775Z" fill="#7F8DC6"/>
<path d="M424.06 240.775H376.801C376.42 240.775 376.111 240.466 376.111 240.085C376.111 239.703 376.42 239.394 376.801 239.394H424.06C424.441 239.394 424.751 239.703 424.751 240.085C424.751 240.466 424.441 240.775 424.06 240.775Z" fill="#7F8DC6"/>
<path d="M540.121 221.856H501.897C501.516 221.856 501.207 221.547 501.207 221.166C501.207 220.784 501.516 220.475 501.897 220.475H540.121C540.503 220.475 540.812 220.784 540.812 221.166C540.812 221.547 540.503 221.856 540.121 221.856Z" fill="#7F8DC6"/>
<path d="M436.107 221.856H376.802C376.42 221.856 376.111 221.547 376.111 221.166C376.111 220.784 376.42 220.475 376.802 220.475H436.107C436.488 220.475 436.797 220.784 436.797 221.166C436.797 221.547 436.488 221.856 436.107 221.856Z" fill="#7F8DC6"/>
<path d="M523.673 161.914C508.981 161.914 497.028 173.867 497.028 188.56C497.028 203.251 508.981 215.205 523.673 215.205C538.365 215.205 550.319 203.251 550.319 188.56C550.319 173.867 538.365 161.914 523.673 161.914ZM523.673 216.586C508.22 216.586 495.647 204.013 495.647 188.56C495.647 173.106 508.22 160.533 523.673 160.533C539.127 160.533 551.7 173.106 551.7 188.56C551.7 204.013 539.127 216.586 523.673 216.586Z" fill="#AE851F"/>
<path d="M523.673 167.291C511.946 167.291 502.404 176.832 502.404 188.56C502.404 200.288 511.946 209.828 523.673 209.828C535.402 209.828 544.942 200.288 544.942 188.56C544.942 176.832 535.402 167.291 523.673 167.291ZM523.673 211.21C511.184 211.21 501.023 201.049 501.023 188.56C501.023 176.07 511.184 165.91 523.673 165.91C536.163 165.91 546.322 176.07 546.322 188.56C546.322 201.049 536.163 211.21 523.673 211.21Z" fill="#AE851F"/>
<path d="M523.673 176.837C517.21 176.837 511.951 182.096 511.951 188.56C511.951 195.024 517.21 200.282 523.673 200.282C530.137 200.282 535.396 195.024 535.396 188.56C535.396 182.096 530.137 176.837 523.673 176.837ZM523.673 201.663C516.448 201.663 510.57 195.785 510.57 188.56C510.57 181.334 516.448 175.456 523.673 175.456C530.899 175.456 536.777 181.334 536.777 188.56C536.777 195.785 530.899 201.663 523.673 201.663Z" fill="#AE851F"/>
</g>
<path d="M204.833 300.855L203.136 306.69C202.064 310.381 204.186 314.243 207.878 315.316L343.83 354.83C347.522 355.903 351.383 353.781 352.456 350.089L354.152 344.255C355.225 340.562 353.102 336.702 349.412 335.628L213.459 296.114C212.81 295.925 212.156 295.836 211.513 295.836C208.497 295.836 205.717 297.812 204.833 300.855Z" fill="url(#paint38_linear_631_2561)"/>
<path d="M148.078 301.686C148.078 319.374 157.066 333.713 168.152 333.713C179.24 333.713 188.228 319.374 188.228 301.686C188.228 283.998 179.24 269.659 168.152 269.659C157.066 269.659 148.078 283.998 148.078 301.686Z" fill="url(#paint39_linear_631_2561)"/>
<path d="M157.537 301.686C157.537 319.374 166.525 333.713 177.612 333.713C188.699 333.713 197.688 319.374 197.688 301.686C197.688 283.998 188.699 269.659 177.612 269.659C166.525 269.659 157.537 283.998 157.537 301.686Z" fill="url(#paint40_linear_631_2561)"/>
<path d="M180.352 278.115C172.938 278.115 166.928 284.125 166.928 291.54V313.229C166.928 320.644 172.938 326.653 180.352 326.653H252.052C254.676 326.653 256.803 324.526 256.803 321.903V282.866C256.803 280.243 254.676 278.115 252.052 278.115H180.352Z" fill="url(#paint41_linear_631_2561)"/>
<path d="M233.212 301.686C233.212 319.374 242.2 333.713 253.287 333.713C264.375 333.713 273.363 319.374 273.363 301.686C273.363 283.998 264.375 269.659 253.287 269.659C242.2 269.659 233.212 283.998 233.212 301.686Z" fill="url(#paint42_linear_631_2561)"/>
<path d="M242.671 301.686C242.671 319.374 251.66 333.713 262.747 333.713C273.834 333.713 282.822 319.374 282.822 301.686C282.822 283.998 273.834 269.659 262.747 269.659C251.66 269.659 242.671 283.998 242.671 301.686Z" fill="url(#paint43_linear_631_2561)"/>
<path d="M253.49 301.686C253.49 309.842 257.634 316.454 262.747 316.454C267.86 316.454 272.004 309.842 272.004 301.686C272.004 293.53 267.86 286.918 262.747 286.918C257.634 286.918 253.49 293.53 253.49 301.686Z" fill="url(#paint44_linear_631_2561)"/>
<path d="M227.404 278.115C223.416 283.969 220.915 292.363 220.915 301.691C220.915 311.784 223.847 320.784 228.424 326.653H237.886C233.307 320.785 230.375 311.785 230.375 301.691C230.375 292.361 232.876 283.968 236.867 278.115H227.404Z" fill="url(#paint45_linear_631_2561)"/>
<path d="M186.213 278.115C183.762 278.115 181.427 278.59 179.27 279.424C175.774 285.188 173.619 293.035 173.619 301.691C173.619 311.305 176.283 319.92 180.49 325.79C182.298 326.35 184.22 326.653 186.213 326.653H190.589C186.01 320.785 183.078 311.785 183.078 301.691C183.078 292.361 185.579 283.968 189.569 278.115H186.213Z" fill="url(#paint46_linear_631_2561)"/>
<path d="M142.318 332.767C139.824 332.767 137.802 334.789 137.802 337.282V339.253H298.775V337.282C298.775 334.789 296.753 332.767 294.259 332.767H142.318Z" fill="url(#paint47_linear_631_2561)"/>
<path d="M137.012 338.308C131.312 338.308 126.692 342.928 126.692 348.628V353.134H309.886V348.628C309.886 342.928 305.265 338.308 299.565 338.308H137.012Z" fill="url(#paint48_linear_631_2561)"/>
<path d="M103.715 353.134C90.0517 353.134 78.9753 364.21 78.9753 377.873V380.285C78.9753 393.949 90.0517 405.025 103.715 405.025H388.549C392.237 405.025 395.228 402.036 395.228 398.347V359.812C395.228 356.124 392.237 353.134 388.549 353.134H103.715Z" fill="url(#paint49_linear_631_2561)"/>
<path d="M108.782 358.089C95.9136 358.089 85.4812 367.487 85.4812 379.08C85.4812 390.672 95.9136 400.07 108.782 400.07H390.089V358.089H108.782Z" fill="url(#paint50_linear_631_2561)"/>
<mask id="mask14_631_2561" style="mask-type:luminance" maskUnits="userSpaceOnUse" x="0" y="0" width="659" height="488">
<path d="M0 0.669434H658.484V487.948H0V0.669434Z" fill="white"/>
</mask>
<g mask="url(#mask14_631_2561)">
<path d="M316.687 379.425H106.224C106.034 379.425 105.879 379.27 105.879 379.08C105.879 378.889 106.034 378.734 106.224 378.734H316.687C316.877 378.734 317.032 378.889 317.032 379.08C317.032 379.27 316.877 379.425 316.687 379.425Z" fill="black"/>
<path d="M335.605 369.965H106.225C106.034 369.965 105.88 369.811 105.88 369.62C105.88 369.429 106.034 369.274 106.225 369.274H335.605C335.796 369.274 335.95 369.429 335.95 369.62C335.95 369.811 335.796 369.965 335.605 369.965Z" fill="black"/>
<path d="M326.146 388.884H106.225C106.034 388.884 105.88 388.73 105.88 388.539C105.88 388.348 106.034 388.193 106.225 388.193H326.146C326.337 388.193 326.491 388.348 326.491 388.539C326.491 388.73 326.337 388.884 326.146 388.884Z" fill="black"/>
</g>
<path d="M80.7422 456.917H396.995V405.025H80.7422V456.917Z" fill="#AE851F"/>
<path d="M102.793 456.917H114.885V405.025H102.793V456.917Z" fill="#7CA4CC"/>
<path d="M119.389 456.917H156.377V405.025H119.389V456.917Z" fill="#7BA3CB"/>
<path d="M160.882 456.917H172.975V405.025H160.882V456.917Z" fill="#F6F8FA"/>
<mask id="mask15_631_2561" style="mask-type:luminance" maskUnits="userSpaceOnUse" x="0" y="0" width="659" height="488">
<path d="M0 0.669434H658.484V487.948H0V0.669434Z" fill="white"/>
</mask>
<g mask="url(#mask15_631_2561)">
<path d="M127.251 415.798C126.68 415.798 126.216 416.262 126.216 416.833V445.108C126.216 445.679 126.68 446.144 127.251 446.144H148.515C149.087 446.144 149.551 445.679 149.551 445.108V416.833C149.551 416.262 149.087 415.798 148.515 415.798H127.251ZM148.515 448.216H127.251C125.537 448.216 124.144 446.822 124.144 445.108V416.833C124.144 415.12 125.537 413.726 127.251 413.726H148.515C150.229 413.726 151.623 415.12 151.623 416.833V445.108C151.623 446.822 150.229 448.216 148.515 448.216Z" fill="#EFF3F6"/>
</g>
<path d="M108.987 378.734V420.896L121.033 406.707L133.08 420.896V378.734H108.987Z" fill="url(#paint51_linear_631_2561)"/>
<path d="M584.031 378.286C579.647 400.501 580.504 409.739 580.504 409.739C580.504 409.739 573.159 389.415 565.852 381.38C558.545 373.345 567.781 388.718 570.481 397.645C573.181 406.573 578.241 421.892 578.241 421.892C578.241 421.892 567.943 401.656 560.869 400.606C554.802 399.706 574.069 416.505 574.867 424.355L575.71 432.629L589.563 431.843C589.563 431.843 587.124 423.599 601.285 407.692C615.445 391.784 617.926 384.722 606.577 395.873C595.228 407.023 588.88 418.192 588.88 418.192C588.88 418.192 594.752 385.016 604.362 371.157C613.973 357.298 597.286 373.778 591.276 390.497L585.266 407.216C585.266 407.216 584.371 380.821 592.759 360.06C595.447 353.406 595.966 350.607 595.286 350.606C593.845 350.605 587.01 363.189 584.031 378.286Z" fill="url(#paint52_linear_631_2561)"/>
<path d="M569.145 430.044C567.328 430.044 565.98 431.728 566.375 433.5L571.122 454.755C571.411 456.053 572.562 456.974 573.891 456.974H594.15C595.479 456.974 596.63 456.053 596.919 454.755L601.666 433.5C602.062 431.728 600.712 430.044 598.896 430.044H569.145Z" fill="#AE851F"/>
<path d="M569.145 430.044C567.328 430.044 565.98 431.728 566.375 433.5L571.122 454.755C571.411 456.053 572.562 456.974 573.891 456.974H588.474C589.803 456.974 590.955 456.053 591.244 454.755L595.99 433.5C596.385 431.728 595.037 430.044 593.22 430.044H569.145Z" fill="#D3B26D"/>
<path d="M246.494 311.52L248.927 392.063C248.927 392.063 247.189 394.905 244.061 408.487C240.934 422.068 244.061 444.178 244.061 444.178H257.266L270.47 393.642V348.791L278.81 393.642C278.81 393.642 276.725 395.853 278.81 410.066C280.895 424.279 288.888 444.178 288.888 444.178H301.832L297.922 311.52H246.494Z" fill="url(#paint53_linear_631_2561)"/>
<path d="M288.888 444.178C288.888 444.178 289.93 451.863 288.888 453.337C287.845 454.811 288.888 456.917 288.888 456.917H320.277C320.277 456.917 322.593 452.284 317.034 451.863C311.474 451.443 306.74 448.915 304.59 447.231C302.439 445.547 301.832 444.178 301.832 444.178H288.888Z" fill="url(#paint54_linear_631_2561)"/>
<path d="M244.428 444.178C244.428 444.178 245.47 451.863 244.428 453.337C243.386 454.811 244.428 456.917 244.428 456.917H275.818C275.818 456.917 278.135 452.284 272.575 451.863C267.015 451.443 262.281 448.915 260.131 447.231C257.98 445.547 257.373 444.178 257.373 444.178H244.428Z" fill="url(#paint55_linear_631_2561)"/>
<mask id="mask16_631_2561" style="mask-type:luminance" maskUnits="userSpaceOnUse" x="0" y="0" width="659" height="488">
<path d="M0 0.669434H658.484V487.948H0V0.669434Z" fill="white"/>
</mask>
<g mask="url(#mask16_631_2561)">
<mask id="mask17_631_2561" style="mask-type:luminance" maskUnits="userSpaceOnUse" x="253" y="325" width="18" height="120">
<path d="M253.836 325.944H270.47V444.177H253.836V325.944Z" fill="white"/>
</mask>
<g mask="url(#mask17_631_2561)">
<g opacity="0.25">
<path d="M262.034 369.321C266.533 383.64 258.656 415.072 256.803 425.045C255.599 431.526 254.475 439.433 253.836 444.178H257.266L270.47 393.642V348.791L258.389 325.944C258.389 325.944 257.536 355.003 262.034 369.321Z" fill="#281D4C"/>
</g>
</g>
</g>
<path d="M263.521 196.19C260.741 199.666 264.737 210.438 264.737 210.438L261.783 231.171H278.231V216.461C278.231 216.461 281.937 218.199 284.059 217.851C286.179 217.504 287.96 214.26 287.96 214.26L286.686 212.139C285.412 210.018 285.373 207.195 285.373 207.195V204.067C286.143 202.446 288.772 200.824 286.686 199.898C284.602 198.971 284.059 193.081 284.059 193.081C282.24 190.924 279.773 190.107 277.167 190.107C271.608 190.107 265.413 193.825 263.521 196.19Z" fill="url(#paint56_linear_631_2561)"/>
<mask id="mask18_631_2561" style="mask-type:luminance" maskUnits="userSpaceOnUse" x="0" y="0" width="659" height="488">
<path d="M0 0.669434H658.484V487.948H0V0.669434Z" fill="white"/>
</mask>
<g mask="url(#mask18_631_2561)">
<mask id="mask19_631_2561" style="mask-type:luminance" maskUnits="userSpaceOnUse" x="272" y="206" width="8" height="16">
<path d="M272.497 206.485H279.754V221.216H272.497V206.485Z" fill="white"/>
</mask>
<g mask="url(#mask19_631_2561)">
<g opacity="0.25">
<path d="M279.252 213.72L272.496 206.485C272.496 206.485 274.524 215.535 276.378 218.894C276.98 219.986 277.629 220.719 278.231 221.216V216.461C278.231 216.461 278.865 216.757 279.754 217.079L279.252 213.72Z" fill="#281D4C"/>
</g>
</g>
</g>
<path d="M269.428 198.102C269.428 198.102 270.297 208.107 273.077 212.139C275.857 216.172 278.231 216.461 278.231 216.461C278.231 216.461 281.937 218.198 284.059 217.851C286.179 217.504 287.96 214.26 287.96 214.26L286.686 212.139C282.822 214.624 277.79 212.006 274.228 205.597C270.117 198.2 269.46 198.102 269.428 198.102Z" fill="url(#paint57_linear_631_2561)"/>
<path d="M275.799 175.11C269.312 178.353 269.08 183.449 259.351 185.998C249.621 188.546 248.463 204.067 253.327 208.7C258.192 213.334 263.981 215.741 263.981 215.741C263.981 215.741 270.318 212.139 265.142 208.006C261.805 205.34 265.085 199.84 267.459 200.824C269.761 201.779 270.416 203.175 273.766 199.728C276.361 197.06 279.513 195.043 282.951 193.614C285.529 192.542 288.424 190.284 289.698 185.534C291.671 178.183 286.148 174.023 280.543 174.023C278.907 174.023 277.265 174.377 275.799 175.11Z" fill="url(#paint58_linear_631_2561)"/>
<path d="M279.988 199.898C279.988 200.617 280.265 201.201 280.605 201.201C280.947 201.201 281.223 200.617 281.223 199.898C281.223 199.178 280.947 198.595 280.605 198.595C280.265 198.595 279.988 199.178 279.988 199.898Z" fill="url(#paint59_linear_631_2561)"/>
<mask id="mask20_631_2561" style="mask-type:luminance" maskUnits="userSpaceOnUse" x="0" y="0" width="659" height="488">
<path d="M0 0.669434H658.484V487.948H0V0.669434Z" fill="white"/>
</mask>
<g mask="url(#mask20_631_2561)">
<path d="M282.972 209.78C282.375 209.78 281.721 209.525 281.021 209.019C280.866 208.907 280.832 208.691 280.943 208.537C281.054 208.382 281.271 208.348 281.425 208.46C282.124 208.965 282.733 209.167 283.237 209.063C283.736 208.959 283.965 208.582 283.974 208.566C284.071 208.403 284.282 208.347 284.446 208.442C284.61 208.537 284.667 208.745 284.573 208.91C284.559 208.936 284.195 209.561 283.396 209.735C283.258 209.765 283.116 209.78 282.972 209.78Z" fill="#B56361"/>
<path d="M277.024 196.401C276.957 196.401 276.89 196.382 276.831 196.341C276.673 196.235 276.632 196.02 276.739 195.862C277.665 194.497 278.743 193.733 279.944 193.593C281.679 193.389 283 194.577 283.055 194.627C283.196 194.756 283.205 194.974 283.077 195.115C282.949 195.255 282.732 195.265 282.59 195.138C282.579 195.127 281.44 194.108 280.017 194.279C279.028 194.397 278.118 195.061 277.31 196.25C277.244 196.348 277.135 196.401 277.024 196.401Z" fill="#B56361"/>
</g>
<path d="M302.922 253.829L316.687 264.172V234.689L302.922 228.527V253.829Z" fill="url(#paint60_linear_631_2561)"/>
<path d="M306.146 244.608C304.06 247.157 299.891 249.936 299.891 249.936V258.507L295.201 264.202C296.072 273.836 302.903 269.627 302.903 269.627L305.914 262.445C305.914 262.445 308.463 260.824 308.463 258.739C308.463 256.654 307.072 254.801 305.219 254.134C303.366 253.467 302.903 252.021 304.524 250.631C305.905 249.447 307.621 244.065 306.814 244.065C306.673 244.065 306.456 244.229 306.146 244.608Z" fill="url(#paint61_linear_631_2561)"/>
<path d="M290.106 269.164C285.992 271.944 286.223 284.684 294.331 283.064C294.331 283.064 302.439 270.322 302.903 269.627C303.366 268.931 295.722 262.445 295.722 262.445C295.722 262.445 294.221 266.384 290.106 269.164Z" fill="url(#paint62_linear_631_2561)"/>
<mask id="mask21_631_2561" style="mask-type:luminance" maskUnits="userSpaceOnUse" x="0" y="0" width="659" height="488">
<path d="M0 0.669434H658.484V487.948H0V0.669434Z" fill="white"/>
</mask>
<g mask="url(#mask21_631_2561)">
<mask id="mask22_631_2561" style="mask-type:luminance" maskUnits="userSpaceOnUse" x="289" y="265" width="12" height="19">
<path d="M289.96 265.739H300.029V283.063H289.96V265.739Z" fill="white"/>
</mask>
<g mask="url(#mask22_631_2561)">
<g opacity="0.149994">
<path d="M297.922 272.825C295.945 272.406 294.518 268.495 293.75 265.739C292.877 266.859 291.686 268.096 290.106 269.164C290.056 269.198 290.009 269.241 289.96 269.278C289.952 274.639 292.561 281.883 294.331 283.064C294.331 283.064 297.485 278.105 300.029 274.118C299.644 273.109 298.829 273.018 297.922 272.825Z" fill="#281D4C"/>
</g>
</g>
</g>
<path d="M261.716 225.982C261.716 225.982 255.194 228.414 250.462 250.305C245.731 272.197 246.427 307.987 246.427 307.989L246.575 313.401C251.817 315.95 259.072 317.835 269.013 317.62C284.715 317.279 293.369 315.013 297.99 313.041L297.855 307.989C297.854 307.987 294.611 256.908 287.893 240.576C282.828 228.261 279.012 225.232 271.036 225.232C268.434 225.232 265.391 225.554 261.716 225.982Z" fill="url(#paint63_linear_631_2561)"/>
<mask id="mask23_631_2561" style="mask-type:luminance" maskUnits="userSpaceOnUse" x="0" y="0" width="659" height="488">
<path d="M0 0.669434H658.484V487.948H0V0.669434Z" fill="white"/>
</mask>
<g mask="url(#mask23_631_2561)">
<mask id="mask24_631_2561" style="mask-type:luminance" maskUnits="userSpaceOnUse" x="262" y="243" width="36" height="57">
<path d="M262.734 243.315H297.258V299.553H262.734V243.315Z" fill="white"/>
</mask>
<g mask="url(#mask24_631_2561)">
<g opacity="0.25">
<path d="M296.715 293.286C295.372 290.742 293.531 290.097 290.106 283.366C278.463 260.476 265.795 234.307 262.747 246.349C262.747 246.349 262.131 260.801 269.428 270.542C276.726 280.283 278.073 293.747 280.527 296.398C282.513 298.543 293.245 299.331 297.258 299.553C297.187 298.686 296.798 294.248 296.715 293.286Z" fill="#281D4C"/>
</g>
</g>
</g>
<path d="M341.474 269.048C338.63 271.624 333.945 274.817 333.945 274.817L327.272 275.959C325.599 283.23 330.525 284.92 330.525 284.92L336.769 281.423C336.769 281.423 348.564 280.457 350.306 279.067C352.047 277.676 352.597 276.222 353.683 273.996C354.147 273.047 354.556 271.399 354.811 270.228C354.892 269.859 354.427 269.627 354.178 269.912L350.071 274.241C350.071 274.241 351.541 272.583 352.425 269.297C353.52 265.225 350.162 269.28 350.162 269.28C350.162 269.28 349.095 270.177 346.367 272.289C344.244 273.932 340.668 274.041 340.668 274.041C340.668 274.041 343.2 271.84 344.37 269.164C344.962 267.809 344.941 267.136 344.407 267.136C343.886 267.136 342.878 267.776 341.474 269.048Z" fill="url(#paint64_linear_631_2561)"/>
<path d="M262.105 244.633C261.825 247.027 262.312 250.242 264.679 254.338C270.702 264.762 276.494 269.511 281.243 280.631C285.992 291.75 291.551 294.646 300.701 293.488C309.852 292.33 331.397 285.38 331.397 285.38L327.362 275.65C327.362 275.65 314.717 278.893 307.072 278.661C299.427 278.431 297.922 279.588 297.922 279.588C297.922 279.588 284.791 253.411 280.527 247.388C277.321 242.861 274.824 238.072 270.195 237.805C270.051 237.797 269.907 237.793 269.765 237.793C265.917 237.792 262.556 240.773 262.105 244.633Z" fill="url(#paint65_linear_631_2561)"/>
<mask id="mask25_631_2561" style="mask-type:luminance" maskUnits="userSpaceOnUse" x="0" y="0" width="659" height="488">
<path d="M0 0.669434H658.484V487.948H0V0.669434Z" fill="white"/>
</mask>
<g mask="url(#mask25_631_2561)">
<mask id="mask26_631_2561" style="mask-type:luminance" maskUnits="userSpaceOnUse" x="274" y="223" width="6" height="10">
<path d="M274.872 223.99H279.177V232.117H274.872V223.99Z" fill="white"/>
</mask>
<g mask="url(#mask26_631_2561)">
<g opacity="0.25">
<path d="M276.378 223.99L279.177 232.118L274.872 231.172L276.378 223.99Z" fill="#281D4C"/>
</g>
</g>
</g>
<path d="M261.783 226.422L274.872 233.025L276.378 223.99L261.783 222.253V226.422Z" fill="url(#paint66_linear_631_2561)"/>
<path d="M278.231 227.085L281.243 231.171H282.822L279.737 223.99L278.231 222.253V227.085Z" fill="url(#paint67_linear_631_2561)"/>
<mask id="mask27_631_2561" style="mask-type:luminance" maskUnits="userSpaceOnUse" x="0" y="0" width="659" height="488">
<path d="M0 0.669434H658.484V487.948H0V0.669434Z" fill="white"/>
</mask>
<g mask="url(#mask27_631_2561)">
<mask id="mask28_631_2561" style="mask-type:luminance" maskUnits="userSpaceOnUse" x="278" y="223" width="4" height="10">
<path d="M278.231 223.99H281.243V232.117H278.231V223.99Z" fill="white"/>
</mask>
<g mask="url(#mask28_631_2561)">
<g opacity="0.25">
<path d="M278.231 223.99L281.242 231.172L279.177 232.118L278.231 226.199V223.99Z" fill="#281D4C"/>
</g>
</g>
</g>
<path d="M475.323 271.135V324.755H515.179V282.061C515.179 276.027 510.288 271.135 504.253 271.135H475.323Z" fill="url(#paint68_linear_631_2561)"/>
<path d="M475.323 273.188V324.755H511.476V284.114C511.476 278.081 506.584 273.188 500.55 273.188H475.323Z" fill="url(#paint69_linear_631_2561)"/>
<path d="M460.754 258.455L448.017 265.339C448.017 265.339 445.719 266.245 444.813 274.578C443.908 282.91 443.365 324.755 443.365 324.755H494.267C494.267 324.755 501.15 268.237 494.267 263.889C487.383 259.542 477.419 256.388 477.419 256.388C477.053 256.262 476.483 256.208 475.771 256.208C471.195 256.208 460.754 258.455 460.754 258.455Z" fill="url(#paint70_linear_631_2561)"/>
<mask id="mask29_631_2561" style="mask-type:luminance" maskUnits="userSpaceOnUse" x="0" y="0" width="659" height="488">
<path d="M0 0.669434H658.484V487.948H0V0.669434Z" fill="white"/>
</mask>
<g mask="url(#mask29_631_2561)">
<mask id="mask30_631_2561" style="mask-type:luminance" maskUnits="userSpaceOnUse" x="455" y="309" width="40" height="16">
<path d="M455.421 309.298H494.86V324.755H455.421V309.298Z" fill="white"/>
</mask>
<g mask="url(#mask30_631_2561)">
<g opacity="0.25">
<path d="M494.86 319.48L486.477 311.169L463.804 309.297L455.42 313.963L459.124 315.335H467.555C469.115 314.986 478.736 316.297 478.736 316.297C478.736 316.297 480.974 321.554 484.539 324.756H494.267C494.267 324.756 494.51 322.755 494.86 319.48Z" fill="#281D4C"/>
</g>
</g>
</g>
<path d="M460.754 258.455L456.272 260.877L463.805 300.559L463.666 324.755H471.246L469.812 299.757L477.42 273.188L483.844 258.742C480.204 257.27 477.42 256.388 477.42 256.388C477.053 256.262 476.483 256.208 475.771 256.208C471.196 256.207 460.754 258.455 460.754 258.455Z" fill="url(#paint71_linear_631_2561)"/>
<mask id="mask31_631_2561" style="mask-type:luminance" maskUnits="userSpaceOnUse" x="0" y="0" width="659" height="488">
<path d="M0 0.669434H658.484V487.948H0V0.669434Z" fill="white"/>
</mask>
<g mask="url(#mask31_631_2561)">
<mask id="mask32_631_2561" style="mask-type:luminance" maskUnits="userSpaceOnUse" x="456" y="258" width="11" height="67">
<path d="M456.273 258.125H466.477V324.755H456.273V258.125Z" fill="white"/>
</mask>
<g mask="url(#mask32_631_2561)">
<g opacity="0.25">
<path d="M459.688 261.762L462.808 259.701C462.808 259.701 462.663 258.977 462.352 258.126C461.367 258.324 460.754 258.455 460.754 258.455L456.272 260.877L456.282 260.928C456.565 261.447 457.104 261.865 457.981 262.093L458.285 271.48L463.805 300.559L463.666 324.755H466.477C466.193 314.098 465.518 291.883 464.609 282.224C463.853 274.189 461.424 266.472 459.688 261.762Z" fill="#281D4C"/>
</g>
</g>
</g>
<path d="M471.379 289.613L469.812 299.757L482.706 274.034L479.413 271.135L487.66 260.385C484.503 258.938 481.486 257.8 479.554 257.115C479.554 257.115 472.945 279.468 471.379 289.613Z" fill="url(#paint72_linear_631_2561)"/>
<path d="M451.836 263.276L456.836 271.185L453.293 273.773L463.805 300.559L463.163 290.314C462.65 282.128 459.639 265.898 458.449 259.701L451.836 263.276Z" fill="url(#paint73_linear_631_2561)"/>
<path d="M487.66 276.812L492.153 307.728L485.396 305.07L483.398 317.026C483.398 317.026 491.187 324.755 494.267 324.755C497.346 324.755 503.264 323.909 504.955 319.804C506.645 315.698 505.437 299.515 502.539 282.609C499.641 265.701 494.267 263.889 494.267 263.889C484.546 264.735 487.66 276.812 487.66 276.812Z" fill="url(#paint74_linear_631_2561)"/>
<path d="M466.431 270.432L463.653 324.755H469.598L466.913 270.432H466.431Z" fill="url(#paint75_linear_631_2561)"/>
<mask id="mask33_631_2561" style="mask-type:luminance" maskUnits="userSpaceOnUse" x="0" y="0" width="659" height="488">
<path d="M0 0.669434H658.484V487.948H0V0.669434Z" fill="white"/>
</mask>
<g mask="url(#mask33_631_2561)">
<path d="M477.42 298.852C475.428 298.308 472.831 296.859 472.831 296.859C472.831 296.859 472.71 299.834 474.884 300.973L477.058 302.112C477.437 302.228 478.94 302.009 480.046 302.003C479.313 300.557 478.367 299.11 477.42 298.852Z" fill="#F1BAA6"/>
</g>
<path d="M455.421 313.964L473.797 315.335V287.983L455.421 286.61V313.964Z" fill="url(#paint76_linear_631_2561)"/>
<path d="M461.777 299.757C461.777 299.757 461.241 300.83 464.891 303.006L468.542 305.182L461.749 302.112C461.749 302.112 462.201 305.02 465.464 306.822L468.728 308.623L462.747 306.097C462.747 306.097 464.374 309.156 466.626 310.264L468.876 311.372L463.805 309.297C463.805 309.297 464.094 311.234 466.37 312.317C468.646 313.399 468.982 313.339 468.982 313.339H478.736L483.7 316.06L485.182 306.46L481.405 305.191C481.405 305.191 480.885 303.582 480.049 302.002C479.81 301.553 477.057 302.112 477.057 302.112C477.057 302.112 474.107 301.573 469.598 300.559C466.422 299.844 463.838 299.738 462.589 299.738C462.066 299.738 461.777 299.757 461.777 299.757Z" fill="url(#paint77_linear_631_2561)"/>
<path d="M437.205 263.289C437.045 263.626 436.912 263.431 436.691 263.235C436.379 262.959 435.893 262.684 434.91 263.889L433.23 265.953C433.23 265.953 432.072 265.801 430.566 268.889C429.061 271.976 428.366 275.682 428.366 275.682L427.414 279.111L434.91 283.332V276.842C434.91 276.842 437.912 274.633 438.409 273.188C438.905 271.744 438.607 270.087 438.409 268.889C438.21 267.691 436.424 269.119 436.796 270.432C437.168 271.744 435.937 272.208 435.937 272.208C435.937 272.208 435.968 269.883 437.205 267.513C438.443 265.142 439.485 263.199 439.485 262.259C439.485 262.011 439.352 261.909 439.15 261.909C438.587 261.908 437.488 262.693 437.205 263.289Z" fill="url(#paint78_linear_631_2561)"/>
<path d="M437.205 263.289C437.045 263.626 436.912 263.431 436.691 263.235C436.379 262.959 435.893 262.684 434.91 263.889L433.23 265.953C433.23 265.953 432.072 265.801 430.566 268.889C429.061 271.976 428.366 275.682 428.366 275.682L427.414 279.111L434.91 283.332V276.842C434.91 276.842 437.912 274.633 438.409 273.188C438.905 271.744 438.607 270.087 438.409 268.889C438.21 267.691 436.424 269.119 436.796 270.432C437.168 271.744 435.937 272.208 435.937 272.208C435.937 272.208 435.968 269.883 437.205 267.513C438.443 265.142 439.485 263.199 439.485 262.259C439.485 262.011 439.352 261.909 439.15 261.909C438.587 261.908 437.488 262.693 437.205 263.289Z" fill="url(#paint79_linear_631_2561)"/>
<mask id="mask34_631_2561" style="mask-type:luminance" maskUnits="userSpaceOnUse" x="0" y="0" width="659" height="488">
<path d="M0 0.669434H658.484V487.948H0V0.669434Z" fill="white"/>
</mask>
<g mask="url(#mask34_631_2561)">
<mask id="mask35_631_2561" style="mask-type:luminance" maskUnits="userSpaceOnUse" x="433" y="262" width="7" height="16">
<path d="M433.275 262.123H439.485V277.205H433.275V262.123Z" fill="white"/>
</mask>
<g mask="url(#mask35_631_2561)">
<g opacity="0.25">
<path d="M438.409 273.189C438.906 271.745 438.607 270.087 438.409 268.889C438.21 267.69 436.423 269.119 436.796 270.432C437.168 271.745 435.937 272.208 435.937 272.208C435.937 272.208 435.968 269.883 437.205 267.513C438.443 265.142 439.485 263.199 439.485 262.259C439.485 262.226 439.465 262.213 439.461 262.185C439.333 262.091 439.142 262.095 439.041 262.254C437.925 264.011 435.865 266.389 434.649 269.684C434.321 270.573 434.95 272.317 434.669 273.189C434.388 274.061 432.743 274.409 433.449 276.03C433.793 276.818 434.388 277.109 434.911 277.205V276.841C434.911 276.841 437.912 274.633 438.409 273.189Z" fill="#281D4C"/>
</g>
</g>
</g>
<path d="M434.91 292.512V283.332L426.215 278.436C426.215 278.436 420.66 304.104 419.936 311.108C419.211 318.113 423.8 324.393 427.665 324.756C431.529 325.118 443.365 310.385 443.365 310.385C443.365 310.385 448.806 285.748 448.017 265.339L434.91 292.512Z" fill="url(#paint80_linear_631_2561)"/>
<mask id="mask36_631_2561" style="mask-type:luminance" maskUnits="userSpaceOnUse" x="0" y="0" width="659" height="488">
<path d="M0 0.669434H658.484V487.948H0V0.669434Z" fill="white"/>
</mask>
<g mask="url(#mask36_631_2561)">
<mask id="mask37_631_2561" style="mask-type:luminance" maskUnits="userSpaceOnUse" x="434" y="292" width="4" height="15">
<path d="M434.669 292.511H437.205V306.097H434.669V292.511Z" fill="white"/>
</mask>
<g mask="url(#mask37_631_2561)">
<g opacity="0.25">
<path d="M434.911 292.511C434.911 292.511 435.152 295.848 434.911 300.973L434.669 306.097L437.205 296.859L434.911 292.511Z" fill="#281D4C"/>
</g>
</g>
<mask id="mask38_631_2561" style="mask-type:luminance" maskUnits="userSpaceOnUse" x="438" y="265" width="11" height="52">
<path d="M438.409 265.339H448.095V316.146H438.409V265.339Z" fill="white"/>
</mask>
<g mask="url(#mask38_631_2561)">
<g opacity="0.25">
<path d="M443.364 310.384C443.364 310.384 448.806 285.748 448.017 265.339C448.017 265.339 439.423 305.061 438.409 316.146C441.193 313.086 443.364 310.384 443.364 310.384Z" fill="#281D4C"/>
</g>
</g>
<mask id="mask39_631_2561" style="mask-type:luminance" maskUnits="userSpaceOnUse" x="492" y="305" width="9" height="8">
<path d="M492.153 305.453H500.969V312.317H492.153V305.453Z" fill="white"/>
</mask>
<g mask="url(#mask39_631_2561)">
<g opacity="0.25">
<path d="M492.153 307.727L500.969 312.316C500.969 312.316 495.112 300.663 492.153 307.727Z" fill="#281D4C"/>
</g>
</g>
</g>
<path d="M468.242 209.726C461.479 211.357 460.01 212.987 460.01 212.987C460.01 212.987 452.059 210.994 449.161 219.872C446.263 228.747 449.161 235.63 454.596 237.624C460.03 239.616 481.043 239.797 481.043 239.797C481.043 239.797 485.572 234.544 485.39 225.124C485.227 216.567 476.79 209.506 470.177 209.506C469.51 209.506 468.862 209.577 468.242 209.726Z" fill="url(#paint81_linear_631_2561)"/>
<path d="M461.832 251.934V259.543C461.832 259.543 460.936 266.064 466.37 268.057C471.805 270.049 476.438 259.537 476.438 259.537L477.42 244.688C476.959 244.524 476.453 244.449 475.914 244.449C470.523 244.449 461.832 251.934 461.832 251.934Z" fill="url(#paint82_linear_631_2561)"/>
<path d="M453.871 229.29V249.659C453.871 249.659 454.193 253.745 460.01 253.926C465.826 254.108 471.865 253.564 472.831 252.84C473.797 252.115 477.419 244.688 477.419 244.688C477.419 244.688 481.876 242.912 482.6 238.456C483.325 234.001 480.138 234.664 478.507 236.234C476.876 237.805 465.444 231.646 461.832 227.298L458.218 222.95C458.218 222.95 458.4 226.755 453.871 229.29Z" fill="url(#paint83_linear_631_2561)"/>
<path d="M455.42 231.991C453.08 231.991 451.177 233.895 451.177 236.234C451.177 238.574 453.08 240.478 455.42 240.478C457.761 240.478 459.664 238.574 459.664 236.234C459.664 233.895 457.761 231.991 455.42 231.991ZM455.42 241.169C452.699 241.169 450.486 238.955 450.486 236.234C450.486 233.514 452.699 231.3 455.42 231.3C458.142 231.3 460.355 233.514 460.355 236.234C460.355 238.955 458.142 241.169 455.42 241.169Z" fill="#281D4C"/>
<path d="M468.241 231.991C465.902 231.991 463.998 233.895 463.998 236.234C463.998 238.574 465.902 240.478 468.241 240.478C470.582 240.478 472.485 238.574 472.485 236.234C472.485 233.895 470.582 231.991 468.241 231.991ZM468.241 241.169C465.521 241.169 463.308 238.955 463.308 236.234C463.308 233.514 465.521 231.3 468.241 231.3C470.963 231.3 473.176 233.514 473.176 236.234C473.176 238.955 470.963 241.169 468.241 241.169Z" fill="#281D4C"/>
<path d="M463.653 236.58H460.01C459.819 236.58 459.664 236.426 459.664 236.235C459.664 236.044 459.819 235.889 460.01 235.889H463.653C463.844 235.889 463.998 236.044 463.998 236.235C463.998 236.426 463.844 236.58 463.653 236.58Z" fill="#281D4C"/>
<path d="M476.333 236.58H472.831C472.64 236.58 472.485 236.426 472.485 236.235C472.485 236.044 472.64 235.889 472.831 235.889H476.333C476.524 235.889 476.678 236.044 476.678 236.235C476.678 236.426 476.524 236.58 476.333 236.58Z" fill="#281D4C"/>
<path d="M461.776 245.939C461.711 245.939 461.646 245.922 461.588 245.883L459.822 244.738C459.711 244.666 459.651 244.537 459.667 244.406L460.412 238.414C460.435 238.225 460.61 238.084 460.797 238.114C460.987 238.137 461.12 238.309 461.097 238.498L460.38 244.277L461.964 245.305C462.124 245.408 462.169 245.622 462.066 245.782C462 245.884 461.889 245.939 461.776 245.939Z" fill="#B56361"/>
<path d="M466.609 235.499C466.609 236.219 466.885 236.802 467.226 236.802C467.567 236.802 467.843 236.219 467.843 235.499C467.843 234.78 467.567 234.196 467.226 234.196C466.885 234.196 466.609 234.78 466.609 235.499Z" fill="url(#paint84_linear_631_2561)"/>
<path d="M456.203 235.499C456.203 236.219 456.48 236.802 456.821 236.802C457.162 236.802 457.438 236.219 457.438 235.499C457.438 234.78 457.162 234.196 456.821 234.196C456.48 234.196 456.203 234.78 456.203 235.499Z" fill="url(#paint85_linear_631_2561)"/>
<path d="M470.345 230.797C470.22 230.797 470.099 230.728 470.038 230.609C469.504 229.576 468.815 228.99 467.989 228.867C466.121 228.589 464.073 230.671 464.051 230.692C463.919 230.829 463.7 230.831 463.563 230.699C463.427 230.566 463.424 230.347 463.557 230.21C463.649 230.114 465.861 227.858 468.088 228.184C469.148 228.34 470.01 229.05 470.652 230.293C470.74 230.463 470.673 230.671 470.504 230.758C470.453 230.784 470.399 230.797 470.345 230.797Z" fill="#B56361"/>
<path d="M453.87 230.796C453.81 230.796 453.749 230.781 453.693 230.747C453.529 230.648 453.477 230.436 453.575 230.273C453.96 229.634 454.479 229.257 455.119 229.152C456.522 228.918 457.982 230.136 458.043 230.187C458.189 230.31 458.207 230.528 458.083 230.673C457.961 230.821 457.743 230.838 457.597 230.715C457.585 230.704 456.321 229.653 455.229 229.833C454.793 229.905 454.445 230.166 454.167 230.629C454.102 230.736 453.988 230.796 453.87 230.796Z" fill="#B56361"/>
<path d="M463.431 250.206C462.354 250.206 461.516 249.999 461.496 249.995C461.31 249.947 461.199 249.759 461.247 249.575C461.294 249.389 461.485 249.278 461.666 249.325C461.711 249.335 466.034 250.396 467.205 247.459C467.276 247.282 467.478 247.195 467.655 247.266C467.831 247.337 467.918 247.537 467.848 247.714C467.023 249.779 464.98 250.206 463.431 250.206Z" fill="#B56361"/>
<path d="M463.73 263.889V267.151L466.707 271.135L471.379 267.151V263.889H463.73Z" fill="url(#paint86_linear_631_2561)"/>
<mask id="mask40_631_2561" style="mask-type:luminance" maskUnits="userSpaceOnUse" x="463" y="263" width="6" height="6">
<path d="M463.73 263.89H468.288V268.889H463.73V263.89Z" fill="white"/>
</mask>
<g mask="url(#mask40_631_2561)">
<g opacity="0.25">
<path d="M463.731 265.736V267.15L465.029 268.889L466.707 265.701H468.289L467.661 263.889H465.08C464.559 264.418 464.055 265.048 463.731 265.736Z" fill="#281D4C"/>
</g>
</g>
<path d="M466.707 264.151C466.551 264.332 471.08 269.687 471.08 269.687L478.736 257.115L477.419 252.478L466.707 264.151Z" fill="url(#paint87_linear_631_2561)"/>
<path d="M460.754 258.455L463.653 269.687L466.707 264.151L461.777 254.832L460.754 258.455Z" fill="url(#paint88_linear_631_2561)"/>
<path d="M346.686 324.756L352.246 331.821H556.569L562.129 324.756H346.686Z" fill="url(#paint89_linear_631_2561)"/>
<path d="M346.686 324.756L351.583 331.821H531.519L536.414 324.756H346.686Z" fill="url(#paint90_linear_631_2561)"/>
<path d="M352.246 449.91L346.686 456.974H562.129L556.569 449.91H352.246Z" fill="url(#paint91_linear_631_2561)"/>
<path d="M351.583 449.91L346.686 456.974H536.414L531.519 449.91H351.583Z" fill="url(#paint92_linear_631_2561)"/>
<path d="M351.583 449.91H551.472V331.822H351.583V449.91Z" fill="url(#paint93_linear_631_2561)"/>
<path d="M531.087 449.91H551.472V331.822H531.087V449.91Z" fill="url(#paint94_linear_631_2561)"/>
<path d="M362.366 345.229C361.638 345.229 361.049 345.819 361.049 346.546V435.185C361.049 435.912 361.638 436.502 362.366 436.502H390.311C391.038 436.502 391.628 435.912 391.628 435.185V346.546C391.628 345.819 391.038 345.229 390.311 345.229H362.366Z" fill="url(#paint95_linear_631_2561)"/>
<path d="M360.474 345.229C359.746 345.229 359.157 345.819 359.157 346.546V435.185C359.157 435.912 359.746 436.502 360.474 436.502H388.419C389.146 436.502 389.736 435.912 389.736 435.185V346.546C389.736 345.819 389.146 345.229 388.419 345.229H360.474Z" fill="url(#paint96_linear_631_2561)"/>
<path d="M493.852 345.229C493.124 345.229 492.535 345.819 492.535 346.546V435.185C492.535 435.912 493.124 436.502 493.852 436.502H521.797C522.524 436.502 523.114 435.912 523.114 435.185V346.546C523.114 345.819 522.524 345.229 521.797 345.229H493.852Z" fill="url(#paint97_linear_631_2561)"/>
<path d="M491.96 345.229C491.232 345.229 490.642 345.819 490.642 346.546V435.185C490.642 435.912 491.232 436.502 491.96 436.502H519.904C520.632 436.502 521.222 435.912 521.222 435.185V346.546C521.222 345.819 520.632 345.229 519.904 345.229H491.96Z" fill="url(#paint98_linear_631_2561)"/>
<path d="M400.204 345.229C399.476 345.229 398.887 345.819 398.887 346.546V435.185C398.887 435.912 399.476 436.502 400.204 436.502H482.717C483.444 436.502 484.033 435.912 484.033 435.185V346.546C484.033 345.819 483.444 345.229 482.717 345.229H400.204Z" fill="url(#paint99_linear_631_2561)"/>
<path d="M398.312 345.229C397.584 345.229 396.995 345.819 396.995 346.546V435.185C396.995 435.912 397.584 436.502 398.312 436.502H480.825C481.552 436.502 482.142 435.912 482.142 435.185V346.546C482.142 345.819 481.552 345.229 480.825 345.229H398.312Z" fill="url(#paint100_linear_631_2561)"/>
<path d="M370.374 319.079H414.678V312.825H370.374V319.079Z" fill="url(#paint101_linear_631_2561)"/>
<path d="M378.472 319.079H380.808V312.825H378.472V319.079Z" fill="url(#paint102_linear_631_2561)"/>
<path d="M376.801 319.079H377.97V312.825H376.801V319.079Z" fill="url(#paint103_linear_631_2561)"/>
<path d="M405.594 319.079H414.678V312.825H405.594V319.079Z" fill="url(#paint104_linear_631_2561)"/>
<path d="M366.377 324.755H414.678V318.501H366.377V324.755Z" fill="url(#paint105_linear_631_2561)"/>
<path d="M372.111 324.755H374.447V318.501H372.111V324.755Z" fill="url(#paint106_linear_631_2561)"/>
<path d="M374.948 324.755H376.117V318.501H374.948V324.755Z" fill="url(#paint107_linear_631_2561)"/>
<path d="M404.775 324.755H414.678V318.501H404.775V324.755Z" fill="url(#paint108_linear_631_2561)"/>
<path d="M524.628 317.415C524.628 318.014 525.102 318.67 525.685 318.879L542.019 324.725C542.602 324.934 543.075 324.617 543.075 324.017C543.075 323.417 542.602 322.762 542.019 322.553L525.685 316.708C525.563 316.663 525.446 316.643 525.337 316.643C524.925 316.643 524.628 316.941 524.628 317.415Z" fill="url(#paint109_linear_631_2561)"/>
<path d="M514.16 320.934C513.433 320.934 512.843 321.523 512.843 322.25V323.439C512.843 324.165 513.433 324.755 514.16 324.755H535.097C535.824 324.755 536.414 324.165 536.414 323.439V322.25C536.414 321.523 535.824 320.934 535.097 320.934H514.16Z" fill="url(#paint110_linear_631_2561)"/>
<path d="M518.699 311.725C517.608 311.725 516.724 312.609 516.724 313.7V318.958C516.724 320.049 517.608 320.934 518.699 320.934H530.559C531.65 320.934 532.534 320.049 532.534 318.958V313.7C532.534 312.609 531.65 311.725 530.559 311.725H518.699Z" fill="url(#paint111_linear_631_2561)"/>
<path d="M519.967 320.934H528.654V311.725H519.967V320.934Z" fill="url(#paint112_linear_631_2561)"/>
<defs>
<linearGradient id="paint0_linear_631_2561" x1="27.5792" y1="210.672" x2="27.5792" y2="456.043" gradientUnits="userSpaceOnUse">
<stop stop-color="#C4D7EA"/>
<stop offset="1" stop-color="#AAC4E0"/>
</linearGradient>
<linearGradient id="paint1_linear_631_2561" x1="96.0136" y1="210.672" x2="96.0136" y2="456.043" gradientUnits="userSpaceOnUse">
<stop stop-color="#C4D7EA"/>
<stop offset="1" stop-color="#AAC4E0"/>
</linearGradient>
<linearGradient id="paint2_linear_631_2561" x1="164.448" y1="210.672" x2="164.448" y2="456.043" gradientUnits="userSpaceOnUse">
<stop stop-color="#C4D7EA"/>
<stop offset="1" stop-color="#AAC4E0"/>
</linearGradient>
<linearGradient id="paint3_linear_631_2561" x1="232.883" y1="210.672" x2="232.883" y2="456.043" gradientUnits="userSpaceOnUse">
<stop stop-color="#C4D7EA"/>
<stop offset="1" stop-color="#AAC4E0"/>
</linearGradient>
<linearGradient id="paint4_linear_631_2561" x1="301.317" y1="210.672" x2="301.317" y2="456.043" gradientUnits="userSpaceOnUse">
<stop stop-color="#C4D7EA"/>
<stop offset="1" stop-color="#AAC4E0"/>
</linearGradient>
<linearGradient id="paint5_linear_631_2561" x1="27.5792" y1="195.951" x2="27.5792" y2="0.259685" gradientUnits="userSpaceOnUse">
<stop stop-color="#C4D7EA"/>
<stop offset="1" stop-color="#AAC4E0"/>
</linearGradient>
<linearGradient id="paint6_linear_631_2561" x1="508.26" y1="210.672" x2="508.26" y2="456.043" gradientUnits="userSpaceOnUse">
<stop stop-color="#C4D7EA"/>
<stop offset="1" stop-color="#AAC4E0"/>
</linearGradient>
<linearGradient id="paint7_linear_631_2561" x1="576.695" y1="210.672" x2="576.695" y2="456.043" gradientUnits="userSpaceOnUse">
<stop stop-color="#C4D7EA"/>
<stop offset="1" stop-color="#AAC4E0"/>
</linearGradient>
<linearGradient id="paint8_linear_631_2561" x1="645.129" y1="210.672" x2="645.129" y2="456.043" gradientUnits="userSpaceOnUse">
<stop stop-color="#C4D7EA"/>
<stop offset="1" stop-color="#AAC4E0"/>
</linearGradient>
<linearGradient id="paint9_linear_631_2561" x1="439.826" y1="210.672" x2="439.826" y2="456.043" gradientUnits="userSpaceOnUse">
<stop stop-color="#C4D7EA"/>
<stop offset="1" stop-color="#AAC4E0"/>
</linearGradient>
<linearGradient id="paint10_linear_631_2561" x1="371.391" y1="210.672" x2="371.391" y2="456.043" gradientUnits="userSpaceOnUse">
<stop stop-color="#C4D7EA"/>
<stop offset="1" stop-color="#AAC4E0"/>
</linearGradient>
<linearGradient id="paint11_linear_631_2561" x1="645.129" y1="195.952" x2="645.129" y2="0.25982" gradientUnits="userSpaceOnUse">
<stop stop-color="#C4D7EA"/>
<stop offset="1" stop-color="#AAC4E0"/>
</linearGradient>
<linearGradient id="paint12_linear_631_2561" x1="54.1774" y1="370.74" x2="54.1774" y2="405.025" gradientUnits="userSpaceOnUse">
<stop stop-color="#8AB1DB"/>
<stop offset="1" stop-color="#6C96BC"/>
</linearGradient>
<linearGradient id="paint13_linear_631_2561" x1="44.4568" y1="388.693" x2="44.4568" y2="418.952" gradientUnits="userSpaceOnUse">
<stop stop-color="#8AB1DB"/>
<stop offset="1" stop-color="#6C96BC"/>
</linearGradient>
<linearGradient id="paint14_linear_631_2561" x1="67.1614" y1="384.524" x2="67.1614" y2="418.808" gradientUnits="userSpaceOnUse">
<stop stop-color="#8AB1DB"/>
<stop offset="1" stop-color="#6C96BC"/>
</linearGradient>
<linearGradient id="paint15_linear_631_2561" x1="47.8515" y1="409.543" x2="47.8515" y2="434.163" gradientUnits="userSpaceOnUse">
<stop stop-color="#8AB1DB"/>
<stop offset="1" stop-color="#6C96BC"/>
</linearGradient>
<linearGradient id="paint16_linear_631_2561" x1="71.728" y1="397.477" x2="71.728" y2="434.163" gradientUnits="userSpaceOnUse">
<stop stop-color="#8AB1DB"/>
<stop offset="1" stop-color="#6C96BC"/>
</linearGradient>
<linearGradient id="paint17_linear_631_2561" x1="57.4029" y1="430.971" x2="57.4029" y2="447.52" gradientUnits="userSpaceOnUse">
<stop stop-color="#8AB1DB"/>
<stop offset="1" stop-color="#6C96BC"/>
</linearGradient>
<linearGradient id="paint18_linear_631_2561" x1="77.5764" y1="412.215" x2="77.5764" y2="445.567" gradientUnits="userSpaceOnUse">
<stop stop-color="#8AB1DB"/>
<stop offset="1" stop-color="#6C96BC"/>
</linearGradient>
<linearGradient id="paint19_linear_631_2561" x1="72.3879" y1="306.587" x2="72.3879" y2="372.117" gradientUnits="userSpaceOnUse">
<stop stop-color="#8AB1DB"/>
<stop offset="1" stop-color="#6C96BC"/>
</linearGradient>
<linearGradient id="paint20_linear_631_2561" x1="101.836" y1="259.461" x2="101.836" y2="363.58" gradientUnits="userSpaceOnUse">
<stop stop-color="#8AB1DB"/>
<stop offset="1" stop-color="#6C96BC"/>
</linearGradient>
<linearGradient id="paint21_linear_631_2561" x1="149.03" y1="186.19" x2="149.03" y2="357.595" gradientUnits="userSpaceOnUse">
<stop stop-color="#8AB1DB"/>
<stop offset="1" stop-color="#6C96BC"/>
</linearGradient>
<linearGradient id="paint22_linear_631_2561" x1="335.294" y1="299.798" x2="335.294" y2="368.347" gradientUnits="userSpaceOnUse">
<stop stop-color="#8AB1DB"/>
<stop offset="1" stop-color="#6C96BC"/>
</linearGradient>
<linearGradient id="paint23_linear_631_2561" x1="305.543" y1="275.667" x2="305.543" y2="370.265" gradientUnits="userSpaceOnUse">
<stop stop-color="#8AB1DB"/>
<stop offset="1" stop-color="#6C96BC"/>
</linearGradient>
<linearGradient id="paint24_linear_631_2561" x1="261.484" y1="245.485" x2="261.484" y2="367.045" gradientUnits="userSpaceOnUse">
<stop stop-color="#8AB1DB"/>
<stop offset="1" stop-color="#6C96BC"/>
</linearGradient>
<linearGradient id="paint25_linear_631_2561" x1="580.07" y1="239.636" x2="580.07" y2="328.288" gradientUnits="userSpaceOnUse">
<stop stop-color="#8AB1DB"/>
<stop offset="1" stop-color="#6C96BC"/>
</linearGradient>
<linearGradient id="paint26_linear_631_2561" x1="579.258" y1="295.769" x2="579.258" y2="345.228" gradientUnits="userSpaceOnUse">
<stop stop-color="#8AB1DB"/>
<stop offset="1" stop-color="#6C96BC"/>
</linearGradient>
<linearGradient id="paint27_linear_631_2561" x1="285.187" y1="212.343" x2="285.187" y2="131.985" gradientUnits="userSpaceOnUse">
<stop stop-color="#F6F8FA"/>
<stop offset="1" stop-color="white"/>
</linearGradient>
<linearGradient id="paint28_linear_631_2561" x1="285.187" y1="209.505" x2="285.187" y2="252.729" gradientUnits="userSpaceOnUse">
<stop stop-color="#0A5389"/>
<stop offset="1" stop-color="#1772BC"/>
</linearGradient>
<linearGradient id="paint29_linear_631_2561" x1="244.415" y1="214.37" x2="325.959" y2="214.37" gradientUnits="userSpaceOnUse">
<stop stop-color="#439FDD"/>
<stop offset="1" stop-color="#1772BC"/>
</linearGradient>
<linearGradient id="paint30_linear_631_2561" x1="90.7963" y1="212.343" x2="90.7963" y2="131.942" gradientUnits="userSpaceOnUse">
<stop stop-color="#F6F8FA"/>
<stop offset="1" stop-color="white"/>
</linearGradient>
<linearGradient id="paint31_linear_631_2561" x1="91.2694" y1="209.505" x2="91.2694" y2="252.729" gradientUnits="userSpaceOnUse">
<stop stop-color="#0A5389"/>
<stop offset="1" stop-color="#1772BC"/>
</linearGradient>
<linearGradient id="paint32_linear_631_2561" x1="50.4975" y1="214.37" x2="132.041" y2="214.37" gradientUnits="userSpaceOnUse">
<stop stop-color="#439FDD"/>
<stop offset="1" stop-color="#1772BC"/>
</linearGradient>
<linearGradient id="paint33_linear_631_2561" x1="187.994" y1="89.951" x2="187.994" y2="119.39" gradientUnits="userSpaceOnUse">
<stop stop-color="#D1B06B"/>
<stop offset="1" stop-color="white"/>
</linearGradient>
<linearGradient id="paint34_linear_631_2561" x1="91.2694" y1="132.888" x2="91.2694" y2="144.757" gradientUnits="userSpaceOnUse">
<stop stop-color="#439FDD"/>
<stop offset="1" stop-color="#1772BC"/>
</linearGradient>
<linearGradient id="paint35_linear_631_2561" x1="187.994" y1="119.39" x2="187.994" y2="156.919" gradientUnits="userSpaceOnUse">
<stop stop-color="#439FDD"/>
<stop offset="1" stop-color="#1772BC"/>
</linearGradient>
<linearGradient id="paint36_linear_631_2561" x1="285.187" y1="132.888" x2="285.187" y2="144.757" gradientUnits="userSpaceOnUse">
<stop stop-color="#439FDD"/>
<stop offset="1" stop-color="#1772BC"/>
</linearGradient>
<linearGradient id="paint37_linear_631_2561" x1="460.164" y1="114.931" x2="460.164" y2="456.917" gradientUnits="userSpaceOnUse">
<stop stop-color="#F6F8FA"/>
<stop offset="0.2467" stop-color="#F6F8FA"/>
<stop offset="1" stop-color="#D1DCE5"/>
</linearGradient>
<linearGradient id="paint38_linear_631_2561" x1="345.723" y1="347.582" x2="262.676" y2="320.209" gradientUnits="userSpaceOnUse">
<stop stop-color="#BF6960"/>
<stop offset="1" stop-color="#9E4C46"/>
</linearGradient>
<linearGradient id="paint39_linear_631_2561" x1="168.153" y1="269.659" x2="168.153" y2="333.713" gradientUnits="userSpaceOnUse">
<stop stop-color="#E2B25D"/>
<stop offset="1" stop-color="#C17F44"/>
</linearGradient>
<linearGradient id="paint40_linear_631_2561" x1="177.612" y1="269.659" x2="177.612" y2="333.713" gradientUnits="userSpaceOnUse">
<stop stop-color="#BF6960"/>
<stop offset="1" stop-color="#9E4C46"/>
</linearGradient>
<linearGradient id="paint41_linear_631_2561" x1="211.865" y1="278.115" x2="211.865" y2="326.654" gradientUnits="userSpaceOnUse">
<stop stop-color="#E2B25D"/>
<stop offset="1" stop-color="#C17F44"/>
</linearGradient>
<linearGradient id="paint42_linear_631_2561" x1="253.287" y1="269.659" x2="253.287" y2="333.713" gradientUnits="userSpaceOnUse">
<stop stop-color="#E2B25D"/>
<stop offset="1" stop-color="#C17F44"/>
</linearGradient>
<linearGradient id="paint43_linear_631_2561" x1="262.747" y1="269.659" x2="262.747" y2="333.713" gradientUnits="userSpaceOnUse">
<stop stop-color="#BF6960"/>
<stop offset="1" stop-color="#9E4C46"/>
</linearGradient>
<linearGradient id="paint44_linear_631_2561" x1="262.747" y1="286.918" x2="262.747" y2="316.454" gradientUnits="userSpaceOnUse">
<stop stop-color="#E2B25D"/>
<stop offset="1" stop-color="#C17F44"/>
</linearGradient>
<linearGradient id="paint45_linear_631_2561" x1="229.401" y1="278.115" x2="229.401" y2="326.654" gradientUnits="userSpaceOnUse">
<stop stop-color="#F4DE84"/>
<stop offset="1" stop-color="#D8A956"/>
</linearGradient>
<linearGradient id="paint46_linear_631_2561" x1="182.104" y1="278.115" x2="182.104" y2="326.654" gradientUnits="userSpaceOnUse">
<stop stop-color="#F4DE84"/>
<stop offset="1" stop-color="#D8A956"/>
</linearGradient>
<linearGradient id="paint47_linear_631_2561" x1="218.289" y1="332.767" x2="218.289" y2="339.253" gradientUnits="userSpaceOnUse">
<stop stop-color="#F49C84"/>
<stop offset="1" stop-color="#DD7D66"/>
</linearGradient>
<linearGradient id="paint48_linear_631_2561" x1="218.289" y1="338.308" x2="218.289" y2="353.134" gradientUnits="userSpaceOnUse">
<stop stop-color="#BF6960"/>
<stop offset="1" stop-color="#9E4C46"/>
</linearGradient>
<linearGradient id="paint49_linear_631_2561" x1="237.101" y1="353.134" x2="237.101" y2="405.025" gradientUnits="userSpaceOnUse">
<stop stop-color="#453765"/>
<stop offset="1" stop-color="#281D4C"/>
</linearGradient>
<linearGradient id="paint50_linear_631_2561" x1="237.785" y1="358.089" x2="237.785" y2="400.07" gradientUnits="userSpaceOnUse">
<stop stop-color="#F6F8FA"/>
<stop offset="1" stop-color="#D1DCE5"/>
</linearGradient>
<linearGradient id="paint51_linear_631_2561" x1="121.033" y1="378.734" x2="121.033" y2="420.896" gradientUnits="userSpaceOnUse">
<stop stop-color="#439FDD"/>
<stop offset="1" stop-color="#1772BC"/>
</linearGradient>
<linearGradient id="paint52_linear_631_2561" x1="586.704" y1="357.157" x2="586.704" y2="492.037" gradientUnits="userSpaceOnUse">
<stop stop-color="#8AB1DB"/>
<stop offset="1" stop-color="#6C96BC"/>
</linearGradient>
<linearGradient id="paint53_linear_631_2561" x1="272.252" y1="311.521" x2="272.252" y2="444.178" gradientUnits="userSpaceOnUse">
<stop stop-color="#453765"/>
<stop offset="1" stop-color="#281D4C"/>
</linearGradient>
<linearGradient id="paint54_linear_631_2561" x1="304.59" y1="444.177" x2="304.59" y2="456.917" gradientUnits="userSpaceOnUse">
<stop stop-color="#453765"/>
<stop offset="1" stop-color="#281D4C"/>
</linearGradient>
<linearGradient id="paint55_linear_631_2561" x1="260.131" y1="444.177" x2="260.131" y2="456.917" gradientUnits="userSpaceOnUse">
<stop stop-color="#453765"/>
<stop offset="1" stop-color="#281D4C"/>
</linearGradient>
<linearGradient id="paint56_linear_631_2561" x1="274.872" y1="190.107" x2="274.872" y2="231.172" gradientUnits="userSpaceOnUse">
<stop stop-color="#F1BAA6"/>
<stop offset="1" stop-color="#FF8E86"/>
</linearGradient>
<linearGradient id="paint57_linear_631_2561" x1="278.694" y1="198.102" x2="278.694" y2="217.897" gradientUnits="userSpaceOnUse">
<stop stop-color="#453765"/>
<stop offset="1" stop-color="#281D4C"/>
</linearGradient>
<linearGradient id="paint58_linear_631_2561" x1="270.318" y1="174.023" x2="270.318" y2="215.741" gradientUnits="userSpaceOnUse">
<stop stop-color="#453765"/>
<stop offset="1" stop-color="#281D4C"/>
</linearGradient>
<linearGradient id="paint59_linear_631_2561" x1="280.606" y1="198.594" x2="280.606" y2="201.201" gradientUnits="userSpaceOnUse">
<stop stop-color="#453765"/>
<stop offset="1" stop-color="#281D4C"/>
</linearGradient>
<linearGradient id="paint60_linear_631_2561" x1="309.805" y1="228.527" x2="309.805" y2="264.172" gradientUnits="userSpaceOnUse">
<stop stop-color="#F4DE84"/>
<stop offset="1" stop-color="#E8C067"/>
</linearGradient>
<linearGradient id="paint61_linear_631_2561" x1="301.832" y1="244.065" x2="301.832" y2="270.542" gradientUnits="userSpaceOnUse">
<stop stop-color="#F1BAA6"/>
<stop offset="1" stop-color="#FF8E86"/>
</linearGradient>
<linearGradient id="paint62_linear_631_2561" x1="287.48" y1="272.825" x2="302.923" y2="272.825" gradientUnits="userSpaceOnUse">
<stop stop-color="#F6F8FA"/>
<stop offset="1" stop-color="#D1DCE5"/>
</linearGradient>
<linearGradient id="paint63_linear_631_2561" x1="246.39" y1="271.434" x2="297.99" y2="271.434" gradientUnits="userSpaceOnUse">
<stop stop-color="#453765"/>
<stop offset="1" stop-color="#281D4C"/>
</linearGradient>
<linearGradient id="paint64_linear_631_2561" x1="340.873" y1="267.136" x2="340.873" y2="284.92" gradientUnits="userSpaceOnUse">
<stop stop-color="#F1BAA6"/>
<stop offset="1" stop-color="#FF8E86"/>
</linearGradient>
<linearGradient id="paint65_linear_631_2561" x1="262.034" y1="265.759" x2="331.397" y2="265.759" gradientUnits="userSpaceOnUse">
<stop stop-color="#F6F8FA"/>
<stop offset="1" stop-color="#D1DCE5"/>
</linearGradient>
<linearGradient id="paint66_linear_631_2561" x1="269.081" y1="222.363" x2="269.081" y2="232.584" gradientUnits="userSpaceOnUse">
<stop stop-color="#F6F8FA"/>
<stop offset="1" stop-color="#D1DCE5"/>
</linearGradient>
<linearGradient id="paint67_linear_631_2561" x1="278.231" y1="226.712" x2="282.822" y2="226.712" gradientUnits="userSpaceOnUse">
<stop stop-color="#F6F8FA"/>
<stop offset="1" stop-color="#D1DCE5"/>
</linearGradient>
<linearGradient id="paint68_linear_631_2561" x1="495.251" y1="324.755" x2="495.251" y2="271.136" gradientUnits="userSpaceOnUse">
<stop stop-color="#453765"/>
<stop offset="1" stop-color="#281D4C"/>
</linearGradient>
<linearGradient id="paint69_linear_631_2561" x1="493.4" y1="273.189" x2="493.4" y2="324.755" gradientUnits="userSpaceOnUse">
<stop stop-color="#453765"/>
<stop offset="1" stop-color="#281D4C"/>
</linearGradient>
<linearGradient id="paint70_linear_631_2561" x1="470.345" y1="256.208" x2="470.345" y2="324.755" gradientUnits="userSpaceOnUse">
<stop stop-color="#439FDD"/>
<stop offset="1" stop-color="#1772BC"/>
</linearGradient>
<linearGradient id="paint71_linear_631_2561" x1="470.058" y1="256.208" x2="470.058" y2="324.755" gradientUnits="userSpaceOnUse">
<stop stop-color="#D1DCE5"/>
<stop offset="0.3658" stop-color="#D1DCE5"/>
<stop offset="1" stop-color="#AEBBD3"/>
</linearGradient>
<linearGradient id="paint72_linear_631_2561" x1="478.736" y1="299.757" x2="478.736" y2="257.115" gradientUnits="userSpaceOnUse">
<stop stop-color="#0A5389"/>
<stop offset="1" stop-color="#1772BC"/>
</linearGradient>
<linearGradient id="paint73_linear_631_2561" x1="457.82" y1="300.559" x2="457.82" y2="259.701" gradientUnits="userSpaceOnUse">
<stop stop-color="#0A5389"/>
<stop offset="1" stop-color="#1772BC"/>
</linearGradient>
<linearGradient id="paint74_linear_631_2561" x1="483.398" y1="294.322" x2="505.727" y2="294.322" gradientUnits="userSpaceOnUse">
<stop stop-color="#439FDD"/>
<stop offset="1" stop-color="#1772BC"/>
</linearGradient>
<linearGradient id="paint75_linear_631_2561" x1="466.625" y1="270.432" x2="466.625" y2="324.755" gradientUnits="userSpaceOnUse">
<stop stop-color="#F47382"/>
<stop offset="1" stop-color="#E55361"/>
</linearGradient>
<linearGradient id="paint76_linear_631_2561" x1="464.843" y1="285.991" x2="464.3" y2="320.772" gradientUnits="userSpaceOnUse">
<stop stop-color="#F6F8FA"/>
<stop offset="0.4634" stop-color="#F6F8FA"/>
<stop offset="1" stop-color="#D1DCE5"/>
</linearGradient>
<linearGradient id="paint77_linear_631_2561" x1="473.465" y1="299.738" x2="473.465" y2="316.06" gradientUnits="userSpaceOnUse">
<stop stop-color="#F1BAA6"/>
<stop offset="1" stop-color="#FF8E86"/>
</linearGradient>
<linearGradient id="paint78_linear_631_2561" x1="427.414" y1="272.621" x2="439.485" y2="272.621" gradientUnits="userSpaceOnUse">
<stop stop-color="#F1BAA6"/>
<stop offset="1" stop-color="#FF8E86"/>
</linearGradient>
<linearGradient id="paint79_linear_631_2561" x1="427.414" y1="272.621" x2="439.485" y2="272.621" gradientUnits="userSpaceOnUse">
<stop stop-color="#F1BAA6"/>
<stop offset="1" stop-color="#FF8E86"/>
</linearGradient>
<linearGradient id="paint80_linear_631_2561" x1="433.977" y1="265.339" x2="433.977" y2="324.762" gradientUnits="userSpaceOnUse">
<stop stop-color="#439FDD"/>
<stop offset="1" stop-color="#1772BC"/>
</linearGradient>
<linearGradient id="paint81_linear_631_2561" x1="466.706" y1="209.505" x2="466.706" y2="239.797" gradientUnits="userSpaceOnUse">
<stop stop-color="#453765"/>
<stop offset="1" stop-color="#281D4C"/>
</linearGradient>
<linearGradient id="paint82_linear_631_2561" x1="469.598" y1="244.449" x2="469.598" y2="268.307" gradientUnits="userSpaceOnUse">
<stop stop-color="#F1BAA6"/>
<stop offset="1" stop-color="#FF8E86"/>
</linearGradient>
<linearGradient id="paint83_linear_631_2561" x1="468.288" y1="221.501" x2="468.288" y2="270.049" gradientUnits="userSpaceOnUse">
<stop stop-color="#F1BAA6"/>
<stop offset="1" stop-color="#FF8E86"/>
</linearGradient>
<linearGradient id="paint84_linear_631_2561" x1="467.226" y1="234.196" x2="467.226" y2="236.803" gradientUnits="userSpaceOnUse">
<stop stop-color="#453765"/>
<stop offset="1" stop-color="#281D4C"/>
</linearGradient>
<linearGradient id="paint85_linear_631_2561" x1="456.821" y1="234.196" x2="456.821" y2="236.803" gradientUnits="userSpaceOnUse">
<stop stop-color="#453765"/>
<stop offset="1" stop-color="#281D4C"/>
</linearGradient>
<linearGradient id="paint86_linear_631_2561" x1="467.554" y1="263.89" x2="467.554" y2="271.136" gradientUnits="userSpaceOnUse">
<stop stop-color="#F47382"/>
<stop offset="1" stop-color="#E55361"/>
</linearGradient>
<linearGradient id="paint87_linear_631_2561" x1="472.719" y1="252.477" x2="472.719" y2="269.686" gradientUnits="userSpaceOnUse">
<stop stop-color="#F6F8FA"/>
<stop offset="1" stop-color="#D1DCE5"/>
</linearGradient>
<linearGradient id="paint88_linear_631_2561" x1="463.73" y1="254.832" x2="463.73" y2="269.686" gradientUnits="userSpaceOnUse">
<stop stop-color="#F6F8FA"/>
<stop offset="1" stop-color="#D1DCE5"/>
</linearGradient>
<linearGradient id="paint89_linear_631_2561" x1="454.407" y1="324.756" x2="454.407" y2="331.821" gradientUnits="userSpaceOnUse">
<stop stop-color="#1F3949"/>
<stop offset="0.0053" stop-color="#1F3949"/>
<stop offset="1" stop-color="#1F3949"/>
</linearGradient>
<linearGradient id="paint90_linear_631_2561" x1="441.55" y1="324.756" x2="441.55" y2="331.821" gradientUnits="userSpaceOnUse">
<stop stop-color="#336666"/>
<stop offset="0.0053" stop-color="#336666"/>
<stop offset="1" stop-color="#2E3947"/>
</linearGradient>
<linearGradient id="paint91_linear_631_2561" x1="454.407" y1="449.909" x2="454.407" y2="456.975" gradientUnits="userSpaceOnUse">
<stop stop-color="#1F3949"/>
<stop offset="0.0053" stop-color="#1F3949"/>
<stop offset="1" stop-color="#1F3949"/>
</linearGradient>
<linearGradient id="paint92_linear_631_2561" x1="441.55" y1="449.909" x2="441.55" y2="456.975" gradientUnits="userSpaceOnUse">
<stop stop-color="#2E3947"/>
<stop offset="0.0053" stop-color="#2E3947"/>
<stop offset="1" stop-color="#2E3947"/>
</linearGradient>
<linearGradient id="paint93_linear_631_2561" x1="451.527" y1="331.821" x2="451.527" y2="449.909" gradientUnits="userSpaceOnUse">
<stop stop-color="#D1B06B"/>
<stop offset="0.0053" stop-color="white"/>
<stop offset="1" stop-color="#D1B06B"/>
</linearGradient>
<linearGradient id="paint94_linear_631_2561" x1="541.279" y1="331.821" x2="541.279" y2="449.909" gradientUnits="userSpaceOnUse">
<stop stop-color="#336666"/>
<stop offset="0.0053" stop-color="#2E3947"/>
<stop offset="1" stop-color="#2E3947"/>
</linearGradient>
<linearGradient id="paint95_linear_631_2561" x1="376.338" y1="345.228" x2="376.338" y2="436.502" gradientUnits="userSpaceOnUse">
<stop stop-color="#336666"/>
<stop offset="0.0053" stop-color="#336666"/>
<stop offset="1" stop-color="#215150"/>
</linearGradient>
<linearGradient id="paint96_linear_631_2561" x1="374.446" y1="345.228" x2="374.446" y2="436.502" gradientUnits="userSpaceOnUse">
<stop stop-color="#DBBC80"/>
<stop offset="0.0053" stop-color="#DBBC80"/>
<stop offset="1" stop-color="#AB8219"/>
</linearGradient>
<linearGradient id="paint97_linear_631_2561" x1="507.824" y1="345.228" x2="507.824" y2="436.502" gradientUnits="userSpaceOnUse">
<stop stop-color="#336666"/>
<stop offset="0.0053" stop-color="#336666"/>
<stop offset="1" stop-color="#215150"/>
</linearGradient>
<linearGradient id="paint98_linear_631_2561" x1="505.932" y1="345.228" x2="505.932" y2="436.502" gradientUnits="userSpaceOnUse">
<stop stop-color="#DBBC80"/>
<stop offset="0.0053" stop-color="#DBBC80"/>
<stop offset="1" stop-color="#AB8219"/>
</linearGradient>
<linearGradient id="paint99_linear_631_2561" x1="441.46" y1="345.228" x2="441.46" y2="436.502" gradientUnits="userSpaceOnUse">
<stop stop-color="#336666"/>
<stop offset="0.0053" stop-color="#336666"/>
<stop offset="1" stop-color="#215150"/>
</linearGradient>
<linearGradient id="paint100_linear_631_2561" x1="439.568" y1="345.228" x2="439.568" y2="436.502" gradientUnits="userSpaceOnUse">
<stop stop-color="#DBBC80"/>
<stop offset="0.0053" stop-color="#DBBC80"/>
<stop offset="1" stop-color="#AB8219"/>
</linearGradient>
<linearGradient id="paint101_linear_631_2561" x1="370.373" y1="315.953" x2="414.678" y2="315.953" gradientUnits="userSpaceOnUse">
<stop stop-color="#F49C84"/>
<stop offset="1" stop-color="#DD7D66"/>
</linearGradient>
<linearGradient id="paint102_linear_631_2561" x1="379.64" y1="311.469" x2="379.64" y2="319.127" gradientUnits="userSpaceOnUse">
<stop stop-color="#F6F8FA"/>
<stop offset="0.4634" stop-color="#F6F8FA"/>
<stop offset="1" stop-color="#D1DCE5"/>
</linearGradient>
<linearGradient id="paint103_linear_631_2561" x1="377.386" y1="311.469" x2="377.386" y2="319.127" gradientUnits="userSpaceOnUse">
<stop stop-color="#F6F8FA"/>
<stop offset="0.4634" stop-color="#F6F8FA"/>
<stop offset="1" stop-color="#D1DCE5"/>
</linearGradient>
<linearGradient id="paint104_linear_631_2561" x1="416.647" y1="315.953" x2="405.525" y2="315.953" gradientUnits="userSpaceOnUse">
<stop stop-color="#BF6960"/>
<stop offset="1" stop-color="#9E4C46"/>
</linearGradient>
<linearGradient id="paint105_linear_631_2561" x1="366.377" y1="321.628" x2="414.678" y2="321.628" gradientUnits="userSpaceOnUse">
<stop stop-color="#439FDD"/>
<stop offset="1" stop-color="#1772BC"/>
</linearGradient>
<linearGradient id="paint106_linear_631_2561" x1="373.279" y1="317.145" x2="373.279" y2="324.803" gradientUnits="userSpaceOnUse">
<stop stop-color="#F6F8FA"/>
<stop offset="0.4634" stop-color="#F6F8FA"/>
<stop offset="1" stop-color="#D1DCE5"/>
</linearGradient>
<linearGradient id="paint107_linear_631_2561" x1="375.532" y1="317.145" x2="375.532" y2="324.803" gradientUnits="userSpaceOnUse">
<stop stop-color="#F6F8FA"/>
<stop offset="0.4634" stop-color="#F6F8FA"/>
<stop offset="1" stop-color="#D1DCE5"/>
</linearGradient>
<linearGradient id="paint108_linear_631_2561" x1="404.775" y1="321.628" x2="414.678" y2="321.628" gradientUnits="userSpaceOnUse">
<stop stop-color="#0A5389"/>
<stop offset="1" stop-color="#1772BC"/>
</linearGradient>
<linearGradient id="paint109_linear_631_2561" x1="524.629" y1="320.716" x2="543.075" y2="320.716" gradientUnits="userSpaceOnUse">
<stop stop-color="#BF6960"/>
<stop offset="1" stop-color="#9E4C46"/>
</linearGradient>
<linearGradient id="paint110_linear_631_2561" x1="524.629" y1="320.933" x2="524.629" y2="324.756" gradientUnits="userSpaceOnUse">
<stop stop-color="#F49C84"/>
<stop offset="1" stop-color="#DD7D66"/>
</linearGradient>
<linearGradient id="paint111_linear_631_2561" x1="524.629" y1="311.725" x2="524.629" y2="320.933" gradientUnits="userSpaceOnUse">
<stop stop-color="#BF6960"/>
<stop offset="1" stop-color="#9E4C46"/>
</linearGradient>
<linearGradient id="paint112_linear_631_2561" x1="524.31" y1="311.725" x2="524.31" y2="320.933" gradientUnits="userSpaceOnUse">
<stop stop-color="#F49C84"/>
<stop offset="1" stop-color="#DD7D66"/>
</linearGradient>
</defs>
</svg>
