<svg width="1104" height="824" viewBox="0 0 1104 824" fill="none" xmlns="http://www.w3.org/2000/svg">
<path d="M1104 723.335H0V723.887H1104V723.335Z" fill="#E6E6E6"/>
<path d="M275.616 756.742H202.482V757.294H275.616V756.742Z" fill="#E6E6E6"/>
<path d="M179.339 756.742H136.961V757.294H179.339V756.742Z" fill="#E6E6E6"/>
<path d="M464.903 764.867H422.527V765.419H464.903V764.867Z" fill="#E6E6E6"/>
<path d="M685.841 777.194H590.471V777.746H685.841V777.194Z" fill="#E6E6E6"/>
<path d="M570.811 777.194H556.828V777.746H570.811V777.194Z" fill="#E6E6E6"/>
<path d="M1000.98 764.867H794.145V765.419H1000.98V764.867Z" fill="#E6E6E6"/>
<path d="M523.327 624.862H96.9646C90.016 624.862 84.3613 619.208 84.3613 612.259V12.9372C84.3613 5.98867 90.016 0.333984 96.9646 0.333984H523.327C530.274 0.333984 535.928 5.98867 535.928 12.9372V612.259C535.928 619.208 530.274 624.862 523.327 624.862ZM96.9646 0.888191C90.3185 0.888191 84.9133 6.29338 84.9133 12.9395V612.261C84.9133 618.907 90.3185 624.313 96.9646 624.313H523.327C529.971 624.313 535.376 618.907 535.376 612.261V12.9372C535.376 6.29338 529.971 0.885984 523.327 0.885984L96.9646 0.888191Z" fill="#E6E6E6"/>
<path d="M1000.91 624.862H574.548C567.602 624.862 561.947 619.208 561.947 612.259V12.9372C561.947 5.98867 567.602 0.333984 574.548 0.333984H1000.91C1007.86 0.333984 1013.51 5.98867 1013.51 12.9372V612.259C1013.51 619.208 1007.86 624.862 1000.91 624.862ZM574.548 0.888191C567.904 0.888191 562.499 6.29338 562.499 12.9395V612.261C562.499 618.907 567.904 624.313 574.548 624.313H1000.91C1007.55 624.313 1012.96 618.907 1012.96 612.261V12.9372C1012.96 6.29338 1007.55 0.885984 1000.91 0.885984L574.548 0.888191Z" fill="#E6E6E6"/>
<path d="M590.417 534.725H541.865V727.338H590.417V534.725Z" fill="#E0E0E0"/>
<path d="M581.196 727.34H590.417V701.109H571.527L581.196 727.34Z" fill="#A37707"/>
<path d="M377.665 534.725H329.113V727.338H377.665V534.725Z" fill="#E0E0E0"/>
<path d="M590.419 534.725H369.617V711.244H590.419V534.725Z" fill="#A37707"/>
<path d="M582.412 543.403V590.104H377.624V543.403H582.412ZM583.264 542.55H376.77V590.959H583.264V542.55Z" fill="#E0E0E0"/>
<path d="M378.838 727.34H369.617V701.109H388.507L378.838 727.34Z" fill="#A37707"/>
<path d="M475.133 566.752C475.133 569.448 477.319 571.636 480.017 571.636C482.713 571.636 484.901 569.45 484.901 566.752C484.901 564.056 482.715 561.868 480.017 561.868C477.321 561.87 475.133 564.056 475.133 566.752Z" fill="#E6E6E6"/>
<path d="M582.412 599.634V646.335H377.624V599.634H582.412ZM583.264 598.781H376.77V647.189H583.264V598.781Z" fill="#E0E0E0"/>
<path d="M475.133 622.983C475.133 625.679 477.319 627.867 480.017 627.867C482.713 627.867 484.901 625.681 484.901 622.983C484.901 620.285 482.715 618.099 480.017 618.099C477.321 618.101 475.133 620.287 475.133 622.983Z" fill="#E6E6E6"/>
<path d="M582.412 655.865V702.566H377.624V655.865H582.412ZM583.264 655.013H376.77V703.421H583.264V655.013Z" fill="#E0E0E0"/>
<path d="M475.133 679.217C475.133 681.913 477.319 684.101 480.017 684.101C482.713 684.101 484.901 681.915 484.901 679.217C484.901 676.518 482.715 674.333 480.017 674.333C477.321 674.333 475.133 676.518 475.133 679.217Z" fill="#E6E6E6"/>
<path d="M348.003 422.866H299.451V727.34H348.003V422.866Z" fill="#E0E0E0"/>
<path d="M338.782 727.34H348.003V701.109H329.113L338.782 727.34Z" fill="#FAFAFA"/>
<path d="M166.542 422.866H117.99V727.34H166.542V422.866Z" fill="#E0E0E0"/>
<path d="M348.002 422.866H158.496V711.244H348.002V422.866Z" fill="#D1B06B"/>
<path d="M339.844 431.031V496.322H166.655V431.031H339.844ZM340.849 430.026H165.65V497.328H340.849V430.026Z" fill="#E0E0E0"/>
<path d="M339.844 504.257V677.444H257.351V504.257H339.844ZM340.848 503.252H256.344V678.453H340.848V503.252Z" fill="#E0E0E0"/>
<path d="M249.148 504.257V677.444H166.655V504.257H249.148ZM250.155 503.252H165.65V678.453H250.155V503.252Z" fill="#E0E0E0"/>
<path d="M167.717 727.34H158.496V701.109H177.386L167.717 727.34Z" fill="#FAFAFA"/>
<path d="M248.365 463.676C248.365 466.374 250.551 468.56 253.249 468.56C255.945 468.56 258.133 466.374 258.133 463.676C258.133 460.98 255.948 458.792 253.249 458.792C250.551 458.794 248.365 460.98 248.365 463.676Z" fill="#A37707"/>
<path d="M265.85 586.722C265.85 589.417 268.036 591.606 270.734 591.606C273.432 591.606 275.618 589.42 275.618 586.722C275.618 584.026 273.432 581.837 270.734 581.837C268.036 581.837 265.85 584.023 265.85 586.722Z" fill="#A37707"/>
<path d="M230.881 586.722C230.881 589.417 233.067 591.606 235.765 591.606C238.461 591.606 240.649 589.42 240.649 586.722C240.649 584.026 238.463 581.837 235.765 581.837C233.069 581.837 230.881 584.023 230.881 586.722Z" fill="#A37707"/>
<path d="M225.382 337.975H204.901C204.901 337.975 208.456 356.908 208.456 368.05C208.456 379.191 192.876 422.866 215.142 422.866C237.405 422.866 221.828 379.189 221.828 368.05C221.825 356.906 225.382 337.975 225.382 337.975Z" fill="#E0E0E0"/>
<path d="M147.502 382.751V396.059C147.502 410.801 159.564 422.864 174.309 422.864H187.617C202.36 422.864 214.422 410.801 214.422 396.059V382.751H147.502Z" fill="#F5F5F5"/>
<path d="M432.033 506.657C432.033 522.096 449.324 534.727 470.457 534.727H489.532C510.667 534.727 527.958 522.096 527.958 506.657H432.033Z" fill="#E0E0E0"/>
<path d="M937.53 484.058C925.96 493.502 909.992 510.795 895.359 535.125C885.613 551.327 879.74 568.304 877.161 590.733C877.216 565.343 877.296 538.064 877.384 512.318C880.323 505.692 887.035 490.424 891.851 478.359C907.919 438.105 913.902 428.207 928.354 393.486C947.627 347.175 967.378 292.225 961.723 296.617C950.2 305.563 906.037 388.258 901.264 400.095C884.845 440.81 880.272 470.488 877.43 499.128C877.519 474.946 877.614 452.742 877.706 435.61C878.002 379.73 878.954 361.695 879.418 356.133C881.204 353.307 883.315 350.013 884.542 348.238C894.916 333.239 898.917 320.461 908.691 298.089C922.542 266.389 934.47 210.107 930.983 212.947C916.463 224.766 905.011 250.178 889.961 282.558C874.913 314.939 879.215 333.559 876.229 361.214C875.602 366.641 875.123 387.12 874.776 415.504C870.873 385.266 863.551 365.338 850.193 347.231C833.761 324.959 817.865 309.913 806.203 302.055C794.54 294.199 826.342 348.909 841.55 372.788C855.094 394.053 867.57 412.819 874.604 431.3C874.231 469.768 874.059 518.481 874.059 563.824C870.57 543.188 864.874 520.969 857.274 503.762C848.141 483.089 834.092 451.38 822.908 440.625C820.221 438.041 834.602 499.711 843.829 516.109C853.059 532.508 859.833 547.962 865.642 557.258C866.998 559.426 871.493 567.79 874.061 572.599C874.085 627.954 874.368 676.799 874.849 693.425H877.241C877.077 689.135 877.051 660.976 877.102 623.708C882.86 603.471 896.031 580.38 906.898 559.313C918.762 536.315 949.102 474.612 937.53 484.058Z" fill="#AB8219"/>
<path d="M910.668 727.34H841.462L836.238 659.501H915.892L910.668 727.34Z" fill="#D1B06B"/>
<path d="M921.05 667.406H831.081L828.504 644.518H923.627L921.05 667.406Z" fill="#A37707"/>
<path d="M274.366 45.6973H150.604V181.597H274.366V45.6973Z" fill="#E0E0E0"/>
<path d="M287.77 45.6973H159.932V181.597H287.77V45.6973Z" fill="#AB8219"/>
<path d="M277.059 170.887V56.4067L170.64 56.4067V170.887H277.059Z" fill="#EBDDBF"/>
<path d="M251.266 143.141V84.1567L196.437 84.1567V143.141H251.266Z" fill="#AB8219"/>
<path d="M905.392 61.5396H790.422V187.786H905.392V61.5396Z" fill="white"/>
<path d="M917.845 61.5396H799.088V187.786H917.845V61.5396Z" fill="#AB8219"/>
<path d="M907.896 177.838V71.4897L809.038 71.4897V177.838H907.896Z" fill="#D2AE74"/>
<path d="M858.466 155.505C875.5 155.505 889.308 141.697 889.308 124.664C889.308 107.631 875.5 93.8228 858.466 93.8228C841.433 93.8228 827.625 107.631 827.625 124.664C827.625 141.697 841.433 155.505 858.466 155.505Z" fill="#AB8219"/>
<path d="M402.936 126.731H311.127V227.544H402.936V126.731Z" fill="#E0E0E0"/>
<path d="M412.882 126.731H318.049V227.544H412.882V126.731Z" fill="#DBBC80"/>
<path d="M404.938 219.6V134.676L325.995 134.676V219.6H404.938Z" fill="white"/>
<path d="M365.467 155.669L343.877 193.066H387.057L365.467 155.669Z" fill="#DBBC80"/>
<path d="M551.999 823.055C788.436 823.055 980.106 811.861 980.106 798.053C980.106 784.246 788.436 773.052 551.999 773.052C315.563 773.052 123.893 784.246 123.893 798.053C123.893 811.861 315.563 823.055 551.999 823.055Z" fill="#D2AE74"/>
<path d="M771.136 239.858L749.235 230.977C749.235 230.977 720.332 283.689 712.054 286.349C700.789 289.97 677.492 300.037 663.648 301.922C661.782 304.104 658.704 310.984 658.998 313.492C677.572 319.686 718.376 311.461 727.11 304.976C747.022 290.185 771.136 239.858 771.136 239.858Z" fill="#E58A7B"/>
<path d="M777.879 227.897C781.953 242.997 759.831 273.329 759.831 273.329L730.77 257.027C730.77 257.027 736.188 244.558 742.821 231.86C753.532 211.354 773.227 210.663 777.879 227.897Z" fill="#585858"/>
<path opacity="0.2" d="M777.879 227.897C781.953 242.997 759.831 273.329 759.831 273.329L730.77 257.027C730.77 257.027 736.188 244.558 742.821 231.86C753.532 211.354 773.227 210.663 777.879 227.897Z" fill="#1F2732"/>
<path opacity="0.2" d="M742.357 263.519L753.771 269.917L755.767 234.885C749.143 239.99 744.444 255.351 742.357 263.519Z" fill="black"/>
<path d="M758.806 216.522C758.806 216.522 736.243 266.723 749.398 360.212C776.19 360.212 825.278 360.212 838.314 360.212C839.727 346.562 835.055 279.977 851.991 215.665C851.991 215.665 836.928 212.607 822.445 211.907C811.116 211.359 794.689 210.997 784.647 211.909C771.408 213.11 758.806 216.522 758.806 216.522Z" fill="#4C525A"/>
<path opacity="0.2" d="M758.806 216.522C758.806 216.522 736.243 266.723 749.398 360.212C776.19 360.212 825.278 360.212 838.314 360.212C839.727 346.562 835.055 279.977 851.991 215.665C851.991 215.665 836.928 212.607 822.445 211.907C811.116 211.359 794.689 210.997 784.647 211.909C771.408 213.11 758.806 216.522 758.806 216.522Z" fill="black"/>
<path d="M738.186 800.049C738.047 802.421 771.759 804.342 813.483 804.342C855.208 804.342 889.145 802.421 889.284 800.049C889.423 797.678 855.711 795.757 813.987 795.757C772.262 795.755 738.325 797.678 738.186 800.049Z" fill="#E8ECF1"/>
<path d="M799.608 740.468L783.785 746.564L797.353 781.781L813.176 775.685L799.608 740.468Z" fill="#E58A7B"/>
<path d="M867.857 783.074H851.233L845.135 744.576H861.759L867.857 783.074Z" fill="#E58A7B"/>
<path d="M850.164 781.149H868.842C869.522 781.149 870.082 781.621 870.191 782.284L872.608 797.06C872.86 798.592 871.571 800.043 870.001 800.016C863.487 799.904 860.341 799.522 852.129 799.522C847.077 799.522 836.636 800.047 829.656 800.047C822.831 800.047 822.171 793.147 825.066 792.522C838.038 789.72 843.09 785.856 847.406 782.171C848.183 781.507 849.17 781.149 850.164 781.149Z" fill="#263238"/>
<path d="M794.819 775.329L812.53 770.18C813.192 769.988 813.874 770.272 814.168 770.866L820.73 784.105C821.41 785.477 820.606 787.199 819.07 787.618C812.655 789.369 808.343 790.464 800.313 792.798C794.764 794.41 789.12 797.038 783.638 798.786C779.842 799.996 770.929 800.045 766.312 800.045C759.487 800.045 757.965 792.849 760.891 792.52C768.294 791.69 769.288 792.074 773.375 790.025C780.132 786.636 785.358 783.829 791.207 777.702C792.227 776.638 793.421 775.735 794.819 775.329Z" fill="#263238"/>
<path d="M666.448 301.763L648.155 294.066L640.623 314.331C640.623 314.331 651.179 316.246 663.235 314.331L666.448 301.763Z" fill="#E58A7B"/>
<path d="M634.56 293.569L634.076 307.054L640.623 314.331L648.154 294.066L634.56 293.569Z" fill="#E58A7B"/>
<path d="M799.668 740.428L783.842 746.537L790.847 764.686L806.673 758.578L799.668 740.428Z" fill="#CF6F64"/>
<path d="M861.763 744.586H845.133L848.286 764.43H864.916L861.763 744.586Z" fill="#CF6F64"/>
<path opacity="0.2" d="M746.576 334.923C746.894 338.917 747.281 343 747.755 347.197L813.874 325.733C824.198 322.647 833.183 316.157 839.31 307.288C839.56 301.388 839.9 295.195 840.399 288.727C840.626 285.574 840.898 282.351 841.193 279.085C841.511 275.683 841.873 272.209 842.282 268.716L746.576 334.923Z" fill="black"/>
<path d="M768.164 262.503L765.912 262.236C767.224 251.218 775.448 242.509 784.137 242.717L784.071 244.987C776.57 244.768 769.343 252.622 768.164 262.503Z" fill="white"/>
<path d="M779.928 282.892C779.804 282.892 779.681 282.889 779.555 282.887L779.621 280.617C787.214 280.896 794.348 272.98 795.527 263.099L797.78 263.369C796.486 274.23 788.521 282.892 779.928 282.892Z" fill="white"/>
<path d="M821.196 169.345C818.098 181.507 814.413 203.79 822.446 211.904C822.446 211.904 816.835 224.241 794.236 224.241C773.585 224.241 784.647 211.904 784.647 211.904C798.398 208.665 798.639 198.603 796.83 189.153L821.196 169.345Z" fill="#E58A7B"/>
<path d="M811.262 177.429L796.842 189.147C797.277 191.383 797.586 193.651 797.615 195.854C801.83 200.052 810.291 189.418 811.158 183.993C811.589 181.29 811.629 178.689 811.262 177.429Z" fill="#CF6F64"/>
<path d="M772.058 169.195C774.171 172.98 777.901 175.336 781.424 176.12C786.726 177.301 789.391 172.423 787.929 167.515C786.613 163.097 782.27 157.159 776.942 158.177C771.694 159.182 769.64 164.868 772.058 169.195Z" fill="#CF6F64"/>
<path d="M780.806 130.27C772.548 134.055 769.638 166.859 780.02 171.71C790.402 176.559 796.448 123.105 780.806 130.27Z" fill="#263238"/>
<path d="M823.715 151.043C821.739 167.51 821.414 177.201 812.602 185.653C799.345 198.367 779.46 190.827 776.495 174.388C773.825 159.592 777.506 135.148 794.011 128.594C810.27 122.138 825.691 134.576 823.715 151.043Z" fill="#E58A7B"/>
<path d="M796.59 138.804C808.805 135.68 817.796 133.551 814.588 143.748C810.313 157.331 805.186 170.491 812.064 171.105C816.246 171.478 834.795 163.607 832.439 155.649C830.388 148.716 839.01 146.846 840.6 143.311C846.325 130.579 829.966 132.233 832.877 124.529C835.712 117.029 819.697 104.353 810.823 110.546C796.46 120.573 771.775 120.429 784.753 103.984C794.047 92.2065 777.465 94.6243 777.465 94.6243C777.465 94.6243 787.48 100.566 770.622 109.751C752.75 119.484 769.109 145.834 796.59 138.804Z" fill="#263238"/>
<path d="M830.088 169.195C827.529 172.98 823.526 175.336 819.909 176.12C814.469 177.301 812.378 172.423 814.414 167.515C816.249 163.097 821.287 157.159 826.496 158.177C831.625 159.182 833.012 164.868 830.088 169.195Z" fill="#E58A7B"/>
<path d="M749.398 360.211C749.398 360.211 734.474 493.789 733.308 544.484C732.098 597.216 783.889 761.738 783.889 761.738L810.409 750.601C810.409 750.601 779.53 600.296 783.82 548.507C788.497 492.051 807.846 360.209 807.846 360.209H749.398V360.211Z" fill="#585858"/>
<path opacity="0.2" d="M786.488 396.888C774.598 421.574 782.608 470.379 789.051 499.311C791.502 478.889 794.406 456.723 797.175 436.211C796.903 404.671 794.452 380.326 786.488 396.888Z" fill="black"/>
<path d="M809.21 741.944C809.333 741.893 812.354 750.396 812.354 750.396L781.786 763.231L776.971 754.277L809.21 741.944Z" fill="#333333"/>
<path d="M780.939 360.211C780.939 360.211 792.357 487.255 799.924 534.851C808.21 586.971 840.761 760.588 840.761 760.588H871.209C871.209 760.588 852.964 591.179 849.518 539.576C845.777 483.568 838.312 360.211 838.312 360.211H780.939Z" fill="#585858"/>
<path d="M871.674 752.655C871.804 752.655 872.692 761.164 872.692 761.164H839.225L836.836 751.396L871.674 752.655Z" fill="#333333"/>
<path opacity="0.2" d="M860.009 742.597C859.865 742.597 859.744 742.489 859.729 742.345C859.563 740.804 843.111 587.858 840.016 541.495C836.657 491.181 829.903 379.622 829.834 378.5C829.826 378.343 829.945 378.209 830.099 378.2C830.106 378.2 830.113 378.2 830.117 378.2C830.265 378.2 830.393 378.317 830.402 378.467C830.468 379.586 837.222 491.146 840.583 541.455C843.676 587.81 860.126 740.745 860.292 742.284C860.309 742.44 860.197 742.579 860.042 742.595C860.029 742.597 860.018 742.597 860.009 742.597Z" fill="black"/>
<path d="M798.467 155.647C798.387 156.987 797.614 158.075 796.738 158.075C795.861 158.075 795.214 156.989 795.294 155.647C795.371 154.306 796.146 153.218 797.023 153.218C797.899 153.218 798.546 154.306 798.467 155.647Z" fill="#263238"/>
<path d="M783.31 155.647C783.231 156.987 782.458 158.075 781.581 158.075C780.705 158.075 780.058 156.989 780.137 155.647C780.217 154.306 780.99 153.218 781.866 153.218C782.743 153.218 783.39 154.306 783.31 155.647Z" fill="#263238"/>
<path d="M788.089 156.313C788.089 156.313 784.587 164.05 781.01 167.782C783.253 169.996 787.345 168.983 787.345 168.983L788.089 156.313Z" fill="#DF5753"/>
<path d="M788.475 174.609C788.259 174.609 788.091 174.433 788.104 174.216C788.117 174 788.305 173.823 788.522 173.823C794.408 173.823 797.396 169.712 797.426 169.67C797.559 169.489 797.806 169.436 797.978 169.555C798.153 169.674 798.19 169.917 798.06 170.1C797.928 170.282 794.783 174.609 788.475 174.609Z" fill="#263238"/>
<path d="M801.161 151.569C800.934 151.657 800.678 151.644 800.466 151.509C797.569 149.685 794.868 150.909 794.842 150.924C794.471 151.114 793.979 150.948 793.813 150.555C793.647 150.162 793.842 149.692 794.244 149.504C794.387 149.436 797.768 147.901 801.362 150.164C801.722 150.392 801.81 150.875 801.563 151.246C801.462 151.397 801.318 151.507 801.161 151.569Z" fill="#263238"/>
<path d="M777.45 147.164C777.342 147.133 777.236 147.077 777.15 146.994C776.841 146.707 776.841 146.21 777.15 145.883C780.232 142.626 783.805 143.123 783.955 143.145C784.374 143.191 784.655 143.609 784.564 144.039C784.474 144.468 784.059 144.763 783.635 144.702C783.515 144.684 780.727 144.328 778.265 146.927C778.046 147.161 777.726 147.243 777.45 147.164Z" fill="#263238"/>
<path d="M860.525 237.396L837.555 231.282C837.555 231.282 815.033 286.72 807.078 290.339C796.252 295.265 768.842 312.302 757.192 320.518C756.545 323.265 757.053 330.587 758.519 332.58C778.327 328.981 816.435 314.331 824.382 306.884C842.501 289.906 860.525 237.396 860.525 237.396Z" fill="#E58A7B"/>
<path d="M844.497 784.052C843.232 784.052 842.061 783.836 841.346 783.207C840.778 782.705 840.547 782.003 840.655 781.125C840.734 780.469 841.099 780.157 841.394 780.012C843.269 779.071 848.456 782.361 849.041 782.741C849.169 782.827 849.231 782.984 849.198 783.14C849.162 783.295 849.039 783.421 848.882 783.456C847.709 783.734 846.033 784.052 844.497 784.052ZM842.229 780.612C842.024 780.612 841.849 780.643 841.712 780.712C841.604 780.767 841.474 780.868 841.439 781.173C841.361 781.8 841.507 782.268 841.889 782.604C842.752 783.37 844.916 783.472 847.773 782.902C845.958 781.816 843.503 780.612 842.229 780.612Z" fill="#407BFF"/>
<path d="M848.789 783.467C848.724 783.467 848.66 783.452 848.603 783.421C846.936 782.485 843.825 778.844 844.286 776.989C844.368 776.653 844.651 776.073 845.6 775.958C846.221 775.881 846.77 776.053 847.247 776.461C849.087 778.04 849.201 782.838 849.206 783.041C849.21 783.185 849.133 783.324 849.007 783.401C848.939 783.445 848.864 783.467 848.789 783.467ZM845.83 776.729C845.772 776.729 845.713 776.735 845.651 776.742C845.136 776.804 845.077 777.04 845.053 777.139C844.779 778.234 846.737 780.988 848.371 782.286C848.259 780.884 847.892 778.086 846.715 777.075C846.444 776.841 846.154 776.729 845.83 776.729Z" fill="#407BFF"/>
<path d="M785.864 781.306C784.239 781.699 782.689 781.816 781.7 781.279C781.071 780.939 780.708 780.369 780.625 779.594C780.574 779.131 780.731 778.727 781.073 778.424C782.852 776.841 790.055 778.543 790.872 778.742C791.031 778.782 791.144 778.919 791.15 779.087C791.157 779.254 791.06 779.411 790.903 779.484C789.567 780.089 787.668 780.868 785.864 781.306ZM782.274 778.682C781.971 778.755 781.733 778.859 781.576 778.998C781.437 779.122 781.386 779.263 781.408 779.466C781.466 779.992 781.695 780.358 782.106 780.584C783.279 781.222 786.001 780.716 789.505 779.25C787.043 778.733 783.824 778.305 782.274 778.682Z" fill="#407BFF"/>
<path d="M790.83 779.506C790.775 779.52 790.72 779.52 790.665 779.513C788.525 779.115 783.954 776.576 783.913 774.675C783.901 774.231 784.111 773.622 785.158 773.26C785.917 772.975 786.699 773.032 787.432 773.392C789.832 774.576 791.086 778.815 791.139 778.994C791.177 779.126 791.142 779.272 791.044 779.38C790.985 779.444 790.91 779.486 790.83 779.506ZM785.608 773.929C785.533 773.947 785.456 773.973 785.376 773.997C784.692 774.238 784.699 774.518 784.699 774.611C784.725 775.75 787.898 777.848 790.139 778.555C789.693 777.336 788.62 774.876 787.048 774.101C786.575 773.867 786.101 773.81 785.608 773.929Z" fill="#407BFF"/>
<path d="M759.062 319.213L736.037 329.812L733.365 336.308L741.875 342.033C741.875 342.033 757.755 340.304 762.279 330.101L759.062 319.213Z" fill="#E58A7B"/>
<path d="M760.043 332.956C758.603 324.402 755.79 320.5 755.764 320.463L759.394 317.74C759.535 317.928 762.871 322.432 764.518 332.203L760.043 332.956Z" fill="#263238"/>
<path d="M763.963 322.346C764.709 324.194 763.51 326.42 761.283 327.321C759.055 328.222 756.646 327.453 755.899 325.605C755.153 323.757 756.352 321.531 758.58 320.631C760.806 319.732 763.217 320.498 763.963 322.346Z" fill="#263238"/>
<path d="M720.48 338.37L723.539 341.468L744.199 332.631L736.038 329.814L720.48 338.37Z" fill="#E58A7B"/>
<path d="M866.51 231.041C872.585 250.62 848.935 277.365 848.935 277.365L816.15 263.985C816.15 263.985 820.77 249.761 829.56 230.703C839.553 209.045 860.379 211.282 866.51 231.041Z" fill="#4C525A"/>
<path opacity="0.2" d="M866.51 231.041C872.585 250.62 848.935 277.365 848.935 277.365L816.15 263.985C816.15 263.985 820.77 249.761 829.56 230.703C839.553 209.045 860.379 211.282 866.51 231.041Z" fill="black"/>
<path d="M540.683 34.8184H526.58V37.0882H540.683V34.8184Z" fill="#DBBC80"/>
<path d="M718.953 45.0283H458.411L434.156 587.576H694.698L718.953 45.0283Z" fill="#DBBC80"/>
<path opacity="0.56" d="M711.175 52.4736H450.634L426.381 595.021H686.923L711.175 52.4736Z" fill="#FAFAFA"/>
<path opacity="0.07" d="M703.396 59.9189H442.856L418.602 602.466H679.143L703.396 59.9189Z" fill="#DBBC80"/>
<path d="M673.74 296.546H451.357L449.5 338.07H671.885L673.74 296.546Z" fill="white"/>
<path d="M573.672 266.261H452.711L451.881 284.839H572.839L573.672 266.261Z" fill="#DBBC80"/>
<path d="M668.733 408.586H446.347L444.49 450.11H666.876L668.733 408.586Z" fill="white"/>
<path opacity="0.47" d="M627.951 506.151H478.405L476.182 555.917H625.725L627.951 506.151Z" fill="#DBBC80"/>
<path d="M617.949 563.626H468.406C468.335 563.626 468.266 563.595 468.216 563.544C468.167 563.493 468.141 563.422 468.145 563.352L470.371 513.586C470.375 513.444 470.492 513.334 470.631 513.334H620.175C620.245 513.334 620.314 513.365 620.365 513.416C620.413 513.466 620.44 513.537 620.435 513.608L618.209 563.374C618.205 563.515 618.088 563.626 617.949 563.626ZM468.679 563.1H617.697L619.896 513.86H470.878L468.679 563.1Z" fill="white"/>
<path d="M547.536 378.304H447.701L446.871 396.882H546.704L547.536 378.304Z" fill="#DBBC80"/>
<path d="M625.098 162.461C624.542 174.894 620.036 186.375 612.811 195.702C601.901 209.838 584.814 219.027 566.004 219.027C547.194 219.027 530.949 209.838 521.305 195.702C514.915 186.375 511.435 174.896 511.991 162.461C513.389 131.217 539.841 105.896 571.062 105.896C602.305 105.894 626.494 131.217 625.098 162.461Z" fill="white"/>
<path d="M630.416 117.735C630.268 121.039 629.072 124.09 627.151 126.567C624.252 130.323 619.712 132.765 614.713 132.765C609.714 132.765 605.4 130.323 602.836 126.567C601.138 124.09 600.213 121.039 600.361 117.735C600.732 109.433 607.762 102.706 616.058 102.706C624.36 102.706 630.787 109.433 630.416 117.735Z" fill="#DBBC80"/>
<path d="M565.974 220C565.718 225.714 563.649 230.993 560.329 235.278C555.319 241.776 547.472 246 538.832 246C530.192 246 522.735 241.776 518.305 235.278C515.37 230.993 513.771 225.714 514.027 220C514.668 205.638 526.819 194 541.156 194C555.505 194 566.615 205.638 565.974 220Z" fill="#DBBC80" fill-opacity="0.2"/>
<path d="M475.305 317.307C475.141 320.982 472.028 323.96 468.354 323.96C464.68 323.96 461.834 320.982 461.997 317.307C462.16 313.633 465.274 310.655 468.948 310.655C472.624 310.653 475.47 313.633 475.305 317.307Z" fill="#AB8219"/>
<path d="M505.084 317.307C504.92 320.982 501.807 323.96 498.133 323.96C494.459 323.96 491.613 320.982 491.776 317.307C491.94 313.633 495.053 310.655 498.727 310.655C502.401 310.655 505.249 313.633 505.084 317.307Z" fill="#AB8219"/>
<path d="M534.865 317.307C534.702 320.982 531.588 323.96 527.914 323.96C524.24 323.96 521.394 320.982 521.557 317.307C521.721 313.633 524.834 310.655 528.508 310.655C532.182 310.653 535.029 313.633 534.865 317.307Z" fill="#AB8219"/>
<path d="M470.297 429.348C470.133 433.022 467.02 436.001 463.346 436.001C459.672 436.001 456.826 433.022 456.989 429.348C457.153 425.674 460.266 422.693 463.94 422.693C467.614 422.696 470.46 425.674 470.297 429.348Z" fill="#A37707"/>
<path d="M500.076 429.348C499.913 433.022 496.799 436.001 493.125 436.001C489.451 436.001 486.605 433.022 486.768 429.348C486.932 425.674 490.045 422.693 493.719 422.693C497.396 422.696 500.239 425.674 500.076 429.348Z" fill="#A37707"/>
<path d="M529.855 429.348C529.692 433.022 526.579 436.001 522.905 436.001C519.23 436.001 516.384 433.022 516.548 429.348C516.711 425.674 519.824 422.693 523.498 422.693C527.173 422.693 530.021 425.674 529.855 429.348Z" fill="#A37707"/>
<path d="M559.639 429.348C559.475 433.022 556.362 436.001 552.688 436.001C549.014 436.001 546.168 433.022 546.331 429.348C546.494 425.674 549.608 422.693 553.282 422.693C556.956 422.696 559.802 425.674 559.639 429.348Z" fill="#AB8219"/>
<path d="M589.416 429.348C589.253 433.022 586.139 436.001 582.465 436.001C578.791 436.001 575.945 433.022 576.108 429.348C576.272 425.674 579.385 422.693 583.059 422.693C586.733 422.696 589.579 425.674 589.416 429.348Z" fill="#A37707"/>
<path d="M287.939 348.074C285.848 352.66 283.647 357.705 281.715 362.627C279.767 367.595 277.824 372.568 276.131 377.611C272.841 387.697 269.756 397.876 268.237 408.083L267.734 411.333C267.694 411.724 267.723 412.281 267.895 412.978C268.217 414.38 269.092 416.257 270.322 418.099C272.808 421.824 276.332 425.595 280.132 429.097C283.923 432.654 288.041 436.056 292.32 439.287C296.557 442.546 301.026 445.736 305.398 448.726L301.282 456.474C290.776 451.881 280.993 446.39 271.516 439.499C266.857 435.948 262.256 432.126 258.18 426.959C256.17 424.354 254.194 421.411 252.9 417.525C252.273 415.586 251.836 413.393 251.834 411.022C251.849 410.477 251.878 409.711 251.916 409.344L252.024 408.247L252.245 406.052C253.446 394.347 256.038 383.097 259.454 372.186C261.176 366.736 263.013 361.342 265.111 356.049C267.252 350.722 269.366 345.608 272.044 340.245L287.939 348.074Z" fill="#E58A7B"/>
<path d="M302.306 447.41L317.908 439.494L313.878 456.641C313.878 456.641 303.165 459.633 298.182 454.436L302.306 447.41Z" fill="#E58A7B"/>
<path d="M332.197 442.309L328.046 456.485L313.877 456.644L317.909 439.494L332.197 442.309Z" fill="#E58A7B"/>
<path d="M354.234 265.402C354.234 265.402 355.588 270.379 357.734 274.131C355.89 275.853 354.234 275.254 354.234 275.254V265.402Z" fill="#DF5753"/>
<path d="M353.773 265.532C354.686 265.532 355.427 264.4 355.427 263.002C355.427 261.605 354.686 260.472 353.773 260.472C352.86 260.472 352.119 261.605 352.119 263.002C352.119 264.4 352.86 265.532 353.773 265.532Z" fill="#263238"/>
<path d="M353.369 260.549L356.725 259.582C356.725 259.582 355.003 262.205 353.369 260.549Z" fill="#263238"/>
<path d="M311.102 281.598C313.118 291.876 315.129 310.711 307.936 317.569C307.936 317.569 310.746 327.995 329.846 327.995C350.848 327.995 339.883 317.569 339.883 317.569C328.421 314.831 328.717 306.328 330.713 298.341L311.102 281.598Z" fill="#E58A7B"/>
<path d="M305.528 258.207C306.581 275.367 306.66 282.651 315.329 291.459C328.365 304.707 349.211 299.66 353.307 282.532C356.992 267.114 354.649 241.642 337.853 234.813C321.302 228.085 304.472 241.046 305.528 258.207Z" fill="#E58A7B"/>
<path d="M307.22 238.79C298.616 241.927 287.136 239.593 291.641 266.153C296.41 294.277 289.068 303.528 289.068 303.528C289.068 303.528 321.729 310.485 355.07 303.113C355.07 303.113 344.891 285.312 347.748 272.322C351.391 255.756 348.503 249.633 348.503 249.633C348.503 249.633 319.32 234.378 307.22 238.79Z" fill="#263238"/>
<path d="M343.653 267.149C343.618 270.549 344.81 273.974 346.356 276.352C348.681 279.931 351.441 278.474 352.132 274.758C352.754 271.415 352.293 265.524 349.314 263.239C346.382 260.991 343.695 263.263 343.653 267.149Z" fill="#E58A7B"/>
<path d="M299.745 241.794C297.261 234.85 309.06 224.17 334.006 228.613C358.952 233.055 360.047 253.801 360.047 253.801L355 247.811L355.227 254.119L329.59 259.045L299.745 241.794Z" fill="#263238"/>
<path d="M301.86 318.737C301.515 316.615 302.942 314.617 305.061 314.268C312.829 312.985 330.484 310.388 339.372 311.618C345.974 312.532 347.72 316.387 347.998 319.54C348.206 321.879 346.272 323.85 343.927 323.744L305.532 322.009C303.688 321.925 302.154 320.561 301.86 318.737Z" fill="#3D4248"/>
<path opacity="0.6" d="M301.86 318.737C301.515 316.615 302.942 314.617 305.061 314.268C312.829 312.985 330.484 310.388 339.372 311.618C345.974 312.532 347.72 316.387 347.998 319.54C348.206 321.879 346.272 323.85 343.927 323.744L305.532 322.009C303.688 321.925 302.154 320.561 301.86 318.737Z" fill="black"/>
<path d="M324.047 704.488L338.277 714.366L362.106 682.072L347.876 672.193L324.047 704.488Z" fill="#E58A7B"/>
<path d="M290.828 703.834L305.882 712.408L326.971 678.252L311.919 669.681L290.828 703.834Z" fill="#E58A7B"/>
<path d="M362.096 682.078L349.817 698.727L335.582 688.844L347.861 672.195L362.096 682.078Z" fill="#CF6F64"/>
<path d="M311.91 669.687L326.969 678.263L316.09 695.865L301.031 687.289L311.91 669.687Z" fill="#CF6F64"/>
<path d="M336.053 426.558C336.053 426.558 391.651 496.628 381.22 563.635C372.794 617.757 324.004 691.043 324.004 691.043L301.063 679.641C301.063 679.641 325.989 630.937 342.357 579.307C349.222 557.655 346.296 533.802 333.463 515.061C305.3 473.926 260.18 498.401 290.531 426.56L336.053 426.558Z" fill="#3D4248"/>
<path opacity="0.6" d="M336.053 426.558C336.053 426.558 391.651 496.628 381.22 563.635C372.794 617.757 324.004 691.043 324.004 691.043L301.063 679.641C301.063 679.641 325.989 630.937 342.357 579.307C349.222 557.655 346.296 533.802 333.463 515.061C305.3 473.926 260.18 498.401 290.531 426.56L336.053 426.558Z" fill="black"/>
<path opacity="0.4" d="M363.325 471.583L355.248 463.55C355.248 464.186 370.905 560.822 375.306 587.98C377.96 579.654 380.002 571.44 381.227 563.635C386.332 530.826 375.599 497.269 363.325 471.583Z" fill="black"/>
<path d="M360.884 426.558C360.884 426.558 427.829 514.613 429.712 567.417C431.291 611.661 356.793 697.126 356.793 697.126L335.166 683.134C335.166 683.134 378.727 622.377 389.694 572.71C385.513 523.549 295.762 426.556 295.762 426.556H360.884V426.558Z" fill="#3D4248"/>
<path opacity="0.6" d="M360.884 426.558C360.884 426.558 427.829 514.613 429.712 567.417C431.291 611.661 356.793 697.126 356.793 697.126L335.166 683.134C335.166 683.134 378.727 622.377 389.694 572.71C385.513 523.549 295.762 426.556 295.762 426.556H360.884V426.558Z" fill="black"/>
<path d="M278.06 321.505C270.89 323.197 264.039 349.222 264.039 349.222L291.999 367.887C291.999 367.887 301.317 347.317 298.064 338.306C294.675 328.922 287.113 319.37 278.06 321.505Z" fill="#3D4248"/>
<path opacity="0.2" d="M283.532 338.251L281.578 360.925L291.987 367.891C291.987 367.891 296.864 357.114 298.317 347.721L283.532 338.251Z" fill="black"/>
<path d="M369.163 322.007C369.163 322.007 377.414 324.912 360.885 426.558C332.967 426.558 304.115 426.558 290.531 426.558C291.713 397.924 291.746 380.267 278.061 321.506C278.061 321.506 292.801 318.299 307.935 317.569C319.774 316.999 329.474 316.619 339.882 317.571C353.603 318.823 369.163 322.007 369.163 322.007Z" fill="#3D4248"/>
<path d="M376.307 338.147C377.902 342.552 379.589 347.317 381.344 351.892C383.029 356.535 384.777 361.17 386.581 365.785L391.995 379.653L393.364 383.12L394.051 384.853L394.395 385.718C394.455 385.873 394.444 385.86 394.422 385.844C394.327 385.802 394.245 385.365 392.876 384.466C392.205 384.049 391.079 383.647 389.993 383.625C388.9 383.585 388.034 383.853 387.537 384.069C386.542 384.544 386.526 384.749 386.548 384.716C386.612 384.683 386.818 384.486 387.043 384.215C388.008 383.056 389.173 381.057 390.196 379.07C391.24 377.045 392.227 374.881 393.21 372.687C395.164 368.286 396.941 363.694 398.75 359.094C400.538 354.482 402.223 349.801 403.892 345.107L408.917 331.015L417.425 333.159C415.742 343.239 413.565 353.111 410.971 363.018C409.703 367.981 408.237 372.903 406.561 377.871C405.727 380.36 404.793 382.841 403.72 385.372C402.605 387.922 401.499 390.437 399.525 393.358C399.006 394.098 398.418 394.879 397.599 395.74C396.734 396.588 395.733 397.613 393.576 398.582C392.503 399.044 391.011 399.452 389.288 399.384C387.573 399.335 385.833 398.726 384.629 397.979C382.183 396.416 381.337 394.928 380.613 393.811C380.277 393.25 379.99 392.671 379.792 392.254L379.372 391.397L378.533 389.684L376.864 386.255C374.682 381.66 372.545 377.041 370.52 372.371C368.515 367.69 366.561 362.983 364.667 358.24C362.854 353.424 361.061 348.759 359.465 343.636L376.307 338.147Z" fill="#E58A7B"/>
<path d="M369.163 322.007C377.619 324.02 387.12 349.006 387.12 349.006L361.989 370.422C361.989 370.422 345.701 343.177 348.997 334.182C352.428 324.813 358.116 319.375 369.163 322.007Z" fill="#3D4248"/>
<path d="M412.843 323.226L421.664 315.849L427.8 325.407L423.28 333.389C423.28 333.389 416.082 339.978 409.71 336.626C407.652 331.96 408.931 326.498 412.843 323.226Z" fill="#E58A7B"/>
<path d="M437.675 315.871L437.014 318.275L423.04 320.622L421.662 315.849L437.675 315.871Z" fill="#E58A7B"/>
<path d="M358.584 698.285L333.371 681.977L337.886 674.125L366.222 691.544L358.584 698.285Z" fill="#3D4248"/>
<path d="M315.708 711.252C313.703 711.252 311.064 709.981 309.466 709.093C309.322 709.014 309.241 708.857 309.258 708.691C309.274 708.53 309.386 708.393 309.541 708.34C310.221 708.126 316.202 706.293 317.896 707.715C318.163 707.94 318.461 708.356 318.366 709.047C318.243 709.963 317.823 710.61 317.121 710.959C316.715 711.162 316.233 711.252 315.708 711.252ZM310.742 708.844C313.484 710.239 315.692 710.753 316.754 710.226C317.207 710.001 317.468 709.579 317.556 708.936C317.602 708.59 317.481 708.437 317.368 708.345C316.478 707.596 313.162 708.179 310.742 708.844Z" fill="#263238"/>
<path d="M309.666 709.142C309.556 709.142 309.45 709.098 309.373 709.018C309.271 708.912 309.234 708.762 309.273 708.621C309.331 708.418 310.709 703.622 312.976 702.529C313.581 702.24 314.195 702.224 314.796 702.474C315.749 702.876 315.844 703.573 315.811 703.951C315.657 705.936 311.609 708.678 309.764 709.129C309.733 709.137 309.7 709.142 309.666 709.142ZM313.945 703.121C313.742 703.121 313.537 703.171 313.329 703.271C311.978 703.922 310.843 706.51 310.3 708.084C312.243 707.267 314.895 705.099 314.99 703.889C315.005 703.692 314.961 703.436 314.473 703.233C314.299 703.158 314.122 703.121 313.945 703.121Z" fill="#263238"/>
<path d="M347.248 720.793C344.762 720.793 341.296 717.599 339.399 715.636C339.278 715.51 339.249 715.322 339.326 715.165C339.406 715.011 339.604 714.922 339.746 714.942C340.62 715.055 348.299 716.093 349.384 718.261C349.591 718.68 349.573 719.126 349.333 719.553C348.927 720.268 348.337 720.679 347.584 720.774C347.476 720.787 347.363 720.793 347.248 720.793ZM340.852 715.931C343.643 718.643 346.08 720.144 347.482 719.957C347.973 719.895 348.344 719.632 348.62 719.146C348.726 718.961 348.734 718.797 348.648 718.627C348.059 717.448 343.959 716.43 340.852 715.931Z" fill="#263238"/>
<path d="M341.094 715.863C340.526 715.863 340.019 715.828 339.619 715.753C339.478 715.726 339.358 715.627 339.308 715.492C339.259 715.355 339.283 715.201 339.376 715.088C339.502 714.936 342.489 711.335 345.311 711.087C346.194 711.019 346.943 711.253 347.583 711.8C348.451 712.545 348.391 713.207 348.188 713.631C347.488 715.101 343.673 715.863 341.094 715.863ZM340.524 715.035C342.991 715.172 346.934 714.353 347.449 713.278C347.493 713.187 347.623 712.913 347.051 712.425C346.574 712.017 346.022 711.847 345.384 711.904C343.532 712.068 341.463 714.033 340.524 715.035Z" fill="#263238"/>
<path d="M310.27 706.819L291.542 701.524C290.859 701.332 290.173 701.648 289.89 702.286L283.569 716.499C282.913 717.974 283.823 719.802 285.403 720.219C291.963 721.953 295.218 722.458 303.454 724.788C308.521 726.221 315.774 728.839 322.772 730.815C329.614 732.75 332.096 725.98 329.36 724.529C317.09 718.027 316.123 713.569 312.767 708.629C312.162 707.74 311.268 707.102 310.27 706.819Z" fill="#3D4248"/>
<path d="M339.908 713.057L323.922 701.957C323.339 701.553 322.589 701.631 322.112 702.141L311.509 713.525C310.409 714.706 310.676 716.731 312.034 717.639C317.674 721.412 320.588 722.949 327.618 727.831C331.944 730.834 340.577 737.493 346.55 741.639C352.392 745.696 356.941 740.101 354.825 737.84C345.34 727.7 343.247 721.346 341.681 715.581C341.396 714.543 340.758 713.646 339.908 713.057Z" fill="#3D4248"/>
<path d="M326.951 692.507L298.121 678.179L301.106 670.378L331.877 685.461L326.951 692.507Z" fill="#3D4248"/>
<path d="M289.478 422.429L287.038 428.726C286.791 429.214 287.369 429.713 288.184 429.713H361.231C361.865 429.713 362.391 429.401 362.43 429.004L363.064 422.707C363.108 422.27 362.558 421.901 361.865 421.901H290.622C290.101 421.901 289.637 422.115 289.478 422.429Z" fill="#3D4248"/>
<path opacity="0.4" d="M289.478 422.429L287.038 428.726C286.791 429.214 287.369 429.713 288.184 429.713H361.231C361.865 429.713 362.391 429.401 362.43 429.004L363.064 422.707C363.108 422.27 362.558 421.901 361.865 421.901H290.622C290.101 421.901 289.637 422.115 289.478 422.429Z" fill="white"/>
<path d="M300.966 430.395H299.058C298.678 430.395 298.389 430.199 298.416 429.96L299.31 421.78C299.337 421.541 299.668 421.345 300.05 421.345H301.957C302.337 421.345 302.626 421.541 302.6 421.78L301.706 429.96C301.679 430.201 301.346 430.395 300.966 430.395Z" fill="#3D4248"/>
<path d="M346.025 430.395H344.117C343.737 430.395 343.448 430.199 343.474 429.96L344.369 421.78C344.395 421.541 344.726 421.345 345.108 421.345H347.016C347.396 421.345 347.685 421.541 347.658 421.78L346.764 429.96C346.738 430.201 346.404 430.395 346.025 430.395Z" fill="#3D4248"/>
<path d="M458.668 281L456.247 272.273H457.632L459.332 279.031H459.413L461.182 272.273H462.554L464.322 279.036H464.403L466.099 272.273H467.489L465.064 281H463.739L461.902 274.463H461.834L459.997 281H458.668ZM470.398 281L467.978 272.273H469.363L471.063 279.031H471.144L472.912 272.273H474.284L476.053 279.036H476.134L477.83 272.273H479.219L476.794 281H475.469L473.632 274.463H473.564L471.728 281H470.398ZM479.997 281.081C479.764 281.081 479.564 280.999 479.396 280.834C479.228 280.666 479.145 280.464 479.145 280.229C479.145 279.996 479.228 279.797 479.396 279.632C479.564 279.464 479.764 279.381 479.997 279.381C480.23 279.381 480.43 279.464 480.598 279.632C480.765 279.797 480.849 279.996 480.849 280.229C480.849 280.385 480.809 280.528 480.73 280.659C480.653 280.787 480.551 280.889 480.423 280.966C480.295 281.043 480.153 281.081 479.997 281.081ZM485.483 281H482.658V272.273H485.573C486.428 272.273 487.162 272.447 487.776 272.797C488.39 273.143 488.86 273.642 489.186 274.293C489.516 274.94 489.681 275.717 489.681 276.624C489.681 277.533 489.515 278.314 489.182 278.967C488.853 279.621 488.375 280.124 487.75 280.476C487.125 280.825 486.37 281 485.483 281ZM483.975 279.849H485.411C486.076 279.849 486.628 279.724 487.069 279.474C487.509 279.222 487.838 278.857 488.057 278.379C488.276 277.899 488.385 277.314 488.385 276.624C488.385 275.939 488.276 275.358 488.057 274.881C487.841 274.403 487.519 274.041 487.09 273.794C486.661 273.547 486.128 273.423 485.492 273.423H483.975V279.849ZM492.635 272.273V281H491.318V272.273H492.635ZM494.553 281V272.273H499.964V273.406H495.869V276.065H499.577V277.195H495.869V281H494.553ZM501.584 272.273H503.182L505.96 279.057H506.062L508.841 272.273H510.439V281H509.186V274.685H509.105L506.531 280.987H505.491L502.918 274.68H502.837V281H501.584V272.273ZM512.353 281V272.273H513.67V279.866H517.625V281H512.353ZM520.309 281H518.912L522.052 272.273H523.574L526.714 281H525.316L522.849 273.858H522.781L520.309 281ZM520.544 277.582H525.078V278.69H520.544V277.582ZM528.933 281L526.513 272.273H527.898L529.598 279.031H529.679L531.447 272.273H532.82L534.588 279.036H534.669L536.365 272.273H537.754L535.33 281H534.004L532.168 274.463H532.099L530.263 281H528.933ZM538.532 281.081C538.299 281.081 538.099 280.999 537.931 280.834C537.763 280.666 537.68 280.464 537.68 280.229C537.68 279.996 537.763 279.797 537.931 279.632C538.099 279.464 538.299 279.381 538.532 279.381C538.765 279.381 538.965 279.464 539.133 279.632C539.3 279.797 539.384 279.996 539.384 280.229C539.384 280.385 539.344 280.528 539.265 280.659C539.188 280.787 539.086 280.889 538.958 280.966C538.83 281.043 538.688 281.081 538.532 281.081ZM548.442 275.111H547.112C547.061 274.827 546.966 274.577 546.827 274.361C546.688 274.145 546.517 273.962 546.315 273.811C546.114 273.661 545.888 273.547 545.638 273.47C545.391 273.393 545.128 273.355 544.849 273.355C544.347 273.355 543.896 273.482 543.499 273.734C543.104 273.987 542.791 274.358 542.561 274.847C542.334 275.335 542.22 275.932 542.22 276.636C542.22 277.347 542.334 277.946 542.561 278.435C542.791 278.923 543.105 279.293 543.503 279.543C543.901 279.793 544.348 279.918 544.845 279.918C545.121 279.918 545.382 279.881 545.629 279.807C545.879 279.73 546.105 279.618 546.307 279.47C546.509 279.322 546.679 279.142 546.818 278.929C546.96 278.713 547.058 278.466 547.112 278.188L548.442 278.192C548.371 278.621 548.233 279.016 548.028 279.376C547.827 279.734 547.567 280.044 547.249 280.305C546.933 280.564 546.572 280.764 546.166 280.906C545.76 281.048 545.317 281.119 544.837 281.119C544.081 281.119 543.408 280.94 542.817 280.582C542.226 280.222 541.76 279.706 541.419 279.036C541.081 278.365 540.912 277.565 540.912 276.636C540.912 275.705 541.082 274.905 541.423 274.237C541.764 273.567 542.23 273.053 542.821 272.695C543.412 272.334 544.084 272.153 544.837 272.153C545.3 272.153 545.732 272.22 546.132 272.354C546.536 272.484 546.898 272.678 547.219 272.933C547.54 273.186 547.805 273.496 548.016 273.862C548.226 274.226 548.368 274.642 548.442 275.111ZM557.598 276.636C557.598 277.568 557.428 278.369 557.087 279.04C556.746 279.707 556.279 280.222 555.685 280.582C555.094 280.94 554.422 281.119 553.669 281.119C552.914 281.119 552.239 280.94 551.645 280.582C551.054 280.222 550.588 279.706 550.248 279.036C549.907 278.365 549.736 277.565 549.736 276.636C549.736 275.705 549.907 274.905 550.248 274.237C550.588 273.567 551.054 273.053 551.645 272.695C552.239 272.334 552.914 272.153 553.669 272.153C554.422 272.153 555.094 272.334 555.685 272.695C556.279 273.053 556.746 273.567 557.087 274.237C557.428 274.905 557.598 275.705 557.598 276.636ZM556.294 276.636C556.294 275.926 556.179 275.328 555.949 274.842C555.722 274.354 555.409 273.984 555.012 273.734C554.617 273.482 554.169 273.355 553.669 273.355C553.167 273.355 552.718 273.482 552.323 273.734C551.928 273.984 551.615 274.354 551.385 274.842C551.158 275.328 551.044 275.926 551.044 276.636C551.044 277.347 551.158 277.946 551.385 278.435C551.615 278.92 551.928 279.29 552.323 279.543C552.718 279.793 553.167 279.918 553.669 279.918C554.169 279.918 554.617 279.793 555.012 279.543C555.409 279.29 555.722 278.92 555.949 278.435C556.179 277.946 556.294 277.347 556.294 276.636ZM559.24 272.273H560.838L563.616 279.057H563.719L566.497 272.273H568.095V281H566.842V274.685H566.761L564.188 280.987H563.148L560.574 274.68H560.493V281H559.24V272.273Z" fill="#A37707"/>
<path d="M299.285 804.344C331.956 804.344 358.44 802.422 358.44 800.052C358.44 797.681 331.956 795.759 299.285 795.759C266.615 795.759 240.131 797.681 240.131 800.052C240.131 802.422 266.615 804.344 299.285 804.344Z" fill="#DBBC80"/>
<path d="M335.335 793.995C324.869 790.957 313.35 787.042 306.222 782.88C306.024 782.765 305.814 782.681 305.613 782.575V735.26H326.664C330.146 735.26 332.968 732.438 332.968 728.956C332.968 725.477 330.146 722.655 326.664 722.655H305.613V506.662H293.007V722.655H271.956C268.477 722.655 265.655 725.477 265.655 728.956C265.655 732.438 268.477 735.26 271.956 735.26H293.007V782.573C292.806 782.679 292.597 782.761 292.398 782.878C285.271 787.04 273.751 790.955 263.286 793.993C259.852 794.989 260.576 800.047 264.151 800.047H299.309H334.467C338.044 800.05 338.768 794.991 335.335 793.995Z" fill="#AB8219"/>
<path d="M338.574 530.906H260.047C253.756 530.906 248.609 525.759 248.609 519.468V496.123C248.609 489.832 253.756 484.686 260.047 484.686H338.574C344.865 484.686 350.012 489.832 350.012 496.123V519.468C350.012 525.759 344.865 530.906 338.574 530.906Z" fill="#AB8219"/>
<path d="M259.324 530.906V534.924C259.324 538.236 262.93 540.948 267.335 540.948H331.285C335.69 540.948 339.296 538.238 339.296 534.924V530.906H259.324Z" fill="#AB8219"/>
<path opacity="0.3" d="M259.324 530.906V534.924C259.324 538.236 262.93 540.948 267.335 540.948H331.285C335.69 540.948 339.296 538.238 339.296 534.924V530.906H259.324Z" fill="white"/>
<path d="M546.568 153.423H545.125V147.248H546.568C548.273 147.248 549.665 148.638 549.665 150.325C549.665 152.03 548.273 153.423 546.568 153.423Z" fill="#D2AE74"/>
<path d="M551.28 141.155V145.782C550.093 144.53 548.413 143.75 546.55 143.75H543.23V141.155H551.28Z" fill="#D2AE74"/>
<path d="M551.28 154.765V159.268H543.23V156.798H546.55C548.413 156.798 550.093 156.015 551.28 154.765Z" fill="#D2AE74"/>
<path d="M556.312 141.155V159.267H564.362V141.155H556.312ZM562.05 156.797H558.622V143.75H562.05V156.797Z" fill="#D2AE74"/>
<path d="M577.443 141.155H569.393V143.75H577.443V141.155Z" fill="#D2AE74"/>
<path d="M572.82 146.567H577.443V159.267H569.393V156.797H572.82V151.595H577.013V148.69H572.82V146.567Z" fill="#D2AE74"/>
<path d="M590.523 141.155V144.932L586.515 148.585L582.473 144.915V141.155H590.523Z" fill="#D2AE74"/>
<path d="M590.523 156.797V159.267H582.473V156.797H583.983V150.925L586.515 153.212L589.015 150.93V156.797H590.523Z" fill="#D2AE74"/>
<path d="M552.287 160.12H542.225V161.63H552.287V160.12Z" fill="#D2AE74"/>
<path d="M565.367 160.12H555.305V161.63H565.367V160.12Z" fill="#D2AE74"/>
<path d="M578.447 160.12H568.385V161.63H578.447V160.12Z" fill="#D2AE74"/>
<path d="M591.529 160.12H581.467V161.63H591.529V160.12Z" fill="#D2AE74"/>
<path d="M553.292 162.482H541.217V163.992H553.292V162.482Z" fill="#D2AE74"/>
<path d="M566.376 162.482H554.301V163.992H566.376V162.482Z" fill="#D2AE74"/>
<path d="M579.456 162.482H567.381V163.992H579.456V162.482Z" fill="#D2AE74"/>
<path d="M592.536 162.482H580.461V163.992H592.536V162.482Z" fill="#D2AE74"/>
<path d="M566.877 124.408L540.715 135.015V137.028H593.037V135.015L566.877 124.408Z" fill="#D2AE74"/>
<path d="M593.037 138.035H540.715V140.048H593.037V138.035Z" fill="#D2AE74"/>
<path d="M546.55 143.75H543.23V156.798H546.55C548.41 156.798 550.09 156.017 551.28 154.765V145.782C550.093 144.53 548.413 143.75 546.55 143.75ZM546.568 153.42H545.125V147.245H546.57C548.275 147.245 549.665 148.638 549.665 150.325C549.665 152.03 548.273 153.42 546.568 153.42Z" fill="white"/>
<path d="M558.623 143.75H562.051V156.798H558.623V143.75Z" fill="white"/>
<path d="M577.443 146.567V143.75H569.393V156.798H572.82V151.597H577.013V148.692H572.82V146.57H577.443V146.567Z" fill="white"/>
<path d="M586.515 148.585L582.473 144.913V156.795H583.088V150.115L586.515 153.213L589.925 150.098V156.795H590.523V144.933L586.515 148.585Z" fill="white"/>
<path d="M583.983 149.58H582.473V156.798H583.983V149.58Z" fill="white"/>
<path d="M590.524 149.58H589.014V156.798H590.524V149.58Z" fill="white"/>
<path d="M533 174.153H537.041C540.05 174.153 542.492 176.595 542.492 179.604C542.492 182.613 540.05 185.055 537.041 185.055H533V174.153ZM535.85 182.235H537.056C538.481 182.235 539.644 181.072 539.644 179.647C539.644 178.237 538.481 177.073 537.056 177.073H535.85V182.235Z" fill="#D2AE74"/>
<path d="M544.455 174.153H547.319V185.055H544.455V174.153Z" fill="#D2AE74"/>
<path d="M549.515 174.153H556.347V176.508H552.378V178.281H555.882V180.708H552.378V185.055H549.514V174.153H549.515Z" fill="#D2AE74"/>
<path d="M564.141 178.194L568.574 174.153H569.868V185.055H566.99V179.458L564.141 182.06L561.276 179.471V185.054H558.398V174.153H559.692L564.141 178.194Z" fill="#D2AE74"/>
<path d="M572.688 185.055V184.388L573.925 184.289V174.776L572.688 174.677V174.001H573.925H574.836H576.073V174.677L574.836 174.776V184.289H579.429L579.498 182.733H580.302V185.055H572.688Z" fill="#585858"/>
<path d="M581.654 184.387L582.466 184.327L586.39 174.002H587.248L591.135 184.327L591.962 184.387V185.055H589.237V184.387L590.201 184.311L589.29 181.837H584.325L583.407 184.311L584.371 184.387V185.055H581.652V184.387H581.654ZM584.629 181.023H588.995L586.846 175.178H586.801L584.629 181.023Z" fill="#585858"/>
<path d="M594.59 174.677L593.467 174.76L595.213 181.927L595.547 183.612H595.593L596.003 181.927L598.432 174.001H599.289L601.711 181.927L602.114 183.634L602.159 183.626L602.516 181.926L604.239 174.759L603.116 174.676V174H606.001V174.676L605.174 174.736L602.6 185.053H601.742L599.169 176.572L598.881 175.41H598.835L598.562 176.572L595.965 185.053H595.108L592.534 174.736L591.707 174.676V174H594.591V174.677H594.59Z" fill="#585858"/>
</svg>
