<svg width="3854" height="2652" viewBox="0 0 3854 2652" fill="none" xmlns="http://www.w3.org/2000/svg">
<path d="M3746.22 2652C3746.22 2652 3746.22 2652 3746.21 2652L2644.86 2649.69C2642.6 2649.68 2640.76 2647.73 2640.76 2645.32V582.171C2640.76 555.82 2662.51 534.38 2689.24 534.38H3701.86C3728.59 534.38 3750.33 555.82 3750.33 582.171V2647.63C3750.33 2648.8 3749.9 2649.91 3749.13 2650.72C3748.35 2651.54 3747.31 2652 3746.22 2652ZM2648.98 2640.96L3742.11 2643.25V582.171C3742.11 560.635 3724.05 543.118 3701.86 543.118H2689.24C2667.04 543.118 2648.98 560.639 2648.98 582.171V2640.96Z" fill="#B2D7FF"/>
<path d="M2350.06 2519.64C2342.95 2510.91 2336.45 2514.64 2328.61 2510.49C2327.79 2510.04 2318.84 2497.8 2317.8 2496.92C2311.96 2491.95 2304.64 2488.39 2297.35 2486.55C2284.85 2483.42 2270.9 2484.91 2260.62 2493.69C2247.03 2505.27 2244.59 2525.27 2256 2537.56C2242.56 2547.61 2242.34 2562.79 2257.08 2568.44C2250.4 2581.33 2256.67 2596.33 2270.52 2599.23C2267.25 2610.73 2273.71 2622.36 2287.29 2624.29C2306.9 2627.09 2320.16 2609.25 2323.51 2590.93C2342.72 2596.01 2352.79 2572.78 2354.98 2553.89C2356.3 2542.58 2357.72 2529.06 2350.06 2519.64Z" fill="white"/>
<path d="M2291.33 2628.96C2289.84 2628.96 2288.31 2628.85 2286.75 2628.63C2278.98 2627.52 2272.66 2623.54 2268.95 2617.42C2266.22 2612.92 2265.12 2607.68 2265.72 2602.33C2259.77 2600.01 2255.04 2595.51 2252.44 2589.55C2249.84 2583.63 2249.61 2576.93 2251.68 2570.63C2246.2 2567.4 2242.74 2562.49 2242.01 2556.7C2241.15 2549.9 2244.15 2542.75 2250.15 2536.95C2246.21 2531.18 2244.29 2524.18 2244.69 2516.83C2245.24 2506.72 2250.11 2497.06 2258.05 2490.28C2268.45 2481.41 2283.11 2478.49 2298.29 2482.3C2306.42 2484.34 2314.26 2488.32 2320.37 2493.51C2321.08 2494.11 2321.91 2495.13 2325.94 2500.4C2327.59 2502.57 2330.01 2505.73 2330.96 2506.84C2333.19 2507.91 2335.4 2508.25 2337.73 2508.61C2342.44 2509.34 2347.78 2510.16 2353.17 2516.79C2362.15 2527.83 2360.37 2543.21 2359.07 2554.42C2357.57 2567.39 2352.2 2583.99 2341.65 2591.69C2337.16 2594.96 2332.05 2596.43 2326.64 2595.9C2322.08 2613.46 2309.26 2628.96 2291.33 2628.96ZM2285.39 2489.41C2276.89 2489.41 2269.13 2492.04 2263.2 2497.1C2257.07 2502.32 2253.32 2509.7 2252.9 2517.33C2252.55 2523.83 2254.7 2529.93 2258.94 2534.5C2259.78 2535.41 2260.21 2536.67 2260.1 2537.95C2259.99 2539.23 2259.36 2540.4 2258.37 2541.14C2252.63 2545.43 2249.56 2550.82 2250.16 2555.55C2250.64 2559.34 2253.6 2562.47 2258.48 2564.34C2259.61 2564.78 2260.51 2565.71 2260.94 2566.91C2261.37 2568.1 2261.27 2569.44 2260.69 2570.56C2258.1 2575.55 2257.81 2581.13 2259.89 2585.87C2261.94 2590.55 2266.11 2593.86 2271.32 2594.95C2272.45 2595.19 2273.45 2595.93 2274.05 2596.99C2274.64 2598.04 2274.79 2599.32 2274.46 2600.5C2273.22 2604.84 2273.72 2609.17 2275.86 2612.69C2278.25 2616.63 2282.5 2619.22 2287.84 2619.98C2304.61 2622.34 2316.43 2606.76 2319.48 2590.11C2319.69 2588.93 2320.36 2587.9 2321.31 2587.26C2322.26 2586.62 2323.42 2586.42 2324.51 2586.7C2329.17 2587.95 2333.26 2587.22 2336.99 2584.5C2345.3 2578.43 2349.68 2563.94 2350.9 2553.37C2352.08 2543.24 2353.54 2530.62 2346.95 2522.52C2343.57 2518.36 2340.62 2517.9 2336.54 2517.27C2333.65 2516.82 2330.37 2516.31 2326.78 2514.41C2325.68 2513.82 2325.2 2513.32 2319.56 2505.92C2317.88 2503.73 2315.58 2500.73 2315.05 2500.17C2310.06 2495.95 2303.37 2492.57 2296.41 2490.82C2292.66 2489.87 2288.96 2489.41 2285.39 2489.41Z" fill="#57092C"/>
<path d="M2418.7 2395.82C2411.59 2387.09 2405.08 2390.82 2397.25 2386.67C2396.42 2386.22 2387.48 2373.98 2386.44 2373.09C2380.59 2368.13 2373.28 2364.56 2365.99 2362.73C2353.49 2359.59 2339.54 2361.09 2329.25 2369.87C2315.67 2381.45 2313.22 2401.45 2324.64 2413.73C2311.2 2423.78 2310.98 2438.97 2325.72 2444.62C2319.03 2457.51 2325.3 2472.5 2339.16 2475.41C2335.89 2486.91 2342.35 2498.54 2355.93 2500.47C2375.54 2503.26 2388.8 2485.43 2392.15 2467.1C2411.36 2472.19 2421.43 2448.95 2423.62 2430.07C2424.93 2418.76 2426.35 2405.24 2418.7 2395.82Z" fill="white"/>
<path d="M2359.97 2505.13C2358.47 2505.13 2356.95 2505.02 2355.38 2504.8C2347.61 2503.69 2341.29 2499.71 2337.58 2493.59C2334.86 2489.09 2333.76 2483.86 2334.36 2478.5C2328.41 2476.18 2323.68 2471.68 2321.07 2465.73C2318.47 2459.8 2318.24 2453.1 2320.31 2446.8C2314.83 2443.57 2311.38 2438.66 2310.65 2432.88C2309.79 2426.07 2312.79 2418.93 2318.78 2413.13C2314.85 2407.35 2312.93 2400.36 2313.33 2393C2313.88 2382.9 2318.75 2373.23 2326.68 2366.46C2337.09 2357.58 2351.75 2354.67 2366.93 2358.48C2375.07 2360.52 2382.91 2364.5 2389 2369.68C2389.71 2370.28 2390.54 2371.31 2394.57 2376.57C2396.23 2378.74 2398.65 2381.91 2399.6 2383.01C2401.83 2384.09 2404.04 2384.43 2406.37 2384.79C2411.08 2385.52 2416.42 2386.34 2421.81 2392.96C2430.78 2403.99 2429 2419.37 2427.7 2430.6C2426.2 2443.57 2420.83 2460.17 2410.28 2467.86C2405.79 2471.14 2400.64 2472.56 2395.28 2472.08C2390.71 2489.63 2377.9 2505.13 2359.97 2505.13ZM2354.03 2365.58C2345.52 2365.58 2337.76 2368.21 2331.83 2373.27C2325.71 2378.49 2321.96 2385.87 2321.54 2393.5C2321.18 2400 2323.33 2406.1 2327.57 2410.66C2328.42 2411.58 2328.85 2412.84 2328.74 2414.12C2328.63 2415.4 2328 2416.57 2327.01 2417.31C2321.27 2421.61 2318.19 2426.99 2318.79 2431.72C2319.28 2435.52 2322.23 2438.64 2327.11 2440.51C2328.24 2440.95 2329.14 2441.88 2329.57 2443.08C2329.99 2444.27 2329.9 2445.61 2329.32 2446.73C2326.73 2451.72 2326.44 2457.3 2328.52 2462.04C2330.57 2466.72 2334.74 2470.03 2339.95 2471.12C2341.09 2471.36 2342.08 2472.11 2342.68 2473.16C2343.28 2474.22 2343.43 2475.49 2343.09 2476.68C2341.86 2481.01 2342.35 2485.34 2344.49 2488.86C2346.88 2492.8 2351.13 2495.39 2356.47 2496.15C2373.24 2498.5 2385.07 2482.93 2388.11 2466.28C2388.33 2465.1 2388.99 2464.07 2389.94 2463.43C2390.89 2462.79 2392.05 2462.59 2393.14 2462.87C2397.82 2464.12 2401.9 2463.39 2405.62 2460.67C2413.93 2454.61 2418.31 2440.11 2419.54 2429.54C2420.71 2419.4 2422.17 2406.79 2415.58 2398.69C2412.2 2394.53 2409.25 2394.07 2405.18 2393.44C2402.29 2392.99 2399 2392.49 2395.41 2390.58C2394.31 2389.99 2393.84 2389.49 2388.18 2382.09C2386.51 2379.9 2384.21 2376.9 2383.68 2376.35C2378.7 2372.13 2372.01 2368.75 2365.04 2367C2361.29 2366.04 2357.59 2365.58 2354.03 2365.58Z" fill="#57092C"/>
<path d="M2475.82 2590.57C2483.76 2577.7 2479.71 2566.37 2473.85 2553.43C2468.05 2540.66 2462.71 2519.4 2451.85 2510.58C2449.84 2508.94 2447.39 2507.28 2444.7 2505.69C2457.1 2506.17 2473.61 2498.41 2483.62 2492.68C2491.9 2515.35 2518.09 2523.99 2536.28 2504.77C2545.16 2495.39 2548.27 2481.75 2545.79 2468.88C2543.91 2459.11 2540.46 2457.8 2543.35 2449.17C2545.59 2442.48 2550.66 2437.05 2552.47 2429.68C2559.96 2399.17 2540.46 2369.6 2510.97 2366.01C2505.09 2365.3 2499.3 2365.95 2493.59 2367.48C2483.01 2370.34 2473.87 2372.53 2463.12 2374.79C2453.17 2376.89 2447.71 2379.23 2447.92 2391.76C2447.93 2392.19 2448.07 2392.5 2448.16 2392.86C2431.99 2399.1 2418.42 2413.4 2419.57 2433.33C2420.01 2440.98 2422.76 2449.4 2428.97 2453.95C2436.29 2459.32 2443.84 2457.01 2451.49 2456.34C2438.38 2467.39 2421.47 2485.76 2432.04 2499.76C2417.82 2494.7 2402.09 2494.53 2396.78 2509.51C2378.09 2508.58 2359.89 2513.1 2359.92 2536.95C2359.93 2545.46 2361.82 2558.3 2368.55 2564C2374.6 2569.12 2377.74 2567.35 2382.42 2564.67C2384.37 2576.69 2388.46 2589.22 2397.58 2596.79C2402.52 2600.89 2405.65 2601.06 2411.42 2602.17C2416.34 2603.13 2416.69 2601.56 2421.18 2604.2C2429.12 2608.87 2430.02 2616.31 2441.96 2614.55C2453.79 2612.81 2469.31 2601.14 2475.82 2590.57Z" fill="white"/>
<path d="M2438.65 2619.18C2431.36 2619.18 2427.76 2615.63 2424.52 2612.44C2422.88 2610.82 2421.33 2609.29 2419.18 2608.02C2417.29 2606.91 2416.87 2606.91 2415.46 2606.91C2414.37 2606.9 2412.88 2606.9 2410.68 2606.47L2408.82 2606.12C2404.02 2605.24 2400.23 2604.54 2395.04 2600.23C2387.46 2593.94 2382.32 2584.33 2379.41 2570.95C2375.76 2572.21 2371.5 2572.08 2365.98 2567.41C2356.56 2559.42 2355.8 2542.07 2355.8 2536.94C2355.79 2527.37 2358.48 2519.77 2363.78 2514.38C2370.24 2507.83 2380.18 2504.75 2394.15 2505.04C2399.33 2494.49 2410.35 2490.32 2424.84 2493.21C2424.56 2491.41 2424.53 2489.55 2424.73 2487.63C2425.69 2478.53 2432.14 2469.39 2439.44 2461.76C2435.27 2461.66 2430.93 2460.69 2426.64 2457.54C2420.14 2452.78 2416.07 2444.05 2415.47 2433.6C2414.17 2411.4 2428.76 2396.79 2443.82 2389.98C2444.22 2375.52 2452.44 2372.58 2462.32 2370.5C2472.98 2368.26 2482.03 2366.09 2492.58 2363.25C2499.25 2361.45 2505.42 2360.92 2511.44 2361.67C2526.83 2363.55 2540.58 2372.26 2549.16 2385.56C2557.62 2398.69 2560.27 2415.17 2556.44 2430.78C2555.3 2435.47 2553.12 2439.26 2551.02 2442.92C2549.51 2445.57 2548.08 2448.07 2547.22 2450.64C2545.8 2454.87 2546.27 2456.2 2547.51 2459.77C2548.22 2461.83 2549.12 2464.39 2549.81 2468.01C2552.68 2482.9 2548.7 2497.8 2539.17 2507.87C2530.01 2517.55 2518.06 2521.6 2506.37 2518.95C2495.82 2516.57 2486.85 2509.13 2481.68 2498.68C2475.39 2502.02 2465.75 2506.55 2456.21 2508.77C2463.98 2516.31 2468.79 2529.02 2473.07 2540.33C2474.62 2544.43 2476.08 2548.31 2477.55 2551.55C2483.63 2564.96 2488.34 2578.22 2479.26 2592.97C2479.26 2592.97 2479.26 2592.97 2479.25 2592.97C2472.54 2603.86 2456.18 2616.87 2442.51 2618.88C2441.12 2619.08 2439.83 2619.18 2438.65 2619.18ZM2382.42 2560.3C2383.03 2560.3 2383.65 2560.44 2384.22 2560.74C2385.41 2561.35 2386.25 2562.54 2386.48 2563.93C2388.75 2578 2393.21 2587.62 2400.1 2593.34C2403.67 2596.3 2405.86 2596.71 2410.23 2597.51L2412.16 2597.87C2413.64 2598.16 2414.54 2598.16 2415.5 2598.17C2417.81 2598.17 2419.71 2598.33 2423.17 2600.37C2426.2 2602.15 2428.28 2604.21 2430.12 2606.03C2433.45 2609.3 2435.29 2611.09 2441.4 2610.22C2451.42 2608.74 2466.18 2598.24 2472.39 2588.18C2479.16 2577.19 2475.73 2567.63 2470.15 2555.32C2468.56 2551.82 2467.05 2547.82 2465.44 2543.58C2461.23 2532.44 2456.46 2519.82 2449.36 2514.05C2447.58 2512.6 2445.28 2511.03 2442.7 2509.5C2441.05 2508.52 2440.23 2506.45 2440.75 2504.51C2441.24 2502.61 2442.87 2501.32 2444.71 2501.32C2444.76 2501.32 2444.8 2501.32 2444.86 2501.32C2458.08 2501.84 2476.33 2491.9 2481.68 2488.83C2482.71 2488.23 2483.95 2488.15 2485.05 2488.57C2486.16 2489.01 2487.03 2489.93 2487.46 2491.1C2491.11 2501.09 2498.82 2508.31 2508.08 2510.4C2517.12 2512.44 2526.12 2509.34 2533.39 2501.67C2540.95 2493.68 2544.08 2481.75 2541.77 2469.75C2541.2 2466.79 2540.46 2464.66 2539.8 2462.79C2538.34 2458.56 2537.06 2454.91 2539.47 2447.7C2540.62 2444.28 2542.34 2441.28 2544.01 2438.37C2545.88 2435.1 2547.65 2432.02 2548.5 2428.57C2551.78 2415.21 2549.61 2401.7 2542.39 2390.5C2535.15 2379.28 2523.53 2371.93 2510.51 2370.35C2505.5 2369.73 2500.3 2370.18 2494.61 2371.71C2483.91 2374.6 2474.73 2376.8 2463.92 2379.08C2454.42 2381.07 2451.94 2382.56 2452.04 2391.37L2452.15 2391.8C2452.66 2393.97 2451.54 2396.2 2449.56 2396.96C2436.33 2402.07 2422.58 2414.23 2423.68 2433.06C2424.12 2440.71 2426.97 2447.17 2431.31 2450.35C2436.05 2453.82 2441.1 2453.19 2446.95 2452.45C2448.35 2452.27 2449.75 2452.1 2451.15 2451.98C2452.99 2451.75 2454.66 2452.93 2455.32 2454.73C2455.98 2456.51 2455.47 2458.56 2454.05 2459.75C2441.24 2470.55 2433.74 2480.79 2432.91 2488.61C2432.57 2491.74 2433.33 2494.5 2435.24 2497.02C2436.38 2498.53 2436.45 2500.66 2435.41 2502.25C2434.36 2503.84 2432.45 2504.51 2430.73 2503.89C2421.58 2500.63 2405.52 2497.24 2400.62 2511.05C2399.99 2512.82 2398.29 2514.01 2396.58 2513.87C2383.69 2513.23 2374.57 2515.53 2369.47 2520.7C2365.8 2524.43 2364.02 2529.73 2364.03 2536.93C2364.03 2545.07 2365.89 2556.15 2371.11 2560.57C2375.05 2563.91 2376.09 2563.33 2380.46 2560.82C2381.07 2560.47 2381.74 2560.3 2382.42 2560.3Z" fill="#57092C"/>
<path d="M2538.2 2642.67H2232.18C2223.48 2642.67 2216.22 2635.62 2215.43 2626.4L2177.84 2187.73C2176.95 2177.27 2184.71 2168.23 2194.6 2168.23H2575.78C2585.67 2168.23 2593.43 2177.26 2592.53 2187.73L2554.95 2626.4C2554.17 2635.61 2546.9 2642.67 2538.2 2642.67ZM2258.24 2612.34H2512.14C2520.85 2612.34 2528.11 2605.29 2528.9 2596.08L2561.29 2218.06C2562.19 2207.58 2554.42 2198.55 2544.53 2198.55H2225.85C2215.96 2198.55 2208.2 2207.58 2209.1 2218.06L2241.48 2596.08C2242.28 2605.29 2249.54 2612.34 2258.24 2612.34Z" fill="#B2D7FF"/>
<path d="M2324.91 2186.8L2318.01 2179.86L2199.26 2313.12L2206.17 2320.06L2324.91 2186.8Z" fill="#B2D7FF"/>
<path d="M2401.89 2186.79L2394.99 2179.82L2212.16 2384.47L2219.06 2391.44L2401.89 2186.79Z" fill="#B2D7FF"/>
<path d="M2479.09 2186.78L2472.18 2179.81L2219.71 2462.26L2226.62 2469.23L2479.09 2186.78Z" fill="#B2D7FF"/>
<path d="M2556.05 2186.79L2549.15 2179.82L2226.76 2540.69L2233.66 2547.66L2556.05 2186.79Z" fill="#B2D7FF"/>
<path d="M2574.12 2255.11L2567.1 2248.28L2239 2628.75L2246.02 2635.58L2574.12 2255.11Z" fill="#B2D7FF"/>
<path d="M2566.99 2362.46L2559.97 2355.63L2325.88 2627.09L2332.89 2633.92L2566.99 2362.46Z" fill="#B2D7FF"/>
<path d="M2560.83 2468.67L2553.82 2461.84L2414.1 2623.86L2421.11 2630.7L2560.83 2468.67Z" fill="#B2D7FF"/>
<path d="M2574.19 2312.9L2455.29 2179.81L2448.39 2186.76L2567.29 2319.86L2574.19 2312.9Z" fill="#B2D7FF"/>
<path d="M2561.05 2384.47L2378.22 2179.81L2371.32 2186.77L2554.16 2391.43L2561.05 2384.47Z" fill="#B2D7FF"/>
<path d="M2553.59 2462.33L2301.19 2179.8L2294.29 2186.77L2546.68 2469.3L2553.59 2462.33Z" fill="#B2D7FF"/>
<path d="M2546.48 2540.69L2224.09 2179.82L2217.19 2186.78L2539.58 2547.65L2546.48 2540.69Z" fill="#B2D7FF"/>
<path d="M2534.04 2629.08L2205.94 2248.56L2198.92 2255.39L2527.03 2635.91L2534.04 2629.08Z" fill="#B2D7FF"/>
<path d="M2447.27 2627.42L2213.18 2355.92L2206.16 2362.74L2440.26 2634.25L2447.27 2627.42Z" fill="#B2D7FF"/>
<path d="M2359.03 2624.19L2219.31 2462.14L2212.3 2468.97L2352.01 2631.02L2359.03 2624.19Z" fill="#B2D7FF"/>
<path d="M1404.5 1945.85H3.9668V2260.35H1404.5V1945.85Z" fill="#4C4A3D"/>
<path d="M1346.81 1991.89H61.6592V2214.31H1346.81V1991.89Z" fill="#B2AF9C"/>
<path d="M441.199 2085.62H150.771V2118.86H441.199V2085.62Z" fill="white"/>
<path d="M850.256 2085.62H559.827V2118.86H850.256V2085.62Z" fill="white"/>
<path d="M1259.31 2085.62H968.881V2118.86H1259.31V2085.62Z" fill="white"/>
<path d="M1404.5 2327.62H3.9668V2642.12H1404.5V2327.62Z" fill="#4C4A3D"/>
<path d="M1346.81 2373.65H61.6592V2596.07H1346.81V2373.65Z" fill="#B2AF9C"/>
<path d="M441.199 2467.39H150.771V2500.63H441.199V2467.39Z" fill="white"/>
<path d="M850.256 2467.39H559.827V2500.63H850.256V2467.39Z" fill="white"/>
<path d="M1259.31 2467.39H968.881V2500.63H1259.31V2467.39Z" fill="white"/>
<path d="M3303.96 2642.93C3318.57 2642.93 3330.43 2630.34 3330.43 2614.8C3330.43 2599.27 3318.57 2586.67 3303.96 2586.67C3289.34 2586.67 3277.49 2599.27 3277.49 2614.8C3277.49 2630.34 3289.34 2642.93 3303.96 2642.93Z" fill="#83BDF2"/>
<path d="M3420.62 2642.93C3435.24 2642.93 3447.09 2630.34 3447.09 2614.8C3447.09 2599.27 3435.24 2586.67 3420.62 2586.67C3406 2586.67 3394.15 2599.27 3394.15 2614.8C3394.15 2630.34 3406 2642.93 3420.62 2642.93Z" fill="#83BDF2"/>
<path d="M3537.28 2642.93C3551.9 2642.93 3563.75 2630.34 3563.75 2614.8C3563.75 2599.27 3551.9 2586.67 3537.28 2586.67C3522.66 2586.67 3510.81 2599.27 3510.81 2614.8C3510.81 2630.34 3522.66 2642.93 3537.28 2642.93Z" fill="#83BDF2"/>
<path d="M3450.02 1918.41H3391.2V2579.96H3450.02V1918.41Z" fill="#B2AF9C"/>
<path d="M3455.34 2232H3385.89C3376.25 2232 3368.44 2223.69 3368.44 2213.45V2124.17H3472.8V2213.45C3472.8 2223.69 3464.98 2232 3455.34 2232Z" fill="#83BDF2"/>
<path d="M3578.75 2596.05H3262.47C3262.47 2575.34 3278.27 2558.54 3297.77 2558.54H3543.46C3562.95 2558.54 3578.75 2575.34 3578.75 2596.05Z" fill="#83BDF2"/>
<path d="M3714.1 1626.43L3710.19 1651.02L3637.51 2123.93H3316.39L3385.9 1670.25C3389.91 1644.97 3410.62 1626.43 3434.69 1626.43H3714.1Z" fill="#4C4A3D"/>
<path d="M3668.95 2133.53L3610.02 2123.95L3682.32 1652.88C3684.79 1637.6 3697.25 1626.43 3711.84 1626.43C3730.39 1626.43 3744.48 1644.18 3741.36 1663.62L3668.95 2133.53Z" fill="#B2AF9C"/>
<path d="M3098.46 2168.23H3472.84C3487.76 2168.23 3499.85 2155.38 3499.85 2139.53C3499.85 2123.68 3487.76 2110.83 3472.84 2110.83H3098.46C3083.55 2110.83 3071.46 2123.68 3071.46 2139.53C3071.45 2155.38 3083.55 2168.23 3098.46 2168.23Z" fill="#83BDF2"/>
<path d="M3428.34 2168.23H3647.41C3662.33 2168.23 3674.42 2155.38 3674.42 2139.53C3674.42 2123.68 3662.33 2110.83 3647.41 2110.83H3428.34C3413.42 2110.83 3401.34 2123.68 3401.34 2139.53C3401.34 2155.38 3413.42 2168.23 3428.34 2168.23Z" fill="#B2AF9C"/>
<path d="M3638.4 1725.58H3433.15C3429.07 1725.58 3425.76 1722.06 3425.76 1717.73C3425.76 1713.39 3429.07 1709.88 3433.15 1709.88H3638.4C3642.48 1709.88 3645.78 1713.39 3645.78 1717.73C3645.78 1722.06 3642.48 1725.58 3638.4 1725.58Z" fill="#1D3599"/>
<path d="M3617.87 1827.2H3412.63C3408.55 1827.2 3405.24 1823.69 3405.24 1819.35C3405.24 1815.02 3408.55 1811.5 3412.63 1811.5H3617.87C3621.95 1811.5 3625.26 1815.02 3625.26 1819.35C3625.26 1823.69 3621.95 1827.2 3617.87 1827.2Z" fill="#1D3599"/>
<path d="M3329.31 2500.17C3318.26 2494.45 3298.22 2430.61 3298.22 2430.61L3244.49 2470.7C3263.43 2521.99 3253.49 2572.57 3207.62 2613.93C3201.25 2619.67 3197.97 2626.09 3196.54 2632.54H3263.97L3366.85 2555.75C3366.85 2555.75 3374.49 2523.52 3329.31 2500.17Z" fill="#FECCCD"/>
<path d="M3366.84 2555.74L3346.98 2570.54L3254.94 2639.24L3195.56 2641.53C3195.36 2632.25 3198.27 2622.35 3207.66 2613.9C3217.54 2604.94 3227.43 2591.91 3235.47 2578.47C3242.44 2566.58 3248.06 2554.49 3250.68 2544.49C3299.79 2542.3 3322.76 2514.78 3329.35 2500.19C3374.49 2523.53 3366.84 2555.74 3366.84 2555.74Z" fill="#580A2D"/>
<path d="M3346.98 2570.54L3254.94 2639.24L3181.36 2642.78C3181.36 2642.78 3177 2596.5 3211.88 2591.71C3224.48 2589.94 3258.72 2565.23 3266.18 2558.25C3301.83 2580.65 3330.99 2577.32 3346.98 2570.54Z" fill="#580A2D"/>
<path d="M3234.55 2579.96C3234.55 2579.96 3250.57 2542.23 3243.98 2524.42C3237.41 2506.6 3263.3 2507.89 3267.72 2510.93C3272.14 2513.98 3266.73 2555.29 3234.55 2579.96Z" fill="#580A2D"/>
<path d="M2907.02 2503.39H2844.06C2832.88 2554.51 2799.22 2588.23 2741.82 2593.81C2708.09 2597.09 2710.74 2641.23 2710.74 2641.23H2897.49C2897.49 2641.23 2919.97 2620.49 2896.14 2575.89C2890.31 2564.97 2907.02 2503.39 2907.02 2503.39Z" fill="#FECCCD"/>
<path d="M2741.82 2593.81C2708.09 2597.09 2710.74 2641.23 2710.74 2641.23H2897.49C2897.49 2641.23 2919.97 2620.49 2896.14 2575.89C2883.51 2583.52 2851.32 2591.57 2811.35 2564.66C2795.93 2577.93 2765.21 2591.54 2741.82 2593.81Z" fill="#580A2D"/>
<path d="M2780.46 2582.97C2780.46 2582.97 2812.37 2562.83 2816.26 2545.07C2820.14 2527.3 2839.97 2543.41 2841.91 2548.37C2843.86 2553.33 2818.51 2582.45 2780.46 2582.97Z" fill="#580A2D"/>
<path d="M3343.02 1906.64C3231.56 1856.97 2942.92 1984.25 2893.54 2041.64C2886.37 2049.98 2881.72 2058.07 2878.99 2065.83C2822.03 2176.37 2836.84 2464.62 2819.63 2519.7C2819.63 2519.7 2870.41 2547.53 2923.34 2555.13C2923.34 2555.13 2992.68 2245.98 3011.58 2142.42C3089.14 2144.17 3176.12 2150.22 3255.98 2122.54C3362.49 2085.61 3425.52 1943.4 3343.02 1906.64Z" fill="#B2AF9C"/>
<path d="M2923.34 2559.5C2923.15 2559.5 2922.97 2559.49 2922.78 2559.46C2869.77 2551.86 2819.84 2524.74 2817.74 2523.58C2815.94 2522.59 2815.09 2520.37 2815.72 2518.32C2821.53 2499.75 2823.7 2451.13 2826.22 2394.84C2831.09 2286.05 2837.75 2137.11 2875.24 2064C2878.32 2055.41 2883.45 2046.9 2890.5 2038.7C2916.4 2008.61 3003.75 1961.81 3093.7 1929.85C3244.75 1876.18 3315.74 1889.74 3344.61 1902.61C3371.81 1914.73 3386.12 1939 3384.9 1970.96C3382.81 2025.3 3333.42 2100.29 3257.26 2126.7C3185.31 2151.64 3106.41 2149.41 3036.81 2147.46C3029.45 2147.25 3022.16 2147.05 3014.95 2146.88C2995.34 2252.76 2928.02 2553.09 2927.33 2556.15C2926.89 2558.13 2925.21 2559.5 2923.34 2559.5ZM2824.56 2517.41C2835.89 2523.22 2877.2 2543.29 2920.2 2550.24C2928.28 2514.15 2990.02 2237.61 3007.54 2141.59C3007.91 2139.54 3009.61 2138.06 3011.57 2138.06C3011.6 2138.06 3011.63 2138.06 3011.66 2138.06C3020.01 2138.24 3028.47 2138.48 3037.02 2138.72C3105.98 2140.66 3184.11 2142.87 3254.7 2118.39C3327.5 2093.14 3374.7 2022.02 3376.67 1970.6C3377.44 1950.77 3371.94 1924.27 3341.43 1910.67C3232.61 1862.17 2945.52 1987.71 2896.57 2044.6C2890.15 2052.06 2885.53 2059.72 2882.84 2067.36C2882.77 2067.56 2882.69 2067.74 2882.59 2067.93C2845.88 2139.17 2839.27 2287.18 2834.43 2395.25C2831.94 2451.13 2829.93 2495.94 2824.56 2517.41Z" fill="#57092C"/>
<path d="M3284.34 1585.2C3265.64 1633.06 3130.75 1784.5 3105.96 1813.47C3076.08 1848.39 3004.43 1817.99 3016.6 1776.75C3027.37 1740.26 3170.86 1540.48 3191.89 1522.04C3229.86 1488.75 3307.75 1525.31 3284.34 1585.2Z" fill="#FECCCD"/>
<path d="M3220.1 1700.67C3264.44 1648.11 3297.74 1575.68 3308.15 1549.47C3332.88 1487.19 3263.24 1441.57 3224.45 1474.76C3214.76 1483.04 3145.44 1536.7 3107.76 1594.48C3128.93 1648.21 3210.42 1697.91 3220.1 1700.67Z" fill="#FFBD00"/>
<path d="M3538.26 1906.64C3484.73 1791.52 3113.67 1985.79 3064.15 2043.24C3055.72 2050.95 3049.76 2059.58 3047.69 2067.6C3018.83 2179.13 3218.66 2449.4 3230.89 2511.47C3230.89 2511.47 3287.66 2487.39 3318.95 2451.72C3318.95 2451.72 3252.2 2252.81 3212.32 2139.58C3287.97 2137.23 3368.13 2133.46 3442.49 2107.67C3548.99 2070.74 3570.08 1975.08 3538.26 1906.64Z" fill="#B2AF9C"/>
<path d="M3230.89 2515.83C3230.22 2515.83 3229.55 2515.66 3228.94 2515.31C3227.87 2514.7 3227.11 2513.62 3226.86 2512.36C3222.93 2492.4 3197.48 2447.65 3168.02 2395.84C3107.25 2288.97 3024.01 2142.6 3043.72 2066.44C3045.96 2057.8 3052.19 2048.45 3061.28 2040.09C3101.07 1994.38 3363.1 1849.47 3486.17 1868.08C3513.83 1872.26 3532.59 1884.58 3541.94 1904.7C3559.11 1941.61 3560.56 1983.96 3545.95 2020.89C3534.33 2050.24 3507.16 2089.84 3443.76 2111.83C3372.61 2136.5 3296.47 2141.23 3218.17 2143.78C3257.82 2256.62 3322.16 2448.29 3322.81 2450.25C3323.33 2451.79 3322.99 2453.5 3321.95 2454.7C3290.39 2490.68 3234.76 2514.53 3232.41 2515.53C3231.92 2515.73 3231.4 2515.83 3230.89 2515.83ZM3461.97 1875.12C3333.92 1875.12 3103.47 2004.1 3067.18 2046.19C3067.08 2046.32 3066.95 2046.44 3066.83 2046.55C3058.86 2053.83 3053.47 2061.72 3051.65 2068.76C3032.89 2141.3 3115.06 2285.81 3175.06 2391.32C3203.85 2441.95 3227.04 2482.72 3233.65 2505.48C3247.04 2499.27 3288.67 2478.61 3314.23 2450.65C3306.32 2427.11 3245.46 2246.12 3208.47 2141.12C3208 2139.8 3208.17 2138.32 3208.91 2137.15C3209.64 2135.98 3210.87 2135.26 3212.2 2135.22C3291.89 2132.73 3369.38 2128.43 3441.22 2103.52C3501.67 2082.56 3527.42 2045.17 3538.37 2017.5C3552.06 1982.91 3550.68 1943.21 3534.58 1908.57C3526.5 1891.19 3509.82 1880.48 3485.02 1876.73C3477.8 1875.64 3470.08 1875.12 3461.97 1875.12Z" fill="#57092C"/>
<path d="M3291.35 1453.76C3291.35 1453.76 3250.63 1450.03 3229.14 1473.12C3207.64 1496.21 3171.46 1597.38 3184.52 1713.92C3197.59 1830.46 3176.25 1903.12 3176.25 1903.12C3176.25 1903.12 3322.56 1980 3557.63 1927.52C3557.63 1927.52 3568.21 1598.72 3512.48 1483.58C3494.78 1447.01 3411.93 1446.93 3399.37 1445.77C3386.81 1444.6 3291.35 1453.76 3291.35 1453.76Z" fill="#FFBD00"/>
<path d="M3301.51 1402.74C3301.51 1402.74 3308.03 1443.03 3296.1 1448.36C3284.18 1453.68 3268.25 1455.47 3268.25 1455.47C3268.25 1455.47 3333.41 1555.71 3407.56 1446.25C3407.56 1446.25 3385.44 1446.53 3378.59 1437.05C3371.73 1427.56 3367.51 1380.59 3370.92 1349.59L3301.51 1402.74Z" fill="#FECCCD"/>
<path d="M3559.82 1514.7C3595.25 1550.3 3680.43 1738.17 3697.09 1773.1C3717.16 1815.19 3679.3 1862.74 3643.05 1843.14C3612.16 1826.45 3480.11 1611.5 3471.38 1584.04C3455.61 1534.49 3515.48 1470.14 3559.82 1514.7Z" fill="#FECCCD"/>
<path d="M3652.01 1850.48C3605.46 1856.37 3436.11 1819.77 3404.02 1813.51C3365.33 1805.97 3355.11 1741.3 3395.51 1744.32C3434.49 1747.23 3657.37 1749.45 3679.33 1757.27C3718.97 1771.38 3710.25 1843.11 3652.01 1850.48Z" fill="#FECCCD"/>
<path d="M3068.49 1835.08C3022.73 1845.88 2850.8 1827.42 2818.27 1824.6C2779.07 1821.19 2762.82 1757.93 2803.3 1756.64C2842.37 1755.4 3064.35 1733.99 3086.93 1739.43C3127.7 1749.27 3125.75 1821.58 3068.49 1835.08Z" fill="#FECCCD"/>
<path d="M3629.24 1595.52C3591.02 1537.78 3532.11 1486.99 3510.43 1470.33C3458.9 1430.7 3401.39 1492.53 3423.09 1540.17C3428.51 1552.07 3458.23 1617.86 3502.73 1669.89C3556.75 1660.05 3624.53 1604.92 3629.24 1595.52Z" fill="#FFBD00"/>
<path d="M3261.24 1778.42C3276.21 1767.98 3290.42 1757.57 3278.59 1764.4C3263.48 1773.14 3247.15 1758.9 3262.16 1750.24C3280.98 1739.37 3301.17 1725.06 3322.55 1720.11C3345.68 1714.75 3391.8 1747.41 3414.02 1749.5C3422.98 1750.34 3416.49 1795.1 3409.49 1798.03C3386.17 1807.82 3359.41 1794.11 3355.85 1795.49C3346.57 1802.13 3342.36 1806.96 3334.32 1814.16C3324.03 1823.37 3303 1814.26 3313.22 1805.11C3319.71 1799.29 3316.43 1796.9 3306.91 1804.78C3294.74 1814.86 3273.63 1804.11 3285.72 1794.1C3290.83 1789.87 3291.53 1786.65 3284.26 1791.72C3269.48 1802 3246.56 1788.64 3261.24 1778.42Z" fill="#FECCCD"/>
<path d="M3411.82 1290C3411.26 1286.5 3389.2 1267.51 3386.82 1268.75C3386.47 1268.79 3388.02 1349.45 3384.47 1356.77C3381.86 1362.15 3377.98 1374.37 3385.29 1377.44C3392.08 1380.3 3400.6 1376.25 3404.35 1370.24C3428.28 1331.93 3413.23 1298.88 3411.82 1290Z" fill="#580A2D"/>
<path d="M3268.24 1241.13V1363.03C3268.24 1396 3295.65 1422.72 3329.47 1422.72C3363.28 1422.72 3390.69 1396 3390.69 1363.03V1360.3C3390.69 1360.3 3422.14 1367.58 3422.14 1331C3422.14 1294.43 3402.36 1299.55 3402.36 1299.55V1241.13H3268.24Z" fill="#FECCCD"/>
<path d="M3404.31 1180.46C3404.26 1180.35 3404.28 1180.25 3404.23 1180.14C3387.51 1143.4 3331.3 1145.07 3314.69 1155.9C3307.37 1150.21 3282.82 1141.45 3269.02 1160.08C3240.78 1160.77 3231.68 1181.57 3229.98 1191.13C3225.93 1213.87 3236.62 1240.83 3258.97 1246.52C3273.97 1250.34 3290.96 1252.65 3302.47 1241.56C3314.33 1252.26 3345.12 1247.58 3359.12 1241.12C3365.43 1267.51 3370.9 1319.63 3384.55 1319.59C3391.21 1319.57 3405.02 1307.8 3402.36 1299.55C3436.25 1293.63 3436.93 1190.9 3404.31 1180.46Z" fill="#580A2D"/>
<path d="M2838.13 1762C2815.94 1759.5 2770.38 1725.98 2747.16 1730.91C2725.7 1735.46 2721.48 1748.08 2702.49 1758.59C2692.06 1764.36 2689.25 1774.89 2693.72 1781.34C2691.55 1784.38 2683.58 1786.3 2681.51 1793.02C2678.05 1804.23 2689.22 1809.38 2704.17 1799.36C2711.53 1794.44 2695.41 1808.19 2690.23 1812.31C2677.98 1822.1 2698.91 1833.25 2711.24 1823.4C2717.27 1818.58 2727.21 1811.99 2727.4 1813.42C2727.51 1814.28 2720.01 1821.71 2717.55 1823.85C2707.18 1832.8 2728.05 1842.31 2738.49 1833.29C2746.65 1826.24 2769.83 1813.36 2779.21 1806.91C2780.96 1806.27 2788.16 1809.3 2797.79 1811.51C2794.04 1816.56 2787.55 1818.71 2781.66 1821.47C2777.13 1823.59 2773.81 1827.9 2776.18 1833.28C2778.73 1839.07 2784.57 1838.85 2789.6 1837.96C2796.83 1836.67 2803.33 1837.61 2809.42 1832.47C2814.03 1828.58 2828.97 1811.96 2832.8 1810.44C2839.84 1807.63 2847.08 1763.02 2838.13 1762Z" fill="#FECCCD"/>
<path d="M3343.65 1355.16C3343.65 1355.16 3334.42 1406.71 3296.49 1365.01C3296.49 1365.01 3331.27 1361.25 3343.65 1355.16Z" fill="white"/>
<path d="M3322.6 1385.67C3313.95 1385.67 3304.19 1379.76 3293.54 1368.04C3292.44 1366.84 3292.09 1365.08 3292.63 1363.5C3293.17 1361.94 3294.51 1360.83 3296.08 1360.66C3296.42 1360.63 3330.31 1356.92 3341.92 1351.2C3343.32 1350.51 3344.97 1350.72 3346.18 1351.72C3347.4 1352.73 3347.98 1354.37 3347.69 1355.98C3347.51 1356.96 3343.22 1380.03 3328.14 1384.82C3326.35 1385.38 3324.5 1385.67 3322.6 1385.67ZM3305.73 1368.25C3313.62 1375.31 3320.46 1378.15 3325.79 1376.44C3331.61 1374.59 3335.29 1367.69 3337.37 1362.09C3327.58 1364.96 3314.37 1367.07 3305.73 1368.25Z" fill="#57092C"/>
<path d="M3337.74 1274.02C3347.67 1274.03 3347.67 1297.52 3337.73 1297.51C3327.8 1297.51 3327.8 1274.01 3337.74 1274.02Z" fill="#580A2D"/>
<path d="M3289.66 1274.1C3299.51 1275.38 3296.86 1298.7 3287 1297.43C3277.14 1296.16 3279.79 1272.83 3289.66 1274.1Z" fill="#580A2D"/>
<path d="M3307.83 1340.19C3304.14 1340.19 3299.8 1339.51 3297.67 1336.73C3296.39 1335.04 3296.03 1332.84 3296.67 1330.68C3298.14 1325.78 3303.72 1308.51 3303.72 1308.51L3311.5 1311.35C3311.5 1311.35 3307.15 1324.8 3305.15 1331.24C3306.61 1331.45 3308.77 1331.48 3310.64 1331.29C3312.87 1331.11 3314.9 1332.82 3315.13 1335.22C3315.34 1337.62 3313.69 1339.75 3311.44 1339.99C3310.4 1340.1 3309.16 1340.19 3307.83 1340.19Z" fill="#57092C"/>
<path d="M3502.74 1674.25C3501.47 1674.25 3500.23 1673.63 3499.42 1672.47L3448.99 1599.7C3397.04 1524.71 3421.83 1497.7 3422.9 1496.58C3424.53 1494.91 3427.13 1494.95 3428.72 1496.68C3430.28 1498.4 3430.26 1501.13 3428.67 1502.81C3428.25 1503.29 3408.78 1526.91 3455.62 1594.52L3506.04 1667.28C3507.39 1669.22 3507 1671.96 3505.17 1673.39C3504.44 1673.97 3503.59 1674.25 3502.74 1674.25Z" fill="#AC830E"/>
<path d="M3186.83 1742.92C3184.93 1742.92 3183.22 1741.51 3182.81 1739.44C3165.04 1648.45 3204.91 1510.36 3206.62 1504.53C3207.29 1502.23 3209.6 1500.95 3211.77 1501.66C3213.93 1502.37 3215.15 1504.82 3214.47 1507.13C3214.06 1508.53 3173.53 1648.9 3190.86 1737.67C3191.32 1740.03 3189.9 1742.34 3187.67 1742.83C3187.39 1742.89 3187.11 1742.92 3186.83 1742.92Z" fill="#AC830E"/>
<path d="M2060.14 2647.59C2060.01 2647.59 2059.88 2647.58 2059.74 2647.57C2057.48 2647.34 2055.82 2645.21 2056.04 2642.8L2128.59 1844.18C2128.81 1841.77 2130.85 1840.05 2133.08 1840.25C2135.34 1840.48 2137 1842.61 2136.78 1845.02L2064.23 2643.64C2064.02 2645.9 2062.23 2647.59 2060.14 2647.59Z" fill="#57092C"/>
<path d="M2524.89 2647.59C2522.8 2647.59 2521.01 2645.9 2520.8 2643.64L2448.25 1845.01C2448.03 1842.61 2449.69 1840.48 2451.95 1840.24C2454.19 1840.05 2456.21 1841.77 2456.43 1844.17L2528.98 2642.8C2529.2 2645.2 2527.54 2647.33 2525.29 2647.57C2525.15 2647.58 2525.02 2647.59 2524.89 2647.59Z" fill="#57092C"/>
<path d="M3425.77 1945.85H2443.15L2452.34 1844.59H3416.03L3425.77 1945.85Z" fill="#4C4A3D"/>
<path d="M3023.82 2647.59C3023.69 2647.59 3023.56 2647.58 3023.43 2647.57C3021.16 2647.34 3019.51 2645.21 3019.73 2642.8L3092.28 1844.18C3092.5 1841.77 3094.54 1840.05 3096.77 1840.25C3099.03 1840.48 3100.68 1842.61 3100.46 1845.02L3027.91 2643.64C3027.71 2645.9 3025.92 2647.59 3023.82 2647.59Z" fill="#57092C"/>
<path d="M3488.58 2647.59C3486.49 2647.59 3484.7 2645.9 3484.5 2643.64L3411.95 1845.02C3411.72 1842.61 3413.38 1840.48 3415.64 1840.25C3417.89 1840.06 3419.91 1841.77 3420.13 1844.18L3492.68 2642.8C3492.9 2645.21 3491.24 2647.34 3488.98 2647.57C3488.85 2647.58 3488.71 2647.59 3488.58 2647.59Z" fill="#57092C"/>
<path d="M3087.18 1945.85H2123.49L2132.69 1844.59H3096.38L3087.18 1945.85Z" fill="#B2AF9C"/>
<path d="M3425.77 1950.22H2123.49C2122.33 1950.22 2121.22 1949.7 2120.45 1948.79C2119.67 1947.88 2119.29 1946.66 2119.4 1945.43L2128.59 1844.17C2128.8 1841.93 2130.57 1840.22 2132.68 1840.22H3416.03C3418.14 1840.22 3419.91 1841.92 3420.12 1844.15L3429.86 1945.4C3429.97 1946.63 3429.6 1947.86 3428.82 1948.77C3428.04 1949.69 3426.93 1950.22 3425.77 1950.22ZM2128.02 1941.48H3421.22L3412.32 1848.96H2136.42L2128.02 1941.48Z" fill="#57092C"/>
<path d="M3496.73 1804.11H2060.14V1852.44H3496.73V1804.11Z" fill="#4C4A3D"/>
<path d="M3496.73 1804.11H3006.15V1852.44H3496.73V1804.11Z" fill="#B2D7FF"/>
<path d="M3100.31 1782.18H2709.51V1804.11H3100.31V1782.18Z" fill="#CE555B"/>
<path d="M3100.31 1804.11H3280.2V1791.77C3280.2 1786.48 3276.16 1782.19 3271.18 1782.19H3100.31V1804.11Z" fill="#580A2D"/>
<path d="M2720.52 1782.18H3109.77L3058.53 1527.49C3057.03 1520.06 3051.18 1514.77 3044.43 1514.77H2693.87C2679.96 1514.77 2669.65 1529.39 2672.74 1544.72L2720.52 1782.18Z" fill="#CE555B"/>
<path d="M2711.06 1782.18H3100.31L3049.06 1527.49C3047.57 1520.06 3041.72 1514.77 3034.97 1514.77H2677.03C2666.9 1514.77 2659.39 1525.41 2661.64 1536.58L2711.06 1782.18Z" fill="#580A2D"/>
<path d="M2915.72 1773.13C2914.4 1773.13 2913.1 1772.45 2912.3 1771.19L2758.17 1526.82C2756.91 1524.81 2757.41 1522.1 2759.3 1520.75C2761.18 1519.4 2763.73 1519.93 2765.01 1521.95L2919.14 1766.32C2920.4 1768.32 2919.9 1771.04 2918.01 1772.38C2917.31 1772.88 2916.51 1773.13 2915.72 1773.13Z" fill="white"/>
<path d="M2915.72 1666.83C2914.39 1666.83 2913.08 1666.14 2912.29 1664.88L2850.68 1566.19C2849.42 1564.18 2849.94 1561.46 2851.83 1560.13C2853.72 1558.79 2856.27 1559.35 2857.53 1561.36L2919.14 1660.04C2920.4 1662.05 2919.88 1664.77 2917.99 1666.1C2917.29 1666.59 2916.5 1666.83 2915.72 1666.83Z" fill="white"/>
<path d="M3790.93 2647.64H61.7159C59.4423 2647.64 57.6045 2645.69 57.6045 2643.27C57.6045 2640.86 59.4423 2638.91 61.7159 2638.91H3790.93C3793.2 2638.91 3795.04 2640.86 3795.04 2643.27C3795.04 2645.69 3793.2 2647.64 3790.93 2647.64Z" fill="#57092C"/>
<path fill-rule="evenodd" clip-rule="evenodd" d="M3608.23 956.673L3591.37 941.626C3589.16 939.655 3588.96 936.116 3590.93 933.883L3605.99 916.817C3607.42 915.2 3607.76 912.814 3606.85 910.826L3598.28 892.091C3597.36 890.098 3595.39 888.91 3593.32 889.102L3571.39 891.13C3568.51 891.405 3566.02 889.045 3565.92 885.982L3565.21 862.594C3565.14 860.378 3563.8 858.443 3561.83 857.717L3543.31 850.906C3541.34 850.18 3539.15 850.818 3537.81 852.518L3523.65 870.436C3521.8 872.787 3518.47 872.993 3516.36 870.895L3500.31 854.899C3498.79 853.379 3496.54 853.02 3494.67 853.986L3477.04 863.092C3475.17 864.057 3474.05 866.155 3474.23 868.357L3476.14 891.663C3476.39 894.717 3474.17 897.373 3471.29 897.469L3449.28 898.23C3447.2 898.304 3445.38 899.733 3444.69 901.826L3438.28 921.509C3437.6 923.602 3438.2 925.927 3439.8 927.351L3456.66 942.395C3458.87 944.365 3459.07 947.909 3457.09 950.141L3442.04 967.208C3440.61 968.82 3440.27 971.206 3441.18 973.198L3449.75 991.929C3450.66 993.926 3452.63 995.115 3454.71 994.923L3476.64 992.891C3479.51 992.62 3482.01 994.979 3482.1 998.042L3482.82 1021.43C3482.88 1023.65 3484.23 1025.58 3486.2 1026.31L3504.72 1033.12C3506.69 1033.84 3508.88 1033.21 3510.22 1031.51L3524.38 1013.58C3526.23 1011.24 3529.56 1011.03 3531.66 1013.13L3547.72 1029.13C3549.24 1030.65 3551.48 1031.01 3553.36 1030.04L3570.99 1020.93C3572.86 1019.97 3573.98 1017.87 3573.8 1015.66L3571.89 992.358C3571.64 989.299 3573.85 986.651 3576.74 986.551L3598.74 985.795C3600.83 985.721 3602.65 984.296 3603.33 982.203L3609.74 962.511C3610.43 960.418 3609.83 958.098 3608.23 956.673ZM3524.02 992.895C3497.57 992.895 3476.13 970.114 3476.13 942.01C3476.13 913.907 3497.57 891.125 3524.02 891.125C3550.46 891.125 3571.9 913.911 3571.9 942.01C3571.9 970.109 3550.46 992.895 3524.02 992.895Z" fill="#B2D7FF"/>
<path fill-rule="evenodd" clip-rule="evenodd" d="M3852.65 1046.6L3839.96 1035.27C3838.3 1033.78 3838.15 1031.12 3839.63 1029.44L3850.97 1016.6C3852.04 1015.38 3852.29 1013.59 3851.61 1012.09L3845.16 997.99C3844.47 996.491 3842.99 995.595 3841.43 995.74L3824.92 997.269C3822.76 997.47 3820.89 995.7 3820.81 993.393L3820.28 975.798C3820.22 974.125 3819.21 972.665 3817.73 972.119L3803.79 966.998C3802.31 966.452 3800.66 966.933 3799.66 968.209L3789 981.692C3787.6 983.457 3785.1 983.619 3783.51 982.042L3771.43 970C3770.28 968.855 3768.6 968.589 3767.19 969.318L3753.92 976.161C3752.51 976.895 3751.66 978.468 3751.8 980.128L3753.24 997.671C3753.43 999.969 3751.76 1001.96 3749.59 1002.04L3733.03 1002.61C3731.46 1002.66 3730.09 1003.74 3729.58 1005.32L3724.75 1020.13C3724.24 1021.71 3724.69 1023.46 3725.89 1024.52L3738.58 1035.85C3740.24 1037.34 3740.39 1040 3738.9 1041.68L3727.58 1054.53C3726.5 1055.74 3726.25 1057.53 3726.93 1059.03L3733.38 1073.13C3734.07 1074.64 3735.55 1075.53 3737.11 1075.38L3753.62 1073.85C3755.78 1073.65 3757.66 1075.42 3757.73 1077.73L3758.27 1095.33C3758.31 1096.99 3759.33 1098.45 3760.81 1099L3774.75 1104.13C3776.23 1104.67 3777.88 1104.19 3778.89 1102.91L3789.55 1089.43C3790.94 1087.67 3793.45 1087.51 3795.03 1089.09L3807.11 1101.13C3808.26 1102.27 3809.94 1102.53 3811.35 1101.81L3824.63 1094.96C3826.03 1094.23 3826.88 1092.66 3826.74 1090.99L3825.3 1073.45C3825.11 1071.16 3826.78 1069.16 3828.95 1069.08L3845.51 1068.51C3847.08 1068.46 3848.45 1067.38 3848.96 1065.81L3853.79 1050.99C3854.3 1049.41 3853.85 1047.67 3852.65 1046.6ZM3789.27 1073.85C3769.37 1073.85 3753.24 1056.71 3753.24 1035.56C3753.24 1014.41 3769.37 997.264 3789.27 997.264C3809.17 997.264 3825.31 1014.41 3825.31 1035.56C3825.31 1056.71 3809.17 1073.85 3789.27 1073.85Z" fill="#FFA810"/>
<path d="M2603.79 887.005L3104.44 851.421C3123.36 850.08 3139.72 865.29 3140.99 885.397L3165.35 1272.52C3166.62 1292.63 3152.3 1310.02 3133.38 1311.37L3101.61 1313.62L3151.87 1390.47C3159.27 1401.79 3147.43 1416.05 3135.94 1409.66L2979.04 1322.34L2632.74 1346.95C2613.82 1348.3 2597.45 1333.09 2596.19 1312.98L2571.82 925.857C2570.55 905.741 2584.87 888.351 2603.79 887.005Z" fill="white"/>
<path d="M3141.78 1415.59C3139.17 1415.6 3136.52 1414.92 3134.03 1413.53L2978.16 1326.78L2633.01 1351.31C2611.88 1352.69 2593.5 1335.75 2592.08 1313.26L2567.72 926.141C2566.3 903.656 2582.37 884.152 2603.52 882.644L3104.17 847.065C3114.4 846.383 3124.32 849.892 3132.04 857.075C3139.77 864.263 3144.41 874.216 3145.1 885.104L3169.46 1272.23C3170.87 1294.71 3154.81 1314.22 3133.65 1315.73L3109.13 1317.46L3155.24 1387.98C3159.66 1394.73 3159.19 1403.42 3154.07 1409.59C3150.8 1413.52 3146.35 1415.59 3141.78 1415.59ZM2979.04 1317.97C2979.7 1317.97 2980.35 1318.14 2980.95 1318.47L3137.84 1405.79C3142.09 1408.14 3145.82 1406.31 3147.9 1403.81C3149.98 1401.31 3151.22 1397.14 3148.49 1392.97L3098.23 1316.11C3097.39 1314.82 3097.26 1313.15 3097.9 1311.73C3098.54 1310.31 3099.86 1309.37 3101.33 1309.26L3133.11 1307C3141.16 1306.43 3148.53 1302.56 3153.84 1296.1C3159.16 1289.65 3161.79 1281.37 3161.25 1272.81L3136.89 885.69C3135.78 868.016 3121.2 854.484 3104.72 855.786L2604.06 891.365C2596.01 891.938 2588.64 895.809 2583.33 902.267C2578.02 908.729 2575.39 916.996 2575.92 925.56L2600.28 1312.68C2600.82 1321.24 2604.47 1329.07 2610.54 1334.71C2616.62 1340.36 2624.37 1343.18 2632.46 1342.59L2978.76 1317.98C2978.85 1317.97 2978.94 1317.97 2979.04 1317.97Z" fill="#B2D7FF"/>
<path d="M293.36 2643.27H274.336L176.788 1824.29H195.812L293.36 2643.27Z" fill="#580A2D"/>
<path d="M0 2643.27H19.0237L116.572 1824.29H97.5482L0 2643.27Z" fill="#580A2D"/>
<path d="M1536.43 2643.27H1517.41L1419.86 1824.29H1438.88L1536.43 2643.27Z" fill="#580A2D"/>
<path d="M1243.07 2643.27H1262.09L1359.64 1824.29H1340.62L1243.07 2643.27Z" fill="#580A2D"/>
<path d="M50.493 1833.34H1468.25C1483.49 1833.34 1495.85 1820.21 1495.85 1804.01V861.886C1495.85 845.689 1483.49 832.555 1468.25 832.555H50.493C35.2477 832.555 22.8887 845.689 22.8887 861.886V1804.01C22.8887 1820.21 35.2477 1833.34 50.493 1833.34Z" fill="#83BDF2"/>
<path d="M1460.45 870.651H58.2852V1795.24H1460.45V870.651Z" fill="white"/>
<path d="M846.52 1664.79H1401.03C1402.76 1664.79 1404.16 1663.3 1404.16 1661.46C1404.16 1659.63 1402.76 1658.14 1401.03 1658.14H846.52C844.798 1658.14 843.392 1659.63 843.392 1661.46C843.392 1663.3 844.798 1664.79 846.52 1664.79Z" fill="#B2D7FF"/>
<path d="M846.52 1715.9H1401.03C1402.76 1715.9 1404.16 1714.4 1404.16 1712.57C1404.16 1710.74 1402.76 1709.25 1401.03 1709.25H846.52C844.798 1709.25 843.392 1710.74 843.392 1712.57C843.392 1714.41 844.798 1715.9 846.52 1715.9Z" fill="#B2D7FF"/>
<path d="M155.581 1664.79H710.096C711.818 1664.79 713.225 1663.3 713.225 1661.46C713.225 1659.63 711.818 1658.14 710.096 1658.14H155.581C153.862 1658.14 152.456 1659.63 152.456 1661.46C152.46 1663.3 153.862 1664.79 155.581 1664.79Z" fill="#B2D7FF"/>
<path d="M155.581 1715.9H710.096C711.818 1715.9 713.225 1714.4 713.225 1712.57C713.225 1710.74 711.818 1709.25 710.096 1709.25H155.581C153.862 1709.25 152.456 1710.74 152.456 1712.57C152.46 1714.41 153.862 1715.9 155.581 1715.9Z" fill="#B2D7FF"/>
<path d="M257.704 1530.02C255.883 1530.02 254.074 1529.34 252.598 1527.96C249.428 1524.95 249.124 1519.79 251.948 1516.4L564.907 1141.16C566.618 1139.13 569.253 1138.1 571.695 1138.49C574.24 1138.86 576.44 1140.55 577.571 1142.99L702.542 1413.81L756.036 1329.62C757.508 1327.3 760.061 1325.48 762.693 1326.03C765.341 1326.12 767.754 1327.68 769.09 1330.11L804.046 1394.54L967.566 1079.67C968.853 1077.25 971.213 1075.7 973.82 1075.53C976.414 1075.53 978.943 1076.64 980.476 1078.87L1246.17 1509.21L1303.95 1446.21C1306.84 1443.03 1311.56 1442.92 1314.63 1445.85L1387.23 1515.77C1390.38 1518.8 1390.61 1523.97 1387.76 1527.33C1384.91 1530.7 1380.05 1530.93 1376.89 1527.9L1309.79 1463.26L1250.85 1527.54C1249.26 1529.25 1247 1530.2 1244.8 1529.99C1242.54 1529.82 1240.46 1528.61 1239.12 1526.67L975.094 1098.75L810.801 1415.07C809.44 1417.62 806.895 1419.2 804.128 1419.22C804.116 1419.22 804.115 1419.22 804.099 1419.22C801.344 1419.22 798.804 1417.65 797.426 1415.12L761.891 1349.64L707.862 1434.69C706.317 1437.11 703.899 1438.57 700.947 1438.26C698.209 1438.05 695.779 1436.32 694.578 1433.71L568.809 1161.15L263.46 1527.27C261.951 1529.08 259.838 1530.02 257.704 1530.02Z" fill="#83BDF2"/>
<path fill-rule="evenodd" clip-rule="evenodd" d="M1744.43 2495.61C1744.43 2495.61 1766.78 2559.24 1745.52 2570.67C1724.26 2582.09 1696.32 2616.03 1688.03 2635.13C1688.03 2635.13 1635.9 2646.84 1595.72 2642.19C1591.75 2641.73 1589.58 2637.14 1591.52 2633.44C1601.38 2614.67 1639.16 2594.42 1654.65 2573.97C1672.24 2550.74 1688.14 2507.6 1711.95 2496.08C1735.75 2484.56 1744.43 2495.61 1744.43 2495.61Z" fill="#580A2D"/>
<path fill-rule="evenodd" clip-rule="evenodd" d="M1745.56 2634.51C1745.56 2634.51 1753.31 2569.71 1751.71 2559.74C1750.11 2549.78 1718.62 2560.94 1718.62 2560.94L1729.63 2635.1C1729.63 2635.1 1735.55 2639.89 1745.56 2634.51Z" fill="#580A2D"/>
<path fill-rule="evenodd" clip-rule="evenodd" d="M1688.99 2500.06C1690.55 2490.82 1691.83 2464.6 1691.83 2464.6L1747.52 2473.96L1746.8 2503.84C1746.8 2503.84 1671.11 2605.16 1647.41 2582.11C1677.78 2540.85 1685.06 2523.25 1688.99 2500.06Z" fill="#FECCCD"/>
<path d="M1650.19 1532.91C1628.91 1645.23 1645.39 1938.45 1653.16 2082.98C1660.93 2227.51 1665.85 2396.21 1665.03 2486.53C1665.03 2486.53 1739.79 2499.48 1770.73 2482.28C1770.73 2482.28 1801.55 2094.37 1813.29 2042.47C1825.02 1990.57 1858.86 1671.74 1819.48 1532.65C1780.1 1393.56 1658.54 1488.82 1650.19 1532.91Z" fill="#B2AF9C"/>
<path d="M1720.07 2495.6C1692.36 2495.6 1666.19 2491.16 1664.36 2490.84C1662.36 2490.49 1660.89 2488.65 1660.91 2486.49C1661.74 2396.09 1656.75 2226.5 1649.05 2083.23L1648.47 2072.49C1640.37 1922.11 1625.29 1642.2 1646.16 1532.05C1651.43 1504.19 1698.44 1457.91 1744.19 1455.64C1770.18 1454.4 1805.02 1466.44 1823.41 1531.4C1863.15 1671.78 1828.2 1995.19 1817.28 2043.49C1805.75 2094.48 1775.12 2478.78 1774.82 2482.66C1774.7 2484.15 1773.87 2485.47 1772.62 2486.16C1759.55 2493.43 1739.43 2495.6 1720.07 2495.6ZM1669.17 2482.76C1683.74 2484.95 1740.21 2492.3 1766.82 2479.45C1769.7 2443.34 1797.97 2091.49 1809.28 2041.45C1820.12 1993.52 1854.87 1672.83 1815.54 1533.91C1802.19 1486.77 1777.75 1462.7 1744.58 1464.37C1703.06 1466.43 1658.9 1509.09 1654.22 1533.78C1633.56 1642.83 1648.6 1922.01 1656.68 2071.99L1657.26 2082.74C1664.86 2224.18 1669.83 2391.31 1669.17 2482.76Z" fill="#57092C"/>
<path d="M1471.37 1409.84C1431.59 1393.1 1308.96 1280.24 1285.45 1259.45C1257.13 1234.4 1273.51 1171.65 1304.94 1193.46C1335.27 1214.5 1514.17 1321.91 1528.9 1339.3C1555.5 1370.69 1521.15 1430.8 1471.37 1409.84Z" fill="#FECCCD"/>
<path d="M1854.87 848.891L1922.83 1211.94C1922.83 1211.94 1673.77 1246.72 1636.58 1239.09C1636.58 1239.09 1655.57 899.081 1694.35 852.605C1733.13 806.129 1854.87 848.891 1854.87 848.891Z" fill="#580A2D"/>
<path fill-rule="evenodd" clip-rule="evenodd" d="M1996.55 2445.82C1996.55 2445.82 2037.98 2497.55 2021.65 2515.99C2005.33 2534.43 1989.95 2576.46 1988.29 2597.41C1988.29 2597.41 1943.04 2627.31 1903.77 2637.5C1899.89 2638.51 1896.37 2634.99 1897.02 2630.79C1900.27 2609.58 1929.29 2576.86 1937.29 2552.01C1946.37 2523.8 1947.48 2477.49 1966.17 2458.04C1984.85 2438.59 1996.55 2445.82 1996.55 2445.82Z" fill="#580A2D"/>
<path fill-rule="evenodd" clip-rule="evenodd" d="M2042.18 2576C2042.18 2576 2028.67 2512.27 2023.97 2503.47C2019.28 2494.68 1993.25 2516.59 1993.25 2516.59L2027.39 2582.31C2027.39 2582.31 2034.49 2584.67 2042.18 2576Z" fill="#580A2D"/>
<path fill-rule="evenodd" clip-rule="evenodd" d="M1945.86 2470.09C1944.37 2460.84 1937.16 2435.73 1937.16 2435.73L1992.52 2424.35L2001.43 2452.69C2001.43 2452.69 1962.77 2575.37 1933.1 2562.29C1948.41 2512.51 1949.61 2493.31 1945.86 2470.09Z" fill="#FECCCD"/>
<path d="M1776.46 1559.96C1776.46 1559.96 1797.16 1950.01 1818.48 2092.93C1839.8 2235.84 1896.95 2374.44 1916.42 2463.68C1916.42 2463.68 1982.29 2454.12 2015.96 2424.35C2015.96 2424.35 1954.41 2112.22 1961.21 2059.27C1968 2006.33 2013.2 1669.53 1960.95 1535.57C1908.71 1401.6 1776.46 1559.96 1776.46 1559.96Z" fill="#B2AF9C"/>
<path d="M1916.41 2468.05C1914.53 2468.05 1912.85 2466.67 1912.41 2464.67C1905.16 2431.43 1892.85 2391.97 1878.61 2346.3C1854.79 2269.91 1827.79 2183.32 1814.42 2093.61C1802.51 2013.78 1790.79 1856.43 1783.05 1738.5C1782.9 1736.09 1784.61 1734.01 1786.87 1733.84C1789.1 1733.71 1791.1 1735.49 1791.26 1737.9C1798.98 1855.65 1810.67 2012.72 1822.53 2092.25C1835.81 2181.26 1862.7 2267.48 1886.42 2343.56C1900.16 2387.66 1912.11 2425.97 1919.54 2458.75C1933.42 2456.29 1983.15 2446.12 2011.42 2422.63C2005.08 2390.29 1950.58 2109.78 1957.13 2058.69L1957.7 2054.32C1989.94 1804.46 1989.75 1620.83 1957.15 1537.25C1945.59 1507.61 1929.13 1490.69 1908.19 1486.95C1852.08 1476.87 1780.25 1562.01 1779.53 1562.87C1778.02 1564.68 1775.42 1564.83 1773.72 1563.24C1772.03 1561.63 1771.87 1558.87 1773.38 1557.07C1776.44 1553.41 1848.95 1467.55 1909.56 1478.33C1933.46 1482.6 1952.03 1501.3 1964.75 1533.91C1997.9 1618.89 1998.28 1804.14 1965.84 2055.51L1965.28 2059.87C1958.67 2111.47 2019.37 2420.34 2019.99 2423.46C2020.3 2425.04 2019.76 2426.68 2018.59 2427.71C1984.41 2457.94 1919.71 2467.62 1916.98 2468.02C1916.79 2468.03 1916.6 2468.05 1916.41 2468.05Z" fill="#57092C"/>
<path d="M1735.31 1221.2C1706.99 1263.39 1543.57 1378.83 1513.3 1401.16C1476.82 1428.07 1413.41 1381.38 1433.97 1344.09C1452.16 1311.09 1634.15 1150.58 1658.53 1137.63C1702.56 1114.23 1770.76 1168.42 1735.31 1221.2Z" fill="#FECCCD"/>
<path d="M1648.34 1318.43C1702.64 1277.77 1750.38 1215.12 1766.04 1192.06C1803.29 1137.26 1760.27 1085.35 1700.24 1099.3C1688.09 1102.12 1610.18 1140.84 1561.27 1188.18C1570.56 1245.58 1639.49 1313.43 1648.34 1318.43Z" fill="#FFBD00"/>
<path d="M1706.46 1096.46C1691.9 1107.13 1634.29 1148.09 1630.36 1240.18C1628.5 1283.82 1660.17 1356.39 1655.76 1409.6C1646.08 1526.52 1610.96 1570.15 1610.96 1570.15C1610.96 1570.15 1767.89 1606.85 1975.92 1556.15C1886.9 1320.08 1948.97 1276.38 1927.19 1149.52C1917.97 1095.81 1853.74 1088.88 1841.18 1087.71C1828.62 1086.54 1757.08 1081.96 1706.46 1096.46Z" fill="#FFBD00"/>
<path d="M1740.76 1036.72C1740.76 1036.72 1743.86 1084.82 1731.63 1089.31C1721.52 1093.02 1706.46 1096.46 1706.46 1096.46C1706.46 1096.46 1768.93 1196.66 1843.09 1087.21C1843.09 1087.21 1820.96 1087.49 1814.11 1078C1807.25 1068.52 1803.03 1021.54 1806.44 990.545L1740.76 1036.72Z" fill="#FECCCD"/>
<path d="M1953 1148.9C1990.38 1177.28 2099.03 1345.82 2119.95 1377.01C2145.15 1414.6 2120.97 1468.2 2085.82 1455.67C2055.89 1444.99 1901.47 1258.52 1888.83 1233.21C1866 1187.51 1906.24 1113.37 1953 1148.9Z" fill="#FECCCD"/>
<path d="M2086.8 1466.88C2046.58 1476.55 1899.97 1459.06 1872.18 1456.35C1838.69 1453.1 1829.52 1395.36 1864.47 1394.35C1898.19 1393.37 2090.92 1374.71 2109.94 1379.76C2144.3 1388.89 2137.13 1454.8 2086.8 1466.88Z" fill="#FECCCD"/>
<path d="M2037.11 1217.46C1997.62 1163.89 1922.36 1117.62 1899.65 1106.96C1836.75 1077.43 1825.83 1137.95 1849.74 1183.14C1855.72 1194.43 1888.53 1256.87 1932.99 1304.12C1979.66 1288.92 2033.9 1227.28 2037.11 1217.46Z" fill="#FFBD00"/>
<path d="M1841.22 861.833L1849.63 1008.06C1851.52 1040.96 1825.69 1069.42 1791.94 1071.61C1758.19 1073.8 1729.3 1048.9 1727.41 1016L1727.25 1013.27C1727.25 1013.27 1696.28 1022.57 1694.18 986.062C1692.08 949.556 1712.11 953.384 1712.11 953.384L1707.35 870.524L1841.22 861.833Z" fill="#FECCCD"/>
<path d="M1852.67 972.495C1843.38 973.102 1835.23 972.565 1828.42 970.892C1820.49 968.952 1813.96 961.559 1811.4 951.601L1811.16 950.662C1810.22 947.009 1810.65 943.05 1812.3 940.083C1813.65 937.685 1815.69 936.225 1817.9 936.081L1855.29 933.652C1859.61 933.372 1863.42 938.13 1863.77 944.256L1864.69 960.248C1865.05 966.47 1861.41 971.722 1856.4 972.202C1855.14 972.325 1853.9 972.416 1852.67 972.495ZM1818.19 941.023C1816.86 941.11 1816.02 942.251 1815.63 942.932C1814.69 944.654 1814.44 947.074 1815 949.263L1815.24 950.203C1817.35 958.391 1822.68 964.469 1829.14 966.055C1838.3 968.292 1848.86 967.968 1856.03 967.274C1858.84 967.003 1860.88 964.032 1860.68 960.51L1859.75 944.514C1859.56 941.119 1857.68 938.454 1855.57 938.598L1818.19 941.023Z" fill="#580A2D"/>
<path d="M1759.14 978.568C1757.92 978.647 1756.67 978.713 1755.4 978.761C1750.38 978.931 1746.16 974.186 1745.81 967.964L1744.88 951.972C1744.53 945.851 1747.76 940.634 1752.09 940.354L1789.48 937.921C1791.72 937.776 1793.86 938.934 1795.49 941.171C1797.48 943.898 1798.36 947.773 1797.85 951.531L1797.71 952.484C1796.31 962.703 1790.68 970.878 1783.03 973.832C1776.46 976.379 1768.44 977.965 1759.14 978.568ZM1755.21 973.819C1762.43 973.587 1772.93 972.534 1781.75 969.135C1788 966.719 1792.59 959.994 1793.74 951.588L1793.87 950.631C1794.18 948.385 1793.66 946.013 1792.52 944.431C1792.06 943.802 1791.1 942.779 1789.76 942.867L1752.38 945.3C1750.27 945.436 1748.71 948.32 1748.9 951.719L1749.82 967.711C1750.03 971.223 1752.39 973.915 1755.21 973.819Z" fill="#580A2D"/>
<path d="M1812.4 952.27C1812.31 952.252 1802.8 947.935 1797.33 953.047L1794.85 949.097C1802.08 942.338 1813.3 947.437 1813.77 947.664L1812.4 952.27Z" fill="#580A2D"/>
<path d="M1747.5 955.065L1747.06 950.804L1695.35 956.746L1695.78 961.007L1747.5 955.065Z" fill="#580A2D"/>
<path d="M1813.55 918.075C1817.77 917.254 1829.76 917.415 1833.81 916.336C1832.19 912.194 1833.19 885.161 1835.95 890.675C1838.42 895.591 1839.05 911.552 1841.21 916.603C1848.44 914.169 1877.92 916.672 1883.66 913.059C1886.43 896.521 1882.56 855.677 1851.98 828.849C1825.18 805.338 1736.76 802.533 1719.99 855.244C1719.99 855.244 1696.73 859.373 1691.63 877.895C1686.55 896.412 1699.8 954.091 1722.21 960.746C1732.14 963.695 1739.61 956.084 1740.62 935.29C1741.3 921.317 1736.95 896.652 1736.95 896.652C1736.95 896.652 1748.31 920.557 1769.83 920.094C1770.04 913.138 1770.73 892.663 1773.18 892.506C1776.42 892.292 1779.11 912.644 1778.91 919.805C1789.85 919.333 1792.2 920.889 1803.94 919.098C1804.22 908.869 1804.38 887.582 1806.53 887.914C1809.09 888.294 1812.49 907.388 1813.55 918.075Z" fill="#580A2D"/>
<path d="M1723.89 1018.26C1723.89 1018.26 1749.19 1190.57 1767.38 1232.91C1767.38 1232.91 1724.72 1226.25 1714.13 1224.7C1714.13 1224.7 1694.97 1030.18 1696.48 1020.04C1698 1009.9 1723.89 1018.26 1723.89 1018.26Z" fill="#580A2D"/>
<path d="M1776.98 1024.43C1776.98 1024.43 1789.15 1075.29 1824.62 1031.19C1824.62 1031.19 1789.69 1029.71 1776.98 1024.43Z" fill="white"/>
<path d="M1798.53 1053.55C1797.05 1053.55 1795.59 1053.37 1794.16 1053.02C1778.84 1049.22 1773.23 1026.47 1773 1025.5C1772.62 1023.92 1773.1 1022.24 1774.26 1021.16C1775.42 1020.06 1777.06 1019.77 1778.48 1020.36C1790.4 1025.31 1824.44 1026.81 1824.79 1026.83C1826.36 1026.9 1827.76 1027.91 1828.39 1029.44C1829.02 1030.98 1828.77 1032.76 1827.75 1034.03C1817.31 1047 1807.5 1053.55 1798.53 1053.55ZM1783.63 1030.93C1786.17 1036.66 1790.35 1043.1 1796.05 1044.51C1801.45 1045.85 1808.13 1042.58 1815.58 1035.03C1806.89 1034.41 1793.56 1033.17 1783.63 1030.93Z" fill="#57092C"/>
<path d="M1774.8 944.098C1764.9 944.749 1766.24 968.204 1776.17 967.549C1786.08 966.898 1784.73 943.443 1774.8 944.098Z" fill="#580A2D"/>
<path d="M1832.1 940.415C1822.18 940.253 1821.83 963.747 1831.77 963.905C1841.7 964.062 1842.05 940.568 1832.1 940.415Z" fill="#580A2D"/>
<path d="M1809.72 1007.22C1809.2 1007.22 1808.72 1007.21 1808.27 1007.19C1806 1007.1 1804.23 1005.08 1804.31 1002.67C1804.39 1000.26 1806.4 998.3 1808.56 998.461C1810.45 998.536 1812.59 998.352 1814.04 998.051C1811.67 991.759 1806.56 978.612 1806.56 978.607L1814.16 975.269C1814.16 975.269 1820.72 992.143 1822.47 996.941C1823.24 999.06 1823 1001.28 1821.82 1003.04C1819.45 1006.56 1813.72 1007.22 1809.72 1007.22Z" fill="#57092C"/>
<path d="M1933 1308.48C1931.98 1308.48 1930.96 1308.08 1930.16 1307.28C1914.57 1291.51 1861.86 1212.94 1859.63 1209.61C1858.31 1207.64 1858.74 1204.92 1860.59 1203.51C1862.44 1202.12 1865.01 1202.57 1866.32 1204.54C1866.87 1205.35 1920.81 1285.74 1935.83 1300.94C1937.48 1302.61 1937.54 1305.37 1935.98 1307.12C1935.16 1308.03 1934.08 1308.48 1933 1308.48Z" fill="#AC830E"/>
<path d="M1648.33 1322.8C1646.5 1322.8 1644.82 1321.48 1644.35 1319.51C1627 1246.8 1638.38 1193.6 1650.98 1161.76C1664.72 1127.05 1682.48 1109.8 1683.23 1109.08C1684.91 1107.47 1687.51 1107.61 1689.03 1109.4C1690.55 1111.19 1690.42 1113.96 1688.74 1115.57C1688.05 1116.23 1620.33 1183.3 1652.32 1317.36C1652.88 1319.7 1651.55 1322.07 1649.35 1322.67C1649.01 1322.76 1648.67 1322.8 1648.33 1322.8Z" fill="#AC830E"/>
<path d="M1749.52 1434.9C1762.95 1424.87 1775.69 1414.88 1765.13 1421.49C1751.63 1429.95 1737.63 1417.21 1751.05 1408.81C1767.86 1398.29 1785.95 1384.54 1804.86 1379.43C1825.32 1373.89 1847.97 1392.86 1867.45 1394.24C1875.3 1394.79 1884.87 1450.31 1878.65 1453.2C1857.92 1462.84 1835.4 1446.93 1832.23 1448.3C1823.92 1454.67 1820.09 1459.25 1812.84 1466.11C1803.56 1474.89 1785.33 1466.98 1794.53 1458.27C1800.38 1452.73 1797.55 1450.59 1789 1458.13C1778.05 1467.75 1759.78 1458.34 1770.64 1448.78C1775.24 1444.73 1775.94 1441.75 1769.42 1446.61C1756.17 1456.5 1736.38 1444.71 1749.52 1434.9Z" fill="#FECCCD"/>
<path d="M1302.12 1192.57C1295.68 1187.45 1287.31 1185.54 1279.84 1183.29C1279.61 1183.12 1279.47 1182.89 1279.16 1182.75C1268.61 1178.1 1256.25 1172.32 1243.93 1172.92C1231.21 1173.55 1217.65 1183.06 1206.28 1188.72C1203.77 1189.97 1203.29 1193.37 1204.9 1195.12C1215.67 1206.72 1228.76 1194.54 1241.96 1194C1238.79 1197.36 1235.58 1201.24 1232.9 1205.1C1224.12 1207.13 1216.41 1206.5 1207.29 1203.48C1196.63 1199.95 1188.35 1196.64 1176.57 1201.03C1174.75 1201.7 1173.69 1203.57 1173.66 1205.34C1173.58 1210.06 1178.23 1211.41 1181.82 1213.28C1184.25 1214.54 1186.74 1215.87 1189.3 1217.16C1182.59 1215.32 1176.13 1214.59 1168.03 1217.61C1166.2 1218.29 1165.14 1220.16 1165.11 1221.93C1165.04 1226.65 1169.68 1228 1173.27 1229.86C1173.83 1230.16 1174.43 1230.47 1175.01 1230.77C1174.52 1230.93 1174.11 1230.91 1173.61 1231.1C1171.79 1231.77 1170.73 1233.64 1170.7 1235.41C1170.62 1240.14 1175.27 1241.49 1178.85 1243.35C1183.64 1245.85 1188.69 1248.52 1193.88 1250.89C1191.75 1251.65 1189.61 1252.51 1187.37 1253.91C1185.7 1254.94 1185.05 1256.95 1185.4 1258.65C1186.36 1263.17 1191.29 1263.47 1195.28 1264.5C1206.02 1267.25 1217.95 1270.47 1229.41 1270.57C1248.47 1270.74 1307.89 1242.12 1313.37 1221.69C1313.38 1221.67 1313.34 1221.67 1313.34 1221.64C1315.14 1216.62 1310.26 1199.04 1302.12 1192.57Z" fill="#FECCCD"/>
<path d="M2392.9 276.079L1927.46 371.57C1909.87 375.18 1898.36 393.264 1901.76 411.952L1967.14 771.847C1970.53 790.544 1987.55 802.773 2005.14 799.164L2034.68 793.104L2006.16 876.156C2001.96 888.386 2016.01 898.391 2025.05 889.613L2148.62 769.728L2470.58 703.677C2488.17 700.073 2499.68 681.988 2496.28 663.292L2430.9 303.396C2427.5 284.704 2410.5 272.475 2392.9 276.079Z" fill="white"/>
<path d="M2017.2 897.308C2014.16 897.308 2011.09 896.346 2008.35 894.393C2002.19 889.998 1999.75 882.072 2002.3 874.662L2028.33 798.854L2005.92 803.45C1996.36 805.43 1986.6 803.306 1978.51 797.491C1970.42 791.675 1964.95 782.862 1963.11 772.677L1897.73 412.782C1893.91 391.752 1906.9 371.339 1926.69 367.28L2201.54 310.894C2203.74 310.391 2205.92 311.982 2206.36 314.354C2206.79 316.723 2205.33 319.012 2203.1 319.471L1928.25 375.857C1912.91 379.007 1902.84 394.828 1905.8 411.126L1971.18 771.021C1972.61 778.921 1976.85 785.746 1983.12 790.246C1989.39 794.756 1996.94 796.398 2004.36 794.874L2033.9 788.813C2035.36 788.49 2036.85 789.071 2037.81 790.268C2038.77 791.465 2039.05 793.117 2038.54 794.598L2010.02 877.655C2008.52 882.041 2010.54 885.423 2012.93 887.132C2015.33 888.84 2019.03 889.539 2022.28 886.389L2145.86 766.499C2146.41 765.957 2147.11 765.586 2147.85 765.438L2469.8 699.387C2477.23 697.857 2483.65 693.353 2487.89 686.694C2492.13 680.035 2493.68 672.017 2492.25 664.118L2426.87 304.226C2425.43 296.327 2421.19 289.502 2414.93 284.997C2408.66 280.492 2401.11 278.858 2393.68 280.37L2340.14 291.359C2337.91 291.822 2335.76 290.266 2335.33 287.898C2334.9 285.53 2336.36 283.241 2338.58 282.782L2392.12 271.793C2401.7 269.805 2411.44 271.942 2419.53 277.753C2427.62 283.568 2433.09 292.381 2434.94 302.57L2500.32 662.462C2502.17 672.651 2500.18 682.993 2494.71 691.587C2489.24 700.182 2480.94 705.997 2471.35 707.964L2150.54 773.783L2027.82 892.842C2024.78 895.8 2021.01 897.308 2017.2 897.308Z" fill="#AC830E"/>
<path d="M2234.02 314.245C2232.09 314.245 2230.36 312.795 2229.99 310.702C2229.56 308.333 2231.02 306.044 2233.25 305.585L2267.75 298.511C2269.97 298.031 2272.13 299.604 2272.56 301.972C2272.99 304.34 2271.53 306.629 2269.3 307.088L2234.81 314.162C2234.54 314.223 2234.27 314.245 2234.02 314.245Z" fill="#AC830E"/>
<path d="M2093.36 578.89L2054.71 587.142L2078.61 713.511L2117.25 705.258L2093.36 578.89Z" fill="#AC830E"/>
<path d="M2365.97 520.605L2327.32 528.855L2351.2 655.223L2389.85 646.973L2365.97 520.605Z" fill="#AC830E"/>
<path d="M2154.36 522.281L2115.71 530.53L2147.5 698.712L2186.15 690.462L2154.36 522.281Z" fill="#3A78DD"/>
<path d="M2216.67 472.54L2178.02 480.789L2216.43 684.058L2255.08 675.809L2216.67 472.54Z" fill="#AC830E"/>
<path d="M2295.85 511.753L2257.2 520.006L2285.44 669.348L2324.09 661.095L2295.85 511.753Z" fill="#3A78DD"/>
<path d="M2257.84 384.831L2259.11 402.038L2303.02 398.385L2256.47 457.593L2150.05 414.359L2031.51 556.733L2043.67 568.172L2154.75 434.751L2261.52 478.116L2314.16 411.152L2311.62 454.351L2327.85 455.426L2332.36 378.605L2257.84 384.831Z" fill="#B2AF9C"/>
<path d="M2770.11 874.788L2793.34 873.752L2807.18 877.894C2868.57 892.278 2916.95 951.473 2921.78 1025.25C2926.61 1099.02 2886.36 1163.94 2827.36 1186.09L2804.45 1193.15L2791 1193.93C2713.01 1198.96 2640.77 1131.03 2635 1042.91C2629.23 954.772 2692.11 879.821 2770.11 874.788Z" fill="#6799FC"/>
<path d="M2782.82 1198.57C2705.16 1198.57 2636.55 1129.4 2630.9 1043.2C2628.03 999.331 2641.46 956.992 2668.73 923.977C2695.18 891.946 2731.1 872.926 2769.86 870.427C2769.88 870.423 2769.91 870.423 2769.94 870.423L2793.17 869.387C2793.59 869.339 2794.04 869.422 2794.46 869.545L2808.29 873.687C2872.59 888.743 2921.04 950.971 2925.88 1024.94C2930.73 1098.95 2890.78 1166.91 2828.73 1190.2L2805.59 1197.34C2805.3 1197.43 2804.99 1197.49 2804.67 1197.5L2791.23 1198.29C2788.42 1198.47 2785.61 1198.57 2782.82 1198.57ZM2770.32 879.153C2733.78 881.521 2699.89 899.483 2674.91 929.741C2649.1 960.986 2636.38 1001.07 2639.1 1042.6C2644.45 1124.27 2709.36 1189.82 2782.81 1189.82C2785.46 1189.82 2788.1 1189.74 2790.76 1189.57L2803.75 1188.81L2826.21 1181.88C2884.57 1159.96 2922.27 1095.65 2917.68 1025.55C2913.09 955.41 2867.28 896.446 2806.29 882.159L2792.86 878.143L2770.32 879.153Z" fill="#57092C"/>
<path d="M2652.77 1042.69C2658.54 1130.82 2726.45 1198.18 2804.45 1193.15C2882.45 1188.12 2941 1112.59 2935.22 1024.47C2929.45 936.338 2861.55 868.977 2783.55 874.006C2705.55 879.039 2647 954.558 2652.77 1042.69Z" fill="#6799FC"/>
<path d="M2796.29 1197.78C2719.74 1197.78 2654.38 1130.18 2648.67 1042.99C2645.68 997.321 2659.15 953.872 2686.59 920.639C2711.77 890.155 2746.12 872.04 2783.3 869.641C2863.34 864.411 2933.41 933.787 2939.33 1024.16C2942.32 1069.83 2928.85 1113.28 2901.41 1146.51C2876.23 1177 2841.88 1195.11 2804.7 1197.51C2801.88 1197.69 2799.07 1197.78 2796.29 1197.78ZM2791.7 878.109C2789.07 878.109 2786.44 878.196 2783.79 878.366C2748.81 880.625 2716.49 897.683 2692.76 926.407C2666.78 957.866 2654.03 999.055 2656.87 1042.39C2662.27 1124.99 2724.01 1189.03 2796.28 1189.04C2798.91 1189.04 2801.54 1188.95 2804.19 1188.78C2839.17 1186.52 2871.5 1169.47 2895.22 1140.75C2921.2 1109.29 2933.95 1068.09 2931.11 1024.76C2925.71 942.163 2863.97 878.109 2791.7 878.109Z" fill="#57092C"/>
<path d="M2678.88 1041C2683.59 1112.84 2738.94 1167.75 2802.51 1163.65C2866.09 1159.54 2913.82 1097.99 2909.11 1026.15C2904.41 954.314 2849.06 899.396 2785.48 903.503C2721.9 907.606 2674.17 969.165 2678.88 1041Z" fill="#FFA810"/>
<path d="M2836.32 1000.5H2799.07V993.935C2799.07 986.944 2798.64 982.373 2797.78 980.215C2796.92 978.061 2795.08 976.982 2792.25 976.982C2789.97 976.982 2788.27 977.912 2787.13 979.778C2786 981.639 2785.43 984.431 2785.43 988.154C2785.43 994.358 2786.59 998.702 2788.93 1001.18C2791.21 1003.67 2797.91 1008.5 2809.03 1015.68C2818.5 1021.76 2824.95 1026.41 2828.39 1029.64C2831.83 1032.87 2834.74 1037.45 2837.1 1043.36C2839.47 1049.27 2840.65 1056.63 2840.65 1065.46C2840.65 1079.56 2837.46 1090.64 2831.06 1098.67C2824.67 1106.71 2815.08 1111.67 2802.3 1113.57V1128.46H2785.15V1113.07C2775.19 1112.03 2766.5 1107.96 2759.06 1100.88C2751.62 1093.79 2747.9 1081.43 2747.9 1063.79V1056.05H2785.15V1065.75C2785.15 1076.41 2785.54 1083.01 2786.3 1085.59C2787.07 1088.17 2788.93 1089.46 2791.88 1089.46C2794.4 1089.46 2796.27 1088.57 2797.5 1086.77C2798.73 1084.97 2799.34 1082.31 2799.34 1078.79C2799.34 1069.9 2798.76 1063.55 2797.59 1059.73C2796.43 1055.91 2792.43 1051.75 2785.61 1047.24C2774.24 1039.66 2766.51 1034.1 2762.42 1030.54C2758.33 1026.98 2754.8 1021.96 2751.82 1015.5C2748.84 1009.03 2747.34 1001.72 2747.34 993.554C2747.34 981.731 2750.5 972.455 2756.79 965.731C2763.09 959.006 2772.55 954.856 2785.15 953.287V940.646H2802.3V953.287C2813.79 954.851 2822.4 958.954 2828.11 965.582C2833.83 972.21 2836.68 981.368 2836.68 993.061C2836.69 994.686 2836.57 997.164 2836.32 1000.5Z" fill="white"/>
<path d="M3053.51 1076.66L3066.46 1076.09L3074.17 1078.39C3108.36 1086.4 3135.32 1119.38 3138 1160.47C3140.69 1201.57 3118.27 1237.73 3085.41 1250.07L3072.64 1254L3065.16 1254.44C3021.71 1257.25 2981.47 1219.4 2978.25 1170.31C2975.03 1121.22 3010.07 1079.46 3053.51 1076.66Z" fill="#6799FC"/>
<path d="M3060.59 1258.96C3016.41 1258.96 2977.36 1219.63 2974.15 1170.61C2972.52 1145.65 2980.16 1121.56 2995.67 1102.78C3010.73 1084.55 3031.19 1073.72 3053.27 1072.3C3053.29 1072.29 3053.32 1072.29 3053.34 1072.29L3066.29 1071.71C3066.72 1071.67 3067.16 1071.75 3067.57 1071.87L3075.28 1074.19C3111.78 1082.72 3139.36 1118.11 3142.11 1160.17C3144.86 1202.26 3122.11 1240.92 3086.78 1254.19L3073.79 1258.2C3073.49 1258.29 3073.19 1258.35 3072.87 1258.37L3065.38 1258.8C3063.78 1258.91 3062.18 1258.96 3060.59 1258.96ZM3053.72 1081.03C3033.87 1082.32 3015.44 1092.09 3001.86 1108.55C2987.8 1125.56 2980.87 1147.39 2982.36 1170C2985.38 1216.11 3023.27 1252.84 3064.91 1250.08L3071.95 1249.67L3084.27 1245.88C3115.9 1233.99 3136.41 1198.96 3133.9 1160.78C3131.4 1122.56 3106.47 1090.43 3073.28 1082.66L3065.98 1080.47L3053.72 1081.03Z" fill="#57092C"/>
<path d="M2988.15 1170.19C2991.37 1219.28 3029.2 1256.81 3072.65 1254.01C3116.09 1251.2 3148.71 1209.13 3145.49 1160.04C3142.28 1110.95 3104.45 1073.43 3061 1076.22C3017.55 1079.03 2984.93 1121.1 2988.15 1170.19Z" fill="#6799FC"/>
<path d="M3068.1 1258.52C3024.51 1258.52 2987.3 1220.09 2984.05 1170.5C2982.35 1144.54 2990.02 1119.83 3005.63 1100.93C3019.97 1083.55 3039.56 1073.23 3060.75 1071.87C3106.46 1068.94 3146.23 1108.35 3149.6 1159.74C3151.3 1185.7 3143.63 1210.41 3128.03 1229.31C3113.68 1246.69 3094.1 1257.01 3072.9 1258.37C3071.29 1258.47 3069.69 1258.52 3068.1 1258.52ZM2992.26 1169.89C2995.31 1216.52 3031.37 1252.39 3072.4 1249.65C3091.39 1248.43 3108.96 1239.15 3121.84 1223.54C3135.99 1206.41 3142.94 1183.96 3141.39 1160.34C3138.34 1113.72 3102.33 1077.96 3061.25 1080.58C3042.26 1081.81 3024.69 1091.08 3011.81 1106.69C2997.65 1123.83 2990.71 1146.27 2992.26 1169.89Z" fill="#57092C"/>
<path d="M3002.7 1169.25C3005.32 1209.27 3036.16 1239.86 3071.57 1237.57C3106.99 1235.29 3133.57 1201 3130.95 1160.98C3128.33 1120.96 3097.49 1090.37 3062.08 1092.66C3026.66 1094.94 3000.08 1129.23 3002.7 1169.25Z" fill="#FFA810"/>
<path d="M3090.4 1146.69H3069.65V1143.03C3069.65 1139.14 3069.41 1136.59 3068.93 1135.39C3068.45 1134.19 3067.42 1133.59 3065.85 1133.59C3064.58 1133.59 3063.63 1134.11 3063 1135.15C3062.37 1136.18 3062.05 1137.74 3062.05 1139.81C3062.05 1143.26 3062.7 1145.68 3064.01 1147.07C3065.27 1148.45 3069 1151.14 3075.2 1155.14C3080.47 1158.53 3084.07 1161.12 3085.99 1162.92C3087.91 1164.72 3089.52 1167.27 3090.84 1170.56C3092.16 1173.85 3092.81 1177.96 3092.81 1182.87C3092.81 1190.73 3091.03 1196.89 3087.47 1201.37C3083.91 1205.84 3078.57 1208.61 3071.45 1209.66V1217.96H3061.9V1209.39C3056.35 1208.81 3051.51 1206.54 3047.37 1202.59C3043.22 1198.65 3041.15 1191.76 3041.15 1181.93V1177.62H3061.9V1183.03C3061.9 1188.95 3062.11 1192.64 3062.54 1194.08C3062.97 1195.51 3064.01 1196.22 3065.65 1196.22C3067.05 1196.22 3068.1 1195.73 3068.78 1194.73C3069.47 1193.73 3069.81 1192.24 3069.81 1190.27C3069.81 1185.33 3069.49 1181.79 3068.84 1179.66C3068.19 1177.53 3065.96 1175.21 3062.16 1172.7C3055.83 1168.48 3051.52 1165.38 3049.24 1163.39C3046.96 1161.41 3044.99 1158.62 3043.33 1155.02C3041.67 1151.42 3040.84 1147.34 3040.84 1142.79C3040.84 1136.2 3042.6 1131.04 3046.11 1127.29C3049.62 1123.54 3054.88 1121.23 3061.9 1120.36V1113.32H3071.45V1120.36C3077.86 1121.23 3082.65 1123.52 3085.83 1127.2C3089.02 1130.9 3090.61 1136 3090.61 1142.51C3090.6 1143.45 3090.53 1144.83 3090.4 1146.69Z" fill="white"/>
<path d="M2779.04 839.366C2778.93 839.366 2778.81 839.357 2778.7 839.344C2776.44 839.147 2774.75 837.037 2774.94 834.63L2779.6 775.098C2779.79 772.69 2781.71 770.846 2784.04 771.104C2786.3 771.301 2787.98 773.411 2787.79 775.819L2783.13 835.355C2782.96 837.64 2781.16 839.366 2779.04 839.366Z" fill="#57092C"/>
<path d="M2652.37 891.99C2651.51 891.99 2650.64 891.701 2649.9 891.103L2603.56 853.806C2601.75 852.351 2601.39 849.612 2602.76 847.689C2604.13 845.767 2606.7 845.382 2608.52 846.846L2654.86 884.142C2656.67 885.597 2657.02 888.337 2655.65 890.259C2654.85 891.391 2653.62 891.99 2652.37 891.99Z" fill="#57092C"/>
<path d="M2588.29 1028.73H2531.59C2529.32 1028.73 2527.48 1026.78 2527.48 1024.36C2527.48 1021.95 2529.32 1019.99 2531.59 1019.99H2588.29C2590.57 1019.99 2592.4 1021.95 2592.4 1024.36C2592.4 1026.78 2590.57 1028.73 2588.29 1028.73Z" fill="#57092C"/>
<path d="M647.536 495.231C675.892 495.231 698.88 470.801 698.88 440.667C698.88 410.532 675.892 386.103 647.536 386.103C619.18 386.103 596.192 410.532 596.192 440.667C596.192 470.801 619.18 495.231 647.536 495.231Z" fill="#FECD3B"/>
<path d="M646.838 474.809C658.992 472.48 675.701 462.325 678.838 448.671C679.956 443.8 687.032 445.862 685.909 450.747C682.172 467.027 663.481 479.51 648.791 482.333C644.17 483.215 642.196 475.709 646.838 474.809Z" fill="white"/>
<path d="M451.079 445.709C553.512 363.697 627.185 288.973 651.841 255.696C676.502 288.973 750.175 363.701 852.603 445.709H451.079Z" fill="#3A78DD"/>
<path d="M651.842 292.696C649.568 292.696 647.73 290.743 647.73 288.326V4.36931C647.73 1.95308 649.568 0 651.842 0C654.116 0 655.953 1.95308 655.953 4.36931V288.326C655.953 290.743 654.111 292.696 651.842 292.696Z" fill="#3A78DD"/>
<path d="M767.752 414.128C767.135 414.128 766.506 413.979 765.918 413.669C722.773 390.739 664.398 315.591 661.936 312.401C660.492 310.536 660.747 307.783 662.503 306.254C664.267 304.711 666.853 304.995 668.288 306.861C668.884 307.626 728.015 383.761 769.598 405.852C771.629 406.931 772.451 409.557 771.436 411.716C770.712 413.245 769.261 414.128 767.752 414.128Z" fill="white"/>
<path d="M1054.95 681.927C1083.3 681.927 1106.29 657.498 1106.29 627.363C1106.29 597.228 1083.3 572.799 1054.95 572.799C1026.59 572.799 1003.6 597.228 1003.6 627.363C1003.6 657.498 1026.59 681.927 1054.95 681.927Z" fill="#FECD3B"/>
<path d="M1054.25 661.505C1066.4 659.176 1083.11 649.022 1086.25 635.367C1087.36 630.5 1094.44 632.558 1093.32 637.443C1089.58 653.727 1070.89 666.21 1056.2 669.029C1051.58 669.911 1049.6 662.4 1054.25 661.505Z" fill="white"/>
<path d="M858.49 632.409C960.919 550.393 1034.59 475.673 1059.25 442.392C1083.91 475.673 1157.58 550.397 1260.01 632.409H858.49Z" fill="#3A78DD"/>
<path d="M1059.25 479.392C1056.98 479.392 1055.14 477.439 1055.14 475.022V191.07C1055.14 188.649 1056.98 186.7 1059.25 186.7C1061.53 186.7 1063.36 188.649 1063.36 191.07V475.022C1063.36 477.439 1061.53 479.392 1059.25 479.392Z" fill="#3A78DD"/>
<path d="M1175.17 600.824C1174.55 600.824 1173.92 600.675 1173.33 600.365C1130.18 577.435 1071.81 502.287 1069.35 499.097C1067.9 497.232 1068.16 494.479 1069.91 492.95C1071.68 491.407 1074.27 491.691 1075.7 493.553C1076.29 494.322 1135.42 570.457 1177.01 592.548C1179.04 593.627 1179.87 596.253 1178.85 598.412C1178.12 599.941 1176.67 600.824 1175.17 600.824Z" fill="white"/>
<path d="M2431.87 1582.51L2423.69 1638.15L2419.32 1668.4L2415.07 1697.62L2410.6 1727.87L2399.15 1806.23H2276.22L2264.76 1727.87L2260.29 1697.62L2256.03 1668.4L2251.68 1638.15L2243.49 1582.51H2431.87Z" fill="#B2D7FF"/>
<path d="M2337.71 1593.19C2389.72 1593.19 2431.88 1588.4 2431.88 1582.49C2431.88 1576.58 2389.72 1571.79 2337.71 1571.79C2285.7 1571.79 2243.53 1576.58 2243.53 1582.49C2243.53 1588.4 2285.7 1593.19 2337.71 1593.19Z" fill="#580A2D"/>
<path d="M2423.69 1638.15L2419.33 1668.4H2256.03L2251.68 1638.15H2423.69Z" fill="#FECCCD"/>
<path d="M2415.07 1697.62L2410.6 1727.87H2264.76L2260.29 1697.62H2415.07Z" fill="#FECCCD"/>
<path d="M2423.69 1443.65C2414.86 1450.94 2375.85 1507.63 2371.2 1518.32C2371.25 1516.12 2371.17 1513.93 2371.35 1511.72C2372.77 1494.5 2379.23 1478.35 2381.5 1461.28C2385.55 1430.75 2378.67 1399.37 2362.54 1373.78C2359.46 1368.89 2352.77 1370.91 2352.37 1376.7C2349.94 1412.23 2346.95 1447.77 2345.19 1483.35C2344.9 1489.19 2344.78 1495.09 2344.79 1500.98C2341.8 1490.95 2339.12 1480.82 2337 1470.52C2334.31 1457.49 2332.61 1444.38 2331.07 1431.15C2329.74 1419.75 2327.8 1408.56 2321.71 1398.84C2319.41 1395.18 2312.46 1394.87 2311.74 1400.22C2309.63 1415.68 2309.19 1431.25 2310.2 1446.73C2306.46 1433.26 2302.58 1419.85 2298.61 1406.44C2291.86 1383.66 2285.92 1360.55 2286.99 1336.44C2287.3 1329.59 2278.24 1329.02 2276.28 1334.9C2262.99 1374.88 2260.87 1418.49 2269.5 1459.85C2273.75 1480.25 2280.71 1500.08 2290.13 1518.42C2295.06 1528.03 2308 1557.37 2306.8 1562.45C2306.65 1562.22 2306.49 1561.98 2306.36 1561.76C2292.97 1539.26 2277.66 1518.03 2260.77 1498.36C2256.31 1493.17 2249.79 1499.77 2252.21 1505.38C2258.53 1520.11 2262.29 1536.42 2271.19 1549.56C2300.75 1593.24 2363.04 1584.7 2386.86 1573.32C2409.1 1562.69 2427.38 1542.93 2434.58 1517.93C2436.15 1512.47 2429.15 1508.05 2425.46 1512.29C2412.01 1527.78 2397.14 1541.61 2381.05 1553.81C2382.8 1546.68 2384.32 1539.4 2387.49 1533.45C2404.32 1501.9 2440.96 1429.41 2423.69 1443.65Z" fill="#B2D7FF"/>
<path d="M2386.86 1577.7C2385.29 1577.7 2383.79 1576.74 2383.11 1575.12C2382.17 1572.92 2383.1 1570.33 2385.17 1569.34C2407.49 1558.68 2424.07 1539.48 2430.65 1516.66C2430.87 1515.9 2430.12 1515.37 2429.89 1515.23C2429.47 1514.99 2428.9 1514.78 2428.48 1515.26C2415.07 1530.7 2399.91 1544.87 2383.43 1557.38C2382.02 1558.45 2380.14 1558.48 2378.71 1557.42C2377.28 1556.38 2376.63 1554.5 2377.07 1552.72L2377.69 1550.15C2379.25 1543.7 2380.86 1537.04 2383.91 1531.31C2403.71 1494.18 2419.55 1460.47 2423.27 1448C2422.19 1447.88 2421.16 1447.31 2420.45 1446.33C2419.05 1444.42 2419.38 1441.68 2421.17 1440.2C2424.96 1437.08 2428.06 1436.59 2430.42 1438.76C2433.09 1441.22 2438.67 1446.35 2391.07 1535.62C2389.92 1537.78 2389 1540.17 2388.2 1542.72C2400.56 1532.51 2412.05 1521.32 2422.44 1509.34C2425.41 1505.92 2430.05 1505.25 2433.98 1507.66C2437.98 1510.09 2439.8 1514.74 2438.52 1519.22C2431.25 1544.44 2413.04 1565.61 2388.55 1577.31C2387.99 1577.57 2387.42 1577.7 2386.86 1577.7ZM2306.79 1566.83C2305.44 1566.83 2304.16 1566.13 2303.39 1564.92L2302.9 1564.15C2289.76 1542.07 2274.56 1520.94 2257.72 1501.32C2257.19 1500.7 2257.04 1500.82 2256.73 1501.03C2256.14 1501.44 2255.49 1502.54 2255.94 1503.59C2256.88 1505.78 2255.98 1508.37 2253.91 1509.37C2251.84 1510.37 2249.4 1509.41 2248.46 1507.22C2246.42 1502.47 2248.03 1496.67 2252.2 1493.74C2255.98 1491.08 2260.65 1491.76 2263.8 1495.43C2273.66 1506.92 2282.97 1518.92 2291.64 1531.31C2289.82 1527.26 2288.04 1523.49 2286.52 1520.52C2276.93 1501.86 2269.85 1481.77 2265.48 1460.8C2256.55 1417.99 2258.94 1373.95 2272.41 1333.46C2274.03 1328.58 2278.92 1325.67 2283.83 1326.7C2288.4 1327.65 2291.33 1331.65 2291.11 1336.65C2290.03 1360.63 2296.17 1383.63 2302.54 1405.13C2303.73 1409.14 2304.88 1413.05 2306 1416.89C2306.35 1411.06 2306.9 1405.29 2307.68 1399.6C2308.2 1395.73 2310.67 1392.91 2314.27 1392.04C2318.38 1391.07 2322.92 1392.9 2325.13 1396.41C2326.39 1398.42 2325.88 1401.13 2323.99 1402.47C2322.1 1403.81 2319.55 1403.27 2318.29 1401.26C2318.12 1400.99 2317.6 1400.66 2316.94 1400.55C2316.34 1400.46 2315.92 1400.6 2315.84 1400.66C2313.81 1415.62 2313.3 1430.96 2314.3 1446.44C2314.45 1448.66 2312.99 1450.64 2310.93 1451.04C2308.88 1451.41 2306.85 1450.11 2306.26 1447.98C2302.75 1435.32 2298.97 1422.16 2294.69 1407.76C2288.1 1385.5 2281.75 1361.65 2282.89 1336.24C2282.92 1335.62 2282.83 1335.41 2282.25 1335.28C2281.65 1335.17 2280.5 1335.33 2280.16 1336.37C2267.21 1375.32 2264.91 1417.7 2273.51 1458.92C2277.71 1479.08 2284.52 1498.39 2293.74 1516.34C2293.93 1516.72 2312.81 1554.99 2310.78 1563.54C2310.38 1565.2 2309.1 1566.47 2307.51 1566.77C2307.27 1566.81 2307.03 1566.83 2306.79 1566.83ZM2371.2 1522.69C2371.17 1522.69 2371.14 1522.69 2371.11 1522.69C2368.84 1522.63 2367.04 1520.63 2367.09 1518.22C2367.11 1517.53 2367.11 1516.82 2367.11 1516.12C2367.11 1514.53 2367.12 1512.94 2367.25 1511.34C2368.05 1501.57 2370.42 1492.16 2372.7 1483.05C2374.53 1475.74 2376.43 1468.18 2377.42 1460.67C2381.34 1431.14 2374.84 1401.15 2359.12 1376.21C2358.58 1375.37 2357.97 1375.34 2357.55 1375.44C2357.18 1375.55 2356.55 1375.9 2356.47 1377.02C2355.71 1388.07 2354.9 1399.13 2354.09 1410.19C2352.32 1434.24 2350.5 1459.12 2349.29 1483.58C2349.02 1489.16 2348.88 1495.01 2348.9 1500.97C2348.9 1503.13 2347.43 1504.97 2345.42 1505.3C2343.43 1505.62 2341.48 1504.36 2340.87 1502.3C2337.51 1491.03 2334.93 1480.93 2332.98 1471.45C2332.49 1469.09 2333.9 1466.76 2336.12 1466.25C2338.32 1465.73 2340.52 1467.22 2341.01 1469.58C2341.21 1470.56 2341.42 1471.54 2341.63 1472.54C2342.81 1451.43 2344.37 1430.16 2345.89 1409.5C2346.7 1398.46 2347.51 1387.42 2348.27 1376.39C2348.58 1371.81 2351.4 1368.13 2355.44 1367C2359.46 1365.87 2363.57 1367.57 2365.94 1371.34C2382.8 1398.07 2389.77 1430.23 2385.56 1461.89C2384.5 1469.91 2382.53 1477.74 2380.64 1485.3C2378.34 1494.45 2376.18 1503.08 2375.43 1512.1C2375.33 1513.45 2375.33 1514.79 2375.33 1516.13C2375.32 1516.9 2375.32 1517.66 2375.31 1518.43C2375.26 1520.8 2373.43 1522.69 2371.2 1522.69Z" fill="#57092C"/>
<path d="M442.841 268.42C442.101 268.42 441.352 268.206 440.678 267.764L291.334 169.158C289.402 167.882 288.814 165.191 290.01 163.141C291.211 161.088 293.743 160.472 295.671 161.734L445.016 260.341C446.948 261.617 447.536 264.308 446.34 266.357C445.558 267.69 444.214 268.42 442.841 268.42Z" fill="#FECCCD"/>
<path d="M119.976 450.257C117.76 450.257 115.935 448.379 115.869 446.006C115.807 443.594 117.596 441.584 119.869 441.519L297.073 436.297C297.11 436.297 297.151 436.297 297.188 436.297C299.404 436.297 301.229 438.176 301.295 440.549C301.357 442.961 299.568 444.971 297.295 445.036L120.091 450.257C120.058 450.257 120.017 450.257 119.976 450.257Z" fill="#FECCCD"/>
<path d="M354.576 739.204C353.75 739.204 352.919 738.937 352.196 738.391C350.345 736.993 349.914 734.262 351.233 732.296L459.932 570.26C461.256 568.294 463.825 567.844 465.667 569.238C467.518 570.636 467.949 573.367 466.629 575.333L357.931 737.369C357.125 738.57 355.859 739.204 354.576 739.204Z" fill="#FECCCD"/>
<path d="M1252.95 415.936C1251.58 415.936 1250.23 415.207 1249.45 413.87C1248.25 411.82 1248.85 409.129 1250.77 407.853L1400.12 309.246C1402.05 307.975 1404.58 308.6 1405.78 310.653C1406.98 312.703 1406.38 315.394 1404.46 316.67L1255.11 415.276C1254.44 415.722 1253.69 415.936 1252.95 415.936Z" fill="#FECCCD"/>
<path d="M1575.81 597.783C1575.77 597.783 1575.73 597.783 1575.7 597.783L1398.49 592.553C1396.22 592.483 1394.44 590.473 1394.49 588.065C1394.56 585.649 1396.59 583.713 1398.72 583.814L1575.92 589.044C1578.19 589.109 1579.98 591.119 1579.92 593.527C1579.85 595.899 1578.03 597.783 1575.81 597.783Z" fill="#FECCCD"/>
<path d="M1341.21 886.721C1339.92 886.721 1338.66 886.083 1337.86 884.886L1229.16 722.85C1227.85 720.888 1228.27 718.157 1230.12 716.755C1231.97 715.361 1234.54 715.807 1235.86 717.777L1344.56 879.813C1345.87 881.775 1345.45 884.506 1343.6 885.908C1342.87 886.454 1342.04 886.721 1341.21 886.721Z" fill="#FECCCD"/>
<path d="M3428.29 786.056C3552.84 786.056 3653.81 678.754 3653.81 546.391C3653.81 414.027 3552.84 306.726 3428.29 306.726C3303.74 306.726 3202.77 414.027 3202.77 546.391C3202.77 678.754 3303.74 786.056 3428.29 786.056Z" fill="#CAE2F5"/>
<path d="M3428.29 790.426C3301.67 790.426 3198.65 680.948 3198.65 546.387C3198.65 505.472 3208.37 464.995 3226.74 429.337C3227.83 427.222 3230.33 426.436 3232.32 427.607C3234.31 428.769 3235.04 431.421 3233.95 433.536C3216.23 467.909 3206.87 506.936 3206.87 546.387C3206.87 676.129 3306.19 781.687 3428.28 781.687C3550.37 781.687 3649.7 676.133 3649.7 546.387C3649.7 416.64 3550.38 311.09 3428.29 311.09C3390.03 311.09 3352.32 321.625 3319.24 341.562C3317.27 342.75 3314.76 342.016 3313.64 339.915C3312.52 337.818 3313.21 335.148 3315.19 333.959C3349.5 313.284 3388.61 302.356 3428.29 302.356C3554.91 302.356 3657.93 411.829 3657.93 546.391C3657.93 680.952 3554.91 790.426 3428.29 790.426Z" fill="#83BDF2"/>
<path d="M3528.06 629.285C3527.21 629.285 3526.35 629.01 3525.62 628.429L3425.84 549.899C3424.79 549.078 3424.17 547.771 3424.17 546.386V391.464C3424.17 389.048 3426.01 387.094 3428.29 387.094C3430.56 387.094 3432.4 389.048 3432.4 391.464V544.184L3530.5 621.403C3532.33 622.841 3532.71 625.576 3531.36 627.511C3530.56 628.674 3529.32 629.285 3528.06 629.285Z" fill="#381746"/>
</svg>
