<?xml version="1.0" encoding="utf-8"?>
<!-- Generator: Adobe Illustrator 27.7.0, SVG Export Plug-In . SVG Version: 6.00 Build 0)  -->
<svg version="1.1" id="Layer_1" xmlns="http://www.w3.org/2000/svg" xmlns:xlink="http://www.w3.org/1999/xlink" x="0px" y="0px"
	 viewBox="0 0 936 204" style="enable-background:new 0 0 936 204;" xml:space="preserve">
<style type="text/css">
	.st0{fill:#D2AE74;}
	.st1{fill:#FFFFFF;}
	.st2{fill:none;stroke:#D7D7D7;stroke-width:5;stroke-miterlimit:10;}
</style>
<g>
	<g>
		<path class="st0" d="M351.88,67.16h30.15c22.45,0,40.67,18.22,40.67,40.67c0,22.45-18.22,40.67-40.67,40.67h-30.15V67.16z
			 M373.14,127.46h9c10.63,0,19.31-8.68,19.31-19.31c0-10.52-8.68-19.2-19.31-19.2h-9V127.46z"/>
		<path class="st0" d="M437.35,67.16h21.37v81.34h-21.37V67.16z"/>
		<path class="st0" d="M475.09,67.16h50.97v17.57h-29.61v13.23h26.14v18.11h-26.14v32.43h-21.37V67.16z"/>
		<path class="st0" d="M584.21,97.31l33.08-30.15h9.65v81.34h-21.47v-41.76l-21.26,19.41l-21.37-19.31v41.65h-21.47V67.16h9.65
			L584.21,97.31z"/>
	</g>
</g>
<g>
	<path class="st1" d="M647.98,148.5v-4.98l9.23-0.74V71.81l-9.23-0.74v-5.04h9.23h6.8h9.23v5.04l-9.23,0.74v70.97h34.27l0.51-11.61
		h6v17.33H647.98z"/>
	<path class="st1" d="M714.88,143.52l6.06-0.45l29.28-77.03h6.4l29,77.03l6.17,0.45v4.98h-20.33v-4.98l7.19-0.57l-6.8-18.46h-37.04
		l-6.85,18.46l7.19,0.57v4.98h-20.28V143.52z M737.08,118.42h32.57l-16.03-43.61h-0.34L737.08,118.42z"/>
	<path class="st1" d="M811.39,71.07l-8.38,0.62l13.03,53.47l2.49,12.57h0.34l3.06-12.57l18.12-59.13h6.4l18.07,59.13l3,12.74
		l0.34-0.06l2.66-12.69l12.86-53.47l-8.38-0.62v-5.04h21.52v5.04l-6.17,0.45l-19.2,76.97h-6.4l-19.2-63.27l-2.15-8.67h-0.34
		l-2.04,8.67l-19.37,63.27h-6.4l-19.2-76.97l-6.17-0.45v-5.04h21.52V71.07z"/>
</g>
<path class="st0" d="M62.27,133.69H56.5v-24.7h5.77c6.82,0,12.39,5.56,12.39,12.31C74.66,128.12,69.09,133.69,62.27,133.69z"/>
<path class="st0" d="M81.12,84.62v18.51C76.37,98.12,69.65,95,62.2,95H48.92V84.62H81.12z"/>
<path class="st0" d="M81.12,139.06v18.01h-32.2v-9.88H62.2C69.65,147.19,76.37,144.06,81.12,139.06z"/>
<path class="st0" d="M101.25,84.62v72.45h32.2V84.62H101.25z M124.2,147.19h-13.71V95h13.71V147.19z"/>
<rect x="153.57" y="84.62" class="st0" width="32.2" height="10.38"/>
<polygon class="st0" points="167.28,106.27 185.77,106.27 185.77,157.07 153.57,157.07 153.57,147.19 167.28,147.19 167.28,126.38 
	184.05,126.38 184.05,114.76 167.28,114.76 "/>
<polygon class="st0" points="238.09,84.62 238.09,99.73 222.06,114.34 205.89,99.66 205.89,84.62 "/>
<polygon class="st0" points="238.09,147.19 238.09,157.07 205.89,157.07 205.89,147.19 211.93,147.19 211.93,123.7 222.06,132.85 
	232.06,123.72 232.06,147.19 "/>
<rect x="44.9" y="160.48" class="st0" width="40.25" height="6.04"/>
<rect x="97.22" y="160.48" class="st0" width="40.25" height="6.04"/>
<rect x="149.54" y="160.48" class="st0" width="40.25" height="6.04"/>
<rect x="201.87" y="160.48" class="st0" width="40.25" height="6.04"/>
<rect x="40.87" y="169.93" class="st0" width="48.3" height="6.04"/>
<rect x="93.2" y="169.93" class="st0" width="48.3" height="6.04"/>
<rect x="145.52" y="169.93" class="st0" width="48.3" height="6.04"/>
<rect x="197.84" y="169.93" class="st0" width="48.3" height="6.04"/>
<polygon class="st0" points="143.51,17.63 38.86,60.06 38.86,68.11 248.15,68.11 248.15,60.06 "/>
<rect x="38.86" y="72.14" class="st0" width="209.29" height="8.05"/>
<line class="st2" x1="298.27" y1="17.07" x2="298.27" y2="186.93"/>
<g>
	<g>
		<g>
			<path class="st1" d="M62.2,95H48.92v52.19H62.2c7.44,0,14.16-3.12,18.92-8.13v-35.93C76.37,98.12,69.65,95,62.2,95z
				 M62.27,133.68H56.5v-24.7h5.78c6.82,0,12.38,5.57,12.38,12.32C74.66,128.12,69.09,133.68,62.27,133.68z"/>
		</g>
	</g>
	<g>
		<g>
			<path class="st1" d="M110.49,95h13.71v52.19h-13.71V95z"/>
		</g>
	</g>
	<g>
		<g>
			<path class="st1" d="M185.77,106.27V95h-32.2v52.19h13.71v-20.8h16.77v-11.62h-16.77v-8.49H185.77z"/>
		</g>
	</g>
	<g>
		<g>
			<path class="st1" d="M222.06,114.34l-16.17-14.69v47.53h2.46v-26.72l13.71,12.39l13.64-12.46v26.79h2.39V99.73L222.06,114.34z"/>
		</g>
	</g>
	<g>
		<rect x="205.89" y="118.32" class="st1" width="6.04" height="28.87"/>
	</g>
	<g>
		<rect x="232.05" y="118.32" class="st1" width="6.04" height="28.87"/>
	</g>
</g>
</svg>
