<svg width="3979" height="2782" viewBox="0 0 3979 2782" fill="none" xmlns="http://www.w3.org/2000/svg">
<g clip-path="url(#clip0_137174_556)">
<path d="M3781.42 1257.89C3781.41 1288.13 3769.38 1317.13 3747.99 1338.51C3726.61 1359.88 3697.6 1371.89 3667.36 1371.89C3682.34 1371.89 3697.17 1374.84 3711.01 1380.57C3724.85 1386.3 3737.42 1394.71 3748.01 1405.3C3758.6 1415.89 3767.01 1428.46 3772.74 1442.3C3778.47 1456.14 3781.42 1470.97 3781.42 1485.95C3781.42 1455.7 3793.44 1426.69 3814.83 1405.3C3836.22 1383.91 3865.23 1371.89 3895.48 1371.89C3865.24 1371.89 3836.24 1359.88 3814.85 1338.5C3793.46 1317.13 3781.44 1288.13 3781.42 1257.89Z" fill="#EBE9DA"/>
<path d="M3866.18 1885.89H3533.69C3532.63 1885.89 3531.61 1885.47 3530.86 1884.72C3530.11 1883.97 3529.69 1882.95 3529.69 1881.89C3529.69 1880.83 3530.11 1879.81 3530.86 1879.06C3531.61 1878.31 3532.63 1877.89 3533.69 1877.89H3866.18C3867.24 1877.89 3868.26 1878.31 3869.01 1879.06C3869.76 1879.81 3870.18 1880.83 3870.18 1881.89C3870.18 1882.95 3869.76 1883.97 3869.01 1884.72C3868.26 1885.47 3867.24 1885.89 3866.18 1885.89Z" fill="#EBE9DA"/>
<path d="M3899.43 1787.31H3679.12C3678.06 1787.31 3677.04 1786.89 3676.29 1786.14C3675.54 1785.39 3675.12 1784.37 3675.12 1783.31C3675.12 1782.25 3675.54 1781.23 3676.29 1780.48C3677.04 1779.73 3678.06 1779.31 3679.12 1779.31H3899.4C3900.46 1779.31 3901.48 1779.73 3902.23 1780.48C3902.98 1781.23 3903.4 1782.25 3903.4 1783.31C3903.4 1784.37 3902.98 1785.39 3902.23 1786.14C3901.48 1786.89 3900.46 1787.31 3899.4 1787.31H3899.43Z" fill="#EBE9DA"/>
<path d="M3727.64 1882.53C3726.59 1882.53 3725.58 1882.12 3724.83 1881.38C3724.08 1880.64 3723.66 1879.64 3723.64 1878.59L3722.26 1790.17C3722.24 1789.11 3722.65 1788.09 3723.39 1787.33C3724.12 1786.57 3725.13 1786.13 3726.19 1786.11H3726.26C3727.31 1786.11 3728.32 1786.52 3729.07 1787.26C3729.82 1788 3730.24 1789 3730.26 1790.05L3731.64 1878.47C3731.66 1879.53 3731.25 1880.55 3730.51 1881.31C3729.78 1882.07 3728.77 1882.51 3727.71 1882.53H3727.64Z" fill="#EBE9DA"/>
<path d="M3974.24 1678.49H3637.59C3636.53 1678.49 3635.51 1678.07 3634.76 1677.32C3634.01 1676.57 3633.59 1675.55 3633.59 1674.49C3633.59 1673.43 3634.01 1672.41 3634.76 1671.66C3635.51 1670.91 3636.53 1670.49 3637.59 1670.49H3974.24C3975.3 1670.49 3976.32 1670.91 3977.07 1671.66C3977.82 1672.41 3978.24 1673.43 3978.24 1674.49C3978.24 1675.55 3977.82 1676.57 3977.07 1677.32C3976.32 1678.07 3975.3 1678.49 3974.24 1678.49Z" fill="#EBE9DA"/>
<path d="M3812.12 1782.21C3811.06 1782.21 3810.04 1781.79 3809.29 1781.04C3808.54 1780.29 3808.12 1779.27 3808.12 1778.21V1681.29C3808.12 1680.23 3808.54 1679.21 3809.29 1678.46C3810.04 1677.71 3811.06 1677.29 3812.12 1677.29C3813.18 1677.29 3814.2 1677.71 3814.95 1678.46C3815.7 1679.21 3816.12 1680.23 3816.12 1681.29V1778.21C3816.12 1779.27 3815.7 1780.29 3814.95 1781.04C3814.2 1781.79 3813.18 1782.21 3812.12 1782.21Z" fill="#EBE9DA"/>
<path d="M568.791 1618.89H236.301C235.24 1618.89 234.222 1618.47 233.472 1617.72C232.722 1616.97 232.301 1615.95 232.301 1614.89C232.301 1613.83 232.722 1612.81 233.472 1612.06C234.222 1611.31 235.24 1610.89 236.301 1610.89H568.791C569.852 1610.89 570.869 1611.31 571.619 1612.06C572.369 1612.81 572.791 1613.83 572.791 1614.89C572.791 1615.95 572.369 1616.97 571.619 1617.72C570.869 1618.47 569.852 1618.89 568.791 1618.89Z" fill="#B2B0A1"/>
<path d="M602.04 1520.23H381.76C380.699 1520.23 379.681 1519.81 378.931 1519.06C378.181 1518.31 377.76 1517.29 377.76 1516.23C377.76 1515.17 378.181 1514.15 378.931 1513.4C379.681 1512.65 380.699 1512.23 381.76 1512.23H602.04C603.101 1512.23 604.118 1512.65 604.868 1513.4C605.618 1514.15 606.04 1515.17 606.04 1516.23C606.04 1517.29 605.618 1518.31 604.868 1519.06C604.118 1519.81 603.101 1520.23 602.04 1520.23Z" fill="#B2B0A1"/>
<path d="M430.25 1615.45C429.199 1615.45 428.191 1615.04 427.442 1614.3C426.694 1613.56 426.266 1612.56 426.25 1611.51L424.86 1523.09C424.852 1522.56 424.947 1522.04 425.141 1521.55C425.335 1521.07 425.623 1520.62 425.989 1520.24C426.355 1519.87 426.791 1519.57 427.274 1519.36C427.756 1519.15 428.275 1519.04 428.8 1519.03H428.87C429.92 1519.03 430.929 1519.44 431.677 1520.18C432.426 1520.92 432.854 1521.92 432.87 1522.97L434.26 1611.39C434.268 1611.92 434.172 1612.44 433.978 1612.93C433.785 1613.41 433.497 1613.86 433.131 1614.24C432.765 1614.61 432.328 1614.91 431.846 1615.12C431.364 1615.33 430.845 1615.44 430.32 1615.45H430.25Z" fill="#B2B0A1"/>
<path d="M676.849 1411.4H340.199C339.138 1411.4 338.121 1410.98 337.371 1410.23C336.621 1409.48 336.199 1408.46 336.199 1407.4C336.199 1406.34 336.621 1405.32 337.371 1404.57C338.121 1403.82 339.138 1403.4 340.199 1403.4H676.849C677.91 1403.4 678.928 1403.82 679.678 1404.57C680.428 1405.32 680.849 1406.34 680.849 1407.4C680.849 1408.46 680.428 1409.48 679.678 1410.23C678.928 1410.98 677.91 1411.4 676.849 1411.4Z" fill="#B2B0A1"/>
<path d="M514.76 1515.13C513.699 1515.13 512.681 1514.71 511.931 1513.96C511.181 1513.21 510.76 1512.19 510.76 1511.13V1414.21C510.76 1413.15 511.181 1412.13 511.931 1411.38C512.681 1410.63 513.699 1410.21 514.76 1410.21C515.821 1410.21 516.838 1410.63 517.588 1411.38C518.338 1412.13 518.76 1413.15 518.76 1414.21V1511.13C518.76 1512.19 518.338 1513.21 517.588 1513.96C516.838 1514.71 515.821 1515.13 514.76 1515.13Z" fill="#B2B0A1"/>
<path d="M3686.81 1904.47C3672.98 1894.9 3649.81 1884.14 3612.67 1886.13C3660.93 1799.74 3654.08 1689.75 3595.57 1611.13C3537.33 1532.89 3439.41 1501.13 3350.34 1531.69C3294.13 1519.47 3236.77 1513.32 3179.25 1513.35C3035.02 1513.49 2918.57 1552.78 2842.77 1586.69C2840.77 1576.93 2797.77 1386.8 2637.47 1330.03C2497.98 1280.64 2330.86 1353.86 2249.66 1513.35C2115.97 1305.54 2052.2 1274.68 2018.66 1287.25C1980.86 1301.43 1982.34 1370.6 1916.01 1403.36C1870.55 1425.81 1820.52 1417.67 1807.65 1415.58C1743.22 1405.1 1724.33 1369.17 1687.89 1381.97C1681.41 1384.24 1674.03 1388.18 1630.89 1446.13C1578.03 1517.13 1573.84 1531.67 1551.05 1540.85C1519.89 1553.41 1488.43 1542.01 1468.36 1534.74C1426.28 1519.5 1412.56 1495.89 1385.66 1476.69C1321.48 1430.86 1231.86 1445.48 1186.06 1464.47C1102.59 1499.07 1092.56 1578.01 1037.78 1641.68C979.109 1709.88 860.979 1769.96 598.649 1727.24C477.339 1656.69 325.889 1690.03 242.219 1803.63C171.539 1899.58 163.749 2033.12 219.609 2139.05H3743.27C3760.52 2029.63 3738.7 1940.35 3686.81 1904.47Z" fill="#EBE9DA"/>
<path d="M3399.33 735.23H2052C2018.93 735.23 1992.12 762.039 1992.12 795.11V1710.44C1992.12 1743.51 2018.93 1770.32 2052 1770.32H3399.33C3432.4 1770.32 3459.21 1743.51 3459.21 1710.44V795.11C3459.21 762.039 3432.4 735.23 3399.33 735.23Z" fill="#B2B0A1"/>
<path d="M3377.94 713.84H2030.61C1997.54 713.84 1970.73 740.649 1970.73 773.72V1689.05C1970.73 1722.12 1997.54 1748.93 2030.61 1748.93H3377.94C3411.01 1748.93 3437.82 1722.12 3437.82 1689.05V773.72C3437.82 740.649 3411.01 713.84 3377.94 713.84Z" fill="white"/>
<path d="M3377.94 1751.43H2030.61C2014.07 1751.41 1998.22 1744.83 1986.52 1733.14C1974.83 1721.44 1968.25 1705.59 1968.23 1689.05V773.72C1968.25 757.182 1974.83 741.328 1986.52 729.634C1998.22 717.94 2014.07 711.361 2030.61 711.34H3377.94C3394.48 711.358 3410.33 717.936 3422.03 729.631C3433.72 741.325 3440.3 757.181 3440.32 773.72V1689.05C3440.3 1705.59 3433.72 1721.44 3422.03 1733.14C3410.33 1744.83 3394.48 1751.41 3377.94 1751.43ZM2030.61 716.34C2015.4 716.356 2000.81 722.406 1990.05 733.164C1979.3 743.921 1973.25 758.507 1973.23 773.72V1689.05C1973.25 1704.26 1979.3 1718.85 1990.05 1729.61C2000.81 1740.36 2015.4 1746.41 2030.61 1746.43H3377.94C3393.15 1746.41 3407.74 1740.36 3418.5 1729.61C3429.25 1718.85 3435.3 1704.26 3435.32 1689.05V773.72C3435.3 758.507 3429.25 743.921 3418.5 733.164C3407.74 722.406 3393.15 716.356 3377.94 716.34H2030.61Z" fill="#692F0A"/>
<path d="M3335.29 756.62H2073.26C2042.62 756.62 2017.78 781.459 2017.78 812.1V1650.68C2017.78 1681.32 2042.62 1706.16 2073.26 1706.16H3335.29C3365.93 1706.16 3390.77 1681.32 3390.77 1650.68V812.1C3390.77 781.459 3365.93 756.62 3335.29 756.62Z" fill="#CAE2F5"/>
<path d="M3390.77 1071.01V1650.68C3390.77 1665.39 3384.93 1679.51 3374.52 1689.91C3364.12 1700.31 3350 1706.16 3335.29 1706.16H2327.74C2389.55 1622.7 2494.99 1507.3 2598.06 1520.16C2757.74 1540.16 3165.5 1383.29 3245.34 1229.31C3278.75 1164.46 3328.98 1109.78 3390.77 1071.01Z" fill="#7A94A8"/>
<path d="M3475.8 2400.72C3150.73 2405.33 3116.52 2617.37 2882.69 2672.72C2858.04 2678.46 2833.11 2682.93 2808 2686.1C2769.94 2691.1 2729.46 2693.81 2687.22 2694.86C2569.95 2697.8 2439.02 2687.58 2308.11 2674.3C2198.5 2663.18 2088.9 2649.92 1987.33 2640.45C1690.77 2612.79 1462.65 2695.77 1462.65 2695.77L1936 2133.39H3937.74C4051.8 2336.18 3800.87 2396.11 3475.8 2400.72Z" fill="#B2AF9C"/>
<path d="M2890.77 681.45C2890.77 681.45 2944.69 611.92 2997.26 678.77C3049.83 745.62 2964.9 808.46 3004 837.88C3043.1 867.3 3138.79 851.25 3103.75 947.51C3068.71 1043.77 2990.52 994.31 2967.6 926.12C2915.03 950.19 2847.6 904.73 2844.93 840.55C2842.26 776.37 2890.77 681.45 2890.77 681.45Z" fill="#050505"/>
<path d="M2872.12 644.06C2872.12 644.06 2880.67 615.19 2900.99 644.06C2921.31 672.93 2919.17 705.01 2914.89 711.43C2910.61 717.85 2889.22 723.19 2886.02 723.19C2882.82 723.19 2865.7 707.19 2865.7 707.19L2872.12 644.06Z" fill="#FF2D60"/>
<path d="M2570.12 637.67C2570.12 637.67 2529.49 675.1 2567.98 726.42C2606.47 777.74 2633.21 752.09 2633.21 752.09L2640.69 660.09L2570.12 637.67Z" fill="#050505"/>
<path d="M2559.41 1025.56L2538.23 1188.44L2515.57 1362.67C2515.57 1362.67 2267.49 1548.73 2139.17 1529.48C2029.17 1512.98 1879.83 1156.9 1839.48 1055.67C1832.77 1038.83 1829.07 1029.04 1829.07 1029.04L1968.07 956.33C1968.07 956.33 2124.2 1195.89 2231.12 1298.51C2271.76 1289.95 2559.41 1025.56 2559.41 1025.56Z" fill="#FECD3B"/>
<path d="M2538.23 1188.44L2515.57 1362.67C2515.57 1362.67 2267.49 1548.73 2139.17 1529.48C2029.17 1512.98 1879.83 1156.9 1839.48 1055.67L1858.1 1049.67C1858.1 1049.67 2010.65 1408.95 2097.62 1446.02C2184.59 1483.09 2258.73 1461.71 2312.91 1434.62C2367.09 1407.53 2424.12 1380.44 2426.97 1376.16C2429.82 1371.88 2399.88 1187.96 2521.07 1186.54C2526.85 1186.44 2532.61 1187.08 2538.23 1188.44Z" fill="#FFA810"/>
<path d="M2735.84 969.16C2735.84 969.16 2534.84 958.46 2502.73 1163.77C2470.62 1369.08 2528.4 1743.34 2528.4 1743.34L3122.93 1694.15C3122.93 1694.15 3135.76 1180.88 3022.42 1054.7C2909.08 928.52 2735.84 969.16 2735.84 969.16Z" fill="#805408"/>
<path d="M3161.3 1706.16H2819.46C2818.17 1682.54 2816.57 1646.68 2815.79 1603.35C2814.53 1532.54 2815.46 1441.78 2823.53 1351.97C2840.64 1161.64 2916.2 981.36 2916.2 981.36C2916.2 981.36 3037.39 1024.77 3078.02 1121C3115.76 1210.4 3155.8 1644.83 3161.3 1706.16Z" fill="#FECD3B"/>
<path d="M2898.89 974.12C2898.89 974.12 2824.75 1272.12 2826.18 1317.72L2906.02 1148.06L2896.02 1109.56L2949.48 996.22L2898.89 974.12Z" fill="white"/>
<path d="M2661.36 1727.6L2663.13 1747.6L2528.4 1743.32C2528.4 1743.32 2522.08 1711.09 2513.74 1662.09C2510.16 1641.09 2506.2 1616.95 2502.21 1590.97C2485.9 1484.62 2469.04 1347.04 2474.93 1262.13C2485.63 1108.13 2538.02 995.6 2670.62 974.21C2670.62 974.21 2622.5 1279.21 2635.33 1428.94C2640.48 1489.06 2645.98 1552.28 2650.71 1606.42C2655.33 1659.23 2659.22 1703.39 2661.36 1727.6Z" fill="#FECD3B"/>
<path d="M2670.62 974.23C2670.62 974.23 2609.11 985.17 2610.18 993.72C2602.69 1080.34 2604.83 1143.43 2604.83 1143.43L2625.15 1154.12L2596.27 1208.65L2632.63 1339.11C2658.29 1140.22 2670.62 974.23 2670.62 974.23Z" fill="white"/>
<path d="M2650.71 1606.44C2655.33 1659.23 2659.22 1703.39 2661.36 1727.6C2629.36 1719.85 2600.08 1712.03 2595.21 1708.38C2585.42 1701.04 2529.41 1670.59 2513.74 1662.11C2510.16 1641.11 2506.2 1616.97 2502.21 1590.99C2519.26 1593.28 2584.27 1601.72 2650.71 1606.44Z" fill="#FFA810"/>
<path d="M3002.97 1571.51C3002.97 1571.51 2923.13 1671.31 2908.87 1691.27C2905.77 1695.61 2896.61 1700.76 2884.16 1706.16H2819.46C2818.17 1682.54 2816.57 1646.68 2815.79 1603.35C2841.64 1596.01 2850.04 1580 2860.39 1544.42C2877.5 1485.61 2933.11 1309.17 2965.19 1283.51C2997.27 1257.85 3002.97 1571.51 3002.97 1571.51Z" fill="#FFA810"/>
<path d="M1926.5 897.89C1924.12 869.89 1936.95 870.33 1947.88 840.89C1958.81 811.45 1956.44 772.46 1939.33 755.35C1929.06 745.08 1918.63 744.06 1911.51 747.24C1917.39 739.33 1916.6 728.52 1899.65 717.92C1865.43 696.54 1825.86 748.92 1825.86 748.92C1825.86 748.92 1774.54 589.6 1754.22 598.15C1733.9 606.7 1789.51 742.51 1782.02 747.86C1774.53 753.21 1709.31 606.71 1683.65 624.86C1657.99 643.01 1748.87 773.5 1728.56 778.86C1708.5 784.14 1640.49 667.48 1624.37 693.32C1624.15 693.664 1623.94 694.021 1623.76 694.39C1608.76 724.33 1737.11 885.8 1768.12 936.05C1799.13 986.3 1836.56 1018.39 1836.56 1018.39L1854.25 1011.88L1964.99 971.1C1964.99 971.1 1928.87 925.89 1926.5 897.89ZM1907.5 825.66C1890.39 841.34 1859.5 833.74 1851.42 809.02C1843.34 784.3 1863.3 756.75 1882.78 759.12C1889.52 759.94 1897.72 757.82 1904.13 753.81C1903.46 755.021 1902.99 756.336 1902.74 757.7C1900.83 768.61 1924.6 809.95 1907.49 825.64L1907.5 825.66Z" fill="#FFA99C"/>
<path d="M1854.25 1011.89L1836.56 1018.4C1836.56 1018.4 1799.13 986.32 1768.12 936.06C1737.11 885.8 1608.79 724.34 1623.76 694.4C1623.94 694.031 1624.15 693.674 1624.37 693.33C1638.13 724.66 1666.05 784.02 1691.28 811.64C1726.45 850.13 1764.95 891.48 1764.95 891.48C1764.95 891.48 1832.91 981.6 1854.25 1011.89Z" fill="#F47D65"/>
<path d="M2492.04 1632.13L2474.92 1692.04L2464.24 1729.44C2464.24 1729.44 2341.24 1720.88 2294.24 1721.95C2247.24 1723.02 2141.84 1715.51 2141.84 1715.51C2141.84 1715.51 2145.2 1712.68 2151.04 1707.92C2181.66 1682.92 2280.39 1604.54 2319.9 1600.05C2366.9 1594.71 2426.83 1618.23 2446.08 1620.37C2465.33 1622.51 2492.04 1632.13 2492.04 1632.13Z" fill="#FFA99C"/>
<path d="M2474.92 1692.04L2464.24 1729.44C2464.24 1729.44 2341.24 1720.88 2294.24 1721.95C2247.24 1723.02 2141.84 1715.51 2141.84 1715.51C2141.84 1715.51 2145.2 1712.68 2151.04 1707.92C2170.63 1708.99 2253.61 1712.87 2293.68 1704.1C2339.3 1694.1 2419.86 1706.96 2419.86 1706.96C2419.86 1706.96 2436.26 1672.02 2448.37 1663.47C2458.12 1656.57 2470.25 1675.22 2474.92 1692.04Z" fill="#F47D65"/>
<path d="M3128.24 1438.45C3102.24 1587.88 3051.79 1758.07 2990.34 1803.22C2885.55 1880.22 2665.27 1813.91 2442.85 1743.34C2441.29 1740.21 2441.44 1733.52 2442.73 1724.67C2448.5 1685.06 2477.07 1602.19 2477.07 1602.19C2477.07 1602.19 2793.59 1662.07 2842.77 1627.85C2891.95 1593.63 2949.7 1313.48 2949.7 1313.48L3018.85 1041.24C3018.85 1041.24 3116.52 1123.14 3142.18 1204.41C3152.79 1238.02 3146.58 1333.07 3128.24 1438.45Z" fill="#FECD3B"/>
<path d="M1820.52 1029.04C1820.52 1029.04 1833.35 1085.71 1845.11 1087.85C1856.87 1089.99 1947.76 1061.12 1975.57 1047.22C2003.38 1033.32 2014.06 1013 2014.06 1013C2014.06 1013 1978.77 942.42 1965.94 945.63C1953.11 948.84 1821.59 1014.07 1820.52 1029.04Z" fill="#FFEBB1"/>
<path d="M2863.6 970.2C2863.6 970.2 2795.88 1077.49 2750.26 1078.2C2704.64 1078.91 2701.07 988.38 2701.07 988.38C2701.07 988.38 2701.89 986.38 2700.61 939.79C2700.3 928 2699.92 916.36 2699.49 905.71C2632.49 900.71 2619.65 870.78 2609.67 788.8C2599.69 706.82 2616.8 622.7 2616.8 622.7C2623.92 573.51 2724.44 537.87 2800.72 574.22C2874.08 609.22 2863.45 781.67 2862.02 822.3C2860.59 862.93 2863.6 970.2 2863.6 970.2Z" fill="#FFA99C"/>
<path d="M2768.99 893.31C2761.69 921.49 2727.6 934.15 2700.61 939.79C2700.3 928 2699.92 916.36 2699.49 905.71C2699.49 905.71 2746.18 905.79 2768.99 893.31Z" fill="#F47D65"/>
<path d="M2724 759.78C2723.78 760.15 2722.85 760.11 2721.37 759.73C2720.63 759.55 2719.75 759.28 2718.75 758.93C2717.75 758.58 2716.66 758.12 2715.39 757.78C2714.12 757.44 2712.78 756.95 2711.34 756.45C2710.6 756.184 2709.85 755.963 2709.09 755.79L2706.69 755.15C2705 754.674 2703.28 754.29 2701.54 754C2699.7 753.64 2697.85 753.376 2695.98 753.21C2695.04 753.102 2694.1 753.049 2693.15 753.05C2692.23 753.05 2691.31 752.94 2690.41 752.98C2688.62 753.1 2686.88 753.08 2685.25 753.36C2682.33 753.701 2679.45 754.324 2676.65 755.22C2671.79 756.73 2668.97 758.35 2668.39 757.71C2667.81 757.07 2669.89 754.04 2674.9 751.24C2677.83 749.606 2681 748.438 2684.29 747.78C2686.23 747.36 2688.2 747.086 2690.18 746.96C2691.18 746.87 2692.25 746.96 2693.31 746.96C2694.38 746.939 2695.45 746.992 2696.52 747.12C2698.62 747.301 2700.7 747.635 2702.75 748.12C2704.65 748.523 2706.53 749.068 2708.35 749.75L2710.87 750.75C2711.67 751.023 2712.45 751.357 2713.2 751.75C2714.66 752.49 2715.99 753.197 2717.2 753.87C2718.29 754.454 2719.33 755.123 2720.31 755.87C2721.19 756.53 2721.93 757.12 2722.51 757.64C2723.69 758.68 2724.21 759.42 2724 759.78Z" fill="#060606"/>
<path d="M2608.51 754.08C2607.95 753.53 2608.94 751.17 2612.03 748.42C2613.9 746.821 2616.06 745.581 2618.38 744.76C2621.28 743.735 2624.38 743.363 2627.44 743.67C2630.43 743.96 2633.34 744.78 2636.04 746.09C2638.17 747.124 2640.16 748.432 2641.96 749.98C2644.96 752.61 2646.17 754.91 2645.58 755.51C2644.99 756.11 2642.87 755.1 2639.58 753.62C2636.29 752.14 2631.83 750.24 2626.87 749.79C2622.58 749.432 2618.27 750.219 2614.39 752.07C2611.24 753.51 2609.12 754.72 2608.51 754.08Z" fill="#060606"/>
<path d="M2663.88 838.47C2654.55 838.47 2641.18 834.47 2637.68 831.68C2636.32 830.59 2633.79 828.57 2638.74 798.68C2641.09 784.43 2644.07 770.46 2644.1 770.32C2644.23 769.818 2644.54 769.385 2644.98 769.112C2645.42 768.838 2645.95 768.745 2646.45 768.853C2646.96 768.96 2647.41 769.259 2647.7 769.688C2647.99 770.116 2648.1 770.64 2648.01 771.15C2642.55 796.7 2638.19 825.08 2640.27 828.65C2645.07 832.33 2666.34 836.5 2669.36 833.48C2669.74 833.136 2670.24 832.951 2670.75 832.965C2671.27 832.979 2671.75 833.189 2672.12 833.553C2672.48 833.916 2672.69 834.405 2672.7 834.919C2672.71 835.432 2672.53 835.93 2672.18 836.31C2670.62 837.89 2667.56 838.47 2663.88 838.47Z" fill="#050505"/>
<path d="M2680.75 857.68C2680.51 855.81 2687.53 854.4 2693.67 850.22C2694.05 849.972 2694.41 849.702 2694.76 849.41C2695.1 849.12 2695.48 848.89 2695.76 848.58C2696.38 848.036 2696.97 847.455 2697.52 846.84C2698.1 846.28 2698.52 845.65 2699 845.11C2699.48 844.57 2699.84 843.98 2700.15 843.43C2701.57 841.31 2702.33 839.73 2703.15 839.74C2703.97 839.75 2704.8 841.74 2704.15 844.97C2703.98 845.84 2703.74 846.693 2703.42 847.52C2703.03 848.469 2702.55 849.38 2701.99 850.24C2701.37 851.196 2700.67 852.09 2699.88 852.91C2699.46 853.342 2699.02 853.75 2698.56 854.13C2698.11 854.543 2697.62 854.92 2697.11 855.26C2696.14 855.948 2695.1 856.541 2694.01 857.03L2692.48 857.7C2691.99 857.897 2691.48 858.057 2690.96 858.18L2689.51 858.57L2688.82 858.74L2688.13 858.83C2687.24 858.94 2686.4 859.02 2685.65 859.07C2682.68 859.09 2680.83 858.5 2680.75 857.68Z" fill="#060606"/>
<path d="M2685.26 790.2C2691.43 790.2 2696.43 784.935 2696.43 778.44C2696.43 771.945 2691.43 766.68 2685.26 766.68C2679.09 766.68 2674.09 771.945 2674.09 778.44C2674.09 784.935 2679.09 790.2 2685.26 790.2Z" fill="#050505"/>
<path d="M2626.33 791.62C2631.18 791.62 2635.12 785.822 2635.12 778.67C2635.12 771.518 2631.18 765.72 2626.33 765.72C2621.48 765.72 2617.54 771.518 2617.54 778.67C2617.54 785.822 2621.48 791.62 2626.33 791.62Z" fill="#050505"/>
<path d="M2551.92 628.05C2551.92 628.05 2588.28 707.18 2651.37 684.72C2714.46 662.26 2731.57 687.93 2731.57 709.32C2731.57 730.71 2754.02 737.12 2762.57 716.8C2785.02 723.22 2818.17 714.66 2817.1 759.57C2816.03 804.48 2811.75 814.11 2811.75 814.11C2811.75 814.11 2826.75 839.77 2848.11 820.52C2869.47 801.27 2874.84 776.68 2876.98 771.34C2879.12 766 2906.92 657.99 2861.98 599.18C2873.74 527.53 2811.72 495.45 2780.71 505.08C2749.7 514.71 2729.39 553.2 2695.17 526.46C2660.95 499.72 2614.97 529.67 2610.69 558.54C2573.31 533.95 2530.54 566.03 2551.92 628.05Z" fill="#050505"/>
<path d="M2841.86 813.01C2841.86 813.01 2803.36 892.85 2855.4 923.51C2911.01 944.18 2913.15 818 2913.15 818C2913.15 818 2883.92 782.36 2868.24 788.06C2852.56 793.76 2841.86 813.01 2841.86 813.01Z" fill="#050505"/>
<path d="M3128.24 1438.45C3102.24 1587.88 3051.79 1758.07 2990.34 1803.22C2885.55 1880.22 2665.27 1813.91 2442.85 1743.34C2441.29 1740.21 2441.44 1733.52 2442.73 1724.67C2475.23 1731.47 2768.38 1792.1 2851.84 1785.37C2940.24 1778.24 2998.69 1752.58 3040.04 1659.91C3069.47 1593.89 3108.31 1491.8 3128.24 1438.45Z" fill="#FFA810"/>
<path d="M1325.79 2681.48V2781.28C1325.79 2781.28 915.17 2701.44 761.19 2581.67C607.21 2461.9 86.8199 2466.19 72.5599 2195.3V2142.55L72 2045.92C140.45 2270.04 616.63 2369.44 761.19 2481.87C915.17 2601.64 1325.79 2681.48 1325.79 2681.48Z" fill="#76756D"/>
<path d="M2437.87 2042.75V2142.55L1325.79 2781.28V2681.48L2437.87 2042.75Z" fill="#4C4A3D"/>
<path d="M2437.87 2042.75L1325.79 2681.48C1325.79 2681.48 915.171 2601.64 761.191 2481.87C616.631 2369.44 149.111 2366.33 80.6606 2142.21C76.0612 2127.03 73.3408 2111.34 72.5605 2095.5V2042.75H2437.87Z" fill="#B0AFA3"/>
<path d="M793.3 2470.21C761.46 2382.85 733.66 2289.41 702.73 2203.21C677.52 2132.95 669.46 2085.06 669.47 2053.35C669.47 2049.59 669.59 2046.09 669.8 2042.78H661.8C661.6 2046.11 661.49 2049.63 661.49 2053.35C661.49 2086.4 669.82 2135.07 695.22 2205.92C718.71 2271.39 740.45 2341.23 763.59 2409.55C774.85 2442.76 786.43 2475.61 798.72 2507.43C802.354 2509.63 806.067 2511.82 809.86 2513.99C804.2 2499.6 798.68 2485 793.3 2470.21Z" fill="white"/>
<path d="M726.87 2395.04C718.34 2383.39 706.241 2369.63 692.771 2353.87C672.571 2330.24 649.351 2302.16 630.891 2270.69C621.526 2254.99 613.774 2238.37 607.75 2221.11C601.697 2203.78 598.23 2185.66 597.46 2167.32C596.26 2133.64 595.31 2108.48 595.31 2089.6C595.31 2071.95 596.16 2059.79 598.25 2051.52C598.89 2048.83 599.833 2046.23 601.06 2043.75C601.24 2043.4 601.43 2043.08 601.62 2042.75H592.719C590.629 2047.75 589.309 2053.84 588.479 2061.41C587.59 2070.78 587.2 2080.19 587.31 2089.6C587.31 2108.74 588.309 2133.93 589.469 2167.6C590.599 2199.21 600.231 2228.94 613.921 2256.24C634.471 2297.18 664.169 2332.76 688.609 2361.3C700.819 2375.56 711.73 2388.07 719.46 2398.46C722.828 2402.82 725.838 2407.45 728.46 2412.3C729.374 2414.03 730.129 2415.84 730.719 2417.71C731.154 2419.03 731.395 2420.42 731.431 2421.81C731.438 2422.49 731.343 2423.16 731.151 2423.81C730.811 2424.89 730.161 2425.85 729.281 2426.57C728.275 2427.4 727.148 2428.08 725.94 2428.57C722.989 2429.73 719.9 2430.5 716.75 2430.86C711.968 2431.46 707.15 2431.74 702.33 2431.69C699.59 2431.69 696.639 2431.62 693.479 2431.49C677.829 2430.82 662.909 2426.02 648.479 2418C623.259 2404 599.72 2380 577.74 2351.72C561.25 2330.55 545.61 2307.03 530.64 2283.64C508.17 2248.56 487.241 2213.81 466.921 2187.59C456.751 2174.48 446.74 2163.49 436.59 2155.59C431.878 2151.84 426.693 2148.73 421.171 2146.34C416.116 2144.16 410.676 2143 405.171 2142.95C403.051 2142.95 400.936 2143.14 398.85 2143.51C396.039 2144 393.333 2144.98 390.85 2146.39C386.509 2148.97 382.912 2152.63 380.411 2157.02C376.341 2163.81 373.791 2172.48 372.171 2182.69C370.528 2194.28 369.773 2205.98 369.911 2217.69C369.911 2248.58 373.6 2286.29 377.26 2325.03C378.04 2333.33 378.83 2341.68 379.57 2350.03L387.83 2352.54C386.99 2343.11 386.11 2333.67 385.22 2324.3C381.56 2285.56 377.911 2247.98 377.911 2217.71C377.855 2208.84 378.266 2199.98 379.14 2191.15C380.4 2179.22 382.79 2169.49 386.35 2162.81C387.842 2159.83 389.912 2157.19 392.44 2155.02C394.697 2153.16 397.4 2151.93 400.281 2151.43C401.905 2151.14 403.551 2151 405.2 2151C409.715 2151.06 414.172 2152.03 418.301 2153.86C426.711 2157.41 435.611 2164.35 444.771 2173.92C460.771 2190.66 477.611 2215.32 495.281 2242.92C521.821 2284.3 550.4 2332.26 582.65 2370.53C598.78 2389.66 615.841 2406.38 634.161 2418.63C639.101 2421.94 644.237 2424.94 649.541 2427.63C658.601 2430.75 667.384 2433.94 675.891 2437.21C681.551 2438.48 687.313 2439.25 693.109 2439.51C696.379 2439.65 699.44 2439.72 702.31 2439.72C707.566 2439.77 712.819 2439.46 718.031 2438.78C721.04 2438.39 724.007 2437.72 726.891 2436.78C728.712 2436.19 730.459 2435.39 732.099 2434.4C734.351 2433.09 736.234 2431.23 737.57 2428.99C738.811 2426.81 739.446 2424.34 739.411 2421.83C739.332 2418.87 738.718 2415.94 737.599 2413.2C735.449 2407.67 731.74 2401.71 726.87 2395.04Z" fill="white"/>
<path d="M264.121 2308.73C268.501 2230.18 280.741 2144.59 293.001 2073.83C294.861 2063.1 296.711 2052.74 298.551 2042.75H290.411C288.664 2052.3 286.901 2062.2 285.121 2072.46C272.981 2142.53 260.851 2227.07 256.301 2305.31C258.931 2306.46 261.531 2307.6 264.121 2308.73Z" fill="white"/>
<path d="M1379.45 2650.66C1348.33 2624.95 1319.12 2596.46 1287.03 2571.09C1225.62 2522.59 1155.56 2487.19 1090.03 2445.93C1057.25 2425.31 1025.11 2402.73 996.37 2377.01C967.63 2351.29 942.31 2322.45 923.07 2289.28C901.66 2252.37 889.07 2208.94 889.07 2166.58C889.07 2132.97 896.95 2100.08 914.46 2071.47C920.34 2061.85 927.77 2052.32 935.69 2042.75H925.35C918.929 2050.55 913.01 2058.74 907.63 2067.29C889.25 2097.29 881.06 2131.74 881.07 2166.58C881.07 2210.52 894.07 2255.21 916.07 2293.29C935.83 2327.36 961.75 2356.83 990.96 2382.97C1020.17 2409.11 1052.68 2431.97 1085.69 2452.7C1151.69 2494.21 1221.48 2529.51 1282.04 2577.37C1312.92 2601.76 1341.42 2629.44 1372.04 2654.91L1379.45 2650.66Z" fill="white"/>
<path d="M789.68 2278.89C774.05 2240.76 764.9 2203.51 764.9 2168.29C764.9 2162.38 765.16 2156.53 765.68 2150.73C769.68 2106.39 778.06 2070.97 789.17 2042.73H780.59C769.72 2071.28 761.67 2106.53 757.72 2149.97C757.173 2156.02 756.9 2162.12 756.9 2168.26C756.9 2198.01 763.16 2228.83 774.04 2260.16C793.04 2314.97 826.24 2371.37 865.23 2426.42C907.23 2485.65 955.9 2543.31 1001.11 2595.49C1006.07 2597.17 1011.03 2598.84 1015.99 2600.49C961.54 2537.81 900.99 2466.8 853.08 2394.65C827.39 2355.98 805.3 2317 789.68 2278.89Z" fill="white"/>
<path d="M1154.12 2371.4C1130.06 2356.72 1105.73 2341.4 1084.07 2323.84C1062.41 2306.28 1043.4 2286.3 1029.86 2262.29C1012.53 2231.58 1005.46 2196 1005.46 2160.18C1005.48 2148.38 1006.21 2136.59 1007.65 2124.87C1011.02 2097.05 1017.86 2069.77 1026.11 2042.75H1017.75C1009.75 2069.28 1003.07 2096.24 999.75 2123.91C998.268 2135.94 997.517 2148.06 997.5 2160.18C997.5 2197.03 1004.76 2234 1022.94 2266.18C1037.12 2291.33 1056.88 2311.98 1079.06 2330.01C1101.24 2348.04 1125.88 2363.47 1149.99 2378.19C1265.62 2448.8 1383.26 2515.97 1502.91 2579.72L1511.11 2575.02C1390.13 2510.7 1271.13 2442.83 1154.12 2371.4Z" fill="white"/>
<path d="M1425.72 2368.82C1384.78 2353.15 1343.4 2337.18 1304.33 2317.75C1265.26 2298.32 1228.51 2275.42 1196.74 2245.93C1171.68 2222.66 1151.06 2195.02 1135.9 2164.37C1120.9 2133.83 1112.19 2100.88 1112.19 2068.19C1112.18 2059.68 1112.8 2051.17 1114.02 2042.75H1105.93C1104.77 2051.18 1104.19 2059.68 1104.19 2068.19C1104.19 2102.31 1113.3 2136.42 1128.72 2167.89C1144.31 2199.43 1165.51 2227.86 1191.3 2251.79C1223.81 2281.97 1261.3 2305.25 1300.77 2324.91C1340.24 2344.57 1381.9 2360.62 1422.86 2376.3L1683.46 2476.04L1692.41 2470.9L1425.72 2368.82Z" fill="white"/>
<path d="M1395.12 2212.37C1376.53 2202.73 1357.75 2192.88 1340.56 2181.37C1323.37 2169.86 1307.75 2156.74 1295.38 2140.56C1288.21 2131.1 1282.55 2120.59 1278.61 2109.39C1274.65 2098.33 1272.58 2086.68 1272.49 2074.93C1272.44 2066.68 1273.66 2058.47 1276.09 2050.59C1276.93 2047.91 1277.94 2045.29 1279.09 2042.73H1270.41C1269.69 2044.52 1269.03 2046.34 1268.41 2048.18C1265.72 2056.84 1264.37 2065.86 1264.41 2074.93C1264.5 2087.59 1266.73 2100.13 1270.99 2112.05C1275.21 2124.04 1281.29 2135.3 1288.99 2145.41C1302.06 2162.53 1318.4 2176.21 1336.07 2188.02C1353.74 2199.83 1372.79 2209.8 1391.4 2219.45L1779.57 2420.89L1787.81 2416.16L1395.12 2212.37Z" fill="white"/>
<path d="M1570.38 2220.7C1551.38 2212.7 1532.16 2204.44 1514.33 2194.51C1496.5 2184.58 1480.08 2172.97 1466.5 2158.16C1457.51 2148.29 1450.28 2136.95 1445.14 2124.63C1440 2112.58 1437.28 2099.63 1437.14 2086.53C1436.97 2073.37 1440.43 2060.42 1447.14 2049.1C1447.42 2048.65 1447.61 2048.15 1447.7 2047.62C1447.79 2047.1 1447.77 2046.56 1447.64 2046.05C1447.52 2045.53 1447.3 2045.04 1446.98 2044.61C1446.67 2044.18 1446.27 2043.82 1445.82 2043.55C1445.36 2043.27 1444.86 2043.09 1444.33 2043.02C1443.81 2042.94 1443.27 2042.97 1442.76 2043.1C1442.24 2043.23 1441.76 2043.47 1441.33 2043.79C1440.91 2044.11 1440.56 2044.51 1440.29 2044.97C1432.83 2057.54 1428.98 2071.92 1429.16 2086.53C1429.3 2100.69 1432.24 2114.68 1437.79 2127.71C1443.28 2140.89 1451.01 2153.02 1460.63 2163.56C1474.98 2179.21 1492.16 2191.3 1510.47 2201.5C1528.78 2211.7 1548.26 2220.01 1567.29 2228.07L1882.77 2361.59L1891.47 2356.59L1570.38 2220.7Z" fill="white"/>
<path d="M1657.89 2173.69C1617.09 2156.24 1576.89 2136.25 1544.72 2106.62C1528.48 2091.82 1514.9 2074.36 1504.57 2054.97C1502.47 2050.97 1500.55 2046.9 1498.82 2042.75H1490.17C1492.33 2048.18 1494.77 2053.5 1497.48 2058.68C1508.24 2078.88 1522.38 2097.09 1539.3 2112.5C1572.63 2143.17 1613.68 2163.5 1654.74 2181.05C1774.5 2232.19 1901.51 2264.33 2031.18 2276.33L2043.31 2269.33C1910.54 2258.29 1780.41 2226 1657.89 2173.69Z" fill="white"/>
<path d="M1744.12 2110.48C1783.05 2136.77 1828.33 2153.67 1875.23 2157.92C1883.16 2158.64 1891.1 2159 1899.05 2158.99C1942.22 2158.81 1984.78 2148.82 2023.53 2129.78C2062.17 2110.91 2096.64 2083.5 2122.85 2049.29C2123.5 2048.45 2123.78 2047.38 2123.64 2046.33C2123.5 2045.28 2122.95 2044.33 2122.11 2043.68C2121.27 2043.03 2120.2 2042.75 2119.15 2042.89C2118.1 2043.03 2117.15 2043.58 2116.5 2044.42C2091.09 2077.59 2057.61 2104.24 2020.02 2122.6C1982.36 2141.1 1940.98 2150.81 1899.02 2150.99C1891.31 2150.99 1883.61 2150.66 1875.92 2149.99C1830.47 2145.88 1786.43 2129.47 1748.56 2103.89C1723.71 2087.15 1701.73 2066.52 1683.44 2042.79H1673.44C1692.94 2069.24 1716.85 2092.14 1744.12 2110.48Z" fill="white"/>
<path d="M1830.87 2069.38C1860.4 2082.31 1892.27 2089.04 1924.5 2089.14C1929.28 2089.14 1934.06 2088.98 1938.83 2088.67C1939.27 2088.65 1939.71 2088.54 1940.12 2088.37C1964.19 2078.2 1985.57 2062.58 2002.58 2042.75H1991.84C1976.6 2059.04 1958.15 2071.98 1937.64 2080.75C1933.26 2081.02 1928.88 2081.17 1924.5 2081.17C1879.7 2080.92 1835.95 2067.58 1798.63 2042.78H1784.71C1799.05 2053.35 1814.53 2062.27 1830.87 2069.38Z" fill="white"/>
<path d="M2150.31 2191.38C2147.66 2187.97 2145.47 2184.22 2143.81 2180.23C2142.28 2176.54 2141.47 2172.59 2141.44 2168.6C2141.44 2166.73 2141.63 2164.87 2142.01 2163.04C2142.88 2158.92 2144.58 2155.03 2147.01 2151.59C2150.65 2146.3 2155.87 2141.52 2161.62 2136.8C2167.37 2132.08 2173.62 2127.39 2179.14 2122.07C2187.45 2114.02 2193.99 2104.32 2198.34 2093.6C2202.73 2082.92 2205 2071.49 2205.01 2059.94C2205.01 2054.16 2204.42 2048.4 2203.25 2042.75H2195.12C2196.44 2048.38 2197.11 2054.15 2197.12 2059.94C2197.1 2070.44 2195.04 2080.84 2191.05 2090.56C2187.12 2100.25 2181.21 2109.02 2173.71 2116.3C2166.97 2122.79 2158.4 2128.74 2150.81 2135.64C2146.97 2139.04 2143.52 2142.86 2140.54 2147.04C2137.49 2151.36 2135.35 2156.25 2134.24 2161.42C2133.75 2163.78 2133.51 2166.19 2133.51 2168.6C2133.54 2173.62 2134.55 2178.58 2136.46 2183.22C2139.44 2190.21 2143.67 2196.6 2148.94 2202.08C2150.29 2203.54 2151.7 2204.95 2153.14 2206.32L2160.41 2202.14C2156.72 2198.87 2153.34 2195.27 2150.31 2191.38Z" fill="white"/>
<path d="M2287.85 2042.75H2279.36C2289.64 2070.77 2289.12 2101.61 2277.9 2129.27C2276.9 2131.64 2275.85 2134.03 2274.75 2136.44L2286.29 2129.8C2296.94 2101.87 2297.49 2071.09 2287.85 2042.8V2042.75Z" fill="white"/>
<path d="M2827.12 2474.75L2808.03 2686.07C2664.31 2704.74 2486.21 2692.33 2308.14 2674.27L2279.9 2533.1L2268.23 2474.75H2827.12Z" fill="#FECD3B"/>
<path d="M2827.12 2474.75L2808.03 2686.07C2769.97 2691.07 2729.49 2693.78 2687.25 2694.83C2690.05 2651.16 2692.06 2592.4 2683.48 2583.83C2669.58 2569.93 2655.68 2533.3 2594.73 2533.3C2533.78 2533.3 2527.36 2503.64 2446.09 2520.75C2386.46 2533.3 2314.17 2533.75 2279.9 2533.12L2268.23 2474.77L2827.12 2474.75Z" fill="#40330F"/>
<path d="M2271.21 2421.25C2271.21 2421.25 2158.93 2349.6 2148.21 2273.68C2261.55 2248.02 2352.44 2365.68 2355.65 2377.41C2358.86 2389.14 2365.27 2422.32 2365.27 2422.32L2271.21 2421.25Z" fill="#174690"/>
<path d="M2346.66 2416.05C2249.19 2322.78 2186.45 2194.05 2173.07 2059.77C2182.36 2084.39 2202.91 2103.22 2225.33 2117.01C2247.75 2130.8 2272.44 2140.41 2295.69 2152.74C2394.07 2204.89 2463.3 2308.43 2473.9 2419.27L2346.66 2416.05Z" fill="#3A78DD"/>
<path d="M2422.69 2439.51C2421.73 2439.52 2420.8 2439.19 2420.07 2438.57C2419.33 2437.96 2418.84 2437.1 2418.69 2436.15C2403.4 2342.98 2238.96 2176.23 2237.3 2174.56C2236.55 2173.81 2236.14 2172.79 2236.14 2171.72C2236.15 2170.66 2236.58 2169.65 2237.33 2168.9C2238.08 2168.15 2239.1 2167.74 2240.17 2167.74C2241.23 2167.75 2242.24 2168.18 2242.99 2168.93C2243.4 2169.35 2285.33 2211.75 2328.62 2265.29C2387.01 2337.5 2419.97 2394.55 2426.62 2434.86C2426.79 2435.91 2426.54 2436.98 2425.92 2437.84C2425.3 2438.7 2424.37 2439.28 2423.32 2439.45C2423.11 2439.49 2422.9 2439.51 2422.69 2439.51Z" fill="white"/>
<path d="M2520.12 2413.46C2478.06 2318.82 2473.17 2208.24 2506.71 2110.26C2575.58 2189.07 2605.65 2300.26 2585.89 2403.04L2520.12 2413.46Z" fill="#174690"/>
<path d="M2467.88 2301.49C2481.08 2211.21 2480.9 2119.48 2467.37 2029.25C2458.37 1969.5 2442.53 1905.58 2398.17 1860.39C2366.23 1827.85 2317.5 1820.05 2286.45 1859.05C2255.26 1898.23 2270.39 1965.39 2279.72 2009.75C2291.03 2063.26 2311.21 2114.49 2339.44 2161.33C2372.12 2215.59 2415.64 2263.89 2467.88 2301.49Z" fill="#3A78DD"/>
<path d="M2493.97 2423.82C2493.05 2423.82 2492.16 2423.5 2491.45 2422.92C2490.74 2422.34 2490.25 2421.54 2490.06 2420.64C2489.72 2419 2455.54 2256.34 2420.52 2184.91C2385.12 2112.69 2328.16 1905.42 2327.59 1903.34C2327.43 1902.83 2327.38 1902.29 2327.43 1901.76C2327.49 1901.22 2327.65 1900.71 2327.9 1900.24C2328.16 1899.77 2328.51 1899.35 2328.93 1899.02C2329.35 1898.69 2329.84 1898.45 2330.35 1898.3C2330.87 1898.16 2331.41 1898.12 2331.94 1898.2C2332.47 1898.27 2332.98 1898.44 2333.44 1898.71C2333.9 1898.99 2334.31 1899.35 2334.63 1899.78C2334.94 1900.21 2335.17 1900.7 2335.3 1901.22C2335.87 1903.3 2392.64 2109.85 2427.71 2181.39C2463.16 2253.72 2497.55 2417.39 2497.89 2419C2498 2419.51 2498 2420.04 2497.91 2420.56C2497.81 2421.08 2497.61 2421.57 2497.33 2422.01C2497.04 2422.45 2496.67 2422.83 2496.24 2423.13C2495.8 2423.42 2495.31 2423.63 2494.8 2423.74C2494.53 2423.8 2494.25 2423.82 2493.97 2423.82Z" fill="#0C0A0A"/>
<path d="M2581.71 2461.89C2570.8 2354.88 2559.89 2247.88 2549 2140.89C2545.31 2104.65 2541.61 2068.22 2543.93 2031.89C2546.77 1987.59 2558.47 1944.3 2578.33 1904.6C2601.33 1927.73 2619.86 1956.21 2630.21 1987.15C2640.56 2018.09 2645.86 2050.48 2650.37 2082.8C2665.2 2188.94 2672.03 2296.04 2670.79 2403.2L2581.71 2461.89Z" fill="#3A78DD"/>
<path d="M2674.34 2487.27C2673.75 2487.27 2673.18 2487.14 2672.65 2486.9C2672.12 2486.65 2671.65 2486.29 2671.27 2485.84C2638.83 2447.09 2614.06 2355.99 2597.65 2215.07C2585.47 2110.51 2582.65 2015.97 2582.65 2015.07C2582.64 2014.54 2582.72 2014.02 2582.91 2013.53C2583.1 2013.04 2583.38 2012.59 2583.74 2012.21C2584.1 2011.83 2584.54 2011.52 2585.02 2011.31C2585.5 2011.09 2586.01 2010.97 2586.54 2010.96C2587.07 2010.95 2587.59 2011.03 2588.08 2011.22C2588.57 2011.41 2589.02 2011.69 2589.4 2012.05C2589.78 2012.41 2590.09 2012.85 2590.3 2013.33C2590.52 2013.81 2590.64 2014.32 2590.65 2014.85C2590.65 2015.79 2593.46 2110.03 2605.6 2214.25C2621.6 2351.6 2646.43 2443.75 2677.4 2480.75C2677.89 2481.33 2678.2 2482.04 2678.3 2482.8C2678.4 2483.55 2678.28 2484.32 2677.96 2485.01C2677.64 2485.7 2677.13 2486.28 2676.49 2486.69C2675.85 2487.1 2675.1 2487.32 2674.34 2487.32V2487.27Z" fill="white"/>
<path d="M2647.31 2231.62C2657.59 2161.75 2671.9 2081.35 2718 2024.03C2764.1 1966.71 2817.26 1913.89 2859.94 1854.52C2863.73 1972.54 2845.58 2090.24 2806.4 2201.63C2792.2 2242.02 2775.46 2281.47 2756.27 2319.74C2742.75 2346.74 2723.09 2407.17 2689.38 2419.05C2618.57 2444 2642.25 2266.06 2647.31 2231.62Z" fill="#6799FC"/>
<path d="M2699.54 2451C2699.38 2451.01 2699.22 2451.01 2699.06 2451C2698.54 2450.94 2698.03 2450.77 2697.57 2450.52C2697.12 2450.26 2696.71 2449.91 2696.39 2449.5C2696.06 2449.09 2695.82 2448.61 2695.68 2448.11C2695.54 2447.6 2695.5 2447.07 2695.56 2446.55L2724.12 2208.15C2730.38 2155.97 2736.85 2102.02 2756.03 2051.73C2756.2 2051.22 2756.48 2050.75 2756.84 2050.35C2757.2 2049.96 2757.63 2049.63 2758.12 2049.4C2758.6 2049.18 2759.13 2049.05 2759.67 2049.03C2760.2 2049.01 2760.74 2049.1 2761.24 2049.29C2761.74 2049.48 2762.2 2049.77 2762.59 2050.14C2762.97 2050.51 2763.28 2050.96 2763.49 2051.45C2763.7 2051.95 2763.81 2052.48 2763.81 2053.02C2763.82 2053.55 2763.71 2054.09 2763.5 2054.58C2744.67 2103.95 2738.26 2157.41 2732.07 2209.1L2703.48 2447.48C2703.36 2448.45 2702.9 2449.34 2702.17 2449.98C2701.45 2450.63 2700.51 2450.99 2699.54 2451Z" fill="white"/>
<path d="M2729.66 2402.03C2729.66 2402.03 2780.75 2166.49 2880.2 2041.88C2979.65 1917.27 3291.91 1798.23 3310.42 1808.88C3328.93 1819.53 3300.42 1887.49 3277.63 1928.74C3254.84 1969.99 3188.47 2050.97 3099.41 2062.66C3001.03 2075.57 2868.41 2169.66 2819.25 2239.45C2776.96 2299.48 2729.66 2402.03 2729.66 2402.03Z" fill="#3A78DD"/>
<path d="M2727.8 2410.99C2727.56 2410.99 2727.32 2410.97 2727.08 2410.92C2726.04 2410.73 2725.12 2410.13 2724.51 2409.26C2723.91 2408.39 2723.68 2407.31 2723.87 2406.27C2731.96 2362.11 2786.02 2267.11 2852.41 2180.36C2888.36 2133.36 2925.41 2092.17 2959.49 2061.18C2999.31 2025 3034.72 2002.85 3064.73 1995.35C3128.38 1979.44 3167.26 1948.79 3188.66 1925.88C3211.86 1901.05 3220.14 1879.69 3220.22 1879.48C3220.62 1878.53 3221.38 1877.77 3222.33 1877.36C3223.28 1876.95 3224.35 1876.93 3225.32 1877.29C3226.28 1877.66 3227.07 1878.38 3227.52 1879.32C3227.96 1880.25 3228.03 1881.32 3227.7 1882.3C3227.35 1883.22 3218.95 1905.08 3194.81 1931.02C3172.65 1954.83 3132.43 1986.67 3066.67 2003.11C3012.81 2016.57 2937.03 2082.95 2858.76 2185.22C2793.05 2271.08 2739.63 2364.65 2731.76 2407.71C2731.59 2408.63 2731.1 2409.47 2730.38 2410.07C2729.65 2410.67 2728.74 2411 2727.8 2410.99Z" fill="white"/>
<path d="M2864.12 2250.89C2864.12 2250.89 2968.2 2082.65 3082.26 2108.32C3196.32 2133.99 3251.92 2143.96 3277.59 2118.32C3303.26 2092.68 3320.36 2172.49 3256.2 2220.97C3192.04 2269.45 3113.62 2225.25 3040.91 2193.88C2968.2 2162.51 2864.12 2250.89 2864.12 2250.89Z" fill="#3A78DD"/>
<path d="M2828.31 2320.46C2827.6 2320.46 2826.91 2320.26 2826.31 2319.89C2825.4 2319.35 2824.74 2318.47 2824.48 2317.44C2824.22 2316.41 2824.38 2315.32 2824.92 2314.41C2872.92 2233.72 2925.64 2195.31 2961.38 2177.3C3004.23 2155.71 3046.99 2150.77 3078.67 2163.76C3132.43 2185.82 3206.67 2169.44 3207.43 2169.27C3207.95 2169.14 3208.48 2169.12 3209.01 2169.2C3209.54 2169.28 3210.04 2169.47 3210.49 2169.75C3210.95 2170.02 3211.34 2170.39 3211.65 2170.82C3211.96 2171.26 3212.18 2171.75 3212.3 2172.27C3212.41 2172.79 3212.43 2173.32 3212.33 2173.85C3212.24 2174.37 3212.05 2174.87 3211.76 2175.32C3211.47 2175.77 3211.09 2176.15 3210.66 2176.45C3210.22 2176.75 3209.72 2176.96 3209.2 2177.07C3206.06 2177.78 3131.76 2194.19 3075.63 2171.17C3027.12 2151.27 2918.03 2173.67 2831.79 2318.5C2831.43 2319.1 2830.92 2319.6 2830.31 2319.95C2829.7 2320.29 2829.01 2320.47 2828.31 2320.46Z" fill="#0C0A0A"/>
<path d="M2754.87 2417.16C2709.14 2475.16 2814.53 2276.16 2884.73 2253.29C2954.93 2230.42 3037.79 2253.29 3086.25 2309C3086.25 2309 3179.61 2414.86 3094.06 2453.36C3008.51 2491.86 3002.06 2337.87 2931.53 2317.55C2861 2297.23 2791 2371.35 2754.87 2417.16Z" fill="#3A78DD"/>
<path d="M2742.06 2435.23C2741.45 2435.23 2740.85 2435.09 2740.3 2434.82C2739.75 2434.56 2739.27 2434.17 2738.89 2433.68C2738.52 2433.2 2738.26 2432.64 2738.14 2432.04C2738.01 2431.44 2738.03 2430.82 2738.18 2430.23C2745.3 2401.73 2777.83 2361.42 2821.03 2327.54C2842.5 2310.7 2864.63 2297.17 2885.03 2288.38C2908.3 2278.38 2928.54 2274.72 2945.18 2277.55C2973.99 2282.45 3004.86 2305.74 3036.95 2346.75C3051.62 2365.62 3064.8 2385.6 3076.36 2406.51C3076.63 2406.98 3076.8 2407.49 3076.87 2408.02C3076.94 2408.56 3076.9 2409.1 3076.75 2409.62C3076.6 2410.14 3076.35 2410.62 3076.01 2411.04C3075.67 2411.45 3075.25 2411.8 3074.78 2412.05C3074.3 2412.31 3073.78 2412.46 3073.25 2412.51C3072.71 2412.55 3072.17 2412.49 3071.66 2412.32C3071.15 2412.15 3070.67 2411.89 3070.27 2411.53C3069.86 2411.18 3069.53 2410.74 3069.3 2410.26C3068.69 2409.12 3008.13 2296.38 2943.84 2285.44C2914.94 2280.52 2870.89 2298.61 2825.97 2333.83C2784.72 2366.18 2752.55 2405.7 2745.97 2432.17C2745.76 2433.05 2745.26 2433.82 2744.55 2434.38C2743.84 2434.94 2742.96 2435.24 2742.06 2435.23Z" fill="white"/>
<path d="M2885.55 2419.89C2885.55 2417.55 2885.09 2415.23 2884.19 2413.07C2883.3 2410.91 2881.98 2408.94 2880.33 2407.29C2878.67 2405.63 2876.71 2404.32 2874.54 2403.42C2872.38 2402.53 2870.06 2402.07 2867.72 2402.07H2231.84C2227.11 2402.07 2222.58 2403.95 2219.24 2407.29C2215.9 2410.63 2214.02 2415.16 2214.02 2419.89V2457.64H2885.55V2419.89Z" fill="#FECD3B"/>
<path d="M2214.02 2457.6V2474.03C2214.02 2478.76 2215.9 2483.29 2219.24 2486.63C2222.58 2489.97 2227.11 2491.85 2231.84 2491.85H2867.72C2870.06 2491.85 2872.38 2491.39 2874.54 2490.5C2876.71 2489.6 2878.67 2488.29 2880.33 2486.63C2881.98 2484.98 2883.3 2483.01 2884.19 2480.85C2885.09 2478.69 2885.55 2476.37 2885.55 2474.03V2457.6H2214.02Z" fill="#BF9A2C"/>
<path d="M1112.64 494.11H1112.42L671.871 470.59C671.18 470.554 670.511 470.339 669.928 469.967C669.344 469.594 668.868 469.077 668.545 468.466C668.221 467.854 668.062 467.169 668.082 466.477C668.103 465.786 668.302 465.112 668.661 464.52L833.331 192.89C833.593 192.422 833.947 192.011 834.371 191.682C834.795 191.353 835.282 191.113 835.801 190.976C836.32 190.839 836.861 190.807 837.392 190.884C837.923 190.961 838.434 191.143 838.893 191.421C839.352 191.699 839.751 192.067 840.065 192.502C840.379 192.937 840.603 193.431 840.722 193.955C840.841 194.478 840.854 195.02 840.759 195.548C840.665 196.077 840.465 196.581 840.171 197.03L678.961 462.92L1111.39 486.02L1416.12 256.43L985.321 128.24C984.304 127.938 983.449 127.244 982.943 126.311C982.438 125.378 982.324 124.282 982.626 123.265C982.928 122.248 983.622 121.393 984.555 120.887C985.488 120.382 986.584 120.268 987.601 120.57L1426.01 251.03C1426.71 251.244 1427.34 251.648 1427.83 252.197C1428.32 252.746 1428.65 253.419 1428.78 254.143C1428.91 254.866 1428.84 255.611 1428.58 256.297C1428.31 256.983 1427.86 257.583 1427.28 258.03L1115.04 493.27C1114.35 493.804 1113.51 494.099 1112.64 494.11Z" fill="#B2B0A1"/>
<path d="M1137.23 605.6C1208.69 605.6 1266.62 547.67 1266.62 476.21C1266.62 404.75 1208.69 346.82 1137.23 346.82C1065.77 346.82 1007.84 404.75 1007.84 476.21C1007.84 547.67 1065.77 605.6 1137.23 605.6Z" fill="white"/>
<path d="M1137.23 608.09C1064.51 608.09 1005.34 548.93 1005.34 476.21C1005.34 403.49 1064.51 344.32 1137.23 344.32C1209.95 344.32 1269.12 403.48 1269.12 476.21C1269.12 548.94 1209.95 608.09 1137.23 608.09ZM1137.23 349.32C1112.13 349.32 1087.6 356.762 1066.73 370.705C1045.87 384.648 1029.6 404.465 1020 427.651C1010.39 450.837 1007.88 476.351 1012.78 500.965C1017.67 525.579 1029.76 548.189 1047.51 565.935C1065.25 583.681 1087.86 595.766 1112.47 600.662C1137.09 605.558 1162.6 603.045 1185.79 593.441C1208.97 583.837 1228.79 567.573 1242.74 546.706C1256.68 525.839 1264.12 501.306 1264.12 476.21C1264.09 442.565 1250.71 410.307 1226.92 386.517C1203.13 362.727 1170.87 349.349 1137.23 349.32Z" fill="#692F0A"/>
<path d="M1137.23 575.6C1192.12 575.6 1236.62 531.101 1236.62 476.21C1236.62 421.318 1192.12 376.82 1137.23 376.82C1082.34 376.82 1037.84 421.318 1037.84 476.21C1037.84 531.101 1082.34 575.6 1137.23 575.6Z" fill="#EBE9DA"/>
<path d="M628.24 646.23C699.7 646.23 757.63 588.3 757.63 516.84C757.63 445.38 699.7 387.45 628.24 387.45C556.78 387.45 498.85 445.38 498.85 516.84C498.85 588.3 556.78 646.23 628.24 646.23Z" fill="white"/>
<path d="M628.24 648.73C555.52 648.73 496.35 589.56 496.35 516.84C496.35 444.12 555.52 384.95 628.24 384.95C700.96 384.95 760.12 444.12 760.12 516.89C760.12 589.66 700.96 648.73 628.24 648.73ZM628.24 389.95C603.145 389.948 578.613 397.387 557.746 411.327C536.879 425.266 520.613 445.08 511.006 468.263C501.399 491.446 498.882 516.957 503.773 541.571C508.664 566.184 520.743 588.795 538.484 606.544C556.224 624.293 578.829 636.383 603.44 641.285C628.052 646.188 653.564 643.683 676.751 634.087C699.939 624.491 719.761 608.235 733.71 587.374C747.659 566.513 755.11 541.985 755.12 516.89C755.104 483.239 741.733 450.969 717.943 427.169C694.154 403.368 661.891 389.982 628.24 389.95Z" fill="#692F0A"/>
<path d="M698.515 587.122C737.329 548.308 737.329 485.378 698.515 446.563C659.7 407.749 596.77 407.749 557.956 446.563C519.142 485.378 519.142 548.308 557.956 587.122C596.77 625.936 659.7 625.936 698.515 587.122Z" fill="#3A78DD"/>
<path d="M869.9 261.28C941.36 261.28 999.29 203.35 999.29 131.89C999.29 60.4299 941.36 2.5 869.9 2.5C798.44 2.5 740.51 60.4299 740.51 131.89C740.51 203.35 798.44 261.28 869.9 261.28Z" fill="white"/>
<path d="M869.9 263.78C797.18 263.78 738.02 204.61 738.02 131.89C738.02 59.17 797.18 0 869.9 0C942.62 0 1001.79 59.17 1001.79 131.89C1001.79 204.61 942.62 263.78 869.9 263.78ZM869.9 5C844.804 5 820.271 12.442 799.404 26.3848C778.537 40.3277 762.273 60.1452 752.669 83.3313C743.065 106.517 740.552 132.031 745.448 156.645C750.344 181.259 762.428 203.869 780.174 221.615C797.92 239.361 820.531 251.446 845.145 256.342C869.759 261.238 895.272 258.725 918.458 249.121C941.644 239.517 961.462 223.253 975.405 202.386C989.348 181.519 996.789 156.986 996.789 131.89C996.76 98.2456 983.383 65.9876 959.593 42.1974C935.802 18.4072 903.544 5.02913 869.9 5Z" fill="#692F0A"/>
<path d="M869.901 232.08C925.234 232.08 970.091 187.224 970.091 131.89C970.091 76.5568 925.234 31.7002 869.901 31.7002C814.568 31.7002 769.711 76.5568 769.711 131.89C769.711 187.224 814.568 232.08 869.901 232.08Z" fill="#EBE9DA"/>
<path d="M1460.16 385.32C1531.62 385.32 1589.55 327.39 1589.55 255.93C1589.55 184.47 1531.62 126.54 1460.16 126.54C1388.7 126.54 1330.77 184.47 1330.77 255.93C1330.77 327.39 1388.7 385.32 1460.16 385.32Z" fill="white"/>
<path d="M1460.12 387.82C1387.4 387.82 1328.23 328.65 1328.23 255.93C1328.23 183.21 1387.44 124.04 1460.12 124.04C1532.8 124.04 1592.05 183.21 1592.05 255.89C1592.05 328.57 1532.88 387.82 1460.12 387.82ZM1460.12 129.04C1435.02 129.048 1410.49 136.498 1389.63 150.447C1368.77 164.397 1352.51 184.219 1342.91 207.408C1333.32 230.597 1330.81 256.112 1335.72 280.724C1340.62 305.337 1352.71 327.943 1370.46 345.683C1388.21 363.423 1410.83 375.501 1435.44 380.39C1460.06 385.278 1485.57 382.757 1508.76 373.146C1531.94 363.534 1551.75 347.264 1565.69 326.393C1579.62 305.522 1587.06 280.986 1587.05 255.89C1587.01 222.246 1573.62 189.992 1549.82 166.209C1526.03 142.426 1493.76 129.059 1460.12 129.04Z" fill="#692F0A"/>
<path d="M1460.16 355.32C1515.05 355.32 1559.55 310.822 1559.55 255.93C1559.55 201.038 1515.05 156.54 1460.16 156.54C1405.27 156.54 1360.77 201.038 1360.77 255.93C1360.77 310.822 1405.27 355.32 1460.16 355.32Z" fill="#EBE9DA"/>
<path d="M1943.84 1698.43C1942.42 1718.43 1893.94 1770.43 1855.45 1797.52C1841.79 1807.13 1826.97 1817.19 1811.8 1825.76C1784.23 1841.33 1755.53 1851.97 1730.69 1845.99C1692.2 1836.73 1667.96 1853.83 1667.96 1853.83C1667.96 1853.83 1665.64 1847.16 1662.36 1837.56C1653.99 1813.07 1639.36 1769.56 1640.87 1769C1643.01 1768.29 1742.81 1700.57 1770.62 1688.45C1798.43 1676.33 1908.91 1655.66 1921.03 1656.37C1933.15 1657.08 1945.27 1678.47 1943.84 1698.43Z" fill="#FFA99C"/>
<path d="M1811.8 1825.76C1784.23 1841.33 1755.53 1851.97 1730.69 1845.99C1692.2 1836.73 1667.96 1853.83 1667.96 1853.83C1667.96 1853.83 1665.64 1847.16 1662.36 1837.56C1670.88 1832.75 1688.92 1824.47 1704.59 1830.04C1725.98 1837.65 1755.92 1844.3 1770.18 1837.65C1784.44 1831 1811.52 1824.82 1811.52 1824.82C1811.64 1825.13 1811.73 1825.44 1811.8 1825.76Z" fill="#F47D65"/>
<path d="M1672.95 1871.66C1663.44 1876.89 1653.78 1882.13 1643.95 1887.39C1452.42 1989.63 1203.38 2092.66 1095.58 2023.5C1048.44 1993.26 1029.79 1848.75 1024.08 1690.24C1016.08 1467.56 1033.56 1217.24 1033.56 1217.24C1033.56 1217.24 1129.79 1289.95 1178.98 1482.43C1228.17 1674.91 1258.11 1781.83 1258.11 1781.83L1651.62 1758.31C1651.62 1758.31 1681.51 1854.55 1672.95 1871.66Z" fill="#E3AD0F"/>
<path d="M1643.9 1887.39C1452.37 1989.63 1203.33 2092.66 1095.53 2023.5C1048.39 1993.26 1029.74 1848.75 1024.03 1690.24L1098.18 1555.11C1098.18 1555.11 1158.06 1824.58 1183.72 1880.18C1209.38 1935.78 1239.32 1931.51 1316.31 1937.93C1393.3 1944.35 1609.31 1854.52 1609.31 1854.52L1643.9 1887.39Z" fill="#BF2248"/>
<path d="M1234.54 827.06C1234.54 827.06 1263.05 879.81 1247.84 911.65C1232.63 943.49 1199.37 921.65 1198.89 918.78C1198.41 915.91 1189.89 823.26 1189.89 823.26L1234.54 827.06Z" fill="#050505"/>
<path d="M1161.83 2036.33L1098.27 2042.75H527.561C530.761 1884.32 544.641 1445.45 601.561 1308.49C671.421 1140.25 919.501 1130.27 919.501 1130.27C959.421 1120.27 1076.33 1240.76 1097.72 1362.67C1112.72 1448.4 1138.38 1746.76 1152.26 1916.25C1154.55 1944.25 1156.52 1968.7 1158.07 1988.12C1160.44 2018.34 1161.83 2036.33 1161.83 2036.33Z" fill="#FFBD00"/>
<path d="M1158.02 1988.12L1096.75 1983.55L911.4 1860.94L845.82 1692.7L884.31 1578.64L909.47 1505.95C909.47 1505.95 964.16 1755.43 971.28 1785.37C978.4 1815.31 1009.78 1852.37 1039.72 1873.77C1058.33 1887.06 1113.27 1904.77 1152.21 1916.25C1154.5 1944.24 1156.47 1968.7 1158.02 1988.12Z" fill="#801730"/>
<path d="M1152.35 1951.89C1151.34 1951.89 1150.36 1951.51 1149.62 1950.82C1148.88 1950.13 1148.42 1949.19 1148.35 1948.18L1126.98 1655.89C1126.94 1655.36 1127.01 1654.84 1127.17 1654.34C1127.34 1653.84 1127.6 1653.37 1127.94 1652.97C1128.29 1652.58 1128.71 1652.25 1129.18 1652.01C1129.65 1651.78 1130.16 1651.63 1130.68 1651.59C1131.21 1651.56 1131.74 1651.62 1132.24 1651.79C1132.74 1651.95 1133.2 1652.21 1133.6 1652.56C1134 1652.9 1134.33 1653.32 1134.56 1653.79C1134.8 1654.26 1134.94 1654.77 1134.98 1655.3L1156.36 1947.58C1156.44 1948.64 1156.09 1949.68 1155.4 1950.48C1154.71 1951.29 1153.73 1951.78 1152.67 1951.86L1152.35 1951.89Z" fill="#0C0A0A"/>
<path d="M1760.64 2183.89L1760.15 2184.19C1722.34 2207.49 1581.47 2215.92 1528.24 2203.85C1474.77 2191.74 1422.24 2181.52 1422.24 2181.52L1425.62 2156.52L1434.83 2088.38C1434.83 2088.38 1464.77 2096.93 1489.01 2095.51C1513.25 2094.09 1545.33 2062.72 1586.01 2066.99C1626.69 2071.26 1685.1 2044.89 1692.94 2061.29C1700.78 2077.69 1620.94 2107.63 1621.66 2115.47C1622.38 2123.31 1695.79 2121.88 1749.26 2118.32C1802.73 2114.76 1797.7 2160.37 1760.64 2183.89Z" fill="#FFA99C"/>
<path d="M1777.74 1607.53C1777.74 1607.53 1764.91 1886.62 1848.32 1945.43C1909.32 1890.9 1974.5 1807.49 2025.82 1772.21C2077.14 1736.93 2346.62 1631.06 2346.62 1631.06C2346.62 1631.06 2312.4 1377.63 2312.4 1359.45C2256.79 1388.33 2069.66 1461.04 2019.4 1489.91C1969.14 1518.78 1777.74 1607.53 1777.74 1607.53Z" fill="white"/>
<path d="M2332.71 1642.82C2332.71 1642.82 2282.46 1615.02 2260 1602.19C2237.54 1589.36 2221.51 1576.52 2234.34 1567.97C2247.17 1559.42 2276.04 1576.52 2313.47 1575.45C2350.9 1574.38 2407.57 1610.74 2407.57 1610.74L2332.71 1642.82Z" fill="#FFA99C"/>
<path d="M1960.71 1555.61L1973.07 1588.4L2010.61 1569.87L1999.21 1534.23L1960.71 1555.61Z" fill="#FF2D60"/>
<path d="M2031.53 1518.54L2043.88 1551.34L2077.15 1529.95L2066.22 1500.96L2031.53 1518.54Z" fill="#FF2D60"/>
<path d="M2100.91 1486.7L2113.27 1519.49L2146.06 1502.38L2133.7 1468.64L2100.91 1486.7Z" fill="#FF2D60"/>
<path d="M2156.04 1460.09L2168.4 1492.88L2203.57 1471.49L2190.73 1442.03L2156.04 1460.09Z" fill="#FF2D60"/>
<path d="M1991.12 1598.39C1991.12 1598.39 2018.68 1686.31 2022.01 1691.53C2025.34 1696.75 2033.89 1696.29 2033.89 1689.63C2033.89 1682.97 2011.56 1582.23 2003.95 1586.03C1996.34 1589.83 1989.7 1592.68 1991.12 1598.39Z" fill="#381746"/>
<path d="M2058.12 1561.32C2058.12 1561.32 2095.66 1681.55 2099.47 1682.98C2103.28 1684.41 2114.2 1690.11 2112.77 1676.33C2111.34 1662.55 2079.51 1554.19 2071.9 1552.33C2064.29 1550.47 2058.12 1557.51 2058.12 1561.32Z" fill="#3A78DD"/>
<path d="M2125.12 1533.28C2125.12 1533.28 2139.85 1599.34 2145.12 1599.34C2150.39 1599.34 2156.05 1600.34 2157 1590.78C2157.95 1581.22 2137.52 1524.25 2137.52 1524.25C2137.52 1524.25 2119.92 1526.62 2125.12 1533.28Z" fill="#381746"/>
<path d="M2180.75 1504.29C2180.75 1504.29 2203.09 1611.69 2209.75 1611.69C2216.41 1611.69 2227.81 1608.37 2227.81 1604.56C2227.81 1600.75 2203.58 1496.21 2194.07 1498.11C2184.56 1500.01 2180.75 1504.29 2180.75 1504.29Z" fill="#3A78DD"/>
<path d="M1052.04 1338.43C1052.04 1338.43 1101.23 1351.97 1103.37 1346.27C1105.51 1340.57 1102.65 1257.16 1096.95 1248.6C1091.25 1240.04 1065.59 1234.35 1065.59 1234.35C1065.59 1234.35 1038.49 1317.04 1052.04 1338.43Z" fill="#050505"/>
<path d="M1401.35 2051.3L1382.12 2181.76C1382.12 2181.76 1378.63 2182.07 1372.12 2182.5C1314.55 2186.29 1021.05 2199.56 834.63 2091.93C652.17 1986.6 615.3 1570.24 609.07 1471.45C608.21 1457.92 607.93 1450.35 607.93 1450.35L909.48 1505.95C896.65 1557.28 954.39 1852.41 980.05 1875.95C1063.45 1912.29 1401.35 2051.3 1401.35 2051.3Z" fill="#FFBD00"/>
<path d="M1374.06 2168.89C1374.06 2168.89 1373.45 2174.69 1372.06 2182.49C1314.49 2186.28 1020.99 2199.55 834.57 2091.92C652.11 1986.59 615.24 1570.23 609.01 1471.44L619.08 1480.25C619.08 1480.25 693.93 1931.5 820.08 2021.32C946.23 2111.14 1374.06 2168.89 1374.06 2168.89Z" fill="#AC830E"/>
<path d="M1090.54 1161.64C1089.45 1163.46 1086.41 1175.84 1082.49 1193.28C1071.03 1244.28 1052.04 1338.43 1052.04 1338.43C1052.04 1338.43 1042.04 1346.98 1014.97 1342.71C987.899 1338.44 908.039 1140.25 908.039 1140.25C908.039 1140.25 946.539 1086.07 942.259 1011.93C937.979 937.79 1006.42 772.41 1096.26 773.83C1186.1 775.25 1226 845.12 1227.43 974.83C1228.86 1104.54 1196.04 1165.89 1090.54 1161.64Z" fill="#FFA99C"/>
<path d="M1090.54 1161.64C1089.45 1163.46 1086.41 1175.84 1082.49 1193.28C1063.27 1177.52 1039.61 1149.69 1036.84 1106.98C1048.72 1130.75 1090.54 1161.64 1090.54 1161.64Z" fill="#F47D65"/>
<path d="M1013.55 981.99C1013.55 981.99 983.131 951.1 962.691 966.78C942.251 982.46 943.691 1031.41 966.501 1044.72C933.701 1051.85 889.501 1036.17 884.751 992.92C880.001 949.67 847.681 909.28 864.751 889.79C881.821 870.3 911.751 850.35 911.751 850.35C911.751 850.35 890.131 808.76 920.751 769.55C951.371 730.34 991.331 751.02 991.331 751.02C991.331 751.02 1004.87 687.57 1083.33 684.72C1161.79 681.87 1197.39 745.32 1233.74 741.72C1270.09 738.12 1291.49 741.01 1289.35 774.51C1287.21 808.01 1223.76 862.2 1174.57 860.77C1125.38 859.34 1086.89 847.23 1086.89 847.23C1086.89 847.23 1064.79 880.73 1046.26 891.42C1027.73 902.11 1024.16 916.42 1029.86 945.6C1035.56 974.78 1036.36 989.12 1013.55 981.99Z" fill="#050505"/>
<path d="M927.64 1110.31L833.9 1141.04C833.9 1141.04 837.11 1217.67 855.29 1220.88C869.179 1225.33 883.527 1228.2 898.06 1229.43C898.06 1229.43 883.8 1263.22 889.15 1276.05C941.55 1326.31 975.05 1367.73 975.05 1367.73L1014.97 1343.49C957.12 1278.46 933.58 1198.28 927.64 1110.31Z" fill="#050505"/>
<path d="M1651.57 1758.31C1651.57 1758.31 1685.01 1740.31 1704.67 1715.89C1722.14 1687.73 1751.13 1680.13 1795.8 1677.28C1840.47 1674.43 1862.34 1653.99 1877.55 1661.59C1892.76 1669.19 1886.1 1701.04 1856.63 1702.94C1827.16 1704.84 1801.03 1709.59 1794.85 1727.18C1788.67 1744.77 1760.63 1763.77 1745.43 1761.87L1651.57 1758.31Z" fill="#FFA99C"/>
<path d="M1570.3 1754.03C1570.3 1754.03 1570.3 1798.23 1571.72 1840.29C1573.14 1882.35 1588.83 1925.12 1588.83 1925.12C1588.83 1925.12 1678.65 1900.88 1679.37 1867.38C1680.09 1833.88 1674.37 1748.38 1652.28 1744.76C1630.19 1741.14 1570.3 1754.03 1570.3 1754.03Z" fill="#050505"/>
<path d="M1386.62 2042.74C1386.62 2042.74 1370.46 2123.06 1359.05 2141.12C1347.64 2159.18 1333.86 2189.12 1333.86 2189.12C1333.86 2189.12 1419.41 2197.67 1428.91 2183.41C1438.41 2169.15 1461.7 2076.48 1454.1 2062.23C1446.5 2047.98 1386.62 2042.74 1386.62 2042.74Z" fill="#050505"/>
<path d="M1920.23 1774.55C1919.28 1774.56 1918.35 1774.3 1917.54 1773.8C1915.09 1772.25 1914.38 1768.8 1915.37 1763.27L1915.99 1759.82C1919.33 1740.96 1921.54 1728.5 1928.42 1726.63C1932.68 1725.48 1937.65 1728.57 1944.53 1736.63C1945.43 1737.69 1946.32 1738.72 1947.2 1739.73C1952.1 1729.62 1954.95 1718.66 1952.82 1709.5C1951.57 1704.18 1949.76 1701.07 1947.42 1700.27C1942.87 1698.72 1935.24 1704.95 1927.15 1711.55C1917.88 1719.12 1907.37 1727.69 1897.15 1728.16C1892.44 1728.37 1890.51 1726.39 1889.71 1724.69C1888.13 1721.32 1888.07 1714.14 1905.77 1690.86C1915.22 1678.43 1925.42 1667.18 1925.52 1667.07C1925.88 1666.67 1926.38 1666.43 1926.91 1666.4C1927.44 1666.37 1927.97 1666.56 1928.37 1666.92C1928.76 1667.27 1929 1667.77 1929.03 1668.31C1929.06 1668.84 1928.88 1669.36 1928.52 1669.76C1912.06 1687.88 1890.26 1716.37 1893.37 1722.99C1893.78 1723.86 1895 1724.25 1897.01 1724.16C1905.95 1723.75 1915.91 1715.62 1924.7 1708.45C1934.06 1700.82 1942.15 1694.22 1948.79 1696.45C1952.58 1697.74 1955.19 1701.7 1956.79 1708.55C1959.27 1719.16 1955.85 1731.68 1950.15 1742.93C1965.22 1759.73 1976.26 1768.28 1976.38 1768.37C1976.8 1768.69 1977.08 1769.17 1977.15 1769.7C1977.22 1770.23 1977.07 1770.76 1976.75 1771.18C1976.43 1771.6 1975.95 1771.88 1975.42 1771.95C1974.89 1772.02 1974.36 1771.87 1973.94 1771.55C1973.44 1771.16 1962.94 1762.98 1948.14 1746.69C1941.96 1757.69 1933.89 1766.98 1927.6 1771.45C1924.69 1773.54 1922.25 1774.55 1920.23 1774.55ZM1930.15 1730.41C1929.92 1730.41 1929.69 1730.44 1929.46 1730.49C1925.04 1731.69 1922.67 1745.05 1919.92 1760.49L1919.31 1763.95C1918.52 1768.35 1919.17 1770.07 1919.68 1770.39C1920.19 1770.71 1921.88 1770.6 1925.2 1768.24C1931.2 1763.95 1939.27 1754.5 1945.2 1743.56C1943.98 1742.17 1942.72 1740.73 1941.45 1739.23C1935.44 1732.15 1932.03 1730.41 1930.12 1730.41H1930.15Z" fill="#050505"/>
<path d="M176.649 847.38H137.359V924.21H176.649V847.38Z" fill="#B2B0A1"/>
<path d="M276.61 829.05H237.32V924.21H276.61V829.05Z" fill="#B2B0A1"/>
<path d="M376.579 784.81H337.289V924.21H376.579V784.81Z" fill="#B2B0A1"/>
<path d="M476.54 825.56H437.25V924.22H476.54V825.56Z" fill="#B2B0A1"/>
<path d="M576.509 770.84H537.219V924.21H576.509V770.84Z" fill="#B2B0A1"/>
<path d="M189.45 847.38H150.16V924.21H189.45V847.38Z" fill="#FF2D60"/>
<path d="M289.419 829.05H250.129V924.21H289.419V829.05Z" fill="#FECD3B"/>
<path d="M389.38 784.81H350.09V924.21H389.38V784.81Z" fill="#3A78DD"/>
<path d="M489.349 825.56H450.059V924.22H489.349V825.56Z" fill="#FECD3B"/>
<path d="M589.309 770.84H550.02V924.21H589.309V770.84Z" fill="#3A78DD"/>
<path d="M596.22 705.07H16.67C7.46346 705.07 0 712.534 0 721.74V732.05C0 741.257 7.46346 748.72 16.67 748.72H596.22C605.427 748.72 612.89 741.257 612.89 732.05V721.74C612.89 712.534 605.427 705.07 596.22 705.07Z" fill="#EBE9DA"/>
<path d="M596.22 923.34H16.67C7.46346 923.34 0 930.803 0 940.01V950.32C0 959.527 7.46346 966.99 16.67 966.99H596.22C605.427 966.99 612.89 959.527 612.89 950.32V940.01C612.89 930.803 605.427 923.34 596.22 923.34Z" fill="#EBE9DA"/>
<path d="M54.9412 582.26C51.252 582.26 47.714 583.725 45.1054 586.334C42.4967 588.943 41.0312 592.481 41.0312 596.17V614.89C41.0312 618.579 42.4967 622.117 45.1054 624.726C47.714 627.334 51.252 628.8 54.9412 628.8H88.1812V582.23L54.9412 582.26Z" fill="#3A78DD"/>
<path d="M188.64 582.26H88.1797V628.83H188.64C192.329 628.83 195.867 627.364 198.475 624.756C201.084 622.147 202.55 618.609 202.55 614.92V596.17C202.55 592.481 201.084 588.942 198.475 586.334C195.867 583.725 192.329 582.26 188.64 582.26Z" fill="#EBE9DA"/>
<path d="M54.9412 401.83C51.252 401.83 47.714 403.296 45.1054 405.904C42.4967 408.513 41.0312 412.051 41.0312 415.74V434.49C41.0312 438.179 42.4967 441.717 45.1054 444.326C47.714 446.935 51.252 448.4 54.9412 448.4H102.121V401.83H54.9412Z" fill="#B2B0A1"/>
<path d="M188.639 401.83H102.119V448.4H188.609C190.436 448.4 192.245 448.04 193.932 447.341C195.62 446.642 197.153 445.618 198.445 444.326C199.737 443.034 200.761 441.501 201.46 439.813C202.159 438.126 202.519 436.317 202.519 434.49V415.74C202.519 412.056 201.058 408.523 198.456 405.915C195.853 403.307 192.323 401.838 188.639 401.83Z" fill="#EBE9DA"/>
<path d="M54.9412 494.96C53.1145 494.96 51.3056 495.32 49.618 496.019C47.9303 496.718 46.397 497.743 45.1054 499.034C43.8137 500.326 42.7891 501.859 42.09 503.547C41.391 505.235 41.0312 507.043 41.0312 508.87V527.61C41.0312 531.299 42.4967 534.837 45.1054 537.446C47.714 540.055 51.252 541.52 54.9412 541.52H229.611V494.96H54.9412Z" fill="#B2B0A1"/>
<path d="M341.819 494.96H229.609V541.52H341.819C347.994 541.52 353.915 539.067 358.281 534.701C362.647 530.336 365.099 524.414 365.099 518.24C365.099 512.066 362.647 506.144 358.281 501.779C353.915 497.413 347.994 494.96 341.819 494.96Z" fill="#EBE9DA"/>
<path d="M1029.74 2324.93L1262.85 2430.79L1409.34 2375.19L1163.4 2286.44L1029.74 2324.93Z" fill="#85ADFD"/>
<path d="M1052.8 2326.62L1163.13 2294.84L1386.3 2375.38L1263.13 2422.13L1052.8 2326.62Z" fill="white"/>
<path d="M1031.88 2353.8L1029.74 2324.93L1262.85 2430.79L1263.92 2470.36L1031.88 2353.8Z" fill="#6799FC"/>
<path d="M1409.34 2375.19L1407.21 2405.13L1263.92 2470.36L1262.85 2430.79L1409.34 2375.19Z" fill="#294784"/>
<path d="M1480.27 1446.04C1533.81 1446.04 1577.22 1402.63 1577.22 1349.09C1577.22 1295.55 1533.81 1252.14 1480.27 1252.14C1426.73 1252.14 1383.32 1295.55 1383.32 1349.09C1383.32 1402.63 1426.73 1446.04 1480.27 1446.04Z" fill="#EBE9DA"/>
<path d="M3634.57 1558.68C3670 1558.68 3698.73 1529.95 3698.73 1494.52C3698.73 1459.09 3670 1430.36 3634.57 1430.36C3599.14 1430.36 3570.41 1459.09 3570.41 1494.52C3570.41 1529.95 3599.14 1558.68 3634.57 1558.68Z" fill="#EBE9DA"/>
<path d="M2468.31 1600.02C2468.31 1600.02 2429.11 1738.32 2433.38 1746.16C2437.65 1754 2496.83 1764.69 2496.83 1764.69C2496.83 1764.69 2539.6 1613.56 2521.78 1605.01C2503.96 1596.46 2468.31 1600.02 2468.31 1600.02Z" fill="#FFEBB1"/>
<path d="M1153.78 1074.63C1153.72 1075.44 1151.6 1076.15 1148.04 1075.98C1145.92 1075.87 1143.83 1075.43 1141.84 1074.68C1139.25 1073.73 1136.91 1072.21 1134.98 1070.25C1133.97 1069.19 1133.1 1068.01 1132.38 1066.73C1131.74 1065.54 1131.23 1064.29 1130.87 1062.99C1130.31 1060.86 1130.16 1058.65 1130.42 1056.46C1130.91 1052.82 1132.31 1050.89 1133.11 1051.11C1133.91 1051.33 1134.11 1053.38 1134.77 1056.35C1135.43 1059.32 1136.55 1063.09 1139.41 1065.98C1142.27 1068.87 1146.08 1070.55 1148.97 1071.74C1151.86 1072.93 1153.85 1073.75 1153.78 1074.63Z" fill="#060606"/>
<path d="M1143.8 992.3C1151.87 992.3 1158.41 984.478 1158.41 974.83C1158.41 965.181 1151.87 957.36 1143.8 957.36C1135.73 957.36 1129.19 965.181 1129.19 974.83C1129.19 984.478 1135.73 992.3 1143.8 992.3Z" fill="#050505"/>
<path d="M1211.7 981.06C1218.49 981.06 1224 974.479 1224 966.36C1224 958.242 1218.49 951.66 1211.7 951.66C1204.91 951.66 1199.4 958.242 1199.4 966.36C1199.4 974.479 1204.91 981.06 1211.7 981.06Z" fill="#050505"/>
<path d="M1167.32 935.62C1166.46 937.32 1161.98 936.72 1155.39 935.86C1147 934.708 1138.52 934.31 1130.05 934.67C1121.47 935.219 1112.94 936.261 1104.48 937.79C1097.77 938.86 1093.36 939.38 1092.48 937.79C1091.6 936.2 1094.83 932.5 1101.38 928.92C1110.05 924.391 1119.61 921.82 1129.38 921.39C1134.82 921.108 1140.28 921.525 1145.61 922.63C1149.97 923.515 1154.19 924.95 1158.19 926.9C1165 930.35 1168.12 934.06 1167.32 935.62Z" fill="#060606"/>
<path d="M1225.12 927.07C1223.88 928.47 1221.31 928.32 1218.33 927.86C1216.84 927.64 1215.25 927.34 1213.64 927.18C1212.02 926.986 1210.39 926.912 1208.76 926.96C1205.5 927.149 1202.26 927.597 1199.07 928.3C1196.07 928.83 1193.68 929.03 1192.32 927.78C1190.96 926.53 1191.32 923.64 1193.85 920.46C1195.39 918.599 1197.29 917.071 1199.44 915.97C1202.2 914.515 1205.27 913.718 1208.39 913.64C1211.54 913.544 1214.67 914.191 1217.53 915.53C1219.74 916.553 1221.71 918.032 1223.31 919.87C1225.89 922.98 1226.26 925.73 1225.12 927.07Z" fill="#060606"/>
<path d="M1181.86 1044.54C1178.79 1044.54 1175.72 1044.3 1172.68 1043.81C1172.16 1043.72 1171.7 1043.42 1171.39 1042.99C1171.09 1042.55 1170.97 1042.02 1171.06 1041.5C1171.15 1040.98 1171.45 1040.51 1171.88 1040.21C1172.31 1039.9 1172.85 1039.78 1173.37 1039.87C1173.6 1039.87 1196.05 1043.71 1200.37 1032.56C1203.84 1023.65 1190.32 976.48 1180.37 946.96C1180.29 946.711 1180.25 946.448 1180.27 946.186C1180.29 945.924 1180.36 945.668 1180.47 945.433C1180.59 945.197 1180.75 944.987 1180.95 944.814C1181.15 944.641 1181.38 944.509 1181.62 944.425C1181.87 944.341 1182.14 944.307 1182.4 944.324C1182.66 944.342 1182.92 944.411 1183.15 944.527C1183.39 944.644 1183.6 944.806 1183.77 945.004C1183.94 945.201 1184.08 945.431 1184.16 945.68C1186.74 953.34 1209.16 1020.88 1204.09 1034.01C1200.7 1042.81 1189.86 1044.54 1181.86 1044.54Z" fill="#050505"/>
<path d="M1760.12 2184.19C1722.31 2207.49 1581.44 2215.92 1528.21 2203.85C1474.74 2191.74 1422.21 2181.52 1422.21 2181.52L1425.59 2156.52C1447.13 2166.32 1490.5 2183.63 1536.54 2188.15C1596.22 2194.01 1724.65 2189.15 1760.12 2184.19Z" fill="#F47D65"/>
<path d="M1479.41 236.59C1484.28 233.432 1488 228.783 1490.01 223.338C1492.02 217.893 1492.22 211.943 1490.57 206.377C1488.93 200.811 1485.53 195.926 1480.87 192.452C1476.22 188.978 1470.57 187.101 1464.77 187.101C1458.96 187.101 1453.32 188.978 1448.67 192.452C1444.01 195.926 1440.61 200.811 1438.97 206.377C1437.32 211.943 1437.52 217.893 1439.53 223.338C1441.54 228.783 1445.26 233.432 1450.13 236.59C1425.98 242.37 1408.19 262.07 1408.19 285.48V314H1521.35V285.48C1521.35 262.06 1503.56 242.37 1479.41 236.59Z" fill="#FECD3B"/>
<path d="M1152.21 456.89C1157.08 453.731 1160.8 449.081 1162.82 443.634C1164.83 438.187 1165.03 432.235 1163.38 426.666C1161.73 421.098 1158.33 416.211 1153.68 412.736C1149.02 409.26 1143.37 407.382 1137.56 407.382C1131.76 407.382 1126.11 409.26 1121.45 412.736C1116.8 416.211 1113.4 421.098 1111.75 426.666C1110.1 432.235 1110.3 438.187 1112.31 443.634C1114.33 449.081 1118.05 453.731 1122.92 456.89C1098.77 462.67 1080.98 482.36 1080.98 505.78V534.29H1194.12V505.78C1194.12 482.34 1176.36 462.64 1152.21 456.89Z" fill="#FF2D60"/>
<path d="M928.959 165.72V194.23H815.789V165.72C815.789 137.72 841.129 115.11 872.379 115.11C903.629 115.11 928.959 137.77 928.959 165.72Z" fill="#B2B0A1"/>
<path d="M872.371 121.17C887.233 121.17 899.281 109.122 899.281 94.2601C899.281 79.3981 887.233 67.3501 872.371 67.3501C857.509 67.3501 845.461 79.3981 845.461 94.2601C845.461 109.122 857.509 121.17 872.371 121.17Z" fill="#B2B0A1"/>
<path d="M643.22 501.78C648.093 498.621 651.813 493.971 653.826 488.524C655.839 483.077 656.037 477.125 654.39 471.556C652.742 465.988 649.338 461.101 644.686 457.626C640.034 454.15 634.382 452.272 628.575 452.272C622.768 452.272 617.117 454.15 612.464 457.626C607.812 461.101 604.408 465.988 602.761 471.556C601.114 477.125 601.311 483.077 603.324 488.524C605.337 493.971 609.058 498.621 613.93 501.78C589.78 507.56 571.99 527.25 571.99 550.67V579.18H685.12V550.67C685.12 527.25 667.37 507.55 643.22 501.78Z" fill="white"/>
<path d="M173.58 1726.13C173.58 1742.04 167.259 1757.3 156.006 1768.56C144.754 1779.81 129.493 1786.13 113.58 1786.13C129.484 1786.13 144.738 1792.44 155.989 1803.69C167.24 1814.93 173.567 1830.18 173.58 1846.08C173.593 1830.18 179.921 1814.93 191.171 1803.69C202.422 1792.44 217.676 1786.13 233.58 1786.13C217.667 1786.13 202.406 1779.81 191.154 1768.56C179.902 1757.3 173.58 1742.04 173.58 1726.13Z" fill="#EBE9DA"/>
<path d="M2473.3 697.53C2399.65 690.02 2338.67 613.82 2308.93 569.21H2013.5C1995.35 569.21 1977.95 562.001 1965.11 549.168C1952.28 536.334 1945.07 518.929 1945.07 500.78V325.41C1945.07 307.261 1952.28 289.854 1965.11 277.019C1977.94 264.185 1995.35 256.973 2013.5 256.97H2377.12C2395.27 256.973 2412.67 264.185 2425.51 277.019C2438.34 289.854 2445.55 307.261 2445.55 325.41V500.78C2445.54 516.519 2440.11 531.774 2430.17 543.978C2420.23 556.181 2406.39 564.587 2390.98 567.78C2406.85 617.368 2435.2 662.046 2473.3 697.53Z" fill="#EBE9DA"/>
<path d="M2086.47 411.46C2086.59 417.486 2085.57 423.48 2083.47 429.13C2081.6 434.039 2078.68 438.477 2074.91 442.13C2071.14 445.709 2066.64 448.437 2061.72 450.13C2056.21 452.005 2050.42 452.925 2044.6 452.85C2038.77 452.929 2032.97 451.954 2027.48 449.97C2022.55 448.175 2018.06 445.368 2014.28 441.73C2010.53 438.057 2007.61 433.625 2005.72 428.73C2001.68 417.623 2001.68 405.448 2005.72 394.34C2007.62 389.447 2010.53 385.015 2014.28 381.34C2018.06 377.706 2022.56 374.9 2027.48 373.1C2032.97 371.117 2038.77 370.141 2044.6 370.22C2050.44 370.155 2056.25 371.173 2061.72 373.22C2066.63 375.074 2071.12 377.904 2074.91 381.54C2078.66 385.215 2081.57 389.647 2083.47 394.54C2085.53 399.939 2086.55 405.681 2086.47 411.46ZM2030.47 411.46C2030.47 417.96 2031.72 422.944 2034.23 426.41C2035.4 428.087 2036.97 429.442 2038.8 430.351C2040.64 431.26 2042.67 431.693 2044.71 431.61C2046.74 431.698 2048.76 431.258 2050.57 430.333C2052.38 429.407 2053.91 428.028 2055.03 426.33C2057.43 422.824 2058.63 417.867 2058.63 411.46C2058.63 405.054 2057.4 400.12 2054.95 396.66C2053.74 395.046 2052.17 393.735 2050.36 392.833C2048.56 391.93 2046.57 391.46 2044.55 391.46C2042.53 391.46 2040.54 391.93 2038.74 392.833C2036.93 393.735 2035.36 395.046 2034.15 396.66C2031.71 400.147 2030.49 405.08 2030.48 411.46H2030.47Z" fill="white"/>
<path d="M2175.73 436.25C2175.2 441.27 2173.73 445.11 2171.33 447.77C2168.93 450.43 2165.44 451.763 2160.86 451.77C2157.65 451.822 2154.48 450.962 2151.74 449.29C2148.4 447.003 2145.48 444.162 2143.1 440.89L2127.26 421.06V450.17C2126.09 450.383 2124.35 450.677 2122.06 451.05C2119.75 451.425 2117.4 451.612 2115.06 451.61C2112.95 451.628 2110.84 451.467 2108.75 451.13C2107.05 450.877 2105.43 450.219 2104.03 449.21C2102.69 448.202 2101.65 446.846 2101.03 445.29C2100.27 443.216 2099.93 441.015 2100.03 438.81V346.19C2101.75 345.77 2103.48 345.436 2105.23 345.19C2107.53 344.818 2109.85 344.63 2112.18 344.63C2114.3 344.611 2116.41 344.772 2118.5 345.11C2120.2 345.362 2121.82 346.021 2123.22 347.03C2124.56 348.04 2125.59 349.395 2126.22 350.95C2126.98 353.023 2127.31 355.225 2127.22 357.43V399.66L2154.74 371.5C2160.28 371.5 2164.73 372.726 2168.1 375.18C2171.47 377.633 2173.13 380.727 2173.1 384.46C2173.12 385.965 2172.85 387.459 2172.3 388.86C2171.68 390.338 2170.85 391.714 2169.82 392.94C2168.51 394.528 2167.07 396 2165.51 397.34C2163.75 398.89 2161.69 400.67 2159.35 402.7L2150.07 410.7L2175.73 436.25Z" fill="white"/>
<path d="M2388.65 356.18H2219.7C2214.68 356.18 2210.61 360.25 2210.61 365.27C2210.61 370.29 2214.68 374.36 2219.7 374.36H2388.65C2393.67 374.36 2397.74 370.29 2397.74 365.27C2397.74 360.25 2393.67 356.18 2388.65 356.18Z" fill="white"/>
<path d="M2314.33 395.62H2219.7C2214.68 395.62 2210.61 399.69 2210.61 404.71C2210.61 409.73 2214.68 413.8 2219.7 413.8H2314.33C2319.35 413.8 2323.42 409.73 2323.42 404.71C2323.42 399.69 2319.35 395.62 2314.33 395.62Z" fill="white"/>
<path d="M2350.45 431.74H2219.7C2214.68 431.74 2210.61 435.81 2210.61 440.83C2210.61 445.85 2214.68 449.92 2219.7 449.92H2350.45C2355.47 449.92 2359.54 445.85 2359.54 440.83C2359.54 435.81 2355.47 431.74 2350.45 431.74Z" fill="white"/>
<path d="M3525.58 678.27C3633.06 678.27 3720.19 591.14 3720.19 483.66C3720.19 376.18 3633.06 289.05 3525.58 289.05C3418.1 289.05 3330.97 376.18 3330.97 483.66C3330.97 591.14 3418.1 678.27 3525.58 678.27Z" fill="#B2B0A1"/>
<path d="M3649.04 607.13C3717.23 538.941 3717.23 428.384 3649.04 360.194C3580.85 292.005 3470.3 292.005 3402.11 360.194C3333.92 428.384 3333.92 538.941 3402.11 607.13C3470.3 675.32 3580.85 675.32 3649.04 607.13Z" fill="#CAE2F5"/>
<path d="M3531.28 409.35C3531.26 437.635 3528.58 465.856 3523.28 493.64C3512.59 437.952 3512.59 380.738 3523.28 325.05C3528.58 352.837 3531.26 381.061 3531.28 409.35Z" fill="#381746"/>
<path d="M3481.52 526.22C3493.17 513.21 3506.71 502.025 3521.68 493.04C3507.45 525.181 3483.57 552.094 3453.35 570.04C3460.49 554.103 3469.99 539.331 3481.52 526.22Z" fill="#381746"/>
<path d="M3522.55 499.46C3527.27 499.46 3531.1 495.632 3531.1 490.91C3531.1 486.188 3527.27 482.36 3522.55 482.36C3517.83 482.36 3514 486.188 3514 490.91C3514 495.632 3517.83 499.46 3522.55 499.46Z" fill="#381746"/>
<path d="M3056.5 1709.53C3055.87 1709.53 3055.24 1709.38 3054.68 1709.09C3054.11 1708.8 3053.63 1708.38 3053.26 1707.87C3052.89 1707.35 3052.64 1706.76 3052.55 1706.13C3052.45 1705.5 3052.51 1704.86 3052.71 1704.26L3092.63 1584.5C3092.97 1583.49 3093.69 1582.66 3094.64 1582.19C3095.58 1581.71 3096.68 1581.63 3097.69 1581.97C3098.7 1582.31 3099.53 1583.03 3100 1583.98C3100.48 1584.92 3100.56 1586.02 3100.22 1587.03L3060.3 1706.79C3060.03 1707.59 3059.53 1708.28 3058.84 1708.77C3058.16 1709.27 3057.34 1709.53 3056.5 1709.53Z" fill="#0C0A0A"/>
<path d="M121.569 998.34C121.569 998.34 98.7695 1134.45 141.099 1164.41L301.969 1153.99C301.969 1153.99 283.729 1130.55 280.469 1099.99C277.209 1069.43 277.219 998.39 277.219 998.39L121.569 998.34Z" fill="#FECD3B"/>
<path d="M141.311 960.59C141.311 960.59 139.141 1028.05 143.161 1031.23C150.783 1029.6 158.223 1027.22 165.371 1024.12C165.371 1024.12 159.441 966.69 159.441 959.58C159.441 952.47 141.311 960.59 141.311 960.59Z" fill="#050505"/>
<path d="M525.81 974.12C525.81 974.12 448.5 1079.5 474.16 1124.57L624.29 1183.28C624.29 1183.28 617.7 1154.28 627.72 1125.21C637.74 1096.14 667.81 1031.79 667.81 1031.79L525.81 974.12Z" fill="#6799FC"/>
<path d="M536.651 940.19C536.651 940.19 530.221 1007.38 534.031 1010.81C541.741 1009.66 549.319 1007.76 556.651 1005.11C556.651 1005.11 554.371 947.42 554.821 940.32C555.271 933.22 536.651 940.19 536.651 940.19Z" fill="#050505"/>
<path d="M2122.28 842.6C2133.5 842.6 2142.6 833.502 2142.6 822.28C2142.6 811.058 2133.5 801.96 2122.28 801.96C2111.06 801.96 2101.96 811.058 2101.96 822.28C2101.96 833.502 2111.06 842.6 2122.28 842.6Z" fill="white"/>
<path d="M2214.01 843.07C2225.23 843.07 2234.33 833.973 2234.33 822.75C2234.33 811.528 2225.23 802.43 2214.01 802.43C2202.79 802.43 2193.69 811.528 2193.69 822.75C2193.69 833.973 2202.79 843.07 2214.01 843.07Z" fill="white"/>
<path d="M2295.27 842.6C2306.49 842.6 2315.59 833.502 2315.59 822.28C2315.59 811.058 2306.49 801.96 2295.27 801.96C2284.05 801.96 2274.95 811.058 2274.95 822.28C2274.95 833.502 2284.05 842.6 2295.27 842.6Z" fill="white"/>
</g>
<defs>
<clipPath id="clip0_137174_556">
<rect width="3979" height="2782" fill="white"/>
</clipPath>
</defs>
</svg>
