<svg width="31" height="26" viewBox="0 0 31 26" fill="none" xmlns="http://www.w3.org/2000/svg">
<path d="M13.95 3.27507L8.475 13.4751L5.025 14.4501C5.425 13.7001 5.875 13.1001 6.375 12.6501C6.875 12.1501 7.45 11.9001 8.1 11.9001C9.55 11.9001 10.85 12.5001 12 13.7001C13.2 14.8501 13.8 16.3501 13.8 18.2001C13.8 20.1501 13.125 21.8251 11.775 23.2251C10.475 24.6251 8.85 25.3251 6.9 25.3251C5.05 25.3251 3.425 24.6501 2.025 23.3001C0.675 21.9001 0 20.2001 0 18.2001C0 17.4001 0.15 16.4751 0.45 15.4251C0.8 14.3751 1.425 13.0001 2.325 11.3001L8.325 0.200073L13.95 3.27507ZM30.825 3.27507L25.35 13.4751L21.975 14.4501C22.325 13.7001 22.75 13.1001 23.25 12.6501C23.8 12.1501 24.375 11.9001 24.975 11.9001C26.425 11.9001 27.75 12.5001 28.95 13.7001C30.15 14.8501 30.75 16.3501 30.75 18.2001C30.75 20.1501 30.075 21.8251 28.725 23.2251C27.425 24.6251 25.8 25.3251 23.85 25.3251C22 25.3251 20.375 24.6501 18.975 23.3001C17.625 21.9001 16.95 20.2001 16.95 18.2001C16.95 17.4001 17.1 16.4751 17.4 15.4251C17.7 14.3751 18.3 13.0001 19.2 11.3001L25.275 0.200073L30.825 3.27507Z" fill="#D1B06B"/>
</svg>
